<svg xmlns="http://www.w3.org/2000/svg" viewBox="0 0 107.4 56.5">
  <g fill="#888888">
    <path d="M7.6,41.6c-1.5,0-2.5,1.3-2.5,3.5c0,2.6,1,3.5,2.6,3.5c1.4,0,2.4-1.2,2.4-3.2C10.1,42.7,9.2,41.6,7.6,41.6M7.4,52c-4.5,0-6.7-2.5-6.7-6.4V33.9h1.1c2.5,0,3.3,0.8,3.3,2.9v3.1c0.8-1,1.5-1.8,3.3-1.8c3.6,0,6.2,2.5,6.2,6.8C14.6,49.3,11.6,52,7.4,52 M85.7,48.6c1.5,0,2.5-1.3,2.5-3.5c0-2.6-1-3.5-2.6-3.5c-1.4,0-2.4,1.2-2.4,3.2C83.3,47.5,84.1,48.6,85.7,48.6 M85.9,38.1c4.5,0,6.7,2.5,6.7,6.4v7.2h-1.1c-2.5,0-3.1-1.5-3.1-1.5c-0.8,1-1.7,1.9-3.5,1.9c-3.6,0-6.2-2.5-6.2-6.8C78.7,40.8,81.7,38.1,85.9,38.1 M31.7,48.6c1.5,0,2.5-1.3,2.5-3.5c0-2.6-1-3.5-2.6-3.5c-1.4,0-2.4,1.2-2.4,3.2C29.3,47.5,30.1,48.6,31.7,48.6 M32,38.1c4.5,0,6.7,2.5,6.7,6.4v7.2h-1.1c-2.5,0-3.1-1.5-3.1-1.5c-0.8,1-1.7,1.9-3.5,1.9c-3.6,0-6.2-2.5-6.2-6.8C24.7,40.8,27.8,38.1,32,38.1 M24.1,41.9c-0.6-0.2-1-0.3-1.6-0.3c-1.1,0-1.9,0.6-1.9,2.1v7.9h-1.2c-1.9,0-3.2-0.9-3.2-3.1v-5.7c0-2.7,1.8-4.8,4.8-4.8c2.3,0,3.3,1,3.3,2.1v1.7C24.3,41.8,24.1,41.9,24.1,41.9z M44.7,51.8c-2.4,0-4.3-1.2-4.3-4.3v-8.7h1.1c2.6,0,3.4,0.8,3.4,3.1v4.8c0,1.2,0.6,1.5,1.8,1.5h0.6v1.3C47.3,51.3,46.1,51.8,44.7,51.8 M59.6,51.7c-2,0-2.6-0.7-2.6-2.7v-4.6c0-1.8-0.6-2.6-2.1-2.6c-1.3,0-2,0.9-2,2.5v7.4h-1.5c-1.9,0-3-0.8-3-2.7v-4.6c0-3.8,2.5-6.2,6.7-6.2c4.7,0,6.6,2.5,6.6,6.4v7.2h-2.1L59.6,51.7z M70.2,41.6c-1.5,0-2.5,1.3-2.5,3.5c0,2.6,1,3.5,2.6,3.5c1.4,0,2.4-1.2,2.4-3.2C72.7,42.7,71.8,41.6,70.2,41.6 M70,52c-4.5,0-6.7-2.5-6.7-6.4V33.9h1.1c2.5,0,3.3,0.8,3.3,2.9v3.1c0.8-1,1.5-1.8,3.3-1.8c3.6,0,6.2,2.5,6.2,6.8C77.3,49.3,74.3,52,70,52 M104,48.2c-3.7,7.1-4.6,7.8-7.4,7.8c-1.5,0-2.7-0.8-2.7-2.3v-1.1l1.9-0.2c1.2-0.1,1.7-0.6,2.2-1.7c-1.9-2.8-4.3-8.8-4.8-12.3h2.4c1.1,0,2.3,0.7,2.6,1.9c0.4,2.1,1.3,4.6,2.1,6.2c1-2,2-5.5,2.3-8.1h2.2c1.3,0,1.9,0.6,1.9,1.7C106.7,41.5,105.5,45.4,104,48.2"/>
    <path d="M29.5,22.6h-0.2c-0.3-0.1-0.6-0.3-0.9-0.9c-0.4-1-0.4-3,0.2-4.5c0.1-0.2,0.2-0.4,0.3-0.5c0.8-1.1,1-2.3,0.9-3.1c-0.1-0.6,0.2-1.3,0.6-2.1c0.5-0.7,1-0.9,1.3-1c0.3,0,0.6,0,0.7,0.2c0.2,0.2,0.3,0.5,0.3,1c0,0.8-0.4,1.7-1,2.3c-1,1.2-1,2.2-0.6,3.4c0.6,1.5,0.2,3.6-0.6,4.6C30.1,22.5,29.8,22.6,29.5,22.6 M42.5,33.8c-1.7,0-3-1.3-3-2.9s1.3-2.9,3-2.9s3,1.3,3,2.9S44.2,33.8,42.5,33.8"/>
    <path d="M40.5,13.5c-1.7,0-2.6,1.9-3,3c-0.2,0.7-1,1.6-1,1.6c-0.8,0.8-1.1,1.7-1.1,2.5c0,0.5,0.2,1,0.6,1.3c0.2,0.1,0.3,0.2,0.6,0.1c0.7-0.2,1.7-1.3,2-2.4c0.1-0.4,0.2-0.7,0.4-1c1-1.5,1.8-2.5,4.1-1.6c2,0.8,3.3,0.2,4.1-1.9c0.1-0.4,0.3-0.7,0.5-1s0.5-0.5,0.8-0.7c1.1-0.8,1.8-1.8,1.7-2.6c0-0.4-0.2-0.8-0.6-1c-0.4-0.3-0.9-0.4-1.4-0.2c-1,0.3-2,1.2-2.5,2.5c-0.5,1.2-1.3,1.8-2.5,2.1c-0.8,0.2-1,0.2-1.5,0h-0.2c-0.2,0-0.4-0.2-0.6-0.3C40.8,13.7,40.6,13.5,40.5,13.5M50.7,28.7c-1.2,0-2.2-0.6-2.9-1.4c-0.7-1-0.8-2.1-0.2-3.2c0.2-0.3,0.4-0.5,0.6-0.7c0.8-0.8,1.3-2.1,1.1-3c-0.1-0.4-0.3-0.8-0.6-0.9c-0.5-0.2-1-0.2-1.5,0c-0.8,0.3-1.3,1.1-1.7,2.1c-0.4,1.5-1.5,2.5-3.1,2.7c-0.5,0-1,0-1.5-0.2c-1.2-0.4-2.1-0.3-2.7,0.1c-0.5,0.4-0.8,1-0.9,1.9c-0.2,1.4-1,2.2-2.2,2.3c-0.9,0-1.8-0.5-2.4-1.3c-0.8-1.2-1.1-2.7-0.6-4c0.1-0.3,0.2-0.4,0.4-0.6l0.1-0.2c1-1.2,1-3,0.2-4.4c-0.6-1-0.6-2.3,0.1-3.5c0.1-0.2,0.2-0.3,0.3-0.4l0.2-0.2l0.2-0.2c0.8-1,1.8-2.4,0.7-3.3C34,10,33.8,9.6,33.9,9.1s0.3-0.8,0.4-1c0.1-0.2,0.3-0.4,0.4-0.4C36,6.4,35.9,6,35.9,6h-0.3h-0.1c-0.3,0-0.4,0-0.5-0.1s-0.2-0.2-0.2-0.5s0.2-0.6,0.4-0.8c0.7-0.6,1.5-0.9,2.3-1.2l0.3-0.1c0.5-0.2,0.8-0.2,1.1-0.1c0.7,0.3,2.3-0.2,3.4-0.4l0.2-0.1c1.4-0.4,1.9-0.4,2.2-0.4c0.8,0,2.9-0.2,3.4-1c0.1-0.2,0.2-0.3,0.4-0.4c1.1-0.6,3.2-0.5,5,0.1c1,0.3,1.7,0.8,2,1.2c1,1.2,2.1,1.7,3.9,2.3h0.1c0.9,0.4,1.8,1,2.5,1.7c1,1,1.4,2.1,1,2.9c-0.2,0.5-0.7,0.7-1.3,0.7c-1.9-0.1-4.2-2.1-4.8-3.7c-0.4-1-1.1-2.1-3.7-2.3c-0.8,0-1.7-0.1-2.5-0.4c-1.9-0.4-2.9-0.1-3.6,1c-0.2,0.4-0.5,0.7-1,1c-1.6,1.2-3.7,1.2-4.9,0.8C40.5,6,40.1,5.5,40,5c-0.1-0.2-0.2-0.4-0.4-0.5c-0.4-0.2-1.1-0.2-1.7,0.1C37.2,5,37,5.5,37.1,5.8c0,0.2,0.2,0.4,0.7,0.6c0.3,0.2,0.5,0.4,0.6,0.7v0.1c0.1,0.3,0.3,1.2,0.7,1.4c0.5,0.3,1.4,0.1,3-0.4h0.1c0.6-0.2,1.2-0.1,1.6-0.1c1.8,0.1,3.8,0,4.8-1.9c0-0.1,0.1-0.2,0.1-0.2c0.1-0.2,0.2-0.3,0.3-0.4c1.6-1.5,3.9-0.8,5,0c0.6,0.5,1.1,1,1.2,1.7c0.6,2.1,1.7,2.6,3.7,3.1c1.2,0.2,2.2,1.1,2.7,1.8c0.9,1.3,1.1,2.9,0.5,3.9c-0.5,0.8-1.3,1.1-2.3,0.9c-1.9-0.3-3.5-2.1-3.7-3.9c-0.2-1.2-1-2.5-1.8-2.9c-0.2-0.1-0.6-0.2-0.9-0.1c-0.2,0.1-0.4,0.3-0.4,0.7c-0.2,0.9,0.2,2.3,0.6,2.9c0.7,0.8,1.1,1.7,1,2.8c-0.1,1-0.6,1.9-1.3,2.5L53,19.2c-0.8,0.6-1.2,1.3-1.3,1.9c-0.1,1,0.6,1.8,1.1,2.3c0.8,0.9,1.1,2.1,0.8,3.1s-1.2,1.6-2.3,1.8C51.1,28.7,50.9,28.7,50.7,28.7"/>
  </g>
</svg>
