<svg xmlns="http://www.w3.org/2000/svg" viewBox="0 0 300 120">
  <path d="M3.6 10.1h292.8v109.8H3.6V10.1z" fill="none"/><path d="M214.9 97.9c-9 0-17.8-3.3-24.5-9.3a3.1 3.1 0 0 1-.3-4.4 3.1 3.1 0 0 1 4.4-.3 30.4 30.4 0 0 0 40.7 0c1.3-1.1 3.3-1 4.4.3 1.1 1.3 1 3.3-.3 4.4-6.6 6-15.4 9.3-24.4 9.3zM33.8 81.5c3.2 1.5 6.8 2.4 10.4 2.4 3.9 0 7.1-1.1 9.4-3.2C56.4 78.1 57 74 57 69.5V54.4c0-4.3-3.1-11-12.9-11-6 0-12.9 3.1-12.9 12.6 0 5 .6 8.4 2.5 10.8 2.5 3.2 6.8 4.4 10.3 4.4 2.3-.1 4.5-.5 6.7-1.1v.8c0 4.4-.9 7.4-6.5 7.4a21 21 0 0 1-7.8-2 3 3 0 0 0-4.3 2.7c0 1 .7 2 1.7 2.5zm16.9-17.2c-2.1.6-4.3.9-6.5 1.1-3.8 0-6.9-1.3-6.9-7v-2.2c0-5.6 3.1-7.1 6.9-7.1 6.2 0 6.5 4 6.5 6.1v9.1zM76 43.4c-3.3 0-8.1.8-10.8 4.8a16.7 16.7 0 0 0-2.3 9.1c0 4.1.4 7.4 1.6 9.7 2.2 4.3 7.3 5.8 11.5 5.8 3.5-.1 7-1 10.1-2.6a3 3 0 0 0 1.3-3.9 3 3 0 0 0-3.6-1.4C80.8 66 78 67 76 67c-4 0-6.2-1.6-6.6-4.8l-.1-1.5H86c1.7 0 3.1-1.4 3.1-3.1 0-3.9-.8-7.4-2.3-9.4-2.8-4.1-7.5-4.9-10.8-4.8m-6.8 12.4l.1-1.8c.5-3.2 2.6-4.8 6.6-4.8s6.2 1.6 6.6 4.8l.1 1.8H69.2zm36 14a3 3 0 0 1-3 3c-.6 0-1.2-.2-1.8-.6a10.8 10.8 0 0 1-5.4-10V35.3c0-1.7 1.4-3.1 3.1-3.1s3.1 1.4 3.1 3.1v26.9c0 2.7.6 3.7 2.4 5 1 .6 1.6 1.5 1.6 2.6zm17.2 2.9c9.6 0 12.9-7 12.9-11V35.3c0-1.7-1.4-3.1-3.1-3.1a3.1 3.1 0 0 0-3.1 3.1v9.5c-2.1-1-4.4-1.5-6.7-1.4-7 0-13.2 3.2-13.2 12.7v4c0 8.3 5 12.6 13.2 12.6zm6.7-12.4c0 2.3-.3 6.7-6.6 6.7-3.9 0-7-.9-7-7.7v-2.4c0-6.8 3.1-7.6 7-7.6 2.4 0 6.6 1.3 6.6 1.3v9.7zm31.3-14c2.1-2 4.8-3 7.6-3 6.5 0 10.8 4.1 10.8 10v16.3c0 1.7-1.4 3.1-3.1 3.1a3.1 3.1 0 0 1-3.1-3.1V53.4c0-2.6-1.5-4.2-4.5-4.2s-4.5 1.6-4.5 4.2v16.2c0 1.7-1.4 3.1-3.1 3.1a3.1 3.1 0 0 1-3.1-3.1V53.4c0-2.6-1.5-4.2-4.5-4.2s-4.5 1.6-4.5 4.2v16.2c0 1.7-1.4 3.1-3.1 3.1a3.1 3.1 0 0 1-3.1-3.1V53.4c0-5.9 4.3-10 10.8-10 2.6-.1 5.3 1 7.4 2.9zm37.5-3c-6 0-12.9 2.4-12.9 12.7v4c0 10.3 6.3 12.7 12.2 12.7 2.7-.1 5.3-.6 7.8-1.5a3 3 0 0 0 4.3 1c.9-.6 1.5-1.6 1.5-2.6V54.4c0-3.8-3.1-11-12.9-11.1zm6.6 22.5c-2.1.6-4.3.9-6.5 1.1-3.8 0-6.9-.5-6.9-7.6v-2.4c0-7.2 3.1-7.7 6.9-7.7 6.2 0 6.5 4.4 6.5 6.7v9.9zm24.7-22.5c-6 0-12.9 2.4-12.9 12.7v4c0 10.3 6.3 12.7 12.2 12.7 2.7-.1 5.3-.6 7.8-1.5a3 3 0 0 0 4.3 1c.9-.6 1.5-1.6 1.5-2.6V54.4c0-3.8-3.1-11-12.9-11.1zm6.7 22.5c-2.1.6-4.3.9-6.5 1.1-3.8 0-6.9-.5-6.9-7.6v-2.4c0-7.2 3.1-7.7 6.9-7.7 6.2 0 6.5 4.4 6.5 6.7v9.9zm24.6 6.9c-6 0-12.2-2.4-12.2-12.7V37.4c0-1.7 1.4-3.1 3.1-3.1 1.7 0 3.1 1.4 3.1 3.1v6.5h7.8c1.6.1 2.8 1.4 2.7 3-.1 1.5-1.3 2.7-2.7 2.7h-7.8v9.7c0 7.2 3 7.6 6.8 7.6 1.4-.1 2.8-.3 4.1-.7 1.5-.4 3 .5 3.4 2 .4 1.5-.5 3-2 3.4-2 .7-4.2 1.1-6.3 1.1z" fill="#888"/>
</svg>
