<svg width="300" height="120" xmlns="http://www.w3.org/2000/svg" xmlns:xlink="http://www.w3.org/1999/xlink"><defs><path d="M37.25232 85.03292l.07588.00168c.35392.01554.70602.14042 1.00324.37898l2.9232 2.34766.05082.04242c.69734.60466.79758 1.65746.21476 2.38238l-.04984.05936c-.3388.38584-.81508.58576-1.29612.58576l-.07588-.00168c-.35406-.01554-.70616-.13972-1.00352-.37814l-2.92334-2.34808-.05082-.04242c-.69706-.60452-.79646-1.6569-.21406-2.38238.3409-.42434.84098-.64554 1.34568-.64554zm11.23542.31318l.07462.00168c.3486.01526.69566.13762.9884.37254l2.33884 1.87908.05124.04284c.68516.59528.78274 1.63114.20916 2.34542l-.049.05838c-.33348.37954-.80304.57652-1.27624.57652l-.07476-.00168c-.34874-.01526-.69566-.1379-.98826-.37366l-2.3387-1.87852-.05124-.0427c-.68558-.59528-.78302-1.63142-.20916-2.34556.33586-.41762.82852-.63434 1.3251-.63434zm11.23542.31248l.0735.00168c.343.01498.68474.13552.97286.36778l1.75448 1.4084.05152.04326c.67354.58646.76916 1.60566.20482 2.3086l-.05082.06006c-.32844.37142-.78946.56434-1.25426.56434l-.07364-.00168c-.343-.01498-.68488-.13552-.97286-.36722l-1.7542-1.40854-.05166-.04312c-.67396-.58646-.7693-1.60566-.20468-2.30832.33026-.41118.8155-.62524 1.30494-.62524zm11.27784.31248l.07224.00168c.33712.01484.67382.13384.95774.36134l1.16928.9394.05082.04256c.66318.57722.75754 1.58088.20202 2.27248l-.04998.05922c-.32312.36624-.777.55692-1.23452.55692l-.07238-.00168c-.3381-.01484-.67452-.1344-.95816-.3619l-1.16928-.93926-.05082-.04242c-.66318-.5775-.75782-1.5806-.20202-2.27304.32508-.4046.80262-.6153 1.28506-.6153zm33.58754.95858l.05964.00112c.83188.03136 1.49674.71582 1.49674 1.55526l-.00112.05978c-.03136.8316-.71568 1.49618-1.55526 1.49618l-.05964-.00112c-.83188-.03136-1.49674-.71554-1.49674-1.55484 0-.85946.69678-1.55638 1.55638-1.55638zm-22.25342-.64582l.0763.00182c.33026.01554.65912.13244.93702.35546l.58464.46928.05138.04284c.65198.56812.74424 1.55512.19754 2.23566l-.049.05824c-.31752.36064-.76482.5481-1.21534.5481l-.07112-.00154c-.33208-.01456-.66318-.1316-.9422-.35602l-.58492-.46928-.05124-.04284c-.6517-.56812-.74438-1.55484-.19824-2.23538.3206-.39914.79058-.60634 1.26518-.60634zm11.37794.3136l.07854.00196c.0784.00392.1568.01386.23478.02996l.07602.0154c.07504.01834.14798.04466.22106.07336l.07252.03094c.0714.03332.13958.07308.20328.11788l.06524.04354c.0637.04578.12264.09758.17682.15148l.05348.0581c.05236.05894.10122.12124.14574.18816l.04046.06496c.03934.0665.07518.13664.10388.20608l.02954.07392c.0273.07462.04802.15106.06398.22764l.01358.077c.01134.07756.0161.15638.0161.2324l-.00168.07546c-.0182.40026-.18158.76958-.46508 1.0528l-.05796.05348c-.0588.0525-.12012.10178-.1841.1463l-.06692.0406c-.06706.03962-.13538.07546-.20888.10374l-.07126.02954c-.07266.02716-.14896.04816-.22582.0637l-.07714.0119c-.0777.01078-.15694.01792-.23674.01792l-.07462-.00182c-.3962-.0182-.7658-.18158-1.05378-.46536l-.0511-.05404c-.26502-.29386-.4158-.67018-.4158-1.07422l.00238-.07686c.00462-.07742.01582-.15624.0315-.23254l.01778-.07644c.01932-.0763.04312-.15204.07126-.22512l.03304-.06944c.03402-.06958.07126-.13818.11578-.2016l.04354-.06538c.04578-.06398.09758-.1239.15162-.18088l.05824-.05306c.05908-.05208.12096-.1008.1876-.14196l.06524-.04312c.06664-.0413.13692-.077.20692-.1057l.07378-.02772c.07448-.02646.15092-.04858.2275-.06104.10164-.02156.20552-.03192.30968-.03192zM15.99822 75.09838l.07896.00168c.44674.01974.88648.2072 1.21688.55902l3.1675 3.37554.04564.05068c.62342.71736.57316 1.80572-.12586 2.46148l-.06132.05502c-.33236.28448-.74368.42574-1.15388.42574l-.07896-.00182c-.44702-.01974-.88704-.20706-1.2173-.55902l-3.16736-3.37526-.04564-.05068c-.62398-.71736-.57358-1.80586.12572-2.46162.343-.3213.7798-.48076 1.21562-.48076zm11.03816.1302l.07784.00168c.44044.01946.87416.2044 1.19938.55146l2.71446 2.89296.04606.0511c.61376.70714.56364 1.77856-.12474 2.42452l-.06062.05418c-.32816.2807-.73318.41986-1.13708.41986l-.07784-.00182c-.44044-.01946-.87416-.20468-1.19938-.55118l-2.71474-2.89324-.04606-.0511c-.6139-.70714-.56336-1.77842.12474-2.4241.33824-.3171.76818-.47432 1.19798-.47432zm11.04992.13146l.07658.00168c.434.01918.86142.20076 1.18132.5425l2.26268 2.41108.04648.05152c.60298.6965.55342 1.75112-.1246 2.387l-.06342.05656c-.322.27426-.71974.41048-1.11636.41048l-.07658-.00168c-.43358-.01918-.86058-.20146-1.1816-.54278l-2.26212-2.41164-.04648-.05152c-.6034-.69608-.55398-1.7507.12404-2.38658.33292-.3122.75698-.46662 1.18006-.46662zm11.0502.13048l.07546.00168c.42728.01876.8477.19768 1.16284.53438l1.81006 1.92906.04578.05068c.59458.68572.54586 1.72396-.1218 2.35018l-.06244.05586c-.31766.27006-.70924.40446-1.10012.40446l-.07532-.00168c-.427-.01876-.84728-.19796-1.16354-.53494l-1.8095-1.92808-.04578-.05082c-.5943-.68586-.54558-1.72424.1218-2.35074.32774-.30786.74592-.46004 1.16256-.46004zm11.04992.13048l.0742.00168c.42028.01862.83454.19572 1.14562.52654l1.35744 1.4469.0462.05124c.58394.6755.53536 1.6968-.12138 2.31294l-.0616.05488c-.31276.26614-.69818.39816-1.08276.39816l-.0742-.00154c-.4207-.01862-.83524-.1953-1.14632-.52696l-1.3573-1.44662-.04606-.05124c-.58394-.6755-.53536-1.6968.1218-2.31266.3227-.30296.73346-.45332 1.14436-.45332zm11.09206.13104l.07742.00182c.41258.01932.81844.1932 1.12392.51814l.90426.96446.0455.0504c.57498.66472.52738 1.6702-.119 2.27696l-.06062.05418c-.30786.26236-.68698.39172-1.06624.39172l-.07742-.00182c-.41272-.01932-.81872-.19306-1.12336-.5187l-.90482-.96432-.0455-.0504c-.57456-.66416-.52724-1.66992.119-2.2764.31836-.29848.72282-.44604 1.12686-.44604zm11.14876.13118l.07616.00182c.40628.0189.80612.1897 1.10628.50932l.45178.48258.04592.05096c.56476.65394.51716 1.64276-.11816 2.24l-.05964.0532c-.30338.2576-.67704.38458-1.0493.38458l-.07616-.00182c-.406-.0189-.80556-.18928-1.106-.5096l-.45234-.48216-.04578-.05082c-.56448-.65422-.5173-1.64304.11886-2.24.31276-.29302.71106-.43806 1.10838-.43806zm22.022.28028l.05964.00112c.83188.03136 1.4973.71568 1.4973 1.55498l-.00112.05978c-.0315.83202-.71624 1.49688-1.55582 1.49688l-.05978-.00112c-.83202-.03136-1.49618-.71568-1.49618-1.55554 0-.85918.69608-1.5561 1.55596-1.5561zm-10.8164-.14868l.07518.00168c.07546.00364.15092.0126.2254.0273l.07616.01764c.07588.01932.15078.04396.22078.07602l.07224.0308c.0714.0329.14014.0721.2037.1134l.06538.04578c.06356.04746.12208.09912.17654.1533l.0448.04424c.05824.06034.11032.1267.15428.19824l.04228.0651c.04018.0665.07448.13706.10626.20972l.02702.07182c.02548.07294.0462.1491.06202.2254l.01442.07728c.01246.07784.01946.15722.01946.23674l-.00224.07714c-.00448.07756-.01554.15638-.03164.23268l-.01568.0763c-.01848.07602-.0448.15078-.07336.22022l-.03094.0728c-.0329.07154-.07196.13986-.11326.20342l-.04606.06342c-.0476.063-.09996.12418-.15736.1785l-.04438.0448c-.06048.05824-.126.11032-.19754.15442l-.0651.04298c-.06664.04116-.13692.07686-.2065.1057l-.07336.02688c-.07336.02548-.14728.04634-.22358.06258l-.07952.01316c-.07938.0112-.1589.01624-.23856.01624l-.07714-.00168c-.0777-.0035-.15666-.01246-.23324-.02772l-.07588-.01778c-.07574-.01932-.15036-.04326-.22064-.07168l-.07182-.03108c-.07056-.03318-.13734-.07294-.2044-.1176l-.06314-.04368c-.06286-.04578-.12404-.09814-.17794-.15554l-.05586-.05642c-.05404-.05838-.10234-.1218-.14392-.1855l-.04228-.0651c-.04018-.0665-.07448-.13734-.10612-.21112l-.02716-.07098c-.02562-.07252-.0462-.1491-.06174-.22554l-.01358-.077c-.01162-.07756-.01666-.15624-.01666-.23282l.00168-.07938c.00364-.07924.01274-.15792.02856-.23464l.01736-.07616c.01904-.07588.04368-.15064.07532-.22106l.03094-.07182c.03304-.07112.0721-.13944.11368-.203l.0462-.06552c.0476-.06398.09898-.1232.15358-.17696.29792-.2982.71512-.46592 1.13736-.46592zM7.257446 64.09536l.069776.0014c.557494.02142 1.096802.30016 1.43052.79912l3.043264 4.54916.035756.05558c.507584.8218.277102 1.90428-.532364 2.44552l-.071638.0455c-.289338.175-.610946.25914-.929362.25914l-.069734-.0014c-.55727-.02142-1.096578-.30044-1.430562-.79884l-3.042718-4.54916-.035756-.05572c-.507584-.82222-.277102-1.90442.532364-2.4458.307356-.20594.65632-.3045 1.000454-.3045zm10.799754.16674l.07168.0014c.54852.02226 1.07912.29694 1.40742.78722l2.6621 3.98062.03598.05614c.49924.80962.27244 1.87586-.52486 2.40898l-.0707.04508c-.28546.17248-.60284.2555-.91574.2555l-.07168-.0014c-.54824-.02212-1.07884-.29722-1.40658-.78778l-2.66322-3.9809-.03598-.056c-.49868-.80934-.27188-1.87572.52528-2.4087.30366-.203.64666-.30016.9863-.30016zm10.74906.16646l.07042.0014c.54012.0217 1.06316.29232 1.38628.77602l2.28228 3.41236.03556.05516c.49196.79716.2681 1.84814-.51772 2.37328l-.06958.04438c-.28084.16982-.5929.25172-.90188.25172l-.07042-.0014c-.54012-.0217-1.06274-.29232-1.38656-.77602l-2.28172-3.41236-.03556-.05516c-.49238-.79716-.26866-1.84814.51688-2.37356.29932-.20062.63742-.29582.97202-.29582zm10.76054.1666l.06944.0014c.53214.02142 1.04762.2884 1.3664.76482l1.90162 2.84382.0357.05558c.48342.78582.26292 1.81944-.51086 2.33716l-.0686.04368c-.27706.16716-.58408.24794-.88872.24794l-.06944-.0014c-.53186-.02142-1.04678-.2884-1.36584-.76524l-1.90162-2.84284-.035-.05446c-.48468-.78638-.26432-1.82126.51016-2.33912.294-.19712.62706-.29134.95676-.29134zm10.7611.16758l.06832.0014c.52416.021 1.0311.28336 1.34526.75264l1.5211 2.27472.03528.05488c.47656.7742.25942 1.79228-.50288 2.30146l-.06748.04298c-.27258.16464-.5754.2443-.87542.2443l-.06846-.0014c-.52374-.02114-1.03082-.28378-1.3447-.75264l-1.52194-2.275-.03528-.05488c-.476-.77406-.25858-1.79256.50316-2.30174.29008-.19418.61838-.28672.94304-.28672zm10.76082.16688l.06734.0014c.5159.02072 1.01514.27916 1.32412.74144l1.14086 1.70506.03472.05404c.46928.76202.25536 1.76526-.4942 2.26688l-.07224.04578c-.26768.16002-.56406.23688-.8568.23688l-.06748-.0014c-.5159-.02072-1.015-.2793-1.3244-.74158L59.6995 67.5325l-.03472-.05404c-.46886-.76202-.2548-1.76484.49476-2.26632.28616-.19096.60914-.28252.92918-.28252zm10.80212.1673l.06916.0014c.50708.02128.99764.27552 1.30144.72926l.76076 1.13736.03486.05446c.4606.74984.2499 1.736-.48776 2.22992l-.07112.04494c-.26348.15736-.55468.23296-.84308.23296l-.0693-.0014c-.50694-.02128-.99708-.2758-1.30088-.72954l-.76076-1.13736-.03486-.05446c-.46088-.75012-.24962-1.736.48832-2.22992.28098-.18816.59878-.27762.91322-.27762zm10.86008.16646l.06818.0014c.49924.02086.98126.27118 1.27988.7182l.38038.5684.03528.05474c.4529.73738.24486 1.70786-.48062 2.19366l-.06986.04424c-.259.15498-.546.22904-.8302.22904l-.06804-.00154c-.49882-.02086-.98084-.27034-1.28002-.71764l-.38038-.56854-.03514-.05488c-.45248-.73808-.24472-1.70772.48076-2.19296.27678-.18522.58996-.27412.89978-.27412zm10.90712.16856l.07756.00196c.0777.00378.15526.01358.23198.0294l.07616.01722c.07602.01904.15176.04312.22498.07168l.06986.03234c.06972.03374.13902.07154.20608.1155l.06258.04382c.06174.04592.12152.09758.17906.15134l.07056.07826c.04592.05292.08918.10752.12894.16422l.04018.06748c.0392.06804.07504.13776.1036.20818l.02772.07406c.0266.07462.04872.15092.06146.22736l.01428.07686c.0126.07728.01974.15596.01974.23268l-.00224.07938c-.00434.07924-.01484.1582-.02772.23464l-.0175.07616c-.01904.07588-.04368.1505-.07574.22078l-.03024.0714c-.03192.07014-.06916.13622-.11354.19992l-.0462.06538c-.0476.06398-.09912.12362-.1533.18088l-.05418.05166c-.29428.26838-.67144.41454-1.07464.41454l-.07952-.0021c-.07938-.00434-.1582-.01456-.23422-.02744l-.07546-.0175c-.07504-.01918-.1484-.04354-.22176-.0756l-.06972-.03024c-.06972-.03206-.13832-.06944-.20188-.11396l-.0651-.04592c-.0637-.0476-.1232-.09926-.18074-.15344l-.0532-.0581c-.05236-.05908-.10178-.12124-.1463-.18816l-.04046-.06454c-.03934-.06552-.0749-.13384-.10374-.20678l-.02926-.07154c-.0273-.07294-.04802-.1491-.0644-.2254l-.0133-.07714c-.01106-.07798-.01596-.1575-.01596-.23688l.00238-.07728c.00434-.07756.01484-.1561.02688-.23226l.01848-.0763c.02044-.07616.04662-.15162.07518-.22512l.03108-.07014c.03318-.06986.0728-.13874.1176-.20552l.04354-.063c.04564-.06202.09744-.12166.15148-.17948.29946-.29596.71078-.46326 1.12896-.46326zM2.646518 53.10662l.068712.0014c.708498.02716 1.365042.47376 1.624042 1.18132l1.850604 5.04854.02121.06118c.300748.91868-.178976 1.91688-1.09361 2.25218l-.087948.02982c-.176414.0546-.355628.08106-.531874.08106l-.06881-.00126c-.70945-.0273-1.365476-.47446-1.624224-1.18202L.9534868 55.53086l-.0211932-.06104c-.3004946-.9191.179221-1.91744 1.0935904-2.2526.20482-.0749.41447-.1106.620634-.1106zm11.369862.21742l.06776.0014c.6986.02688 1.34526.46788 1.6009 1.16508l1.61952 4.417.02086.0602c.29596.90496-.17598 1.88902-1.07772 2.2197l-.0868.0294c-.17402.0539-.35084.07952-.52472.07952l-.06776-.00126c-.69888-.02688-1.34498-.46788-1.601124-1.16508l-1.618946-4.41658-.020874-.0602c-.296058-.90538.175938-1.88944 1.077706-2.21984.2016-.07406.40803-.10934.611198-.10934zm11.31914.21826l.06692.00126c.68866.02646 1.32608.46004 1.57752 1.1466l1.3881 3.78602.021.06076c.2905.89208-.1743 1.8606-1.06218 2.18638l-.08554.02884c-.1715.05306-.34552.07826-.51688.07826l-.06678-.00126c-.6888-.02646-1.32566-.46032-1.57794-1.14688l-1.38782-3.78602-.021-.06062c-.29036-.89208.17486-1.86102 1.0626-2.18652.1988-.07266.40236-.10682.602-.10682zm11.33132.21616l.0679.00126c.6776.02702 1.30424.455 1.5519 1.13148l1.15668 3.15504.02058.05964c.28672.87822-.17178 1.8326-1.04636 2.15334l-.08428.02842c-.16884.0525-.34034.07728-.50918.07728l-.0679-.0014c-.67732-.02674-1.30396-.45416-1.55134-1.13036l-1.15696-3.15462-.02072-.05978c-.287-.87864.17164-1.83274 1.04636-2.15404.196-.07196.39648-.10626.59332-.10626zm11.33076.21854l.06678.00126c.66752.02702 1.28436.44744 1.52894 1.11328l.92512 2.52378.02044.05894c.28238.86506-.1694 1.80474-1.03026 2.12072l-.08316.02814c-.16646.05166-.33502.0763-.50162.0763l-.06678-.00126c-.66724-.02646-1.28408-.448-1.5288-1.11384L46.403 56.2611l-.0203-.05894c-.28224-.86548.16954-1.8053 1.0304-2.12128.19306-.07042.39004-.10388.5845-.10388zm11.3323.21714l.0658.00126c.6566.02604 1.26392.441 1.50402 1.09634l.69384 1.89308.02058.05922c.27678.85134-.16758 1.77632-1.01514 2.0874l-.08162.02744c-.16394.05026-.33012.07462-.4942.07462l-.0658-.0014c-.6566-.02604-1.26448-.4403-1.50458-1.09578l-.69356-1.89294-.02058-.05936c-.27734-.85162.1673-1.77618 1.01514-2.08712.18998-.06972.38472-.10276.5761-.10276zm11.37304.2177l.06482.00126c.64638.02562 1.24446.43414 1.4812 1.07884l.46242 1.26224.02016.05838c.27272.8379-.16492 1.7486-.99932 2.05394l-.08036.0273c-.16114.05026-.3248.07392-.48636.07392l-.06482-.00126c-.64652-.02562-1.24446-.43316-1.48078-1.07926l-.46312-1.26154-.02016-.05838c-.27244-.83818.16492-1.74818.99918-2.05422.18732-.06874.3787-.10122.56714-.10122zm11.42904.21798l.06594.00126c.63588.02604 1.22402.42644 1.456 1.06148l.23198.63084.0203.05866c.26726.82446-.1631 1.7199-.9842 2.0209l-.0791.0266c-.15862.049-.32004.07238-.47852.07238l-.06594-.00126c-.6356-.02604-1.22304-.42672-1.45586-1.06148l-.23156-.63056-.0203-.0588c-.2674-.82488.16296-1.72032.9842-2.02132.18368-.06678.37184-.0987.55706-.0987zm11.46992.21714l.0742.00182c.39522.01876.77952.18634 1.05952.46606l.05096.05348c.26502.29134.41524.67564.41524 1.07506l-.00168.07868c-.00322.07826-.0119.15554-.02786.23478l-.01764.07574c-.01918.07518-.04298.14826-.07168.2212l-.03276.07014c-.03388.06972-.07126.1379-.11578.20174l-.0343.05264c-.04802.0686-.10374.13174-.1645.18928l-.05432.05166c-.29428.26838-.6713.4151-1.07072.4151l-.07924-.00168c-.07924-.0035-.15806-.01246-.23464-.02814l-.07602-.01582c-.07588-.01848-.15064-.0448-.2205-.0735l-.07238-.0308c-.07154-.0329-.13986-.07196-.20384-.1134l-.0651-.04606c-.06356-.04788-.12236-.10038-.17654-.15736l-.05558-.05558c-.05376-.05726-.1022-.11928-.14364-.18634l-.04284-.0651c-.04116-.0665-.077-.13636-.10584-.20678l-.02758-.07308c-.02646-.07322-.04872-.14728-.0616-.22386l-.0133-.07924c-.0112-.07924-.01624-.15792-.01624-.23422l.00182-.07952c.00336-.07938.01232-.15806.02772-.23464l.0175-.0756c.01918-.0749.04312-.14784.07168-.22092l.0329-.0728c.03388-.07154.07126-.14.11578-.20398l.0455-.063c.04648-.06272.0966-.1239.15372-.17808l.05572-.05334c.05726-.05236.11928-.10178.18592-.14672l.06538-.04018c.06678-.0392.13748-.07518.21084-.10388l.07126-.02926c.0728-.02716.14924-.04788.22526-.0637.10094-.0203.20328-.0308.3052-.0308zM1.802822 41.16924l.063266.00112c.966126.03332 1.740354.82726 1.740354 1.80208v5.49752l-.001092.06328c-.03339.96712-.828352 1.73978-1.802528 1.73978l-.063294-.00098C.773206 50.23872 0 49.4452 0 48.46996v-5.49752c0-.99596.8071882-1.8032 1.802822-1.8032zm11.480224.3864l.062356.00098c.952098.0329 1.714678.81578 1.714678 1.7766v4.81054l-.00112.06244c-.03276.9527-.81592 1.71444-1.775914 1.71444l-.062384-.00112c-.952532-.0329-1.71493-.81494-1.71493-1.77576v-4.81054c0-.98168.795914-1.77758 1.777314-1.77758zm11.429194.38696l.06286.00112c.93758.03318 1.68798.80402 1.68798 1.75v4.1237l-.00112.06272c-.03318.93786-.80402 1.68826-1.74972 1.68826l-.06272-.00112c-.93814-.03304-1.68854-.80402-1.68854-1.74986v-4.1237c0-.96698.78414-1.75112 1.75126-1.75112zm11.4408.38738l.06188.00112c.924.03262 1.66306.79142 1.66306 1.7234v3.43616l-.00112.06188c-.03248.924-.79184 1.6632-1.72382 1.6632l-.06188-.00112c-.924-.03262-1.66306-.79198-1.66306-1.72396V44.0545c0-.9527.77224-1.72452 1.72494-1.72452zm11.44136.38682l.06216.00112c.90944.03276 1.63618.77994 1.63618 1.69792v2.74876l-.00112.0623c-.03276.90958-.77994 1.63632-1.69722 1.63632l-.0623-.00112c-.90944-.03276-1.63674-.77994-1.63674-1.6975v-2.74876c0-.93884.76076-1.69904 1.69904-1.69904zm11.44094.38682l.06132.00112c.89558.03234 1.61112.76804 1.61112 1.67132v2.06178l-.00112.06132c-.03234.89558-.7679 1.6114-1.67132 1.6114l-.06132-.00112c-.89558-.03234-1.61182-.76818-1.61182-1.6716v-2.06178c0-.92372.74928-1.67244 1.67314-1.67244zm11.48322.38682l.06034.00112c.88158.03178 1.5862.75628 1.5862 1.64528v1.37466l-.00098.06034c-.03178.88172-.75628 1.58592-1.64556 1.58592l-.06034-.00112c-.8813-.03164-1.58648-.75572-1.58648-1.64514v-1.37466c0-.9093.73766-1.6464 1.64682-1.6464zm11.54006.38682l.06076.00112c.86688.03192 1.55988.74452 1.55988 1.61952v.68712l-.00112.06076c-.03206.8666-.7448 1.5596-1.61952 1.5596l-.06076-.00112c-.86674-.03206-1.55946-.7448-1.55946-1.61924v-.68712c0-.8953.72534-1.62064 1.62022-1.62064zm11.58626.38584l.07406.00168c.39382.01862.77462.18564 1.05476.46914l.05096.05278c.26502.28826.41524.67606.41524 1.07142l-.00224.07952c-.00448.07938-.01554.1582-.03122.23422l-.01512.07574c-.0175.07518-.04228.1484-.07434.22148l-.03094.06986c-.0329.06958-.07182.1379-.1134.20146l-.04578.06524c-.04732.06384-.0994.12334-.15316.18088l-.05418.0518c-.29456.26852-.6755.41454-1.07464.41454l-.07952-.00224c-.07938-.0042-.1582-.01442-.23422-.0273l-.07644-.0175c-.07616-.01932-.15106-.0441-.22078-.07588l-.07182-.03038c-.07056-.03206-.13734-.06916-.20384-.11354l-.06286-.04592c-.06202-.04746-.12152-.0994-.17878-.15358l-.05348-.05824c-.05236-.05908-.10122-.12096-.14588-.18788l-.04256-.06496c-.04018-.06636-.07336-.13636-.10192-.20636l-.02968-.07322c-.02744-.07336-.0483-.14742-.06398-.224l-.01162-.07686c-.01064-.0777-.01792-.15736-.01792-.23688l.00182-.07406c.01862-.3941.18564-.77476.46522-1.05014.29666-.30128.7084-.47082 1.12826-.47082zM2.717386 29.22598l.095858.00252c.064246.0035.129094.01036.194054.02086l.062286.01134c.948458.18886 1.583834 1.0962 1.426726 2.05856L3.594906 36.848l-.01197.0658c-.17052.8498-.919198 1.4476-1.765358 1.4476l-.096922-.00266c-.06482-.0035-.130074-.01064-.19593-.02142l-.062286-.01134C.5142424 38.13782-.1211448 37.2295.0357021 36.2677l.9014103-5.52846c.1446872-.88564.9113356-1.51326 1.7802736-1.51326zm11.366474.55706l.09408.00238c.063.00336.12628.00994.18984.02016l.06272.01134c.93422.18676 1.55946 1.08108 1.40532 2.02874l-.78862 4.83784-.0119.06482c-.1687.83734-.90608 1.4266-1.739906 1.4266l-.095256-.00252c-.063812-.0035-.12817-.01036-.19278-.02086l-.062734-.01134c-.934248-.18648-1.56002-1.08108-1.40588-2.02846l.789474-4.8384c.142268-.87262.898464-1.4903 1.755642-1.4903zm11.31242.55622l.09324.00252c.0623.0035.12516.01036.1883.02086l.06188.01106c.92078.1834 1.53678 1.06512 1.38446 1.99836l-.67648 4.14708-.0119.06566c-.1659.82432-.89278 1.40378-1.7136 1.40378l-.09408-.00238c-.063-.00336-.12614-.01008-.18984-.02072l-.06188-.0112c-.92022-.1841-1.53734-1.06526-1.38474-1.9985l.67648-4.14708c.14028-.85904.88466-1.46944 1.72816-1.46944zm11.32418.55692l.0924.00252c.06174.00322.12404.0098.18662.01988l.0609.01092c.90678.18116 1.51354 1.04972 1.36388 1.96952l-.56322 3.45534-.01176.06454c-.16408.81172-.87948 1.3832-1.68868 1.3832l-.09268-.00252c-.06188-.00322-.12418-.00994-.18676-.02016l-.0609-.01092c-.90692-.18116-1.51452-1.04958-1.3643-1.96896l.5635-3.4559c.13818-.84644.86912-1.44746 1.701-1.44746zm11.3281.55734l.0903.00238c.06048.00322.12124.00966.18242.01932l.06132.0112c.8925.1785 1.4896 1.0332 1.34176 1.939l-.45066 2.76444-.0119.06524c-.16198.79898-.8659 1.36066-1.66292 1.36066l-.09072-.00252c-.0609-.0035-.12264-.01008-.18438-.01974l-.06132-.0112c-.89236-.17878-1.48932-1.03376-1.34232-1.93928l.45122-2.76416c.1358-.83482.8582-1.42534 1.6772-1.42534zm11.3232.55622l.08974.00238c.0602.00322.12068.0098.1813.0196l.06034.01092c.87864.17556 1.46706 1.01766 1.32188 1.90918l-.33908 2.07368-.01162.06426c-.1589.78694-.85246 1.33938-1.63632 1.33938l-.08988-.00238c-.0602-.00322-.12082-.00966-.18172-.01932l-.06034-.01092c-.87836-.17626-1.46664-1.0178-1.32132-1.90946l.33824-2.07368c.1337-.82068.84392-1.40364 1.64878-1.40364zm11.36912.55692l.0882.00238c.05908.00322.11844.00952.17808.01918l.06076.01106c.86408.17416 1.44228 1.00198 1.29906 1.87978l-.22498 1.38222-.0119.06482c-.15764.77294-.84 1.31698-1.61154 1.31698l-.08848-.00238c-.05922-.00336-.11886-.0098-.17864-.01932l-.06076-.01106c-.86366-.17402-1.44214-1.00226-1.29906-1.8795l.22568-1.38194c.1316-.80822.83034-1.38222 1.62358-1.38222zm11.42134.55678l.08792.00238c.05894.00336.11816.0098.17766.0196l.05978.01092c.85022.17066 1.41946.98532 1.27862 1.8494l-.11256.6909-.01176.06398c-.1554.76048-.8267 1.2957-1.58592 1.2957l-.08708-.00238c-.05824-.00308-.1169-.00938-.1757-.01876l-.05978-.01092c-.8505-.17122-1.41974-.98574-1.27862-1.84968l.11242-.6909c.12936-.79408.81578-1.36024 1.59502-1.36024zm11.4744.55832l.07392.00182c.39368.01862.77462.18564 1.05448.4648l.05334.05628c.05222.05824.10136.1218.1456.18522l.04074.06552c.03948.06678.07518.13748.10402.2107l.0294.07322c.02716.07336.04802.14742.0637.22344l.01344.07728c.01134.0777.0161.15722.0161.2366l-.00168.07462c-.0182.39704-.18088.77042-.46466 1.04986l-.05418.0518c-.29442.26866-.67508.41496-1.07422.41496l-.07462-.00168c-.3962-.0182-.76664-.18116-1.05392-.46508l-.0518-.05348c-.26852-.29092-.41454-.67144-.41454-1.071l.00238-.07938c.00448-.07924.0154-.15792.0315-.2345l.01722-.07546c.0189-.07476.04284-.14812.07168-.2212l.03262-.07238c.03374-.0714.07126-.13972.1155-.20384l.04368-.06314c.04592-.063.09758-.12418.15176-.17836.29722-.29666.70812-.46662 1.12854-.46662zM15.6737 18.8356l.09254.00252c.15456.00812.31024.03654.46396.08694l.0602.021c.89348.33026 1.37088 1.31222 1.06988 2.2239l-1.48652 4.50058-.02366.0672c-.26502.7084-.94038 1.15318-1.66292 1.15318l-.09282-.00252c-.15491-.00812-.310856-.03682-.464758-.08736l-.060172-.02114c-.893452-.33054-1.37116-1.31236-1.070482-2.22418l1.48687-4.50002c.246722-.7476.941962-1.2201 1.687882-1.2201zm11.01828.60858l.09128.00238c.15232.00798.30604.03612.45822.08624l.05922.02072c.88018.32564 1.351 1.29304 1.05392 2.19086l-1.274 3.85798-.02324.06622c-.2611.69776-.9261 1.1361-1.63884 1.1361l-.09128-.00238c-.1526-.00812-.30632-.03654-.45794-.0861l-.06062-.02128c-.87948-.32634-1.34974-1.29304-1.05308-2.19044l1.27428-3.85798c.24262-.73626.92708-1.20232 1.66208-1.20232zm11.03032.60886l.08988.00238c.15008.00798.3017.03584.45164.08512l.05964.02086c.86688.32088 1.32958 1.27302 1.0374 2.15754l-1.0612 3.21496-.02366.0672c-.25816.68586-.91322 1.1172-1.61406 1.1172l-.09002-.00238c-.15036-.00784-.3017-.03542-.45136-.08512l-.05964-.02086c-.86646-.32102-1.3293-1.2733-1.0374-2.15698l1.0619-3.21538c.23912-.72506.91322-1.18454 1.63688-1.18454zm11.032.60872l.08834.00238c.14756.00798.29694.03556.44422.08414l.0588.02058c.85344.31598 1.30984 1.25412 1.02158 2.12506l-.84924 2.5718-.02338.06608c-.25396.67508-.8988 1.09984-1.58942 1.09984l-.08862-.00238c-.14798-.0077-.29694-.03514-.44478-.08386l-.0588-.02058c-.8533-.31626-1.30928-1.25384-1.02144-2.12478l.84938-2.5718c.23576-.71414.89978-1.16648 1.61336-1.16648zm11.03088.60914l.08694.00224c.14546.0077.29232.03444.43694.08232l.05922.02086c.83958.3122 1.28828 1.23466 1.00548 2.09202l-.637 1.92892-.02296.06524c-.25018.66528-.88536 1.0829-1.56548 1.0829l-.08722-.00224c-.14574-.00756-.29246-.03444-.43722-.08204l-.05922-.02072c-.83986-.3122-1.28814-1.23536-1.00492-2.09216l.63672-1.92864c.23226-.70336.88648-1.1487 1.58872-1.1487zm11.07456.60914l.08554.00224c.14266.00742.287.0336.42938.08036l.05824.02044c.82614.30716 1.26798 1.21576.9891 2.0594l-.42462 1.28632-.02268.06426c-.24654.65506-.87136 1.06666-1.5407 1.06666l-.08582-.00224c-.14322-.00756-.2877-.03416-.43092-.0812l-.05824-.02044c-.826-.30688-1.26756-1.21548-.98924-2.05968l.42546-1.28576c.2282-.69286.87304-1.13036 1.5645-1.13036zm11.1272.6084397l.0847.0022403c.1414.00742.2842.03346.42504.07994l.0574.02016c.81284.30198 1.24726 1.19672.97286 2.02664l-.21224.64316-.0231.0651c-.24304.64316-.85736 1.04734-1.51536 1.04734l-.0847-.00224c-.1414-.00742-.2835-.0336-.42364-.07994l-.0574-.02002c-.8134-.30226-1.24782-1.19644-.97286-2.02706l.21196-.64288c.22442-.68096.85736-1.11286 1.53734-1.1124403zM19.3207 8.574664l.08008.001806c.26712.011998.53536.084364.78456.223958l.05642.03276c.81424.493318 1.09718 1.546972.62916 2.385306L18.75216 15.0136l-.03724.0637c-.33236.54306-.91574.84798-1.51564.84798l-.08008-.00182c-.26698-.01204-.53536-.08484-.78428-.22372l-.05628-.03276c-.8141-.49378-1.0976-1.54742-.6293-2.385012l2.11848-3.79596c.32508-.582232.92988-.911344 1.55288-.911344zm10.48544.562912l.07896.001778c.26348.011858.52752.083342.77308.220486l.0567.033054c.8008.486682 1.07926 1.52376.61838 2.349326l-1.81538 3.2529-.03682.06286c-.32844.53508-.90272.83538-1.4938.83538l-.0868-.00224c-.2604-.01302-.52164-.08484-.76468-.22036l-.05684-.03304c-.80108-.48622-1.07982-1.52404-.61936-2.349312l1.81622-3.25318c.32046-.573916.91644-.897652 1.53034-.897652zm10.49692.562114l.0854.002114c.25662.012782.5145.083384.75376.217462l.05586.032508c.7889.478744 1.06288 1.501178.60984 2.313626l-1.5134 2.71208-.03626.06174c-.32298.52668-.889.82264-1.47182.82264l-.0854-.0021c-.25634-.01274-.51366-.0833-.75376-.21742l-.05586-.03248c-.78862-.47908-1.06316-1.50094-.60886-2.313668l1.51298-2.711478c.31598-.565852.90272-.885024 1.50752-.885024zm10.49692.563444l.08414.002086c.25256.012586.50666.082068.7427.213738l.05502.032032c.77686.4718 1.04692 1.478806.5999 2.278668l-1.21058 2.169202-.0357.06104c-.31808.5194-.87542.81032-1.449.81032l-.08428-.0021c-.2527-.0126-.50652-.08204-.74228-.21364l-.05502-.03206c-.7777-.47208-1.0472-1.47882-.60046-2.278976l1.21086-2.16923c.31052-.557284.88858-.87108 1.4847-.87108zm10.49692.5634433l.08288.0020587c.24892.012334.49868.080486.73108.209748l.05544.032312c.76398.465122 1.029 1.455594.58954 2.24322l-.90804 1.626464-.03654.0623c-.3136.51002-.86114.7959-1.42506.7959l-.08302-.0021c-.24906-.01232-.49896-.08078-.73122-.21056l-.05544-.03234c-.76398-.46578-1.02956-1.45558-.58982-2.243962l.90776-1.626184c.3066-.548422.8757-.857388 1.46244-.8568567zm10.5392.5618347l.08148.002114c.24514.012376.4914.079716.72002.20727l.0546.031822c.7525.45794 1.01318 1.433502.58072 2.20829l-.60578 1.084412-.03598.06132c-.30856.50204-.84798.78302-1.40308.78302l-.08176-.0021c-.245-.01204-.49084-.07896-.7196-.20678l-.0546-.03178c-.7525-.45822-1.01332-1.43332-.58072-2.208598l.60578-1.084216c.30156-.540092.86142-.844774 1.43892-.844774zm10.59646.562912l.08022.002002c.24094.011998.483.078218.7077.203364l.05488.032116c.73962.451514.9961 1.410276.57022 2.173094l-.30268.5425-.03542.06034c-.30352.49406-.83454.7707-1.38096.7707l-.08036-.00196c-.24108-.01204-.48286-.07854-.70798-.20384l-.05502-.03206c-.73934-.45052-.99624-1.41008-.56994-2.17266l.30226-.541968c.29694-.531776.84826-.831628 1.41708-.831628zM41.59722 0l.07504.00163009c.32522.01414049.6503.12045103.93394.32559331l.05292.0397334c.7266.5678106.87906 1.6143232.33474 2.3678732L40.9003 5.631528l-.04494.059682c-.33782.42847-.84294.655172-1.35408.655172l-.07518-.001624c-.32536-.014084-.65044-.119952-.93394-.325332l-.05292-.039718c-.72674-.56756-.88004-1.614102-.33488-2.368436l2.093-2.8961576C40.53476.2480352 41.06242 0 41.59722 0zm10.4405.3868172l.07966.0018662c.31836.0149436.63616.119777.91392.3199896l.05208.0391384c.7154.5593112.86632 1.5896986.32984 2.3324966L51.7384 5.397994l-.04438.058688c-.33306.4214-.82992.645148-1.33392.645148l-.07966-.001862c-.3185-.01491-.63616-.119588-.91392-.320796l-.05208-.039158c-.71568-.559538-.8666-1.58942-.32956-2.332484l1.6744-2.3174088c.3318-.4590264.85148-.703304 1.37844-.703304zM62.47836.772828l.0784.001834c.3136.0146804.62622.1177036.8995.3151904l.0525.039501c.70406.5512906.85162 1.5650586.32354 2.2959006l-1.25622 1.738128-.04368.057792c-.32774.415002-.81746.635306-1.31334.635306l-.07826-.001834c-.31346-.014686-.62678-.11774-.89992-.315728l-.0525-.039494c-.70434-.551292-.85232-1.56506-.32382-2.295902l1.25636-1.737862c.32718-.452312.83874-.692832 1.35744-.692832z" id="a"/></defs><g transform="translate(27 15)" fill="#888" fill-rule="evenodd"><path d="M169.5176 39.42596v17.93512h-3.5882l-.6454-2.00844h-.4662c-.7168.89656-2.296 2.18764-5.2374 2.18764-4.7698 0-7.21-3.37148-7.21-8.39342v-9.7209h4.879v8.64472c0 2.22376.1792 5.30866 3.2648 5.30866 1.5778 0 4.1608-.82488 4.1608-5.52398v-8.4294h4.8426zM187.9556 36.69988h-6.7788v20.6612h-4.8062v-20.6612h-6.7802V32.2518h18.3652zM191.6502 46.13364h8.0724c-.539-2.1161-2.009-2.97724-3.8024-2.97724-1.974 0-3.5518 1.11188-4.27 2.97724zm12.8058 3.62278h-13.0914c.5376 2.72636 2.7622 3.73058 4.6984 3.73058 2.4388 0 3.479-1.50654 3.479-1.50654h4.5206c-1.3636 3.58708-4.627 5.55982-8.1424 5.55982-4.8426 0-9.0762-3.69474-9.0762-9.29054 0-5.55954 4.1972-9.00312 8.932-9.00312 4.592 0 9.254 3.19228 8.68 10.5098zm11.9462 7.784c-4.9854 0-9.0748-3.8381-9.0748-9.11092 0-5.34492 4.2322-9.18302 9.254-9.18302 4.0894 0 7.5684 2.54702 8.5736 6.74338h-4.879c-.7532-1.47042-2.0804-2.40324-3.8024-2.40324-2.5102 0-4.5192 2.009-4.5192 4.80718 0 2.79762 2.009 4.80634 4.5192 4.80634 1.6156 0 2.87-.82488 3.6596-2.15208h4.914c-1.148 4.26846-4.8426 6.49236-8.645 6.49236zm29.1648-9.90024v9.7209h-4.8076v-8.64472c0-1.7577.287-5.3088-2.9414-5.3088-1.5778 0-4.627.82516-4.627 5.52412v8.4294h-4.8062V31.89326h4.5556v9.39792h.609c.861-.89656 2.5116-2.0447 5.166-2.0447 4.627 0 6.8516 3.44372 6.8516 8.3937zm-117.26582-2.83374c0-4.66326 2.97696-7.99918 7.28196-7.99918 4.34 0 7.31766 3.33592 7.31766 7.99918 0 4.66326-2.94224 7.99918-7.28252 7.99918-4.34014 0-7.3171-3.33592-7.3171-7.99918zm16.60862 8.3328c1.82-2.1896 2.9414-5.06562 2.9414-8.3328 0-7.35322-5.705-12.73384-12.26806-12.73384-6.56446 0-12.26764 5.38062-12.26764 12.73384 0 7.3423 5.68554 12.71662 12.2724 12.73356v.00084h14.6559v-4.4016h-5.334z"/><use xlink:href="#a"/></g></svg>
