<svg xmlns="http://www.w3.org/2000/svg" viewBox="0 0 79 301">
  <path fill="#fffed9" d="M3.5 0c6.9.9 13.7 2.4 20.4 4.3a40.5 40.5 0 0 1 14.4 7.2c3.8 3.1 6.8 7.1 8.7 11.6 2 4.6 2.9 10.4 2.9 17.3 0 4.6-.2 9.8-.7 15.5l-1.5 17.8c-.7 6.1-1.2 12.1-1.7 18s-.7 11.2-.7 16.1c0 7.4.9 13.3 2.8 17.8 1.8 4.5 4.3 7.9 7.4 10.4 3.1 2.4 6.7 4.1 10.6 4.8 4 .8 8 1.2 12.1 1.2v15.5c-4.1 0-8.1.4-12.1 1.2-3.8.8-7.5 2.4-10.6 4.8a24.2 24.2 0 0 0-7.4 10.4 48.4 48.4 0 0 0-2.8 17.8c0 4.8.2 10.2.7 16.2l1.5 18.3 1.6 18.3c.5 6 .7 11.4.7 16.2 0 6.9-1 12.7-2.9 17.3a30.1 30.1 0 0 1-8.7 11.6 40.5 40.5 0 0 1-14.4 7.2c-6.7 1.9-13.5 3.4-20.4 4.3L0 286.9a458 458 0 0 0 15.9-3.8c4.4-1.1 7.8-2.5 10.4-4.1 2.5-1.5 4.4-3.7 5.5-6.4 1.2-2.6 1.7-6.1 1.7-10.5-.1-11.3-.8-22.6-2.1-33.8a338.4 338.4 0 0 1-2.1-37.6c0-7.4.8-13.4 2.2-18.1 1.2-4.2 3.2-8.2 5.7-11.7 2.1-2.9 4.8-5.3 8-7.1 2.9-1.6 5.9-3 9-4.1a91.7 91.7 0 0 1-9-4.1 26.5 26.5 0 0 1-8-6.9 35.9 35.9 0 0 1-5.7-11.6 61.2 61.2 0 0 1-2.2-18.1c0-12.3.7-24.7 2.1-36.9 1.3-10.9 2-21.8 2.1-32.8 0-4.4-.6-7.9-1.7-10.5a14.9 14.9 0 0 0-5.5-6.4c-2.5-1.6-6-3-10.4-4.1-5.3-1.7-10.6-3-15.9-4.1L3.5 0z"/>
</svg>
