<svg xmlns="http://www.w3.org/2000/svg" viewBox="0 0 100 100">
  <path fill="#070de9" d="M.6 14c-2.3 13.2 2.1 31.8 12.6 50C23.7 82 37.5 95.3 50 100V0C29 0 10.7 5.5.5 14Z"/>
  <path fill="#e9d100" d="M86.8 64c10.5-18.2 14.9-36.8 12.6-50C89.2 5.5 71 0 50 0v100c12.4-4.7 26.3-17.9 36.8-36Z"/>
  <path fill="#fff" d="M74.7 16.4a68.7 69 0 0 0-9.3-2 33.5 33.6 0 0 1-.2 4.3c-.2 3.3-.6 6.7-1 10a25.5 25.6 0 0 1 5.4 2.5 28.4 28.5 0 0 1-1 7 44.2 44.4 0 0 1-5.1 12.3 41.2 41.4 0 0 1-8 10.7 33.2 33.4 0 0 1-5.5 4.3 28.5 28.6 0 0 1-5.6-4.3 45.6 45.8 0 0 1-8.1-10.7 48.6 48.7 0 0 1-5.2-12.3 25.7 25.8 0 0 1-.8-7 21.2 21.3 0 0 1 5.5-2.4q-.7-5-1.1-10l-.2-4.4c-3.3.6-6.4 1.3-9.3 2a48.5 48.7 0 0 0-12.1 5.1 52.8 53 0 0 0 1.7 13.1 90 90.3 0 0 0 9.6 23.1 92.9 93.2 0 0 0 15.1 19.9 53.6 53.8 0 0 0 10.4 8 50.3 50.5 0 0 0 10.5-8 95.8 96.1 0 0 0 15.1-19.9 88.8 89.1 0 0 0 9.6-23 47.5 47.7 0 0 0 1.7-13.2 51.6 51.7 0 0 0-12-5z"/>
</svg>
