<svg xmlns="http://www.w3.org/2000/svg" viewBox="0 0 256 256">
  <path d="M11.5 1.9a18.7 18.7 0 0 0-10 10.3C.2 15.5 0 29.1 0 128.2c0 107 .1 112.5 1.9 116.3 2.2 4.8 5.4 7.9 10.3 10 3.3 1.3 16.9 1.5 116 1.5 107 0 112.5-.1 116.3-1.9 4.8-2.2 7.9-5.4 10-10.3 1.3-3.3 1.5-16.9 1.5-115.8s-.2-112.5-1.5-115.8a18.7 18.7 0 0 0-10-10.3C240.7.1 235.3 0 128 0S15.3.1 11.5 1.9zm57.3 36.8C74.7 42.3 79 50.1 79 57c0 7.1-4.3 14.7-10.5 18.5-4.1 2.5-5.8 3-11.4 3-5.4 0-7.5-.5-11.3-2.8-15.9-9.3-13.5-32.8 4.1-39.4 5.4-2 13.5-1 18.9 2.4zm114.5 54.8c13.7 3.6 23.6 11.6 29.2 23.8 5 11.1 5.5 16.2 5.5 60.5V218h-38v-35.8c0-39.2-.4-43-5.7-49.3-8.8-10.4-26.9-8.6-35 3.5-1.8 2.6-3.7 6.4-4.3 8.4-.6 2.2-1 17.9-1 38.4V218H96V96h36v16l5.3-5.2c12.2-12.2 30.2-17.4 46-13.3zM76 157v61H38V96h38v61z"/>
</svg>
