<svg xmlns="http://www.w3.org/2000/svg" viewBox="0 0 74 79">
  <path d="M73.7 17.43C72.56 9.05 65.18 2.45 56.42 1.17c-1.47-.22-7.07-1-20.03-1h-.1c-12.96 0-15.74.78-17.22 1C10.56 2.4 2.79 8.35.9 16.83 0 21-.1 25.63.07 29.88.3 35.97.35 42.05.9 48.12a84.93 84.93 0 0 0 2.02 11.96c1.8 7.26 9.05 13.31 16.16 15.78 7.6 2.57 15.8 3 23.63 1.23.87-.2 1.72-.43 2.56-.69 1.9-.6 4.14-1.27 5.78-2.44a.18.18 0 0 0 .08-.15v-5.87a.17.17 0 0 0-.14-.17h-.08a66.19 66.19 0 0 1-15.34 1.77c-8.89 0-11.28-4.17-11.96-5.9a18.15 18.15 0 0 1-1.03-4.74.17.17 0 0 1 .12-.1h.08c4.94 1.18 10 1.77 15.1 1.77 1.21 0 2.43 0 3.65-.03 5.12-.14 10.5-.4 15.53-1.37l.36-.08c7.93-1.5 15.48-6.23 16.25-18.21.03-.47.1-4.94.1-5.43 0-1.66.54-11.8-.08-18.02ZM61.5 47.31h-8.35v-20.2c0-4.26-1.8-6.43-5.44-6.43-4 0-6.01 2.57-6.01 7.64v11.06h-8.3V28.32c0-5.07-2-7.64-6.01-7.64-3.62 0-5.43 2.17-5.44 6.43v20.2h-8.33V26.5c0-4.25 1.1-7.63 3.3-10.14 2.26-2.5 5.23-3.78 8.92-3.78 4.27 0 7.5 1.63 9.64 4.87l2.08 3.45 2.08-3.45c2.15-3.24 5.37-4.87 9.64-4.87 3.68 0 6.65 1.29 8.93 3.78 2.2 2.5 3.29 5.89 3.29 10.14v20.82Z"/>
</svg>
