<svg xmlns="http://www.w3.org/2000/svg" fill="currentColor" viewBox="0 0 32 32"><path d="M19.66 1.45a1 1 0 0 1 .7.29l9.9 9.9a1 1 0 0 1 0 1.41 4.17 4.17 0 0 1-3 1.18c-.36 0-.67-.04-.92-.08l-6.27 6.26c.16.67.27 1.35.32 2.03.09 1.4-.07 3.38-1.44 4.75a1 1 0 0 1-1.42 0l-5.65-5.66-6.36 6.37c-.4.39-2.45 1.8-2.83 1.41-.4-.38 1.02-2.44 1.41-2.83l6.37-6.36-5.66-5.66a1 1 0 0 1 0-1.4c1.37-1.38 3.34-1.54 4.75-1.45.68.05 1.36.16 2.03.32l6.26-6.27a5.61 5.61 0 0 1-.08-.92c0-.86.22-2.04 1.18-3a1 1 0 0 1 .7-.3Zm0 0"/></svg>