<svg xmlns="http://www.w3.org/2000/svg" viewBox="0 0 248 204">
  <path d="M221.95 51.29c.15 2.17.15 4.34.15 6.53 0 66.73-50.8 143.69-143.69 143.69v-.04A142.97 142.97 0 0 1 1 178.83a101.4 101.4 0 0 0 74.74-20.93 50.56 50.56 0 0 1-47.18-35.07 50.34 50.34 0 0 0 22.8-.87 50.5 50.5 0 0 1-40.51-49.5v-.64a50.18 50.18 0 0 0 22.92 6.32 50.56 50.56 0 0 1-15.63-67.43 143.33 143.33 0 0 0 104.08 52.76 50.56 50.56 0 0 1 86.06-46.06 101.34 101.34 0 0 0 32.07-12.26 50.69 50.69 0 0 1-22.2 27.93 100.43 100.43 0 0 0 29-7.95 102.6 102.6 0 0 1-25.2 26.16z" />
</svg>
