<svg id="Layer_1" data-name="Layer 1" xmlns="http://www.w3.org/2000/svg" viewBox="0 0 32 32">
  <title>dv_design-system_icons</title>
  <g id="Symbols">
    <g id="footer_large_open" data-name="footer/large/open">
      <g id="social_" data-name="social\">
        <path id="Fill-4" d="M16,5A11.143,11.143,0,0,0,5,16.279a11.259,11.259,0,0,0,7.523,10.7c.55.1.751-.245.751-.544,0-.267-.01-.977-.015-1.918-3.06.682-3.7-1.512-3.7-1.512a2.972,2.972,0,0,0-1.222-1.65c-1-.7.076-.685.076-.685a2.315,2.315,0,0,1,1.684,1.162,2.31,2.31,0,0,0,3.2.937,2.435,2.435,0,0,1,.7-1.507c-2.442-.285-5.01-1.253-5.01-5.574a4.416,4.416,0,0,1,1.132-3.026,4.151,4.151,0,0,1,.108-2.985s.923-.3,3.025,1.156a10.166,10.166,0,0,1,5.507,0c2.1-1.459,3.022-1.156,3.022-1.156a4.15,4.15,0,0,1,.11,2.985,4.41,4.41,0,0,1,1.13,3.026c0,4.333-2.572,5.286-5.022,5.565a2.727,2.727,0,0,1,.747,2.089c0,1.507-.014,2.723-.014,3.093,0,.3.2.653.756.543A11.261,11.261,0,0,0,27,16.279,11.143,11.143,0,0,0,16,5" fill="#222"/>
      </g>
    </g>
  </g>
</svg>
