<svg viewBox="0 0 32 32" xmlns="http://www.w3.org/2000/svg"><g fill="#231f20"><path d="m16 20.494a4.5 4.5 0 0 1 -3.745-6.98l-3.105-3.104a16.646 16.646 0 0 0 -4.942 5.132l-.116.205v.507l.116.2c.167.294 4.18 7.2 11.662 7.2h.248a11.847 11.847 0 0 0 5.116-1.166l-2.748-2.747a4.461 4.461 0 0 1 -2.486.753z"/><path d="m17.184 18.444-3.628-3.628a2.716 2.716 0 0 0 3.628 3.628z"/><path d="m27.78 15.542c-.167-.294-4.179-7.2-11.662-7.2h-.248a11.592 11.592 0 0 0 -3.293.488l-4.082-4.081-1.258 1.26 18.756 18.755 1.258-1.26-2.982-2.981a16.658 16.658 0 0 0 3.511-4.064l.116-.241v-.471z"/></g></svg>