<svg id="Layer_1" data-name="Layer 1" xmlns="http://www.w3.org/2000/svg" viewBox="0 0 32 32">
  <title>dv_design-system_icons</title>
  <g id="Symbols">
    <g id="footer_large_open" data-name="footer/large/open">
      <g id="social_" data-name="social\">
        <path id="Shape" d="M12.422,25.7A13.419,13.419,0,0,0,26.24,12.485c0-.2,0-.4-.01-.6a9.676,9.676,0,0,0,2.425-2.41,10.188,10.188,0,0,1-2.794.734A4.716,4.716,0,0,0,28,7.638a9.911,9.911,0,0,1-3.087,1.123,4.957,4.957,0,0,0-3.542-1.467,4.76,4.76,0,0,0-4.859,4.647A4.971,4.971,0,0,0,16.636,13,14,14,0,0,1,6.626,8.145a4.5,4.5,0,0,0-.653,2.338,4.61,4.61,0,0,0,2.159,3.868,5.084,5.084,0,0,1-2.2-.58v.063a4.712,4.712,0,0,0,3.892,4.557,5.086,5.086,0,0,1-2.187.081A4.833,4.833,0,0,0,12.176,21.7,10.02,10.02,0,0,1,6.143,23.69a9.827,9.827,0,0,1-1.155-.063A14.277,14.277,0,0,0,12.422,25.7" fill="#222"/>
      </g>
    </g>
  </g>
</svg>
