<svg xmlns="http://www.w3.org/2000/svg" viewBox="0 0 32 32">
  <path fill="#070de9" d="M16 5A11.14 11.14 0 0 0 5 16.28a11.26 11.26 0 0 0 7.52 10.7c.55.1.75-.25.75-.55l-.01-1.91C10.2 25.2 9.56 23 9.56 23a2.97 2.97 0 0 0-1.22-1.65c-1-.7.07-.68.07-.68a2.31 2.31 0 0 1 1.69 1.16 2.31 2.31 0 0 0 3.2.94 2.44 2.44 0 0 1 .7-1.5c-2.45-.3-5.01-1.26-5.01-5.58a4.42 4.42 0 0 1 1.13-3.03 4.15 4.15 0 0 1 .1-2.98s.93-.3 3.03 1.15a10.17 10.17 0 0 1 5.5 0c2.1-1.46 3.03-1.15 3.03-1.15a4.15 4.15 0 0 1 .11 2.98 4.41 4.41 0 0 1 1.13 3.03c0 4.33-2.57 5.28-5.02 5.56a2.73 2.73 0 0 1 .75 2.1l-.02 3.08c0 .3.2.66.76.55A11.26 11.26 0 0 0 27 16.28 11.14 11.14 0 0 0 16 5"/>
</svg>