<svg xmlns="http://www.w3.org/2000/svg" viewBox="0 0 32 32">
  <path fill="#070de9" d="M21.259,5.853H10.734a4.819,4.819,0,0,0-4.881,4.883V21.264a4.819,4.819,0,0,0,4.881,4.883H21.259a4.819,4.819,0,0,0,4.881-4.883V10.736A4.728,4.728,0,0,0,21.259,5.853ZM16.073,22.638a6.562,6.562,0,1,1,6.559-6.562A6.61,6.61,0,0,1,16.073,22.638ZM22.632,10.43a1.373,1.373,0,1,1,1.373-1.373A1.367,1.367,0,0,1,22.632,10.43Zm-6.524,1.123a4.59,4.59,0,0,1,4.576,4.578,4.5,4.5,0,0,1-4.576,4.577,4.5,4.5,0,0,1-4.576-4.577A4.5,4.5,0,0,1,16.108,11.553Z" />
</svg>
