<svg xmlns="http://www.w3.org/2000/svg" viewBox="0 0 300 120">
  <path fill="#888" d="M70.6 59c0-15.5-8.7-21.8-22.8-21.8l-10.9.1c-2.2.1-3.6.4-3.6 2.6v42.2c4.2.4 8.4.7 12.6.7 14.3 0 24.7-8.4 24.7-23.8zm-9.2.7c0 9.9-6.1 15.9-14.6 15.9a37 37 0 01-4.7-.3V44.5s2.5-.2 5.2-.2c9.9 0 14.1 5.4 14.1 15.4zm13.9 6.2c0 11.3 5.5 17 16.8 17 3.6 0 7.1-.6 10.5-1.8v-6.5c-3 1-6.2 1.6-9.4 1.7-6.1 0-9.4-3.2-9.4-9.2h17c2.8 0 3.9-.7 3.9-2.6v-1.2c0-8.3-4.4-14.8-13.8-14.8-9.9-.2-15.6 7.4-15.6 17.4zm15.3-11.2c3.6 0 5.5 2.5 5.5 6.6H84c.5-4.1 3-6.6 6.6-6.6zm29-17.4h-4.7c-2.8 0-3.9.7-3.9 2.6v32c0 7.7 2.3 10.9 8.7 10.9 1.9 0 3.8-.3 5.7-.9v-6.3c-.9.2-1.9.4-2.9.4-1.7 0-2.9-.8-2.9-4.4V37.3zm19.6 0h-4.6c-2.8 0-3.9.7-3.9 2.6v32c0 7.7 2.5 10.9 9.7 10.9a26 26 0 006.8-.9v-6.6c-1.3.3-2.7.5-4 .6-2.5 0-4-1.2-4-5.4V55.7h4.1c2.8 0 3.9-.7 3.9-2.6v-4h-8V37.3zm12.1 29.9c0 11.3 7.2 15.6 16 15.6 4.9 0 9.8-.8 14.5-2.5V50.1a46.8 46.8 0 00-11.8-1.8c-11.6 0-18.7 7.6-18.7 18.9zm8.9-.8c0-8 4-11.5 9-11.5 1.4 0 2.9.2 4.3.5v19.9c-1.7.6-3.6.9-5.4.8-5.6.1-7.9-3.6-7.9-9.7zm30.3 15.8h8.6V62c0-4.7 1.2-6.3 4.6-6.3h.4c2.5 0 3.7-.4 3.7-2.6v-4h-5.2c-9.4 0-12 5.8-12 13l-.1 20.1zm19.2-16.3c0 11.3 5.5 17 16.8 17 3.6 0 7.1-.6 10.5-1.8v-6.5c-3 1-6.2 1.6-9.4 1.7-6.1 0-9.4-3.2-9.4-9.2h17c2.8 0 3.9-.7 3.9-2.6v-1.2c0-8.3-4.4-14.8-13.8-14.8-9.9-.2-15.6 7.4-15.6 17.4zm15.4-11.2c3.6 0 5.5 2.5 5.5 6.6h-12.1c.5-4.1 3-6.6 6.6-6.6zm19.3 4.3c0 11 13.5 8 13.5 13.8 0 2.2-2.1 3.5-5.5 3.5-2.4 0-4.8-.3-7.1-1l-.1 6.9c2.2.5 4.5.7 6.8.7 8.8 0 14.7-4.3 14.7-10.9 0-10.8-13.6-8.6-13.6-13.8 0-2.2 1.9-3.3 5-3.3l3 .1c1.9 0 3.5-.3 3.5-3.7V49c-2-.3-4-.5-6.1-.6-9.4-.1-14.1 4.8-14.1 10.6z"/>
</svg>
