<svg xmlns="http://www.w3.org/2000/svg" viewBox="0 0 300 120">
  <path fill="#888" d="M83.8 64.2c-6.7-1-9.5-5-9.5-9.9 0-9 8.8-11.5 20-11.5 15.5 0 21.9 4 22.4 11.5h-16a3 3 0 0 0-2-2.8 10.9 10.9 0 0 0-4.3-.8c-4.1 0-5.5 1-5.5 2.5 0 1 .4 1.7 1.8 1.8l16.4 2.5c6.9 1 11.2 4.3 11.2 10.2 0 8.5-7 12.5-22.4 12.5-10.5 0-22-1.4-22-11.7h16.4a2.7 2.7 0 0 0 1.5 2.5 10.8 10.8 0 0 0 4.7.7c4.2 0 5.4-1.1 5.4-2.8 0-1-.6-2-2.5-2.4zM177.3 44v10.9h-11.9v24.2h-15.5V54.9h-12v-11zM192 58.5l-2.5 7h5.1l-2.6-7zm31.7 16.1h-10l2 4.5h-15.9l-1.6-4.3h-11.4l-1.6 4.2h-15.6L185 44h15l9.5 21.5h10l4 9.1zM120.4 79h15.4V44h-15.4z"/>
</svg>

