<svg xmlns="http://www.w3.org/2000/svg" viewBox="0 0 300 120">
  <path fill="#666" d="M83.3 78.5a19 19 0 0 1-6-.8c-1.8-.5-3.2-1.1-4.1-1.8-.7-.5-1.1-1-1.1-1.6s.3-1.2.8-2.1c.6-.9 1-1.3 1.4-1.3.3 0 .7.2 1.3.6 1.1.6 2.3 1 3.4 1.4s2.4.6 3.9.6c1.7 0 3.2-.5 4.4-1.4s1.7-2.2 1.7-3.9c0-1.1-.3-2-.8-2.7s-1.3-1.3-2.1-1.8L82.5 62l-1.1-.4c-1.8-.7-3.3-1.5-4.4-2.2a8.7 8.7 0 0 1-2.9-3.1c-.8-1.3-1.2-3-1.2-5.1 0-2 .5-3.8 1.5-5.2 1-1.5 2.4-2.6 4.2-3.4 1.8-.8 3.8-1.2 6-1.2 1.3 0 2.7.2 4.2.5 1.4.4 2.6.8 3.4 1.4.8.4 1.1 1 1.1 1.5s-.2 1.2-.8 2c-.5.9-1 1.3-1.3 1.3l-1.5-.6a12 12 0 0 0-4.9-1.1c-1.9 0-3.4.4-4.4 1.3a4.6 4.6 0 0 0-.8 6.1c.6.7 1.2 1.2 2 1.6l3.7 1.5c2 .8 3.7 1.6 5 2.3s2.4 1.8 3.4 3.2a9.8 9.8 0 0 1 1.4 5.4c0 3.4-1.1 6-3.2 7.8-2.4 2-5.2 2.9-8.6 2.9zm25.4 0c-1.9 0-3.6-.6-4.9-1.7-1.4-1.2-2.1-3.1-2.1-5.8V55.6h-2c-.4 0-.8-.2-1-.5s-.3-.8-.3-1.5V53c0-.7.1-1.2.3-1.5.2-.3.5-.5 1-.5h2l.6-5.2c.1-.9.8-1.4 2.1-1.4h.8c1.3 0 1.9.5 1.9 1.4V51h3.7c.4 0 .8.2 1 .5.2.3.3.8.3 1.5v.7c0 .7-.1 1.2-.3 1.5-.2.3-.5.5-1 .5h-3.7v15.1c0 1.2.2 2.1.6 2.5s1 .7 1.8.7l1.2-.1.8-.1c.4 0 .7.4 1 1.2l.4 1.7c0 1.2-1.4 1.8-4.2 1.8zm16.9 0c-2.6 0-4.7-.7-6.3-2-1.5-1.3-2.3-3.3-2.3-5.8 0-3.5 1.5-6 4.4-7.4 2.9-1.4 6.9-2.1 12.1-2.1v-2.1c0-1.2-.4-2.1-1.2-2.8-.8-.7-2.1-1-3.9-1-1.4 0-2.6.2-3.7.5l-2.7 1-1.3.6c-.4 0-.9-.4-1.4-1.3-.5-.8-.8-1.5-.8-1.9 0-.5.4-1 1.4-1.6a18.6 18.6 0 0 1 8.4-1.8c3.4 0 6.1.7 7.8 2.2a7.6 7.6 0 0 1 2.7 6.1v11c0 2.3.1 4 .3 5l.3 1.8c0 .5-.4.9-1.3 1.1l-2.4.3c-.6 0-1-.3-1.3-.8l-.5-1.7-.2-1c-.9 1-2.1 1.9-3.4 2.7-1.2.7-2.8 1-4.7 1zm7.9-13c-3.3 0-5.9.3-7.9.9-2 .6-2.9 1.9-2.9 3.9 0 1.1.3 2 1 2.6.6.6 1.6.9 2.8.9a8 8 0 0 0 3.9-.9c1.1-.6 2.1-1.5 3.1-2.5v-4.9zm16.4 13h-.6c-1.7 0-2.5-.5-2.5-1.4V59.3a27.7 27.7 0 0 0-.6-6.7c0-.5.4-.9 1.4-1.1l2.4-.3c.6 0 1 .3 1.2.8l.5 1.6.2.9c1.7-2.5 3.7-3.8 5.8-3.8 1 0 1.8.2 2.3.7.5.5.8 1 .8 1.7a6 6 0 0 1-.4 2.1c-.2.8-.6 1.2-.9 1.2l-1.1-.3c-.5-.2-1.1-.2-1.7-.2a4 4 0 0 0-2.7 1 7 7 0 0 0-1.7 1.9v18.4c0 .9-.8 1.3-2.4 1.3zm24.9 0c-1.9 0-3.6-.6-4.9-1.7-1.4-1.2-2.1-3.1-2.1-5.8V55.6h-2c-.4 0-.8-.2-1-.5s-.3-.8-.3-1.5V53c0-.7.1-1.2.3-1.5.2-.3.5-.5 1-.5h2l.6-5.2c.1-.9.8-1.4 2.1-1.4h.8c1.3 0 1.9.5 1.9 1.4V51h3.7c.4 0 .8.2 1 .5s.3.8.3 1.5v.7c0 .7-.1 1.2-.3 1.5-.2.3-.5.5-1 .5h-3.7v15.1c0 1.2.2 2.1.6 2.5s1 .7 1.8.7l1.2-.1.8-.1c.4 0 .7.4 1 1.2l.4 1.7c0 1.2-1.4 1.8-4.2 1.8z"/>
  <path fill="#888" d="m203.4 61.6 10.6-19c.4-.7 1.2-1.1 2.5-1.1h2c1.6 0 2.4.4 2.4 1.3v34.4c0 .8-.8 1.3-2.4 1.3h-.7c-1.6 0-2.4-.4-2.4-1.3V50.7l-9.6 16.6c-.3.5-.8.8-1.4.8h-1.9c-.6 0-1.1-.2-1.4-.8l-9.7-16.8v26.7c0 .8-.8 1.3-2.4 1.3h-.7c-1.6 0-2.4-.4-2.4-1.3V42.8c0-.8.8-1.3 2.4-1.3h2.1c1.3 0 2.1.4 2.5 1.1l10.5 19zm26.7 15a7.2 7.2 0 0 1-2.3-5.7c0-3.5 1.5-5.9 4.3-7.3 2.9-1.4 6.9-2.1 12.1-2.1v-2.2c0-1.2-.4-2.2-1.3-2.9-.8-.7-2.1-1.1-4-1.1-1.4 0-2.6.2-3.7.5l-2.7 1c-.7.4-1.2.5-1.3.5-.4 0-.8-.4-1.3-1.2-.5-.8-.8-1.4-.8-1.8 0-.5.4-1 1.4-1.5a18.6 18.6 0 0 1 8.4-1.8c3.4 0 6 .7 7.8 2.2s2.7 3.5 2.7 6.1v11a29 29 0 0 0 .6 6.7c0 .5-.4.8-1.3 1l-2.3.3c-.6 0-.9-.2-1.2-.8-.2-.5-.4-1-.5-1.7l-.2-1.2c-.9 1.1-2.1 2-3.5 2.8-1.4.8-3 1.1-4.9 1.1-2.4.1-4.5-.6-6-1.9zm11-3.4c1.1-.6 2.2-1.5 3.1-2.5v-5.2c-3.4 0-6 .3-8 1-2 .6-3 2-3 4 0 1.2.3 2.1 1 2.7.7.6 1.6 1 2.9 1 1.6-.1 2.9-.4 4-1zm16.5 4V52.1c0-.8.8-1.3 2.4-1.3h.5c1.6 0 2.4.4 2.4 1.3v25.1c0 .8-.8 1.3-2.4 1.3h-.5c-1.6 0-2.4-.4-2.4-1.3zm0-31v-3.4c0-.8.8-1.3 2.4-1.3h.5c1.6 0 2.3.4 2.3 1.3v3.4c0 .8-.8 1.3-2.4 1.3h-.4c-1.6 0-2.4-.4-2.4-1.3zm17-4.7h-.6c-1.5 0-2.3.4-2.3 1.3v34.5c0 .8.8 1.3 2.4 1.3h.5c1.6 0 2.4-.4 2.4-1.3V42.7c-.1-.8-.8-1.2-2.4-1.2z"/>
  <path fill="#666" d="M60 48v-3c0-1.9-1.6-3.5-3.5-3.5h-30A3.5 3.5 0 0 0 23 45v2.9c1.4 1.3 14.2 13.4 18.6 13.4 4.6.1 16.9-11.9 18.4-13.3z"/>
  <path fill="#888" d="M53.4 59.1c-5 4.6-9 6.9-11.9 6.9-6.4 0-17.2-9.7-18.6-10.9v20c0 1.9 1.6 3.5 3.5 3.5h30c1.9 0 3.5-1.6 3.5-3.5V52.4c-.5.7-3.2 3.7-6.5 6.7z"/>
</svg>
