<svg xmlns="http://www.w3.org/2000/svg" viewBox="0 0 300 120">
  <path fill="#888" d="M58.9 45.7V103l182.2-28.7V17L58.9 45.7Zm176.5 23.8-170.8 27v-46l170.8-27v46Z"/>
  <path fill="#888" d="M78.1 62.6V86l5.9-1V61.7l6-.9 1.8-6L70.4 58l1.8 5.5 6-1zm132-26.4-5.7.9v23.3l-5.9 1V38l-5.8 1v29l17.5-2.7V36.2zm-103 39.3-7.7 1.2v-4.2l6.7-1v-5.7L99.4 67v-4.2l7.7-1.2V56l-13.5 2.2v25.3l13.5-2.2v-5.8zm6.4 3.4c.8.4 1.6.7 2.5.8a9.5 9.5 0 0 0 2.5 0 7.6 7.6 0 0 0 2.8-1A9.2 9.2 0 0 0 125 74c.3-.9.5-1.8.5-2.8v-2.6l-5.8.9v2.3l-.1 1-.4.5-.4.3-.6.2c-.8.1-1-.1-1-.2a2.5 2.5 0 0 1-.4-1.4v-10c0-.8.1-1.4.4-2 0 0 .2-.4 1-.5.5 0 .8 0 1 .3.4.3.5.8.5 1.3v2.3l5.8-1v-2.4c0-1-.2-2-.5-2.9a6 6 0 0 0-1.5-2.1 6 6 0 0 0-5.2-1.3 8.8 8.8 0 0 0-5.3 2.9 8.4 8.4 0 0 0-2 5.5v11.1c0 1.4.2 2.6.7 3.4a5.4 5.4 0 0 0 1.7 2Zm21.8-12.3 4.8-.8V76l5.8-.9V49.8l-5.8 1v9.7l-4.8.7v-9.7l-5.8 1v25.2l5.8-1v-10zm53.4-4-7.7 1.2v-4.2l6.7-1V53l-6.7 1v-4l7.7-1.2V43l-13.5 2.1v25.3l13.5-2.1v-5.8zm31.3-7.8 2-.3a9.1 9.1 0 0 0 4-1.5 8.3 8.3 0 0 0 2.4-2.8 8.7 8.7 0 0 0 1-3c.2-.8.2-2 .2-3.2 0-1.1 0-1.4-.2-1.8l-.2-.4a5.5 5.5 0 0 0-4.2-4 9.4 9.4 0 0 0-3.1 0l-7.7 1.3v25.3l5.8-.9v-8.7Zm0-11 2-.4h1.3l.5.5.2 1.1v1.7c0 .5 0 .8-.2 1.1l-.6.7c-.2 0-.6.3-1.4.4l-1.9.3v-5.5Zm-54.5 10.5v18l5.8-1V42l-10.7 5.5v6.4l4.9-2.6v3.1zm-9.8 1.5v-3l4.9 1v-6.4l-10.7-2.1v29.5l5.8-1v-18z"/>
</svg>

