<svg id="Layer_1" data-name="Layer 1" xmlns="http://www.w3.org/2000/svg" viewBox="0 0 300 120">
  <title>logos</title>
  <g>
    <path d="M60.936,77.106H42.274V73.472c5.78-5.037,9.166-8.34,10.322-9.826A6.991,6.991,0,0,0,54.33,59.6a3.406,3.406,0,0,0-1.156-2.808,4.7,4.7,0,0,0-3.221-.991,8.9,8.9,0,0,0-5.7,2.312l-1.734-4.376a14.263,14.263,0,0,1,8.67-2.725,9.626,9.626,0,0,1,6.688,2.229A7.552,7.552,0,0,1,60.358,59.1a10.52,10.52,0,0,1-1.569,5.368c-1.074,1.816-3.634,4.376-7.68,7.514v.082h9.827v5.038m46.241-7.763h-12.8a3.3,3.3,0,0,0,1.734,2.643,7.313,7.313,0,0,0,3.881.908,19.928,19.928,0,0,0,5.533-.743l.743,4.046a18.654,18.654,0,0,1-7.184,1.239,11.046,11.046,0,0,1-7.762-2.643,9.333,9.333,0,0,1-2.807-7.184,10.454,10.454,0,0,1,2.725-7.266,9.4,9.4,0,0,1,7.266-3.055,8.012,8.012,0,0,1,6.524,2.725,10.639,10.639,0,0,1,2.312,6.936,16.98,16.98,0,0,1-.166,2.394M94.213,65.215h7.432a4.939,4.939,0,0,0-.826-2.56,2.911,2.911,0,0,0-2.725-1.239,3.089,3.089,0,0,0-2.56,1.074,4.28,4.28,0,0,0-1.321,2.725m16.68,11.891V48.948H117v11.23h.082a6.308,6.308,0,0,1,2.395-1.982,7.093,7.093,0,0,1,3.221-.743,6.456,6.456,0,0,1,5.119,2.229,9.646,9.646,0,0,1,1.9,6.276V77.106h-6.11V66.619c0-2.891-1.074-4.377-3.221-4.377A3.6,3.6,0,0,0,118,63.15,3.3,3.3,0,0,0,117,65.71v11.4h-6.111m40.132-11.478v6.688a23.98,23.98,0,0,0,.33,4.707h-5.45l-.33-1.982h-.165a7.06,7.06,0,0,1-5.7,2.4,6.425,6.425,0,0,1-4.624-1.734,5.734,5.734,0,0,1-1.734-4.212,6.031,6.031,0,0,1,2.972-5.449c1.982-1.322,4.872-1.9,8.588-1.9v-.247c0-1.569-1.239-2.395-3.633-2.395a10.392,10.392,0,0,0-5.45,1.486l-1.156-3.8a15.981,15.981,0,0,1,7.679-1.734c2.808,0,5.037.743,6.441,2.147,1.569,1.321,2.23,3.385,2.23,6.028m-5.781,4.294V67.94c-3.8,0-5.78.991-5.78,2.972a2.171,2.171,0,0,0,.661,1.652,2.452,2.452,0,0,0,1.734.578,4.149,4.149,0,0,0,2.312-.826,2.767,2.767,0,0,0,1.073-2.394m10.735,7.184V63.976c0-1.9-.082-3.963-.082-6.193h5.284l.331,2.725h.165a7.393,7.393,0,0,1,11.312-1.073,8.852,8.852,0,0,1,1.982,6.193V76.94h-6.11V66.453c0-2.89-1.074-4.293-3.221-4.293a3.448,3.448,0,0,0-2.394.99,3.5,3.5,0,0,0-1.074,2.808V77.023h-6.11m36.745-28.075h6.111V71.325c0,2.147.082,4.046.082,5.781h-5.449l-.248-2.891h-.083a6.848,6.848,0,0,1-6.275,3.386,7.505,7.505,0,0,1-6.028-2.808,10.192,10.192,0,0,1-2.478-7.1A10.819,10.819,0,0,1,181,60.26a8.165,8.165,0,0,1,6.358-2.807c2.478,0,4.212.743,5.285,2.147h.083l.082-10.652m0,19.4v-2.23a4.258,4.258,0,0,0-1.073-2.973,3.612,3.612,0,0,0-2.725-1.156,3.993,3.993,0,0,0-3.22,1.487,6.451,6.451,0,0,0-1.157,3.963,5.951,5.951,0,0,0,1.157,3.8,3.892,3.892,0,0,0,3.137,1.4,3.563,3.563,0,0,0,2.56-1.073c.991-.578,1.321-1.651,1.321-3.22m9.909,7.762,1.074-4.377a9.823,9.823,0,0,0,2.642.991,9.246,9.246,0,0,0,2.808.413c1.734,0,2.642-.5,2.642-1.569a1.32,1.32,0,0,0-.66-1.156,7.306,7.306,0,0,0-2.313-.908c-3.8-1.156-5.7-3.056-5.7-5.781a5.823,5.823,0,0,1,2.229-4.624,9.2,9.2,0,0,1,5.863-1.816,12.2,12.2,0,0,1,5.615,1.156l-1.073,4.128a10.019,10.019,0,0,0-4.377-1.073c-1.569,0-2.394.495-2.394,1.569a1.333,1.333,0,0,0,.743,1.156,11.753,11.753,0,0,0,2.56,1.073,8.6,8.6,0,0,1,4.046,2.312,4.931,4.931,0,0,1,1.321,3.634,5.444,5.444,0,0,1-2.23,4.541,10.119,10.119,0,0,1-6.275,1.734,13.361,13.361,0,0,1-6.524-1.4m25.1-2.23a3.61,3.61,0,0,1-.991,2.642,3.241,3.241,0,0,1-2.56.991,3.2,3.2,0,0,1-2.56-1.073,3.752,3.752,0,0,1-.99-2.642,3.618,3.618,0,0,1,.99-2.643,3.435,3.435,0,0,1,2.56-1.073,3.3,3.3,0,0,1,2.56.991,4.317,4.317,0,0,1,.991,2.807m3.633-2.642V48.948h6.111v11.23h.082c1.322-1.9,3.386-2.808,6.111-2.808a7.243,7.243,0,0,1,5.863,2.725,10.792,10.792,0,0,1,2.312,7.1,12.5,12.5,0,0,1-1.156,5.367,9.01,9.01,0,0,1-3.3,3.716,8.369,8.369,0,0,1-4.624,1.321,6.57,6.57,0,0,1-6.028-3.22h-.083l-.33,2.725h-5.2c.165-1.817.247-3.634.247-5.863m6.028-5.037v2.559a3.79,3.79,0,0,0,1.156,2.973,4.025,4.025,0,0,0,5.863-.413,6.381,6.381,0,0,0,1.156-4.046A5.6,5.6,0,0,0,244.5,63.4a4.021,4.021,0,0,0-5.945-.33,5.14,5.14,0,0,0-1.074,3.138m35.673,3.137h-12.8a3.3,3.3,0,0,0,1.734,2.643,7.313,7.313,0,0,0,3.881.908,19.928,19.928,0,0,0,5.533-.743l.743,4.046a18.654,18.654,0,0,1-7.184,1.239,11.046,11.046,0,0,1-7.762-2.643,9.333,9.333,0,0,1-2.807-7.184,10.454,10.454,0,0,1,2.725-7.266,9.278,9.278,0,0,1,7.266-3.055,8.012,8.012,0,0,1,6.524,2.725,10.639,10.639,0,0,1,2.312,6.936,6.9,6.9,0,0,1-.166,2.394m-12.8-4.128h7.432a4.843,4.843,0,0,0-.743-2.56,2.912,2.912,0,0,0-2.725-1.239,3.089,3.089,0,0,0-2.56,1.074,3.693,3.693,0,0,0-1.4,2.725" fill="#c4c4c4"/>
    <path d="M26.089,57.948l6.936,12.139,7.019-12.139Zm45,14.781c.331-.826-3.22-3.716-.908-10.157.5-1.321,3.138-1.073,1.734-4.624a25.376,25.376,0,0,0-4.872-7.927,21.785,21.785,0,0,0-6.771-4.872,20.933,20.933,0,0,0-8.34-1.817,22.283,22.283,0,0,0-9,1.569A23.436,23.436,0,0,0,36,49.608a21.982,21.982,0,0,0-4.707,6.936c-.247.578-.5,1.239-.743,1.9H35.5v-.083A17.738,17.738,0,0,1,44.668,49.2a17.259,17.259,0,0,1,6.689-1.321,16.514,16.514,0,0,1,6.689,1.486,18.218,18.218,0,0,1,9.083,9.662A14.6,14.6,0,0,1,68.2,65.3a15.953,15.953,0,0,1-1.569,6.771" fill="#c4c4c4"/>
    <path d="M68.12,64.389a16.963,16.963,0,0,1-1.156,6.771,17.76,17.76,0,0,1-3.386,5.45,16.863,16.863,0,0,1-5.45,3.881,15.59,15.59,0,0,1-6.358,1.486,15.267,15.267,0,0,1-6.689-1.156A15.679,15.679,0,0,1,39.8,77.6a20.791,20.791,0,0,1-3.634-4.872l-5.037-.083.248.578a23.8,23.8,0,0,0,4.707,7.019c4.706,4.707,10.569,6.689,17.588,6.028A20.025,20.025,0,0,0,59.945,84.7,21.153,21.153,0,0,0,71.588,72.234c.33-.826-2.147-2.395-1.4-5.533a8.125,8.125,0,0,0,.248-4.459" fill="#c4c4c4"/>
    <path d="M78.689,48.948H84.8V71.325c0,2.147.082,4.046.165,5.781h-5.45l-.248-2.891h-.082A6.85,6.85,0,0,1,72.909,77.6a7.505,7.505,0,0,1-6.028-2.808,10.2,10.2,0,0,1-2.477-7.1,10.814,10.814,0,0,1,2.56-7.432,8.163,8.163,0,0,1,6.358-2.807c2.477,0,4.211.743,5.285,2.147h.082V48.948m0,19.4v-2.23a4.258,4.258,0,0,0-1.073-2.973,3.612,3.612,0,0,0-2.725-1.156,4,4,0,0,0-3.221,1.487,6.458,6.458,0,0,0-1.156,3.963,5.957,5.957,0,0,0,1.156,3.8,3.9,3.9,0,0,0,3.138,1.4,3.563,3.563,0,0,0,2.56-1.073c.908-.578,1.321-1.651,1.321-3.22" fill="#c4c4c4"/>
  </g>
  <rect width="300" height="120" fill="none"/>
</svg>
