<svg xmlns="http://www.w3.org/2000/svg" viewBox="0 0 300 120">
  <g fill="#5f5f5f">
    <path d="M60.94 77.1H42.27v-3.63c5.78-5.04 9.17-8.34 10.33-9.82a7 7 0 0 0 1.73-4.05 3.4 3.4 0 0 0-1.16-2.8 4.7 4.7 0 0 0-3.22-1 8.9 8.9 0 0 0-5.7 2.31l-1.73-4.37A14.26 14.26 0 0 1 51.19 51a9.63 9.63 0 0 1 6.69 2.23 7.55 7.55 0 0 1 2.48 5.86 10.52 10.52 0 0 1-1.57 5.37c-1.08 1.81-3.64 4.37-7.68 7.51v.08h9.83v5.04m46.24-7.76h-12.8a3.3 3.3 0 0 0 1.73 2.64 7.31 7.31 0 0 0 3.88.91 19.93 19.93 0 0 0 5.53-.74l.75 4.04a18.65 18.65 0 0 1-7.19 1.24 11.05 11.05 0 0 1-7.76-2.64 9.33 9.33 0 0 1-2.8-7.19 10.45 10.45 0 0 1 2.72-7.26 9.4 9.4 0 0 1 7.27-3.06 8.01 8.01 0 0 1 6.52 2.73 10.64 10.64 0 0 1 2.31 6.94 16.98 16.98 0 0 1-.16 2.39M94.2 65.2h7.44a4.94 4.94 0 0 0-.83-2.55 2.91 2.91 0 0 0-2.73-1.24 3.09 3.09 0 0 0-2.56 1.07 4.28 4.28 0 0 0-1.32 2.73M110.9 77.1V48.95H117v11.23h.08a6.3 6.3 0 0 1 2.4-1.98 7.1 7.1 0 0 1 3.22-.75 6.46 6.46 0 0 1 5.12 2.23 9.65 9.65 0 0 1 1.9 6.28V77.1h-6.11V66.6c0-2.88-1.08-4.37-3.22-4.37a3.6 3.6 0 0 0-2.39.91 3.3 3.3 0 0 0-1 2.56v11.4h-6.11m40.13-11.48v6.69a23.98 23.98 0 0 0 .33 4.7h-5.45l-.33-1.97h-.16a7.06 7.06 0 0 1-5.7 2.4 6.42 6.42 0 0 1-4.63-1.74 5.73 5.73 0 0 1-1.73-4.21 6.03 6.03 0 0 1 2.97-5.45c1.98-1.32 4.87-1.9 8.59-1.9v-.25c0-1.57-1.24-2.4-3.63-2.4a10.4 10.4 0 0 0-5.45 1.5l-1.16-3.8a15.98 15.98 0 0 1 7.68-1.74c2.8 0 5.04.74 6.44 2.15 1.57 1.32 2.23 3.38 2.23 6.02m-5.78 4.3v-1.99c-3.8 0-5.78 1-5.78 2.97a2.17 2.17 0 0 0 .66 1.65 2.45 2.45 0 0 0 1.73.58 4.15 4.15 0 0 0 2.32-.82 2.77 2.77 0 0 0 1.07-2.4m10.73 7.19V63.98c0-1.9-.08-3.97-.08-6.2h5.29l.33 2.73h.16a7.4 7.4 0 0 1 11.31-1.07 8.85 8.85 0 0 1 1.99 6.19v11.31h-6.11V66.45c0-2.89-1.08-4.29-3.23-4.29a3.45 3.45 0 0 0-2.39.99 3.5 3.5 0 0 0-1.07 2.8v11.07h-6.11m36.74-28.07h6.11v22.38c0 2.14.08 4.04.08 5.78h-5.45l-.24-2.9h-.09a6.85 6.85 0 0 1-6.27 3.4 7.5 7.5 0 0 1-6.03-2.82 10.2 10.2 0 0 1-2.48-7.1 10.82 10.82 0 0 1 2.57-7.43 8.16 8.16 0 0 1 6.36-2.8c2.48 0 4.21.74 5.28 2.14h.09l.08-10.65m0 19.4v-2.23a4.26 4.26 0 0 0-1.08-2.98 3.61 3.61 0 0 0-2.72-1.15 4 4 0 0 0-3.22 1.49 6.45 6.45 0 0 0-1.16 3.96 5.95 5.95 0 0 0 1.16 3.8 3.9 3.9 0 0 0 3.14 1.4 3.56 3.56 0 0 0 2.56-1.07c.99-.58 1.32-1.66 1.32-3.22m9.9 7.76l1.08-4.38a9.82 9.82 0 0 0 2.64 1 9.25 9.25 0 0 0 2.81.4c1.73 0 2.64-.5 2.64-1.56a1.32 1.32 0 0 0-.66-1.16 7.3 7.3 0 0 0-2.31-.9c-3.8-1.16-5.7-3.06-5.7-5.79a5.82 5.82 0 0 1 2.23-4.62 9.2 9.2 0 0 1 5.86-1.82 12.2 12.2 0 0 1 5.62 1.16l-1.08 4.12a10.02 10.02 0 0 0-4.37-1.07c-1.57 0-2.4.5-2.4 1.57a1.33 1.33 0 0 0 .75 1.16 11.75 11.75 0 0 0 2.56 1.07 8.6 8.6 0 0 1 4.04 2.31 4.93 4.93 0 0 1 1.32 3.64 5.44 5.44 0 0 1-2.23 4.54 10.12 10.12 0 0 1-6.27 1.73 13.36 13.36 0 0 1-6.53-1.4m25.1-2.23a3.61 3.61 0 0 1-.99 2.64 3.24 3.24 0 0 1-2.56 1 3.2 3.2 0 0 1-2.56-1.08 3.75 3.75 0 0 1-.99-2.64 3.62 3.62 0 0 1 1-2.64 3.44 3.44 0 0 1 2.55-1.08 3.3 3.3 0 0 1 2.56 1 4.32 4.32 0 0 1 1 2.8m3.63-2.64v-22.3h6.1v11.24h.09c1.32-1.9 3.39-2.81 6.11-2.81a7.24 7.24 0 0 1 5.86 2.73 10.8 10.8 0 0 1 2.32 7.1 12.5 12.5 0 0 1-1.16 5.36 9.01 9.01 0 0 1-3.3 3.72 8.37 8.37 0 0 1-4.62 1.32 6.57 6.57 0 0 1-6.03-3.22h-.09l-.33 2.72h-5.2c.17-1.81.25-3.63.25-5.86m6.03-5.04v2.56a3.79 3.79 0 0 0 1.16 2.98 4.03 4.03 0 0 0 5.86-.42 6.38 6.38 0 0 0 1.15-4.04 5.6 5.6 0 0 0-1.15-3.88 4.02 4.02 0 0 0-5.95-.33 5.14 5.14 0 0 0-1.07 3.14m35.67 3.14h-12.8a3.3 3.3 0 0 0 1.74 2.64 7.31 7.31 0 0 0 3.88.9 19.93 19.93 0 0 0 5.53-.74l.74 4.05a18.65 18.65 0 0 1-7.18 1.24 11.05 11.05 0 0 1-7.76-2.64 9.33 9.33 0 0 1-2.8-7.19 10.45 10.45 0 0 1 2.72-7.26 9.28 9.28 0 0 1 7.26-3.06 8.01 8.01 0 0 1 6.53 2.73 10.64 10.64 0 0 1 2.3 6.93 6.9 6.9 0 0 1-.16 2.4m-12.8-4.13h7.43a4.84 4.84 0 0 0-.74-2.56 2.91 2.91 0 0 0-2.72-1.24 3.09 3.09 0 0 0-2.56 1.07 3.7 3.7 0 0 0-1.4 2.73"/>
    <path d="M26.09 57.95l6.93 12.14 7.02-12.14zm45 14.78c.33-.83-3.22-3.72-.9-10.16.5-1.32 3.13-1.07 1.72-4.62a25.38 25.38 0 0 0-4.87-7.93 21.79 21.79 0 0 0-6.77-4.87 20.93 20.93 0 0 0-8.34-1.82 22.28 22.28 0 0 0-9 1.57A23.44 23.44 0 0 0 36 49.6a21.98 21.98 0 0 0-4.7 6.94c-.25.58-.5 1.24-.75 1.9h4.95v-.08a17.74 17.74 0 0 1 9.17-9.16 17.26 17.26 0 0 1 6.69-1.32 16.51 16.51 0 0 1 6.69 1.49 18.22 18.22 0 0 1 9.08 9.66 14.6 14.6 0 0 1 1.07 6.27 15.95 15.95 0 0 1-1.57 6.77"/>
    <path d="M68.12 64.39a16.96 16.96 0 0 1-1.16 6.77 17.76 17.76 0 0 1-3.38 5.45 16.86 16.86 0 0 1-5.45 3.88 15.59 15.59 0 0 1-6.36 1.49 15.27 15.27 0 0 1-6.69-1.16 15.68 15.68 0 0 1-5.28-3.22 20.8 20.8 0 0 1-3.63-4.87l-5.04-.09.25.58a23.8 23.8 0 0 0 4.7 7.02c4.71 4.7 10.57 6.7 17.6 6.03a20.02 20.02 0 0 0 6.27-1.57 21.15 21.15 0 0 0 11.64-12.47c.33-.82-2.15-2.4-1.4-5.53a8.13 8.13 0 0 0 .25-4.46"/>
    <path d="M78.69 48.95h6.11v22.38c0 2.14.08 4.04.17 5.78h-5.45l-.25-2.9h-.09a6.85 6.85 0 0 1-6.27 3.39 7.5 7.5 0 0 1-6.03-2.8 10.2 10.2 0 0 1-2.48-7.1 10.81 10.81 0 0 1 2.56-7.44 8.16 8.16 0 0 1 6.36-2.8c2.48 0 4.21.74 5.29 2.14h.08V48.95m0 19.4v-2.23a4.26 4.26 0 0 0-1.07-2.98A3.61 3.61 0 0 0 74.89 62a4 4 0 0 0-3.22 1.49 6.46 6.46 0 0 0-1.16 3.96 5.96 5.96 0 0 0 1.16 3.8 3.9 3.9 0 0 0 3.14 1.4 3.56 3.56 0 0 0 2.56-1.07c.9-.58 1.32-1.65 1.32-3.22"/>
  </g>
</svg>
