<svg id="Layer_1" data-name="Layer 1" xmlns="http://www.w3.org/2000/svg" viewBox="0 0 300 120">
  <title>logos</title>
  <g>
    <path d="M95.043,59.984l1.472-5.712h7.36l1.424,5.712h5.68l-7.008-25.792h-7.1L89.723,59.984m13-9.68H97.579l2.464-11.12h.08Zm18.256-1.6h3.144c2.72,0,3.576,1.392,3.576,3.68,0,3.6-2.576,3.64-3.712,3.64h-3.008m0-17.864h3.328a3.1,3.1,0,0,1,3.109,3.082c0,.066,0,.132,0,.2,0,2.512-1.64,3.3-2.824,3.3h-3.6Zm4.144,21.824c2.288,0,8-.288,8-6.816,0-3.536-1-6-4.8-6.544v-.08c2.936-.56,4.4-2.72,4.4-5.68,0-5.5-3.4-6.672-7.5-6.672h-9.6V59.984Zm19.3,0V41.12h.08l7.04,18.864h7.1V34.2H153.6V52.064h-.064L146.675,34.2H139.4V59.984m27.712-11.392,3.464-3.456-3.52-3.456-3.44,3.456m14.008,14.848,1.472-5.712h7.36l1.424,5.712h5.68l-7-25.784h-7.1l-7.2,25.784m12.968-9.68h-5.152l2.48-11.12h.08Zm18,9.68v-19.9h.08l4.72,19.9h5.152l4.96-19.9h.08v19.9h5.248V34.2h-8.4l-4.28,17.536h-.08l-4.04-17.6h-8.64V59.984m37.936-21.84h2.4c1.7,0,2.736.936,2.736,3.4,0,1.64-.608,3.792-2.744,3.792h-2.4m0,4h1.44c4.16,0,3.888,2.56,3.888,5.68,0,1.68-.16,3.36.56,4.96h5.28c-.5-1.12-.6-5.92-.6-7.6,0-4.64-3.5-4.96-4.68-5.12v-.072c3.488-.56,4.8-3.04,4.8-6.32,0-4.4-2.376-6.768-6.048-6.768h-10V59.984h5.384V49.3Zm25.2,7.2c-3.04,0-3.36-2.88-3.36-9.52s.4-9.44,3.36-9.44,3.44,2.824,3.44,9.44-.4,9.456-3.44,9.456m0,3.856c8.88.04,8.88-6.536,8.88-13.28s0-13.328-8.88-13.328-8.88,6.5-8.88,13.328,0,13.32,8.88,13.32" fill="#c4c4c4"/>
    <path d="M30.051,30.344H74.5v37.04L52.259,89.608,30.051,67.392V30.352" fill="#fff"/>
    <path d="M52.275,89.68V89.6L74.5,67.392v-.04l.056.08-22.28,22.24" fill="#e5e5e5"/>
    <path d="M52.275,89.6V45.136L74.5,67.344v.048L52.259,89.6" fill="#fff"/>
    <path d="M52.275,89.6V45.136L74.5,67.344v.048L52.259,89.6" fill="#e5e5e5"/>
    <path d="M52.275,89.68,30,67.424V30.28h44.56V67.4l-.08-.128V30.384H30.059v37.04l22.16,22.16.064.136" fill="#c4c4c4"/>
    <path d="M52.219,89.536,30.059,67.392V30.352H74.5V67.264L52.2,45V89.536" fill="#fff"/>
    <path d="M52.219,89.536,30.059,67.392V30.352H74.5V67.264L52.2,45V89.536" fill="#c4c4c4"/>
    <path d="M74.555,67.424l-.064-.08v.072M52.259,89.664l-.08-.16.08.08v.08" fill="#e5e5e5"/>
    <path d="M74.555,67.424l-.064-.08v.072M52.259,89.664l-.08-.16.08.08v.08" fill="#c4c4c4"/>
    <path d="M52.275,89.6l-.056-.064V45L74.5,67.28v.08L52.259,45.12V89.6" fill="#fff"/>
    <path d="M52.275,89.6l-.056-.064V45L74.5,67.28v.08L52.259,45.12V89.6" fill="#e5e5e5"/>
    <path d="M52.275,89.6l-.056-.064V45L74.5,67.28v.08L52.259,45.12V89.6" fill="#c4c4c4"/>
  </g>
  <rect width="300" height="120" fill="none"/>
</svg>
