<svg xmlns="http://www.w3.org/2000/svg" viewBox="0 0 300 120">
  <path fill="#e5e5e5" d="M231.6 55.67c-4.65-15.96-19.8-25.3-33.78-25.3H57.22l11.2 40.46v.06c4.63 16.08 19.85 25.05 33.02 25.24H242.8zM78.11 68.17c0-.06-5.32-19.3-7.67-27.65h127.3c9.46 0 20.72 6.37 24.13 18 .06.12 6.8 24.5 7.67 27.59H101.8a25.4 25.4 0 0 1-23.69-17.94z"/>
  <path fill="#c4c4c4" d="M191.63 70.46c0 1.48 1.18 2.78 4.2 2.78 3.72 0 5.02-.37 5.02-3.83V67.8h-5.32c-2.66 0-3.9 1.05-3.9 2.66zm-19.05-11.2c-4.2 0-4.4 3.46-4.4 6.86 0 3.47.25 6.93 4.4 6.93s4.39-3.65 4.39-6.93c-.06-3.21-.25-6.86-4.4-6.86z"/>
  <path fill="#c4c4c4" d="M221.88 58.46c-3.4-11.63-14.66-18-24.13-18H70.45c2.35 8.4 7.6 27.59 7.67 27.65a25.4 25.4 0 0 0 23.7 17.94h127.73c-.87-3.1-7.6-27.47-7.67-27.6zm-113.7-8.17h-3.28c-1.42 0-1.91.5-1.91 1.86v2.9h5.2v3.4h-5.2V77.2h-4.46V58.46H94.4l-.99-3.4h5.13v-2.91c0-4.15 2.6-6.07 6.07-6.07h3.58zM131.5 77.2h-4.45v-2.35h-.07a7.14 7.14 0 0 1-5.75 2.6 7.43 7.43 0 0 1-7.42-7.73V55.05h4.45v13.18c0 3.03 1.86 4.76 4.4 4.76 2.47 0 4.39-1.73 4.39-4.76V55.05h4.45zm25.61 0h-4.45V64.02c0-3.03-1.86-4.76-4.4-4.76s-4.45 1.73-4.45 4.76v13.24h-4.45v-22.2h4.45v2.34h.07a7.2 7.2 0 0 1 5.75-2.66 7.42 7.42 0 0 1 7.36 7.73V77.2zm24.31 0h-4.45v-2.35a7.85 7.85 0 0 1-5.75 2.6 7.14 7.14 0 0 1-5.94-2.9c-1.24-1.56-1.55-3.04-1.55-8.48s.37-6.87 1.55-8.48a7.14 7.14 0 0 1 5.94-2.9 8.1 8.1 0 0 1 5.75 2.65V46.08h4.45zm23.88 0h-4.46v-1.98h-.12c-.93 1.55-2.47 2.23-5.44 2.23-4.95 0-7.86-2.91-7.86-6.8 0-3.53 2.47-6.56 7.24-6.56h6.18v-2.36c0-2.1-1.36-2.84-4.57-2.84-2.3 0-3.4.43-4.21 1.73l-3.53-2.66c1.74-2.35 4.15-3.22 7.49-3.22 5.44 0 9.22 1.86 9.22 7.3V77.2z"/>
  <path fill="#fff" d="M127.05 68.23c0 3.03-1.92 4.76-4.4 4.76-2.53 0-4.38-1.73-4.38-4.76V55.05h-4.46v14.73a7.5 7.5 0 0 0 7.43 7.73 7.14 7.14 0 0 0 5.75-2.6h.06v2.35h4.45v-22.2h-4.45zM98.53 52.08V55H93.4l.99 3.4h4.14v18.75H103V58.46h5.2v-3.4h-5.2v-2.91c0-1.36.5-1.86 1.92-1.86h3.27v-4.2h-3.58c-3.53 0-6.07 1.85-6.07 6zm97.55 2.67c-3.34 0-5.75.86-7.48 3.21l3.52 2.66c.81-1.24 1.86-1.73 4.21-1.73 3.22 0 4.58.74 4.58 2.84v2.36h-6.19c-4.76 0-7.23 3.03-7.23 6.55 0 3.84 2.9 6.8 7.85 6.8 3.03 0 4.58-.68 5.45-2.22h.06v1.98h4.45V62.1c0-5.5-3.77-7.36-9.22-7.36zm4.77 14.72c0 3.46-1.24 3.83-5.01 3.83-3.03 0-4.2-1.3-4.2-2.78 0-1.61 1.23-2.66 3.83-2.66h5.32v1.6zm-51.1-14.73A6.93 6.93 0 0 0 144 57.4h-.06v-2.35h-4.46v22.21h4.46V64.02c0-3.03 1.85-4.76 4.45-4.76 2.48 0 4.4 1.73 4.4 4.76v13.24h4.45V62.48a7.63 7.63 0 0 0-7.49-7.74zm27.16 2.66a8.36 8.36 0 0 0-5.76-2.66 7.14 7.14 0 0 0-5.93 2.9c-1.24 1.55-1.55 3.04-1.55 8.48s.37 6.93 1.55 8.48a7.14 7.14 0 0 0 5.93 2.9 7.85 7.85 0 0 0 5.76-2.6v2.35h4.45V46.08h-4.45zm-4.33 15.65c-4.2 0-4.4-3.46-4.4-6.93 0-3.4.25-6.86 4.4-6.86s4.39 3.65 4.39 6.86c-.06 3.22-.25 6.94-4.4 6.94z"/>
</svg>
