<svg id="Layer_1" data-name="Layer 1" xmlns="http://www.w3.org/2000/svg" viewBox="0 0 300 120">
  <title>logos</title>
  <g>
    <path d="M231.591,55.672h0c-4.639-15.959-19.8-25.3-33.775-25.3H57.213l11.2,40.456v.061c4.639,16.084,19.857,25.053,33.032,25.239H242.787Zm-153.47,12.5c0-.062-5.32-19.3-7.671-27.651h127.3c9.465,0,20.723,6.371,24.125,18,.062.124,6.805,24.5,7.671,27.589H101.812A25.409,25.409,0,0,1,78.121,68.168Z" fill="#e5e5e5"/>
    <path d="M191.631,70.456c0,1.485,1.175,2.784,4.206,2.784,3.711,0,5.01-.371,5.01-3.835V67.8h-5.319C192.868,67.8,191.631,68.848,191.631,70.456Zm-19.053-11.2c-4.206,0-4.392,3.464-4.392,6.866,0,3.464.248,6.929,4.392,6.929s4.392-3.65,4.392-6.929C176.908,62.91,176.723,59.26,172.578,59.26Z" fill="#c4c4c4"/>
    <path d="M221.879,58.456c-3.4-11.629-14.66-18-24.125-18H70.45c2.351,8.413,7.609,27.589,7.671,27.651a25.409,25.409,0,0,0,23.692,17.939H229.55C228.684,82.952,221.941,58.58,221.879,58.456ZM108.184,50.291h-3.279c-1.422,0-1.917.5-1.917,1.855v2.908h5.2v3.4h-5.2V77.2H98.534V58.456H94.39l-.99-3.4h5.134V52.146c0-4.144,2.6-6.062,6.062-6.062h3.588ZM131.5,77.2h-4.453V74.848h-.062a7.141,7.141,0,0,1-5.753,2.6,7.426,7.426,0,0,1-7.423-7.732V55.054h4.454V68.23c0,3.031,1.856,4.763,4.392,4.763,2.474,0,4.392-1.732,4.392-4.763V55.054H131.5Zm25.61,0H152.66V64.023c0-3.031-1.856-4.763-4.392-4.763s-4.454,1.732-4.454,4.763V77.261H139.36V55.054h4.454V57.4h.062a7.192,7.192,0,0,1,5.753-2.659,7.415,7.415,0,0,1,7.361,7.732V77.2Zm24.31,0H176.97V74.848a7.849,7.849,0,0,1-5.753,2.6,7.145,7.145,0,0,1-5.938-2.907c-1.237-1.546-1.546-3.031-1.546-8.474s.371-6.867,1.546-8.475a7.145,7.145,0,0,1,5.938-2.907,8.106,8.106,0,0,1,5.753,2.66V46.084h4.454Zm23.877,0h-4.454V75.22h-.123c-.928,1.546-2.475,2.226-5.444,2.226-4.949,0-7.856-2.907-7.856-6.8,0-3.526,2.474-6.557,7.238-6.557h6.185V61.734c0-2.1-1.361-2.845-4.577-2.845-2.289,0-3.4.433-4.206,1.732l-3.526-2.66c1.732-2.35,4.144-3.216,7.484-3.216,5.444,0,9.217,1.855,9.217,7.3V77.2Z" fill="#c4c4c4"/>
    <path d="M127.051,68.23c0,3.031-1.918,4.763-4.392,4.763-2.536,0-4.392-1.732-4.392-4.763V55.054h-4.454V69.776a7.5,7.5,0,0,0,7.423,7.732,7.141,7.141,0,0,0,5.753-2.6h.062v2.351H131.5V55.054h-4.453ZM98.534,52.085v2.907H93.4l.99,3.4h4.144V77.137h4.454V58.456h5.2v-3.4h-5.2V52.146c0-1.36.5-1.855,1.917-1.855h3.279V46.084H104.6C101.07,46.084,98.534,47.94,98.534,52.085Zm97.55,2.66c-3.34,0-5.753.866-7.485,3.216l3.526,2.66c.805-1.237,1.856-1.732,4.207-1.732,3.216,0,4.577.742,4.577,2.845v2.351h-6.186c-4.763,0-7.237,3.031-7.237,6.557,0,3.835,2.907,6.8,7.856,6.8,3.031,0,4.577-.68,5.444-2.226h.061V77.2H205.3V62.106C205.3,56.6,201.528,54.745,196.084,54.745Zm4.763,14.722c0,3.464-1.237,3.835-5.01,3.835-3.031,0-4.206-1.3-4.206-2.784,0-1.608,1.237-2.66,3.835-2.66h5.32v1.609ZM149.753,54.745A6.935,6.935,0,0,0,144,57.4h-.062v-2.35h-4.454V77.261h4.454V64.023c0-3.031,1.856-4.763,4.454-4.763,2.474,0,4.392,1.732,4.392,4.763V77.261h4.453V62.477a7.625,7.625,0,0,0-7.484-7.732ZM176.908,57.4a8.362,8.362,0,0,0-5.753-2.659,7.145,7.145,0,0,0-5.938,2.907c-1.237,1.546-1.546,3.031-1.546,8.474s.371,6.929,1.546,8.475a7.145,7.145,0,0,0,5.938,2.907,7.847,7.847,0,0,0,5.753-2.6v2.351h4.454V46.084h-4.454Zm-4.33,15.651c-4.206,0-4.392-3.465-4.392-6.929,0-3.4.248-6.866,4.392-6.866s4.392,3.65,4.392,6.866C176.908,69.343,176.723,73.055,172.578,73.055Z" fill="#fff"/>
  </g>
  <rect width="300" height="120" fill="none"/>
</svg>
