<svg id="Layer_1" data-name="Layer 1" xmlns="http://www.w3.org/2000/svg" viewBox="0 0 300 120">
  <title>logos</title>
  <g>
    <path d="M243.928,50.45a1.837,1.837,0,0,0-1.787,1.966,2.047,2.047,0,0,0,1.787,2.054,1.949,1.949,0,0,0,2.055-1.965,2.062,2.062,0,0,0-1.965-2.055m-5.361,1.787a1.9,1.9,0,0,0-1.966,1.787,2.056,2.056,0,0,0,1.966,2.233,1.927,1.927,0,0,0,1.966-1.965v-.179a2.113,2.113,0,0,0-1.966-1.966m-3.216,4.468a2.389,2.389,0,0,0-2.234,2.055,2.136,2.136,0,0,0,1.787,2.233,2.258,2.258,0,0,0,2.323-1.965,2.029,2.029,0,0,0-1.966-2.145m5,21.175a2.3,2.3,0,0,1-2.412-2.413,2.209,2.209,0,0,1,2.412-2.412,2.3,2.3,0,0,1,2.413,2.412,2.21,2.21,0,0,1-2.413,2.413m-14.026-3.127a2.289,2.289,0,0,1-2.234-2.323,2.234,2.234,0,0,1,4.467-.09,2.21,2.21,0,0,1-2.233,2.234m7.147,1.429a2.42,2.42,0,1,1,.357-4.824,2.36,2.36,0,0,1,2.145,2.412,2.218,2.218,0,0,1-2.323,2.144m10.453-3.3c-1.072,0-1.787-.894-1.787-2.145a1.838,1.838,0,0,1,1.787-1.965,2.075,2.075,0,0,1,2.055,2.055c.178.893-.894,1.965-1.966,1.965m-5.36-1.786a1.9,1.9,0,0,1-1.966-1.787,2.056,2.056,0,0,1,1.966-2.234,1.926,1.926,0,0,1,1.965,1.966v.178a2.112,2.112,0,0,1-1.965,1.966m-3.217-4.467a2.239,2.239,0,0,1-2.233-2.055,2.09,2.09,0,0,1,1.787-2.234,2.258,2.258,0,0,1,2.322,1.966v.268a2.275,2.275,0,0,1-1.965,1.965m-21.978,2.145a1.728,1.728,0,0,1-1.609-1.609,1.766,1.766,0,0,1,1.609-1.786,1.583,1.583,0,0,1,1.608,1.518,2.1,2.1,0,0,1-1.608,1.787m5.718,2.949a1.927,1.927,0,0,1-1.966-1.966,2.113,2.113,0,0,1,1.966-1.966,1.983,1.983,0,0,1,1.965,1.966,2.112,2.112,0,0,1-1.965,1.966m30.019-19.209a2.062,2.062,0,0,1,2.055,1.965,1.984,1.984,0,0,1-1.966,1.966,2,2,0,0,1-2.055-1.966,1.927,1.927,0,0,1,1.966-1.965m3.4,4.467a1.975,1.975,0,0,1,1.965,2.144,1.966,1.966,0,1,1-3.931,0,1.983,1.983,0,0,1,1.966-1.965M247.5,77.789a2.377,2.377,0,1,0,.268-4.735,2.275,2.275,0,0,0-2.412,2.323,2.228,2.228,0,0,0,2.323,2.412m14.026-3.216a2.139,2.139,0,0,0,2.145-2.234,2.183,2.183,0,0,0-2.323-2.234,2.159,2.159,0,0,0-2.234,2.234,2.212,2.212,0,0,0,2.234,2.234m-7.148,1.518a2.276,2.276,0,0,0,2.413-2.322,2.229,2.229,0,0,0-2.323-2.413,2.423,2.423,0,0,0-2.5,2.413,2.3,2.3,0,0,0,2.323,2.322m-5-4.913a2.112,2.112,0,0,0,1.965-1.966,2.056,2.056,0,1,0-4.109-.179v.179a2.112,2.112,0,0,0,1.965,1.966m3.574-4.468a1.972,1.972,0,0,0,1.787-2.054,2.012,2.012,0,0,0-1.787-2.145,2.119,2.119,0,0,0-2.055,2.234A1.874,1.874,0,0,0,252.6,66.71m21.71,1.877a1.565,1.565,0,0,0,1.429-1.609,1.564,1.564,0,0,0-3.127.09,1.529,1.529,0,0,0,1.608,1.519M268.5,71.624a1.966,1.966,0,0,0,0-3.931,1.966,1.966,0,1,0,0,3.931" fill="#e5e5e5"/>
    <path d="M229.633,59.3a2.182,2.182,0,0,0-2.323,2.234,2.209,2.209,0,0,0,2.234,2.412,2.139,2.139,0,0,0,2.144-2.234,2.462,2.462,0,0,0-2.233-2.144m-6.254.447a1.974,1.974,0,0,0,0,3.931,2.063,2.063,0,0,0,2.055-1.966,1.983,1.983,0,0,0-1.966-1.965m-9.828.357a1.766,1.766,0,0,0-1.787,1.43,1.825,1.825,0,0,0,1.43,1.786,1.8,1.8,0,0,0,1.608-1.518,1.448,1.448,0,0,0-1.34-1.609m-4.914,0a1.464,1.464,0,0,0-1.34,1.519,1.335,1.335,0,0,0,1.429,1.34,1.316,1.316,0,0,0,1.341-1.34,1.272,1.272,0,0,0-1.251-1.429m35.38-20.817a2.3,2.3,0,0,0-2.413,2.412,2.209,2.209,0,0,0,2.413,2.412,2.184,2.184,0,0,0,2.412-2.323,2.423,2.423,0,0,0-2.5-2.412m-3.573,5.807a2.322,2.322,0,0,0-2.5,2.413,2.228,2.228,0,0,0,2.412,2.323,2.457,2.457,0,0,0,.09-4.914M226.328,48.4a2.189,2.189,0,1,0,0,4.378,2.25,2.25,0,0,0,2.233-2.144,2.285,2.285,0,0,0-2.233-2.323m-2.055,5.986a1.922,1.922,0,0,0-2.055,1.787,2.2,2.2,0,0,0,1.965,2.054,1.836,1.836,0,0,0,1.787-1.965c.268-.893-.714-1.787-1.787-1.787m-3.216-8.756a2.189,2.189,0,1,0,2.144,2.323,2.289,2.289,0,0,0-2.323-2.233m12.33,1.519a2.423,2.423,0,1,0,.446,4.824,2.164,2.164,0,0,0,2.145-2.323,2.253,2.253,0,0,0-2.323-2.323m-2.859,5.808a2.368,2.368,0,0,0,.089,4.735,2.233,2.233,0,0,0,2.323-2.234,2.328,2.328,0,0,0-2.412-2.323m5.36-13.133a2.368,2.368,0,1,0,0,4.735,2.48,2.48,0,0,0,2.413-2.5,2.408,2.408,0,0,0-2.5-2.322m-7.684,2.054a2.413,2.413,0,0,0,.09,4.825,2.539,2.539,0,0,0,2.5-2.412,2.321,2.321,0,0,0-2.412-2.5M213.552,54.649a1.764,1.764,0,0,0-1.609,1.787,1.575,1.575,0,0,0,1.609,1.429,1.528,1.528,0,0,0,1.608-1.518,1.759,1.759,0,0,0-1.519-1.787m4.824,2.412a1.921,1.921,0,0,0-1.786,1.787,1.7,1.7,0,1,0,1.608-1.787m-9.2-3.574c-.893,0-1.429.447-1.429,1.251a1.392,1.392,0,0,0,1.429,1.34,1.463,1.463,0,0,0,1.341-1.519,1.222,1.222,0,0,0-1.341-1.34m10.722-1.787a1.917,1.917,0,0,0-2.055,1.787,2.062,2.062,0,0,0,1.965,2.055,2.1,2.1,0,0,0,1.966-1.787,2.192,2.192,0,0,0-2.055-2.055m-4.825-2.68a1.972,1.972,0,0,0-1.786,2.055,1.835,1.835,0,0,0,2.054,1.608,1.727,1.727,0,0,0,1.609-1.608c0-.893-.715-1.966-1.609-1.966H214.8m29.484,34.666a2.466,2.466,0,0,1-2.323-2.5,2.3,2.3,0,0,1,2.412-2.412,2.423,2.423,0,0,1,2.412,2.5,2.276,2.276,0,0,1-2.323,2.413m-20.1-14.3a1.97,1.97,0,0,1-2.055-2.055,1.927,1.927,0,0,1,1.966-1.966,1.837,1.837,0,0,1,1.787,1.966c.268.893-.715,1.965-1.787,1.965m-3.217,8.935a2.289,2.289,0,0,1-2.233-2.323,2.189,2.189,0,1,1,4.378,0,2.35,2.35,0,0,1-2.323,2.233m9.649-7.5a2.385,2.385,0,0,1-2.323-2.412,2.445,2.445,0,0,1,2.412-2.323,2.253,2.253,0,0,1,2.323,2.323,2.529,2.529,0,0,1-2.5,2.323M235.8,82.792a2.228,2.228,0,0,1-2.412-2.323,2.413,2.413,0,0,1,4.824.09,2.285,2.285,0,0,1-2.5,2.233m-7.684-1.965a2.394,2.394,0,0,1-2.233-2.5A2.514,2.514,0,0,1,228.472,76a2.267,2.267,0,0,1,2.233,2.234,2.446,2.446,0,0,1-2.233,2.5h-.358m-9.827-15.009a1.791,1.791,0,0,1-1.787-1.787,1.763,1.763,0,0,1,1.608-1.787,1.921,1.921,0,0,1,1.787,1.787,1.791,1.791,0,0,1-1.787,1.787M208.459,69.3a1.409,1.409,0,0,1-1.429-1.429,1.334,1.334,0,0,1,1.429-1.34,1.264,1.264,0,0,1,1.34,1.34c0,.893-.447,1.429-1.251,1.429m5.718,4.468a1.757,1.757,0,1,1,.268-3.485c.894,0,1.609,1.072,1.609,2.055a1.791,1.791,0,0,1-1.787,1.787m44.135-14.92a2.158,2.158,0,0,1,2.234,2.233,2.328,2.328,0,0,1-2.323,2.412,2.158,2.158,0,0,1-2.234-2.233,2.45,2.45,0,0,1,2.144-2.144m5.986.446a2.062,2.062,0,0,1,2.055,1.966,1.982,1.982,0,0,1-1.965,1.965,1.974,1.974,0,0,1,0-3.931m10.364.358a1.521,1.521,0,0,1-.179,3.037,1.359,1.359,0,0,1-1.43-1.429,1.479,1.479,0,0,1,1.609-1.519m4.645,0a1.543,1.543,0,0,1,1.43,1.519,1.409,1.409,0,0,1-1.43,1.429,1.339,1.339,0,0,1-1.429-1.34,1.554,1.554,0,0,1,1.429-1.519m-31.716-15.1a2.424,2.424,0,0,1,2.5,2.413,2.275,2.275,0,0,1-2.323,2.412,2.208,2.208,0,0,1-2.412-2.234,2.3,2.3,0,0,1,2.323-2.5M261.8,48.931a2.138,2.138,0,0,1,2.233,2.144,2.164,2.164,0,0,1-2.323,2.145,2.235,2.235,0,1,1-.089-4.468m2.055,5.718a1.928,1.928,0,0,1,1.966,1.966,1.984,1.984,0,0,1-1.966,1.966,1.928,1.928,0,0,1-1.966-1.966,2.129,2.129,0,0,1,2.055-1.966m3.217-8.666a2.146,2.146,0,1,1,0,4.289,2.117,2.117,0,0,1-2.145-2.145,2.159,2.159,0,0,1,2.234-2.233M254.56,46.876a2.414,2.414,0,0,1,0,4.825,2.368,2.368,0,0,1-.089-4.735m2.859,5.986a2.344,2.344,0,0,1,2.323,2.233,2.254,2.254,0,0,1-2.234,2.412,2.5,2.5,0,0,1-2.412-2.233,2.208,2.208,0,0,1,2.233-2.412M251.88,40a2.3,2.3,0,0,1,2.412,2.412,2.251,2.251,0,0,1-2.412,2.412,2.209,2.209,0,0,1-2.413-2.412A2.4,2.4,0,0,1,251.88,40m7.773,2.055a2.412,2.412,0,0,1,0,4.824,2.38,2.38,0,0,1-2.413-2.323,2.321,2.321,0,0,1,2.413-2.5M274.484,54.56a1.623,1.623,0,0,1,1.429,1.787c0,.714-.893,1.34-1.787,1.34a1.432,1.432,0,0,1-1.429-1.519,1.528,1.528,0,0,1,1.608-1.519m-4.825,2.412a1.708,1.708,0,1,1-1.965,1.787,1.922,1.922,0,0,1,1.787-1.787m9.827-3.573a1.242,1.242,0,0,1,1.34,1.25,1.339,1.339,0,0,1-1.34,1.43,1.542,1.542,0,0,1-1.429-1.519,1.339,1.339,0,0,1,1.34-1.429m-10.721-1.966a2.063,2.063,0,0,1,2.055,1.966,2.112,2.112,0,0,1-1.966,1.965,1.982,1.982,0,0,1-1.965-1.965,1.875,1.875,0,0,1,1.965-1.966m4.825-2.68a2.127,2.127,0,0,1,1.965,2.055,1.836,1.836,0,0,1-1.965,1.787,1.956,1.956,0,0,1-1.966-1.519,2.1,2.1,0,0,1,1.787-1.966m-9.47,19.924a1.976,1.976,0,0,0,1.965-2.145,1.874,1.874,0,0,0-1.965-1.965,1.926,1.926,0,0,0-1.966,1.965c-.179.894.894,1.966,1.966,1.966m3.305,9.2a2.181,2.181,0,0,0,2.323-2.233,2.189,2.189,0,1,0-4.377,0,2.21,2.21,0,0,0,2.233,2.233m-9.738-7.5a2.706,2.706,0,0,0,2.68-2.322,2.6,2.6,0,0,0-2.323-2.5,2.364,2.364,0,0,0-2.412,2.234,2.284,2.284,0,0,0,2.233,2.5m-5.36,12.508a2.327,2.327,0,1,0,.089-4.646,2.209,2.209,0,0,0-2.412,2.413,2.294,2.294,0,0,0,2.412,2.412m7.684-1.966a2.253,2.253,0,0,0,2.323-2.323,2.3,2.3,0,0,0-2.323-2.5,2.365,2.365,0,0,0-2.413,2.233,2.585,2.585,0,0,0,2.413,2.323m9.917-14.831a1.528,1.528,0,0,0,1.519-1.608,2.1,2.1,0,0,0-1.787-1.965,1.956,1.956,0,0,0-1.787,1.965,1.642,1.642,0,0,0,1.787,1.608M279.4,69.48a1.374,1.374,0,0,0,1.341-1.34,1.538,1.538,0,0,0-1.43-1.43,1.34,1.34,0,0,0-1.429,1.341,1.359,1.359,0,0,0,1.429,1.429M273.5,73.947a1.917,1.917,0,0,0,2.055-1.787,1.837,1.837,0,0,0-1.966-1.787A1.791,1.791,0,0,0,271.8,72.16a2.048,2.048,0,0,0,1.787,2.055M38.439,53.4a.327.327,0,0,1-.357.358h-.268A20.525,20.525,0,0,0,30.4,52.505c-5.9,0-7.594,2.323-7.594,9.381s1.787,9.292,8.041,9.292a14.909,14.909,0,0,0,4.289-.447v-7.5l-3.842-.447c-.268,0-.447,0-.447-.268V60.546c0-.179.268-.268.447-.268h7.5a.421.421,0,0,1,.446.446v9.828c0,1.787-.268,2.68-1.786,3.216a27.885,27.885,0,0,1-6.522.894c-9.2.179-12.151-3.216-12.151-12.329,0-8.309,2.68-12.508,11.346-12.508a29.081,29.081,0,0,1,8.667,1.25c.268.179.446.268.446.715v.179Zm3.574,6.254c0-1.34.625-1.787,2.055-2.323a18.31,18.31,0,0,1,6.254-.893c.357,0,.893,0,.893.357v1.966c0,.179,0,.357-.446.357a22.355,22.355,0,0,0-5.093.358v13.4c0,.447,0,.625-.268.625H42.549a.422.422,0,0,1-.447-.446V59.474Zm22.336,14.3a18.025,18.025,0,0,1-4.467.447c-3.217,0-7.684-.268-7.684-5.539,0-4.2,2.68-4.468,5.361-5.182l5.807-.894v-1.34c0-.893,0-1.519-1.072-1.787a10.476,10.476,0,0,0-2.68-.446A22.3,22.3,0,0,0,53.9,60.1c-.268,0-.447,0-.447-.268L53,58.044s0-.357.179-.447h.179a21.732,21.732,0,0,1,6.879-.893c2.412,0,3.842.268,4.825.893,1.786.894,2.054,2.323,2.054,4.11v8.935c0,2.233-.714,2.858-2.948,3.305m-.893-8.487-4.914.714c-1.162.179-2.5.358-2.5,2.681,0,2.68,2.234,2.68,3.842,2.68a15.68,15.68,0,0,0,3.574-.268Zm21.978,8.487h-2.68c-.358,0-.536,0-.536-.357V61.975c0-1.965-.894-2.68-2.681-2.68a17.5,17.5,0,0,0-4.824.715V73.679a.409.409,0,0,1-.357.447H71.5a.408.408,0,0,1-.446-.358V59.652c0-1.161.357-1.608,2.144-2.144a23.119,23.119,0,0,1,6.879-.893c3.842,0,5.986.893,5.986,4.735V73.411a.927.927,0,0,1-.715.357m17.869-23.943-2.5.446a.567.567,0,0,0-.536.447v6.254a14.587,14.587,0,0,0-4.467-.536c-5.807,0-7.326,2.859-7.326,8.934,0,6.433,1.966,8.935,8.041,8.935a16.059,16.059,0,0,0,5.361-.894c1.786-.357,1.786-1.429,1.786-2.5V50.718c0-.357,0-.536-.178-.536m-2.859,21.085a9.648,9.648,0,0,1-3.574.536c-3.038,0-4.467-.715-4.467-6.254,0-5.361,1.161-6.254,4.467-6.254a17.332,17.332,0,0,1,3.574.536V71.267Zm31.27,2.68h-2.681s-.357,0-.446-.178V57.419a.565.565,0,0,1,.446-.536H131.8c.357,0,.536,0,.536.268V73.232c0,.358,0,.536-.268.536h-.179m9.47.447a22.3,22.3,0,0,1-5.717-.893c-.179,0-.358-.447-.268-.626l.268-1.965c0-.179.178-.268.357-.268h.179a16.6,16.6,0,0,0,5.181.893c1.966,0,3.574-.715,3.574-2.412,0-1.966-1.608-1.966-3.931-2.5-2.233-.268-5.539-.893-5.539-5,0-4.467,3.842-5.182,6.79-5.182a14.359,14.359,0,0,1,5.182.894c.268,0,.447,0,.536.178l-.268,1.609c0,.268,0,.268-.358.268a23.644,23.644,0,0,0-4.467-.447c-1.965,0-3.573.447-3.573,2.233,0,1.966,1.786,1.966,3.841,2.413,2.5.357,5.361.893,5.361,5.182s-3.306,5.807-7.147,5.628m24.658,0c-7.147,0-8.041-3.931-8.041-8.934,0-4.825,1.072-8.934,8.041-8.934s7.684,3.752,7.684,8.934-.715,8.756-7.684,8.756m0-15.189c-3.842,0-4.11,2.234-4.11,6.254s0,6.254,4.021,6.254,4.02-2.323,4.02-6.254,0-6.254-3.841-6.254M191.127,73.5h-2.591c-.358,0-.536,0-.536-.357V61.529c0-1.966-.894-2.681-2.681-2.681a14.52,14.52,0,0,0-4.735.715V73.322a.423.423,0,0,1-.447.447h-2.68a.48.48,0,0,1-.447-.447V59.652c0-1.161.447-1.608,2.234-2.144a21.486,21.486,0,0,1,6.79-.893c3.931,0,5.9.893,5.9,4.735V73.411a.409.409,0,0,1-.447.357m-36.988,0h-2.68s-.358,0-.447-.268V57.329c0-.268.268-.446.536-.536h2.859c.268,0,.447,0,.447.358V73.232c0,.358-.179.537-.447.537h-.179m-26.8-23.944h-3.127a.925.925,0,0,0-.625.446l-6.075,19.656c0,.536-.268.893-.715.893a.658.658,0,0,1-.715-.715L110.271,50.45c0-.179-.357-.357-.715-.357H106.34c-.357,0-.536.178-.447.446v.179L113.219,73.5c0,.269.268.447.715.447h5.629a.657.657,0,0,0,.715-.357l7.5-22.872A.966.966,0,0,0,127.6,50" fill="#c4c4c4"/>
  </g>
  <rect width="300" height="120" fill="none"/>
</svg>
