<svg xmlns="http://www.w3.org/2000/svg" viewBox="0 0 300 120">
  <path fill="#e5e5e5" d="M243.93 50.45a1.84 1.84 0 0 0-1.79 1.97 2.05 2.05 0 0 0 1.79 2.05 1.95 1.95 0 0 0 2.05-1.96 2.06 2.06 0 0 0-1.96-2.06m-5.36 1.79a1.9 1.9 0 0 0-1.97 1.78 2.06 2.06 0 0 0 1.97 2.24 1.93 1.93 0 0 0 1.96-1.97v-.18a2.11 2.11 0 0 0-1.96-1.96m-3.22 4.46a2.39 2.39 0 0 0-2.23 2.06 2.14 2.14 0 0 0 1.78 2.23 2.26 2.26 0 0 0 2.33-1.96 2.03 2.03 0 0 0-1.97-2.15m5 21.18a2.3 2.3 0 0 1-2.41-2.42 2.2 2.2 0 0 1 2.41-2.4 2.3 2.3 0 0 1 2.41 2.4 2.21 2.21 0 0 1-2.4 2.42m-14.04-3.13a2.29 2.29 0 0 1-2.23-2.32 2.23 2.23 0 0 1 4.47-.1 2.21 2.21 0 0 1-2.24 2.24m7.15 1.43a2.42 2.42 0 1 1 .36-4.82 2.36 2.36 0 0 1 2.14 2.4 2.22 2.22 0 0 1-2.32 2.15m10.45-3.3c-1.07 0-1.78-.9-1.78-2.14a1.84 1.84 0 0 1 1.78-1.97 2.08 2.08 0 0 1 2.06 2.06c.18.9-.9 1.96-1.97 1.96m-5.36-1.78a1.9 1.9 0 0 1-1.96-1.79 2.06 2.06 0 0 1 1.96-2.23 1.93 1.93 0 0 1 1.97 1.96v.18a2.11 2.11 0 0 1-1.97 1.97m-3.21-4.47a2.24 2.24 0 0 1-2.24-2.06 2.09 2.09 0 0 1 1.79-2.23 2.26 2.26 0 0 1 2.32 1.97v.26a2.27 2.27 0 0 1-1.96 1.97m-21.98 2.14a1.73 1.73 0 0 1-1.61-1.6 1.77 1.77 0 0 1 1.6-1.8 1.58 1.58 0 0 1 1.62 1.53 2.1 2.1 0 0 1-1.61 1.78m5.72 2.95a1.93 1.93 0 0 1-1.97-1.96 2.11 2.11 0 0 1 1.97-1.97 1.98 1.98 0 0 1 1.96 1.97 2.11 2.11 0 0 1-1.96 1.96m30.02-19.2a2.06 2.06 0 0 1 2.05 1.96 1.98 1.98 0 0 1-1.97 1.97 2 2 0 0 1-2.05-1.97 1.93 1.93 0 0 1 1.97-1.97m3.4 4.47a1.98 1.98 0 0 1 1.96 2.15 1.97 1.97 0 1 1-3.93 0 1.98 1.98 0 0 1 1.97-1.97m-5.19 21.17a2.38 2.38 0 1 0 .27-4.74 2.27 2.27 0 0 0-2.41 2.33 2.23 2.23 0 0 0 2.32 2.4m14.02-3.2a2.14 2.14 0 0 0 2.15-2.24 2.18 2.18 0 0 0-2.32-2.23 2.16 2.16 0 0 0-2.24 2.23 2.21 2.21 0 0 0 2.24 2.23m-7.15 1.52a2.28 2.28 0 0 0 2.41-2.32 2.23 2.23 0 0 0-2.32-2.41 2.42 2.42 0 0 0-2.5 2.4 2.3 2.3 0 0 0 2.32 2.33m-5-4.91a2.11 2.11 0 0 0 1.97-1.97 2.06 2.06 0 1 0-4.11-.18v.18a2.11 2.11 0 0 0 1.96 1.97m3.58-4.47a1.97 1.97 0 0 0 1.78-2.05 2.01 2.01 0 0 0-1.78-2.15 2.12 2.12 0 0 0-2.06 2.24 1.87 1.87 0 0 0 1.97 1.96m21.71 1.88a1.56 1.56 0 0 0 1.43-1.61 1.56 1.56 0 0 0-3.13.09 1.53 1.53 0 0 0 1.61 1.52m-5.72 3.03a1.97 1.97 0 0 0 0-3.93 1.97 1.97 0 1 0 0 3.93"/>
  <path fill="#888888" d="M229.63 59.3a2.18 2.18 0 0 0-2.32 2.23 2.2 2.2 0 0 0 2.23 2.42 2.14 2.14 0 0 0 2.15-2.24 2.46 2.46 0 0 0-2.23-2.14m-6.26.44a1.97 1.97 0 0 0 0 3.94 2.06 2.06 0 0 0 2.06-1.97 1.98 1.98 0 0 0-1.97-1.97m-9.83.36a1.77 1.77 0 0 0-1.78 1.43 1.82 1.82 0 0 0 1.43 1.79 1.8 1.8 0 0 0 1.6-1.52 1.45 1.45 0 0 0-1.34-1.6m-4.91 0a1.46 1.46 0 0 0-1.34 1.51 1.33 1.33 0 0 0 1.43 1.34 1.32 1.32 0 0 0 1.34-1.34 1.27 1.27 0 0 0-1.25-1.43m35.38-20.82a2.3 2.3 0 0 0-2.41 2.42 2.2 2.2 0 0 0 2.4 2.4 2.18 2.18 0 0 0 2.42-2.32 2.42 2.42 0 0 0-2.5-2.4m-3.57 5.8a2.32 2.32 0 0 0-2.5 2.41 2.23 2.23 0 0 0 2.4 2.33 2.46 2.46 0 0 0 .1-4.92m-14.03 2.95a2.19 2.19 0 1 0 0 4.38 2.25 2.25 0 0 0 2.23-2.15 2.29 2.29 0 0 0-2.23-2.32m-2.06 5.99a1.92 1.92 0 0 0-2.05 1.78 2.2 2.2 0 0 0 1.96 2.06 1.84 1.84 0 0 0 1.79-1.97c.27-.89-.71-1.78-1.79-1.78m-3.21-8.76a2.19 2.19 0 1 0 2.14 2.32 2.29 2.29 0 0 0-2.32-2.23m12.33 1.52a2.42 2.42 0 1 0 .44 4.82 2.16 2.16 0 0 0 2.15-2.32 2.25 2.25 0 0 0-2.32-2.32m-2.86 5.8a2.37 2.37 0 0 0 .09 4.74 2.23 2.23 0 0 0 2.32-2.23 2.33 2.33 0 0 0-2.41-2.33m5.36-13.13a2.37 2.37 0 1 0 0 4.73 2.48 2.48 0 0 0 2.41-2.5 2.4 2.4 0 0 0-2.5-2.32m-7.68 2.06a2.41 2.41 0 0 0 .09 4.82 2.54 2.54 0 0 0 2.5-2.41 2.32 2.32 0 0 0-2.42-2.5m-14.74 12.5a1.76 1.76 0 0 0-1.6 1.79 1.57 1.57 0 0 0 1.6 1.43 1.53 1.53 0 0 0 1.61-1.52 1.76 1.76 0 0 0-1.52-1.79m4.83 2.41a1.92 1.92 0 0 0-1.8 1.79 1.7 1.7 0 1 0 1.62-1.79m-9.2-3.57c-.9 0-1.43.45-1.43 1.25a1.4 1.4 0 0 0 1.43 1.34 1.46 1.46 0 0 0 1.34-1.52 1.22 1.22 0 0 0-1.34-1.34m10.72-1.79a1.92 1.92 0 0 0-2.06 1.79 2.06 2.06 0 0 0 1.97 2.06 2.1 2.1 0 0 0 1.97-1.8 2.2 2.2 0 0 0-2.06-2.05m-4.82-2.68a1.97 1.97 0 0 0-1.8 2.06 1.83 1.83 0 0 0 2.06 1.6 1.73 1.73 0 0 0 1.61-1.6c0-.9-.71-1.97-1.6-1.97h-.28m29.48 34.67a2.47 2.47 0 0 1-2.32-2.5 2.3 2.3 0 0 1 2.41-2.41 2.42 2.42 0 0 1 2.42 2.5 2.28 2.28 0 0 1-2.33 2.4m-20.1-14.3a1.97 1.97 0 0 1-2.05-2.05 1.93 1.93 0 0 1 1.96-1.96 1.84 1.84 0 0 1 1.79 1.96c.27.9-.71 1.97-1.79 1.97m-3.21 8.93a2.29 2.29 0 0 1-2.24-2.32 2.19 2.19 0 1 1 4.38 0 2.35 2.35 0 0 1-2.32 2.23m9.65-7.5a2.38 2.38 0 0 1-2.33-2.4 2.44 2.44 0 0 1 2.42-2.33 2.25 2.25 0 0 1 2.32 2.32 2.53 2.53 0 0 1-2.5 2.33m5.36 12.5a2.23 2.23 0 0 1-2.41-2.32 2.41 2.41 0 0 1 4.82.09 2.29 2.29 0 0 1-2.5 2.23m-7.68-1.96a2.4 2.4 0 0 1-2.23-2.5 2.51 2.51 0 0 1 2.67-2.33 2.27 2.27 0 0 1 2.24 2.23 2.45 2.45 0 0 1-2.24 2.5h-.36m-9.82-15a1.8 1.8 0 0 1-1.79-1.8 1.76 1.76 0 0 1 1.6-1.78 1.92 1.92 0 0 1 1.8 1.79 1.8 1.8 0 0 1-1.8 1.78m-9.64 3.58a1.4 1.4 0 0 1-1.43-1.43 1.33 1.33 0 0 1 1.43-1.34 1.26 1.26 0 0 1 1.34 1.34c0 .9-.45 1.43-1.25 1.43m5.72 4.47a1.76 1.76 0 1 1 .26-3.49c.9 0 1.61 1.08 1.61 2.06a1.8 1.8 0 0 1-1.78 1.79m44.13-14.92a2.16 2.16 0 0 1 2.23 2.23 2.33 2.33 0 0 1-2.32 2.41 2.16 2.16 0 0 1-2.23-2.23 2.45 2.45 0 0 1 2.14-2.15m5.99.45a2.06 2.06 0 0 1 2.05 1.97 1.98 1.98 0 0 1-1.96 1.96 1.97 1.97 0 0 1 0-3.93m10.36.36a1.52 1.52 0 0 1-.18 3.03 1.36 1.36 0 0 1-1.43-1.42 1.48 1.48 0 0 1 1.61-1.52m4.65 0a1.54 1.54 0 0 1 1.43 1.52 1.4 1.4 0 0 1-1.43 1.42 1.34 1.34 0 0 1-1.43-1.34 1.55 1.55 0 0 1 1.43-1.51m-31.72-15.1a2.42 2.42 0 0 1 2.5 2.4 2.27 2.27 0 0 1-2.32 2.42 2.2 2.2 0 0 1-2.41-2.23 2.3 2.3 0 0 1 2.32-2.5m14.03 3.48a2.14 2.14 0 0 1 2.23 2.14 2.16 2.16 0 0 1-2.32 2.15 2.23 2.23 0 1 1-.09-4.47m2.06 5.72a1.93 1.93 0 0 1 1.96 1.97 1.98 1.98 0 0 1-1.96 1.96 1.93 1.93 0 0 1-1.97-1.96 2.13 2.13 0 0 1 2.06-1.97m3.21-8.67a2.15 2.15 0 1 1 0 4.3 2.12 2.12 0 0 1-2.14-2.15 2.16 2.16 0 0 1 2.23-2.24m-12.51 1.17a2.41 2.41 0 0 1 0 4.82 2.37 2.37 0 0 1-.09-4.73m2.86 5.98a2.34 2.34 0 0 1 2.32 2.23 2.25 2.25 0 0 1-2.23 2.42 2.5 2.5 0 0 1-2.41-2.24 2.2 2.2 0 0 1 2.23-2.4M251.88 40a2.3 2.3 0 0 1 2.41 2.41 2.25 2.25 0 0 1-2.41 2.41 2.2 2.2 0 0 1-2.41-2.4 2.4 2.4 0 0 1 2.41-2.42m7.77 2.06a2.41 2.41 0 0 1 0 4.82 2.38 2.38 0 0 1-2.41-2.32 2.32 2.32 0 0 1 2.41-2.5m14.83 12.5a1.62 1.62 0 0 1 1.43 1.79c0 .71-.89 1.34-1.78 1.34a1.43 1.43 0 0 1-1.43-1.52 1.53 1.53 0 0 1 1.6-1.52m-4.82 2.41a1.7 1.7 0 1 1-1.97 1.79 1.92 1.92 0 0 1 1.8-1.79m9.82-3.57a1.24 1.24 0 0 1 1.34 1.25 1.34 1.34 0 0 1-1.34 1.43 1.54 1.54 0 0 1-1.43-1.52 1.34 1.34 0 0 1 1.34-1.43m-10.72-1.97a2.06 2.06 0 0 1 2.05 1.97 2.11 2.11 0 0 1-1.96 1.97 1.98 1.98 0 0 1-1.97-1.97 1.88 1.88 0 0 1 1.97-1.97m4.82-2.68a2.13 2.13 0 0 1 1.97 2.06 1.84 1.84 0 0 1-1.97 1.79 1.96 1.96 0 0 1-1.96-1.52 2.1 2.1 0 0 1 1.78-1.97m-9.47 19.93a1.98 1.98 0 0 0 1.97-2.15 1.87 1.87 0 0 0-1.97-1.96 1.93 1.93 0 0 0-1.96 1.96c-.18.9.9 1.97 1.96 1.97m3.3 9.2a2.18 2.18 0 0 0 2.33-2.24 2.19 2.19 0 1 0-4.38 0 2.21 2.21 0 0 0 2.24 2.24m-9.74-7.5a2.7 2.7 0 0 0 2.68-2.33 2.6 2.6 0 0 0-2.32-2.5 2.36 2.36 0 0 0-2.42 2.24 2.28 2.28 0 0 0 2.24 2.5m-5.36 12.5a2.33 2.33 0 1 0 .09-4.64 2.2 2.2 0 0 0-2.42 2.41 2.3 2.3 0 0 0 2.42 2.41m7.68-1.96a2.25 2.25 0 0 0 2.32-2.32 2.3 2.3 0 0 0-2.32-2.5 2.37 2.37 0 0 0-2.41 2.23 2.58 2.58 0 0 0 2.41 2.32m9.92-14.83a1.53 1.53 0 0 0 1.52-1.6 2.1 2.1 0 0 0-1.79-1.97 1.96 1.96 0 0 0-1.79 1.96 1.64 1.64 0 0 0 1.79 1.61m9.83 3.57a1.37 1.37 0 0 0 1.34-1.34 1.54 1.54 0 0 0-1.43-1.43 1.34 1.34 0 0 0-1.43 1.34 1.36 1.36 0 0 0 1.43 1.43m-5.81 4.47a1.92 1.92 0 0 0 2.06-1.79 1.84 1.84 0 0 0-1.97-1.79 1.8 1.8 0 0 0-1.79 1.79 2.05 2.05 0 0 0 1.79 2.06M38.44 53.4a.33.33 0 0 1-.36.36h-.27a20.52 20.52 0 0 0-7.41-1.25c-5.9 0-7.6 2.32-7.6 9.38s1.8 9.29 8.05 9.29a14.9 14.9 0 0 0 4.29-.45v-7.5l-3.85-.45c-.26 0-.44 0-.44-.26v-1.97c0-.18.26-.27.44-.27h7.5a.42.42 0 0 1 .45.44v9.83c0 1.79-.27 2.68-1.79 3.22a27.89 27.89 0 0 1-6.52.9c-9.2.17-12.15-3.22-12.15-12.34 0-8.3 2.68-12.5 11.35-12.5a29.08 29.08 0 0 1 8.66 1.24c.27.18.45.27.45.72v.18zM42 59.65c0-1.34.63-1.78 2.06-2.32a18.31 18.31 0 0 1 6.25-.9c.36 0 .9 0 .9.36v1.97c0 .18 0 .36-.45.36a22.36 22.36 0 0 0-5.1.36v13.4c0 .44 0 .62-.26.62h-2.86a.42.42 0 0 1-.45-.45V59.47zm22.34 14.3a18.02 18.02 0 0 1-4.47.45c-3.22 0-7.68-.27-7.68-5.54 0-4.2 2.68-4.47 5.36-5.18l5.8-.9v-1.33c0-.9 0-1.52-1.07-1.8a10.48 10.48 0 0 0-2.68-.44 22.3 22.3 0 0 0-5.71.89c-.27 0-.45 0-.45-.27L53 58.04s0-.35.18-.44h.18a21.73 21.73 0 0 1 6.88-.9c2.4 0 3.84.27 4.82.9 1.79.9 2.06 2.32 2.06 4.1v8.94c0 2.23-.72 2.86-2.95 3.3m-.9-8.48l-4.9.71c-1.17.18-2.5.36-2.5 2.69 0 2.68 2.23 2.68 3.83 2.68a15.68 15.68 0 0 0 3.58-.27zm21.98 8.49h-2.68c-.35 0-.53 0-.53-.36V61.97c0-1.96-.9-2.67-2.68-2.67a17.5 17.5 0 0 0-4.83.71v13.67a.4.4 0 0 1-.35.45H71.5a.4.4 0 0 1-.45-.36V59.65c0-1.16.36-1.6 2.15-2.14a23.12 23.12 0 0 1 6.88-.9c3.84 0 5.98.9 5.98 4.74v12.06a.93.93 0 0 1-.71.36m17.87-23.94l-2.5.44a.57.57 0 0 0-.54.45v6.25a14.59 14.59 0 0 0-4.47-.53c-5.8 0-7.32 2.86-7.32 8.93 0 6.43 1.96 8.94 8.04 8.94a16.06 16.06 0 0 0 5.36-.9c1.79-.36 1.79-1.43 1.79-2.5v-20.2c0-.35 0-.53-.18-.53m-2.86 21.09a9.65 9.65 0 0 1-3.57.53c-3.04 0-4.47-.71-4.47-6.25 0-5.36 1.16-6.26 4.47-6.26a17.33 17.33 0 0 1 3.57.54v11.44zm31.27 2.68h-2.68s-.36 0-.45-.18V57.42a.56.56 0 0 1 .45-.54h2.67c.36 0 .54 0 .54.27v16.08c0 .36 0 .54-.27.54h-.18m9.47.45a22.3 22.3 0 0 1-5.72-.9c-.18 0-.36-.44-.27-.62l.27-1.97c0-.18.18-.27.36-.27h.18a16.6 16.6 0 0 0 5.18.9c1.96 0 3.57-.72 3.57-2.42 0-1.96-1.6-1.96-3.93-2.5-2.23-.26-5.54-.89-5.54-5 0-4.46 3.85-5.18 6.8-5.18a14.36 14.36 0 0 1 5.18.9c.26 0 .44 0 .53.17l-.27 1.61c0 .27 0 .27-.35.27a23.64 23.64 0 0 0-4.47-.45c-1.97 0-3.58.45-3.58 2.24 0 1.96 1.8 1.96 3.85 2.41 2.5.36 5.36.9 5.36 5.18s-3.3 5.8-7.15 5.63m24.66 0c-7.15 0-8.04-3.93-8.04-8.93 0-4.83 1.07-8.94 8.04-8.94s7.68 3.75 7.68 8.94-.71 8.75-7.68 8.75m0-15.19c-3.84 0-4.11 2.24-4.11 6.26s0 6.25 4.02 6.25 4.02-2.32 4.02-6.25 0-6.26-3.84-6.26m25.02 14.65h-2.6c-.35 0-.53 0-.53-.36V61.53c0-1.97-.9-2.68-2.68-2.68a14.52 14.52 0 0 0-4.74.71v13.76a.42.42 0 0 1-.44.45h-2.68a.48.48 0 0 1-.45-.45V59.65c0-1.16.45-1.6 2.23-2.14a21.49 21.49 0 0 1 6.8-.9c3.92 0 5.9.9 5.9 4.74v12.06a.4.4 0 0 1-.45.36m-37 0h-2.67s-.36 0-.45-.27V57.33c0-.27.27-.45.54-.54h2.86c.26 0 .44 0 .44.36v16.08c0 .36-.18.54-.44.54h-.18m-26.8-23.94h-3.13a.93.93 0 0 0-.62.44l-6.08 19.66c0 .53-.27.89-.71.89a.66.66 0 0 1-.72-.71l-6.26-19.66c0-.18-.36-.36-.71-.36h-3.22c-.36 0-.54.18-.45.45v.18l7.33 22.78c0 .27.27.45.71.45h5.63a.66.66 0 0 0 .72-.36l7.5-22.87a.97.97 0 0 0-.18-.72"/>
</svg>
