<svg xmlns="http://www.w3.org/2000/svg" viewBox="0 0 300 120">
  <path d="M41.9 36.1l5.5 16.8h.2l-5.5-16.8h-.2zm24.1 19l-.2.1-14.3 10.4L57 82.5v.1l.1-.1-5.4-16.9L66 55.2v-.1zM40.7 73.5L26.4 83.8l.1.1 14.2-10.4z"/>
  <path fill="#aaaaaa" d="M122.1 61.3c0 1.6-.7 2.1-3.3 3-2.1.8-3.7 1.1-4.2 1.1-.9 0-1.3-.7-1.3-2 0-3.2.9-7.2 4.3-7.2 3.2.1 4.5 3.5 4.5 5.1M88 75.5c0-.3 0-.4-.2-.6-.4-.4-1.7-.6-2.3-1.2-.5-.5-.8-1.3-.8-3.2V63c0-.6.1-.9.7-.9H93c.6 0 .7.3.7.9v7.4c0 1.9-.3 2.8-.8 3.2-.7.7-2 .9-2.3 1.2-.1.1-.2.3-.2.6 0 1.1.2 2.3.3 2.4.2.2.4.2 1 .2H104c.6 0 .8 0 1-.2.2-.2.4-1.3.4-2.4 0-.3 0-.4-.2-.6-.3-.3-1.7-.6-2.3-1.2-.5-.5-.7-1.4-.7-2.9V50.3c0-1 .3-1.8.7-2.1.7-.7 2.1-.8 2.4-1.1.1-.1.2-.4.2-.6 0-.8-.2-2-.4-2.1-.2-.2-.3-.2-1-.2H92.2c-.5 0-.7 0-.8.2-.1.1-.3 1-.3 2.2 0 .2 0 .5.1.6.2.2 1.3.6 1.7 1 .5.5.7 1 .7 2.5v5.8c0 .2-.2.5-.5.5h-7.9c-.3 0-.5-.3-.5-.5v-5.8c0-1.5.2-2 .7-2.5.4-.4 1.5-.8 1.7-1 .1-.1.1-.3.1-.6 0-1.2-.1-2.1-.3-2.2-.1-.1-.3-.2-.8-.2H74.4c-.7 0-.8 0-1 .2-.2.2-.3 1.4-.3 2.1 0 .2 0 .5.2.6.3.3 1.7.4 2.4 1.1.4.4.7 1.1.7 2.1v20.4c0 1.5-.3 2.4-.7 2.9-.7.7-2 .9-2.3 1.2-.3.2-.4.4-.4.7 0 1.1.2 2.3.3 2.4.2.2.4.2 1 .2h12.3c.6 0 .8 0 1-.2.2-.2.4-1.3.4-2.4m40.7-.7c1.3-1.3 1.6-2 1.6-2.6 0-.7-.2-1.2-.7-1.7-.6-.6-1-.7-1.5-.7-.6 0-.9.2-1.3.6-1.9 1.9-4.4 3-7.4 3s-4.9-2-4.9-3.3c0-.3.3-.7 1.1-.9 8.4-2.6 11.9-4.4 13.2-5.7.7-.7 1-1.5 1-2.3 0-3.3-4.8-9.2-12.2-9.2-3.1 0-6.2 1.2-8.5 3.5s-3.8 5.6-3.8 10.1c0 4.3 1.4 7.3 3.7 9.6 2.4 2.4 5.8 3.5 9.5 3.5 3.9.1 7.5-1.2 10.2-3.9m13.7-21.3c0-.6-.3-.8-.8-.8h-8.4c-.5 0-.7 0-.8.2-.2.2-.3 1.4-.3 2.1 0 .2.1.4.2.5.3.4 1 .5 1.5 1 .4.4.6 1.2.6 2.5v11.7c0 1.5-.2 2.5-.6 2.9-.7.7-1.7 1-2.1 1.3-.1.1-.1.3-.1.6 0 1.1.2 2.2.3 2.4.1.1.3.2.8.2h11.2c.5 0 .7-.1.8-.2.2-.2.3-1.3.3-2.4 0-.3 0-.5-.1-.6-.3-.3-1.3-.6-2-1.3-.4-.4-.6-1.4-.6-2.9l.1-17.2zm-4.7-11c-2.4 0-4.4 1.9-4.4 4.2 0 2.4 2 4.3 4.4 4.3 2.5 0 4.4-1.9 4.4-4.3 0-2.3-2-4.2-4.4-4.2m33.9 17c0-4.9-2.5-7.4-6.5-7.4-1.9 0-3.9.6-5.9 1.8-.7.4-.9.6-1.1.6-.7 0-.2-1.8-1.5-1.8h-7.7c-.5 0-.6 0-.8.2-.2.2-.4 1.4-.4 2.1 0 .2 0 .4.2.5.3.4 1 .5 1.5 1 .4.4.6 1.2.6 2.5v11.7c0 1.5-.1 2.5-.6 2.9-.6.6-1.7 1-2 1.3-.1.1-.1.3-.1.6 0 1.1.1 2.2.3 2.4.1.1.4.2.9.2h11c.5 0 .7-.1.8-.2.2-.2.4-1.3.4-2.4 0-.3 0-.5-.1-.6-.3-.3-1.4-.7-2-1.3-.4-.4-.7-1.4-.7-2.9v-8.6c0-3.5 2-4.6 3.4-4.6 1.5 0 2.3 1.1 2.3 3.4V73c0 3.2 2.1 5.4 5.8 5.4 4.1 0 5.9-3 5.9-3.6 0-.5-.8-1.6-1.4-1.6-.6 0-1.5.8-1.9.8-.3 0-.5-.2-.5-.9V59.5h.1zm81 15.3c1.3-1.3 1.6-2 1.6-2.6 0-.7-.2-1.2-.7-1.7-.6-.6-1.1-.7-1.5-.7-.6 0-.9.2-1.3.6-1.9 1.9-4.4 3-7.3 3-3 0-4.9-2-4.9-3.3 0-.3.3-.7 1.1-.9 8.4-2.6 11.9-4.4 13.2-5.7.7-.7 1-1.5 1-2.3 0-3.3-4.8-9.2-12.2-9.2-3.1 0-6.2 1.2-8.5 3.5s-3.8 5.6-3.8 10.1c0 4.3 1.4 7.3 3.7 9.6 2.4 2.4 5.8 3.5 9.5 3.5 3.9.1 7.5-1.2 10.1-3.9m-6.5-13.5c0 1.6-.7 2.1-3.3 3-2.1.8-3.7 1.1-4.2 1.1-.9 0-1.3-.7-1.3-2 0-3.2.9-7.2 4.3-7.2 3.2.1 4.5 3.5 4.5 5.1m-47.2 13.5c1.3-1.3 1.6-2 1.6-2.6 0-.7-.2-1.2-.7-1.7-.6-.6-1-.7-1.5-.7-.6 0-.9.2-1.3.6-1.9 1.9-4.4 3-7.4 3s-4.9-2-4.9-3.3c0-.3.3-.7 1.1-.9 8.4-2.6 11.9-4.4 13.2-5.7.7-.7 1.1-1.5 1.1-2.3 0-3.3-4.8-9.2-12.2-9.2-3.1 0-6.2 1.2-8.5 3.5s-3.8 5.6-3.8 10.1c0 4.3 1.4 7.3 3.7 9.6 2.4 2.4 5.8 3.5 9.5 3.5 3.9.1 7.5-1.2 10.1-3.9m-6.5-13.5c0 1.6-.7 2.1-3.3 3-2.1.8-3.7 1.1-4.2 1.1-.9 0-1.3-.7-1.3-2 0-3.2.9-7.2 4.3-7.2 3.1.1 4.5 3.5 4.5 5.1m87.5-1.8c0-4.9-2.5-7.4-6.5-7.4-1.9 0-3.9.6-5.9 1.8-.7.4-.9.6-1.1.6-.7 0-.2-1.8-1.5-1.8h-7.7c-.5 0-.6 0-.8.2-.2.2-.4 1.4-.4 2.1 0 .2 0 .4.2.5.4.4 1 .5 1.5 1 .4.4.6 1.2.6 2.5v11.7c0 1.5-.1 2.5-.6 2.9-.6.6-1.7 1-2 1.3-.1.1-.1.3-.1.6 0 1.1.1 2.2.3 2.4.1.1.4.2.9.2h11c.5 0 .7-.1.8-.2.2-.2.4-1.3.4-2.4 0-.3 0-.5-.1-.6-.3-.3-1.4-.7-2-1.3-.4-.4-.7-1.4-.7-2.9v-8.6c0-3.5 2-4.6 3.4-4.6 1.5 0 2.3 1.1 2.3 3.4V73c0 3.2 2.1 5.4 5.8 5.4 4.1 0 5.9-3 5.9-3.6 0-.5-.8-1.6-1.4-1.6-.6 0-1.5.8-1.9.8-.3 0-.5-.2-.5-.9l.1-13.6zm-68.6-16.2h-8.4c-.5 0-.7 0-.9.2-.2.2-.3 1.3-.3 2.1 0 .3 0 .4.1.6.3.3 1.5.6 2 1.1.4.4.7 1.3.7 4.6v17.5c0 2.9-.3 3.9-.7 4.2-.6.6-1.7 1-2 1.3-.1.1-.1.3-.1.6 0 1.1.1 2.2.3 2.4.1.1.3.2.9.2h11c.6 0 .7-.1.9-.2.2-.2.4-1.3.4-2.4 0-.3 0-.5-.2-.6-.3-.3-1.4-.7-1.9-1.3-.5-.4-.7-1.4-.7-2.9v-1c0-.6.2-.7 1.1-1.7.4-.4.8-.7 1.1-.7.4 0 .8.3 5.6 10 .3.6.4.7 1.2.7h7.1c.5 0 .7-.1.8-.2.2-.2.3-1.3.3-2.4 0-.3 0-.5-.1-.6-.3-.3-2.1-.5-2.5-1.3-6.3-10.7-6.5-11.1-6.5-11.7 0-.6 2.8-3.4 5.1-5.2 1.5-1.2 2.4-.4 2.4-1.8 0-1.6-.2-2.2-.5-2.2h-10.6c-.9 0-1 .5-1 2.5 0 .7 1.8.7 1.8 1.7 0 .8-4.5 5.1-5.2 5.1-.3 0-.3-.2-.3-.9V44.5c.2-.7-.3-1.2-.9-1.2"/>
  <path fill="#666666" d="M40.7 36.4l5.8 17.7 18.6.1-15 11 5.7 17.7L40.7 72 25.6 82.9l5.7-17.7-15-11 18.6-.1 5.8-17.7z"/>
</svg>
