<svg id="Layer_1" data-name="Layer 1" xmlns="http://www.w3.org/2000/svg" viewBox="0 0 300 120">
  <title>logos</title>
  <g>
    <path d="M165.573,82.783c-4.36,0-6.84-1.8-9.148-4.873l4.531-4.1c1.881,2.223,3.42,3.42,4.7,3.42A2.114,2.114,0,0,0,168.053,75c0-1.539-.428-2.48-3.591-3.933-5.558-2.394-7.524-4.532-7.524-8.892,0-4.532,3.334-8.123,8.635-8.123,4.275,0,6.413,1.539,8.721,4.446l-4.617,4.1c-1.881-2.308-2.565-2.992-4.36-2.992a1.883,1.883,0,0,0-1.967,1.966c0,1.454.684,2.309,3.506,3.506,5.643,2.479,7.695,4.788,7.695,9.405.085,5.3-3.848,8.293-8.978,8.293Zm21.2,0a5.486,5.486,0,0,1-3.762-1.624v6.412l-6.156,2.394V61.494h6.156v1.2a5.445,5.445,0,0,1,3.933-1.71c3.506,0,5.643,3.42,5.643,10.773,0,7.609-2.052,11.029-5.814,11.029ZM184.811,66.2a2.544,2.544,0,0,0-1.71.684V76.8a2.664,2.664,0,0,0,1.795.77c1.112,0,1.71-.684,1.71-5.643C186.521,66.966,185.922,66.2,184.811,66.2Zm15.3,7.524c.171,3.335,1.026,4.275,2.394,4.275,1.2,0,2.138-.513,3.42-2.308l3.591,2.821c-1.71,2.565-3.762,4.275-7.267,4.275-5.216,0-7.866-4.1-7.866-10.773,0-7.182,2.821-10.944,7.866-10.944,4.959,0,7.609,3.677,7.609,11.2V73.72Zm2.052-8.037c-1.2,0-1.795.941-2.052,4.019h4.19C204.219,66.8,203.621,65.683,202.167,65.683Zm17.442,17.1c-4.959,0-8.037-3.334-8.037-10.858,0-7.268,2.736-10.944,8.123-10.944,3.933,0,5.728,2.394,6.925,6.07l-4.873,2.309c-.6-2.394-1.026-3.249-2.138-3.249-1.368,0-1.966,1.453-1.966,5.814,0,4.275.6,5.728,2.052,5.728,1.026,0,1.624-.684,2.394-3.334l4.617,2.308C225.252,80.9,223.2,82.783,219.609,82.783ZM231.75,59.527a3.134,3.134,0,1,1,3.42-3.163C235.256,58.245,233.8,59.527,231.75,59.527Zm-3.078,22.829V61.494h6.156V82.356Zm17.87,0v-1.2a5.691,5.691,0,0,1-4.019,1.624c-3.5,0-5.386-2.308-5.386-7.011,0-4.617,2.308-6.84,6.156-6.84a7.187,7.187,0,0,1,3.334.684V67.992c0-1.539-.6-2.052-2.137-2.052a8.228,8.228,0,0,0-4.7,1.624l-1.71-4.275a14.074,14.074,0,0,1,7.439-2.137c4.873,0,7.1,2.223,7.1,6.669V82.527l-6.07-.171Zm0-8.892a4.575,4.575,0,0,0-2.052-.428c-1.112,0-1.625.684-1.625,2.651,0,1.71.513,2.565,1.71,2.565a3.123,3.123,0,0,0,2.052-.684Zm8.892,8.892V55.765l6.156-2.394V82.356Zm15.475.427c-2.907,0-4.873-.94-7.267-2.736l2.907-4.36c2.223,1.71,3.249,2.223,4.36,2.223.941,0,1.625-.513,1.625-1.368,0-.941-.257-1.368-2.052-2.138-4.874-1.966-6.242-3.591-6.242-7.1,0-3.762,2.394-6.327,6.926-6.327a10.3,10.3,0,0,1,6.84,2.479L275.1,67.821c-1.967-1.625-2.822-1.967-3.933-1.967-.941,0-1.283.513-1.283,1.112,0,.94.257,1.368,2.223,2.137,4.617,1.881,6.242,3.677,6.242,7.182C278.262,80.56,275.27,82.783,270.909,82.783Z" fill="#e5e5e5"/>
    <path d="M69.557,57.732l.085,19.494s-.342,3.847-2.821,5.386l-15.9,9.405a9.284,9.284,0,0,1-10,0L24.669,82.7a7.094,7.094,0,0,1-2.907-5.472V57.732a6.074,6.074,0,0,1,3.078-5.387l16.074-9.49a9.116,9.116,0,0,1,10,0l15.39,9.49A6.606,6.606,0,0,1,69.557,57.732Z" fill="#c4c4c4"/>
    <path d="M40.914,45.078s2.651-1.967,5.045-1.881a9.72,9.72,0,0,1,4.959,1.795l14.62,8.892s1.625.941,1.881,3.848V77.226s-.427,5.215-4.959,5.215H28.944s-4.959-.769-4.959-5.3V57.732a4.294,4.294,0,0,1,2.309-3.848Z" fill="#fff"/>
    <path d="M45.873,45.078c1.71,0,4.959,1.966,4.959,1.966l12.654,7.781a3.05,3.05,0,0,1,1.71,2.907V77.14a2.959,2.959,0,0,1-3.163,3.249H29.286a3.141,3.141,0,0,1-2.821-3.249V57.817a3.15,3.15,0,0,1,1.453-2.907l13-7.78S44.163,45.078,45.873,45.078Z" fill="#e5e5e5"/>
    <path d="M30.141,56.962h6.071s1.282-.085,1.282.855v7.7s.171,1.283-1.368,1.283H30.141s-1.453,0-1.453-1.283V57.817S28.6,56.962,30.141,56.962Z" fill="#fff"/>
    <path d="M88.2,82.356V70.728H82.553V82.356H75.8V54.483h6.755V64.828H88.2V54.483H94.95V82.356Zm17.527.427c-5.044,0-8.037-3.676-8.037-10.858,0-7.1,2.822-10.944,8.123-10.944,5.13,0,8.037,3.676,8.037,10.858S110.939,82.783,105.723,82.783Zm0-16.587c-1.453,0-1.966,1.368-1.966,5.729s.6,5.814,2.052,5.814c1.368,0,1.966-1.454,1.966-5.729C107.775,67.479,107.177,66.2,105.723,66.2Zm20.691,15.732a10.017,10.017,0,0,1-4.1.855c-3.249,0-4.873-1.71-4.873-5.557V66.538h-2.309V61.494h2.309V55.765l5.985-2.308v8.122h3.505v4.959h-3.505v9.149c0,1.282.513,1.71,1.368,1.71a4.136,4.136,0,0,0,2.308-.77Zm8.037-8.208c.171,3.335,1.026,4.275,2.394,4.275,1.2,0,2.138-.513,3.42-2.308l3.591,2.821c-1.795,2.565-3.762,4.275-7.267,4.275-5.216,0-7.866-4.1-7.866-10.773,0-7.182,2.821-10.944,7.866-10.944,4.959,0,7.609,3.677,7.609,11.2V73.72Zm2.052-8.037c-1.2,0-1.795.941-2.052,4.019h4.19C138.47,66.8,137.871,65.683,136.5,65.683Zm10.089,16.673V55.765l6.156-2.394V82.356Z" fill="#c4c4c4"/>
  </g>
  <rect width="300" height="120" fill="none"/>
</svg>
