<svg xmlns="http://www.w3.org/2000/svg" viewBox="0 0 300 120">
  <path fill="#cccccc" d="M165.57 82.78c-4.36 0-6.84-1.8-9.14-4.87l4.53-4.1c1.88 2.22 3.42 3.42 4.7 3.42a2.11 2.11 0 0 0 2.4-2.23c0-1.54-.44-2.48-3.6-3.93-5.56-2.4-7.52-4.53-7.52-8.9 0-4.53 3.33-8.12 8.63-8.12 4.28 0 6.42 1.54 8.72 4.45l-4.61 4.1c-1.88-2.31-2.57-3-4.36-3a1.88 1.88 0 0 0-1.97 1.97c0 1.46.68 2.31 3.5 3.5 5.65 2.49 7.7 4.8 7.7 9.41.09 5.3-3.85 8.3-8.98 8.3zm21.2 0a5.49 5.49 0 0 1-3.76-1.62v6.41l-6.15 2.4V61.49H183v1.2a5.45 5.45 0 0 1 3.93-1.7c3.51 0 5.65 3.41 5.65 10.77 0 7.6-2.06 11.03-5.82 11.03zm-1.96-16.58a2.54 2.54 0 0 0-1.7.68v9.92a2.66 2.66 0 0 0 1.79.77c1.1 0 1.7-.68 1.7-5.64-.08-4.96-.68-5.73-1.79-5.73zm15.3 7.52c.17 3.34 1.03 4.28 2.4 4.28 1.2 0 2.13-.51 3.42-2.3l3.59 2.81c-1.71 2.57-3.77 4.28-7.27 4.28-5.22 0-7.87-4.1-7.87-10.78 0-7.18 2.82-10.94 7.87-10.94 4.96 0 7.6 3.68 7.6 11.2v1.45zm2.05-8.03c-1.2 0-1.8.94-2.05 4.02h4.2c-.1-2.91-.69-4.03-2.14-4.03zm17.45 17.1c-4.96 0-8.04-3.34-8.04-10.86 0-7.27 2.73-10.95 8.12-10.95 3.93 0 5.73 2.4 6.93 6.08l-4.88 2.3c-.6-2.39-1.02-3.24-2.13-3.24-1.37 0-1.97 1.45-1.97 5.8 0 4.28.6 5.74 2.05 5.74 1.03 0 1.63-.69 2.4-3.34l4.61 2.31c-1.45 4.27-3.5 6.15-7.1 6.15zm12.14-23.26a3.13 3.13 0 1 1 3.42-3.17c.09 1.88-1.37 3.17-3.42 3.17zm-3.08 22.83V61.49h6.16v20.87zm17.87 0v-1.2a5.7 5.7 0 0 1-4.02 1.62c-3.5 0-5.38-2.3-5.38-7.01 0-4.62 2.3-6.84 6.15-6.84a7.19 7.19 0 0 1 3.34.68V68c0-1.54-.6-2.05-2.14-2.05a8.23 8.23 0 0 0-4.7 1.62l-1.71-4.27a14.07 14.07 0 0 1 7.44-2.14c4.87 0 7.1 2.22 7.1 6.67v14.7l-6.07-.16zm0-8.9a4.58 4.58 0 0 0-2.05-.42c-1.11 0-1.63.68-1.63 2.65 0 1.7.52 2.56 1.71 2.56a3.12 3.12 0 0 0 2.06-.68zm8.9 8.9v-26.6l6.15-2.39v28.99zm15.47.42c-2.9 0-4.87-.94-7.27-2.73l2.9-4.36c2.23 1.7 3.26 2.22 4.37 2.22.94 0 1.62-.51 1.62-1.37 0-.94-.25-1.37-2.05-2.14-4.87-1.96-6.24-3.59-6.24-7.1 0-3.76 2.4-6.32 6.93-6.32a10.3 10.3 0 0 1 6.84 2.48l-2.91 4.36c-1.97-1.62-2.82-1.97-3.93-1.97-.94 0-1.29.52-1.29 1.12 0 .94.26 1.36 2.23 2.13 4.61 1.88 6.24 3.68 6.24 7.19-.09 4.27-3.08 6.5-7.44 6.5z"/>
  <path fill="#888888" d="M69.56 57.73l.08 19.5s-.34 3.84-2.82 5.38l-15.9 9.4a9.28 9.28 0 0 1-10 0L24.67 82.7a7.1 7.1 0 0 1-2.9-5.47v-19.5a6.07 6.07 0 0 1 3.07-5.38l16.07-9.5a9.12 9.12 0 0 1 10 0l15.4 9.5a6.6 6.6 0 0 1 3.25 5.38z"/>
  <path fill="#fff" d="M40.91 45.08s2.66-1.97 5.05-1.88a9.72 9.72 0 0 1 4.96 1.8l14.62 8.88s1.62.94 1.88 3.85v19.5s-.43 5.21-4.96 5.21H28.94S24 81.67 24 77.14v-19.4a4.3 4.3 0 0 1 2.3-3.86z"/>
  <path fill="#cccccc" d="M45.87 45.08c1.71 0 4.96 1.96 4.96 1.96l12.66 7.79a3.05 3.05 0 0 1 1.7 2.9v19.41a2.96 2.96 0 0 1-3.16 3.25H29.3a3.14 3.14 0 0 1-2.82-3.25V57.82a3.15 3.15 0 0 1 1.45-2.91l13-7.78s3.24-2.05 4.95-2.05z"/>
  <path fill="#fff" d="M30.14 56.96h6.07s1.28-.08 1.28.86v7.7s.17 1.28-1.36 1.28h-5.99s-1.45 0-1.45-1.28v-7.7s-.09-.86 1.45-.86z"/>
  <path fill="#888888" d="M88.2 82.36V70.73h-5.65v11.63H75.8V54.48h6.75v10.35h5.65V54.48h6.75v27.88zm17.53.42c-5.05 0-8.04-3.67-8.04-10.86 0-7.1 2.82-10.94 8.12-10.94 5.13 0 8.04 3.68 8.04 10.86s-2.91 10.94-8.13 10.94zm0-16.58c-1.46 0-1.97 1.36-1.97 5.72s.6 5.82 2.05 5.82c1.37 0 1.97-1.45 1.97-5.73 0-4.53-.6-5.81-2.06-5.81zm20.69 15.73a10.02 10.02 0 0 1-4.1.85c-3.25 0-4.87-1.7-4.87-5.55v-10.7h-2.31V61.5h2.3v-5.73l5.99-2.3v8.12h3.5v4.96h-3.5v9.15c0 1.28.51 1.7 1.37 1.7a4.14 4.14 0 0 0 2.3-.76zm8.04-8.21c.17 3.33 1.02 4.28 2.39 4.28 1.2 0 2.14-.52 3.42-2.31l3.59 2.82c-1.8 2.56-3.76 4.27-7.27 4.27-5.21 0-7.86-4.1-7.86-10.77 0-7.18 2.82-10.94 7.86-10.94 4.96 0 7.61 3.67 7.61 11.2v1.45zm2.05-8.04c-1.2 0-1.8.94-2.05 4.02h4.19c-.18-2.9-.78-4.02-2.15-4.02zm10.09 16.68v-26.6l6.15-2.39v28.99z"/>
</svg>
