<svg id="Layer_1" data-name="Layer 1" xmlns="http://www.w3.org/2000/svg" viewBox="0 0 300 120">
  <title>logos</title>
  <g>
    <path d="M147.379,21.527A78.431,78.431,0,0,0,120.491,27.8c-3.921,1.674-7.974,3.922-7.948,4.34s8.5,14.993,8.922,15.49a9.249,9.249,0,0,0,2.81-1.144A57.824,57.824,0,0,1,153.261,40a57.209,57.209,0,0,1,25.176,6.536c1.5.758,2.614,1.229,2.758,1.085.288-.307,9.065-15.47,9.065-15.634a63.269,63.269,0,0,0-7.712-4.019,91.2,91.2,0,0,0-13.725-4.575A79.763,79.763,0,0,0,147.379,21.5Z" fill="#c4c4c4"/>
    <path d="M132.654,45.539A52.957,52.957,0,0,0,111.74,58.2l-2,1.9.882.771.882.765,2.615-2.406c5.294-4.875,9.751-7.568,9.751-5.882a22.848,22.848,0,0,1-2.026,3.353c-2.092,3.118-2.745,4.667-2.222,5.281s1.784.359,5.62-1.549c9.281-4.64,20.588-8.039,23.856-7.189,1.634.457,1.222.882-2.967,2.973a87.658,87.658,0,0,0-11.176,6.6c-3.621,2.483-3.36,2.156-2.791,3.111.261.431,1.078,1.83,1.817,3.091l1.307,2.3,1.569-.719a49.735,49.735,0,0,1,14.849-3.4c2.68,0,3.562.359,3.562,1.5,0,1.732-4.353,6.059-11.47,11.392-1.9,1.425-2.288,1.811-2.125,2.144.719,1.307,9.379,16.163,9.543,16.339.431.438,9.849-11.607,13.856-17.672,1.137-1.765,2.66-4.34,3.372-5.719,3.137-6.144,2.745-8.575-1.765-10.556-3.856-1.712-9.8-2.143-18.8-1.307-3.921.36-4.575-.065-2.9-1.96s7.235-4.053,15.967-6.262c5.046-1.307,5.451-1.438,6.189-2.091,1.536-1.484-.326-3.268-4.183-4.026a76.482,76.482,0,0,0-13.705.366,74.021,74.021,0,0,0-18.607,5.594,31.646,31.646,0,0,1-3.974,1.549c-.915-.568,2.222-3.686,6.444-6.45l3.608-2.464c1.961-1.308,1.549-2.68-.784-2.667A14.652,14.652,0,0,0,132.654,45.539Z" fill="#c4c4c4"/>
  </g>
  <rect width="300" height="120" fill="none"/>
</svg>
