<svg id="Layer_1" data-name="Layer 1" xmlns="http://www.w3.org/2000/svg" viewBox="0 0 300 120">
  <title>logos</title>
  <path d="M71.655,90.317h-.29A23.655,23.655,0,0,1,48.111,66.628,23.392,23.392,0,0,1,71.293,43.012a17.024,17.024,0,0,0,0,34.048h2.97a6.737,6.737,0,1,0,0,13.474H71.655Z" fill="#e5e5e5"/>
  <g>
    <path d="M92.663,29.449a6.737,6.737,0,1,1,0,13.474H71.293a23.619,23.619,0,0,0,.072,47.232,30.318,30.318,0,0,1,.363-60.634H92.663Z" fill="#c4c4c4"/>
    <path d="M116.5,38.521A30.389,30.389,0,0,1,95.054,90.389H74.263a6.737,6.737,0,0,1,0-13.474H95.489a17.534,17.534,0,0,0,3.911-.434A23.648,23.648,0,0,0,118.38,53.3a23.375,23.375,0,0,0-22.6-23.616A29.259,29.259,0,0,1,116.5,38.521Z" fill="#c4c4c4"/>
    <path d="M95.054,29.538h.652a23.643,23.643,0,0,1,3.622,46.8,16.911,16.911,0,0,0-3.839-33.4H92.663a6.737,6.737,0,1,0,0-13.474h2.463v.072Z" fill="#e5e5e5"/>
    <path d="M179.666,76.915h5.071v-1.3h-3.622V72.569h3.477V71.337h-3.477V69.164h3.622V67.932h-5.071Zm-24.123-5.433-2.028-3.622h-1.594l2.9,5.071v3.984h1.449V72.931l2.9-5.071h-1.594ZM149.6,45.548a8.355,8.355,0,0,0-3.26-1.956,15.214,15.214,0,0,0-4.564-.58h-4.057V62.354h3.985a15.233,15.233,0,0,0,4.564-.507,8.344,8.344,0,0,0,3.259-1.956,9.25,9.25,0,0,0,3.115-7.244,8.9,8.9,0,0,0-3.042-7.1Zm-2.029,12.387a8.749,8.749,0,0,1-2.39,1.449,7.21,7.21,0,0,1-3.26.362h-1.3V45.765h1.3c2.535,0,4.347.58,5.65,1.811a6.625,6.625,0,0,1,2.174,5.144,6.779,6.779,0,0,1-2.174,5.215Zm22.385,10.07a6.48,6.48,0,0,0-1.666-.145H166.7v9.055H168V73.293h.58a3.83,3.83,0,0,0,2.318-.724,2.589,2.589,0,0,0,.869-1.956,2.537,2.537,0,0,0-1.811-2.608Zm-1.3,3.984h-.507v-2.9h.507c1.3,0,1.956.508,1.956,1.449A1.742,1.742,0,0,1,168.655,71.989Zm11.736-12.243h-7.679V53.227h7.461V50.474h-7.461V45.765h7.679v-2.68H169.669V62.354h10.722ZM142.866,71.41h-3.84V67.932h-1.3v9.056h1.3v-4.2h3.84v4.2h1.449V67.932h-1.449V71.41Zm54.766.8a2.908,2.908,0,0,0,.58-1.667,2.361,2.361,0,0,0-.87-1.956,3.426,3.426,0,0,0-2.535-.724h-1.594v9.055h1.3V73.221h.217l2.536,3.694h1.666l-2.753-3.839a4.3,4.3,0,0,0,1.449-.869Zm-3.187-.218v-2.9h.507c1.231,0,1.956.508,1.956,1.3,0,.942-.58,1.449-1.956,1.449h-.507Zm61.575-3.984a6.476,6.476,0,0,0-1.666-.145h-1.593v9.055h1.3V73.293h.58a3.828,3.828,0,0,0,2.318-.724,2.586,2.586,0,0,0,.869-1.956,2.734,2.734,0,0,0-.724-1.956A4.3,4.3,0,0,0,256.02,68.005Zm-1.376,3.984h-.507v-2.9h.507c1.3,0,1.956.508,1.956,1.449C256.528,71.482,255.948,71.989,254.644,71.989Zm-14.851-4.346a5.194,5.194,0,0,0-3.332,1.3,4.682,4.682,0,0,0-1.449,3.26,4.292,4.292,0,0,0,1.594,3.477,4.8,4.8,0,0,0,6.52-.145,4.4,4.4,0,0,0,1.449-3.26A5.009,5.009,0,0,0,239.793,67.643Zm2.319,7.1a3.671,3.671,0,0,1-2.391.942,3.357,3.357,0,0,1-3.26-3.333,3.526,3.526,0,0,1,.942-2.39,3.323,3.323,0,0,1,4.709,0A3.411,3.411,0,0,1,242.112,74.742ZM200.6,43.157h-2.9v19.27h8.549V59.746H200.6Zm46.291-.145v2.753h4.419V62.354h2.9V45.765h4.419V43.012ZM222.48,62.354h2.9V53.227h6.52V50.474h-6.52V45.765h6.738v-2.68H222.48Zm-14.271,5.578h-1.3v9.056h3.984v-1.3h-2.68Zm14.416-.289a5.2,5.2,0,0,0-3.333,1.3,4.682,4.682,0,0,0-1.449,3.26,4.292,4.292,0,0,0,1.594,3.477,4.8,4.8,0,0,0,6.52-.145,4.4,4.4,0,0,0,1.449-3.26,5.126,5.126,0,0,0-4.781-4.636Zm2.318,7.1a3.671,3.671,0,0,1-2.391.942,3.357,3.357,0,0,1-3.26-3.333,3.526,3.526,0,0,1,.942-2.39,3.323,3.323,0,0,1,4.709,0A3.411,3.411,0,0,1,224.943,74.742Z" fill="#c4c4c4"/>
  </g>
  <rect width="300" height="120" fill="none"/>
</svg>
