<svg xmlns="http://www.w3.org/2000/svg" viewBox="0 0 300 120">
  <path fill="#e5e5e5" d="M71.66 90.32h-.3a23.66 23.66 0 0 1-23.25-23.7 23.4 23.4 0 0 1 23.18-23.6 17.02 17.02 0 0 0 0 34.04h2.97a6.74 6.74 0 1 0 0 13.47h-2.6z"/>
  <path fill="#5f5f5f" d="M92.66 29.45a6.74 6.74 0 1 1 0 13.47H71.3a23.62 23.62 0 0 0 .08 47.23 30.32 30.32 0 0 1 .36-60.63h20.93z"/>
  <path fill="#5f5f5f" d="M116.5 38.52A30.39 30.39 0 0 1 95.05 90.4H74.26a6.74 6.74 0 0 1 0-13.48H95.5a17.53 17.53 0 0 0 3.91-.43 23.65 23.65 0 0 0 18.98-23.18 23.38 23.38 0 0 0-22.6-23.62 29.26 29.26 0 0 1 20.72 8.84z"/>
  <path fill="#e5e5e5" d="M95.05 29.54h.66a23.64 23.64 0 0 1 3.62 46.8 16.91 16.91 0 0 0-3.84-33.4h-2.83a6.74 6.74 0 1 0 0-13.48h2.47v.08z"/>
  <path fill="#5f5f5f" d="M179.67 76.92h5.07v-1.3h-3.63v-3.05h3.48v-1.23h-3.47v-2.18h3.62v-1.23h-5.07zm-24.13-5.44l-2.02-3.62h-1.6l2.9 5.07v3.98h1.45v-3.98l2.9-5.07h-1.6zm-5.94-25.93a8.36 8.36 0 0 0-3.26-1.96 15.21 15.21 0 0 0-4.56-.58h-4.06v19.34h3.98a15.23 15.23 0 0 0 4.57-.5 8.34 8.34 0 0 0 3.26-1.96 9.25 9.25 0 0 0 3.11-7.24 8.9 8.9 0 0 0-3.04-7.1zm-2.03 12.39a8.75 8.75 0 0 1-2.39 1.44 7.21 7.21 0 0 1-3.26.37h-1.3V45.77h1.3c2.54 0 4.35.57 5.65 1.8a6.63 6.63 0 0 1 2.18 5.15 6.78 6.78 0 0 1-2.18 5.21zM169.96 68a6.48 6.48 0 0 0-1.67-.15h-1.59v9.05h1.3V73.3h.58a3.83 3.83 0 0 0 2.32-.72 2.59 2.59 0 0 0 .87-1.96 2.54 2.54 0 0 0-1.81-2.6zm-1.3 3.98h-.51v-2.9h.5c1.3 0 1.96.5 1.96 1.45a1.74 1.74 0 0 1-1.96 1.45zm11.73-12.24h-7.68v-6.52h7.46v-2.76h-7.46v-4.7h7.68v-2.69h-10.72v19.27h10.72zM142.87 71.4h-3.84v-3.48h-1.3V77h1.3v-4.2h3.84v4.2h1.45v-9.06h-1.45v3.48zm54.76.8a2.9 2.9 0 0 0 .58-1.67 2.36 2.36 0 0 0-.87-1.95 3.43 3.43 0 0 0-2.53-.73h-1.6v9.06h1.3v-3.7h.22l2.54 3.7h1.66l-2.75-3.84a4.3 4.3 0 0 0 1.45-.87zm-3.18-.22v-2.9h.5c1.23 0 1.96.51 1.96 1.3 0 .94-.58 1.45-1.96 1.45h-.5zm61.57-3.98a6.48 6.48 0 0 0-1.67-.15h-1.59v9.06h1.3v-3.63h.58a3.83 3.83 0 0 0 2.32-.72 2.59 2.59 0 0 0 .87-1.96 2.73 2.73 0 0 0-.73-1.95 4.3 4.3 0 0 0-1.08-.66zm-1.38 3.98h-.5v-2.9h.5c1.3 0 1.96.51 1.96 1.45-.07.94-.65 1.45-1.96 1.45zm-14.85-4.34a5.2 5.2 0 0 0-3.33 1.3 4.68 4.68 0 0 0-1.45 3.26 4.3 4.3 0 0 0 1.6 3.47 4.8 4.8 0 0 0 6.52-.14 4.4 4.4 0 0 0 1.44-3.26 5 5 0 0 0-4.78-4.64zm2.32 7.1a3.67 3.67 0 0 1-2.39.94 3.36 3.36 0 0 1-3.26-3.34 3.53 3.53 0 0 1 .94-2.39 3.32 3.32 0 0 1 4.71 0 3.41 3.41 0 0 1 0 4.78zm-41.51-31.6h-2.9v19.28h8.55v-2.68h-5.65zm46.3-.14v2.75h4.41v16.6h2.9v-16.6h4.42v-2.75zm-24.42 19.34h2.9v-9.12h6.52v-2.76h-6.52v-4.7h6.74v-2.69h-9.64zm-14.27 5.58h-1.3V77h3.98v-1.3h-2.68zm14.41-.29a5.2 5.2 0 0 0-3.33 1.3 4.68 4.68 0 0 0-1.45 3.26 4.3 4.3 0 0 0 1.6 3.48 4.8 4.8 0 0 0 6.52-.14 4.4 4.4 0 0 0 1.45-3.26 5.13 5.13 0 0 0-4.78-4.64zm2.32 7.1a3.67 3.67 0 0 1-2.39.95 3.36 3.36 0 0 1-3.26-3.34 3.53 3.53 0 0 1 .94-2.39 3.32 3.32 0 0 1 4.71 0 3.41 3.41 0 0 1 0 4.78z"/>
</svg>
