<svg xmlns="http://www.w3.org/2000/svg" viewBox="0 0 300 120">
  <style>.st0{opacity:.7;fill:#b4b4b4}</style>
  <path class="st0" d="M95.3 83.5c2.2-2.1 3.2-5.3 3.2-9.6V42.3h-9.3v31.3a7 7 0 0 1-.8 3.8c-.6.8-1.7 1.3-3.1 1.3l-2-.1a15 15 0 0 1-1.8-.4l-1.2 7.6a18.3 18.3 0 0 0 5.8.9c4.1-.1 7.1-1.2 9.2-3.2zm9-18.1a13.6 13.6 0 0 0 8.5 8.8c2.4.9 5 1.3 7.6 1.2l3.4-.2 3.2-.4 2.8-.6 2-.7-1.2-7.5a28.1 28.1 0 0 1-8.9 1.5 10 10 0 0 1-6.3-1.7 6 6 0 0 1-2.7-4.5h20.8l.1-1.7.1-1.8c0-5.5-1.3-9.5-4-12.3a14.4 14.4 0 0 0-10.9-4.2c-2 0-3.9.4-5.8 1.1-1.9.7-3.5 1.9-5 3.2a15.4 15.4 0 0 0-3.4 5.4c-.9 2.4-1.3 5-1.3 7.6-.1 2.5.2 4.8 1 6.8zm8.3-10c.1-.8.3-1.6.6-2.3a4.9 4.9 0 0 1 3-3.3c.8-.4 1.8-.5 2.7-.5s1.9.2 2.7.5c1.3.7 2.4 1.9 2.8 3.4l.4 2.3-12.2-.1zm32.3-13.1H135l5.5 7.9 5.8 8.3-3.4 4c-1.1 1.5-2.3 2.9-3.2 4.4l-2.8 4.4-2.1 3.6h9.3l1.5-2.7 1.7-2.9c.5-.8 1.1-1.7 1.9-2.4l1.9-1.8 2 1.9 1.9 2.6 1.7 2.9 1.2 2.3h9.7c-1.5-2.7-3-5.4-4.8-7.9A99.5 99.5 0 0 0 156 58l11-15.9h-9.4l-6.4 9.1-6.3-8.9zM171 75h9.3V42.3H171V75zm24.6-7.3c-.9-.5-1.5-1.6-1.5-3 0-.6.1-1.3.5-1.9.3-.5.8-.9 1.3-1.1.6-.3 1.3-.5 2-.6 1.5-.2 3-.2 4.5 0l1.7.2v6.9l-2 .2-2.6.1c-1.3.2-2.6-.2-3.9-.8zm0-25.9l-3 .4c-1.6.2-3.1.6-4.7 1l1.1 7.4a24.6 24.6 0 0 1 8.6-1.2c2.4 0 4 .5 5 1.5.9 1 1.5 2.4 1.5 3.7v.8l-2.3-.4a32.3 32.3 0 0 0-8.4.3c-1.6.3-3 .9-4.4 1.7a9 9 0 0 0-3 3.1 9 9 0 0 0-1.1 4.8c-.1 1.8.3 3.4 1 5a9 9 0 0 0 2.8 3.3c1.3.9 2.8 1.6 4.5 1.9a59.7 59.7 0 0 0 19.7-1.1V55c0-1.9-.2-3.7-.7-5.5-.4-1.6-1.2-3-2.3-4.1a10.5 10.5 0 0 0-4.4-2.7c-2.2-.6-4.5-1-6.8-.9h-3.1z"/><path d="M232.6 34.7l2.8-2.8c.3-.3.3-.7 0-1s-.7-.3-1 0l-2.9 2.9a10.4 10.4 0 0 0-11.9 0l-2.9-2.9c-.3-.3-.7-.3-1 0s-.3.7 0 1l2.8 2.8A10.4 10.4 0 1 0 232.8 50c4.2-4 4.5-10.6.5-14.8a3 3 0 0 1-.7-.5z" opacity=".7" fill="#212121"/><path class="st0" d="M231.3 39.4c1 0 2.1.4 2.8 1-1-2.4-3.3-4.8-8.5-3.7-5.3-1-7.6 1.3-8.5 3.7 1.9-1.6 4.7-1.5 6.2.4 1.6 1.9 1.5 4.7-.4 6.2-.8.7-1.9 1.1-2.9 1.1l-1.3-.2.7.7a8.9 8.9 0 0 0 12.6 0l.7-.7-1.3.2c-2.4 0-4.5-2-4.5-4.5 0-2.3 1.9-4.2 4.4-4.2z"/><path d="M232.9 40.7c.6 0 1.1.4 1.1 1s-.4 1.1-1 1.1h-.1c-.6 0-1.1-.5-1.1-1.1s.5-1.1 1.1-1m-11 0c.6 0 1.1.4 1.1 1s-.4 1.1-1 1.1h-.1c-.6 0-1.1-.5-1.1-1.1s.4-1.1 1.1-1" opacity=".7" fill="#fff"/>
</svg>
