<svg xmlns="http://www.w3.org/2000/svg" viewBox="0 0 300 120">
  <path fill="#5f5f5f" d="M103.24 54.3l41.06-41.06a8.04 8.04 0 0 1 11.4 0l41.06 41.06a8.04 8.04 0 0 1 0 11.41l-41.05 41.06a8.04 8.04 0 0 1-11.42 0L103.24 65.7a8.04 8.04 0 0 1 0-11.41z"/>
  <path fill="#fff" d="M109.15 59.7a7.09 7.09 0 0 1 1.92-4.5l3.58-3.57a7.08 7.08 0 0 1 4.74-2.08c2.17 0 3.59 1 5.42 2.91l5.66 5.66a2.12 2.12 0 0 1 .83 1.75 2.36 2.36 0 0 1-2.25 2.33c-1 0-1.66-.83-2.41-1.58l-5.83-5.83a2.2 2.2 0 0 0-1.58-.75 3.09 3.09 0 0 0-1.92 1l-3.08 3.08a2 2 0 0 0 0 2.92l6.58 6.58a2.17 2.17 0 0 1 .83 1.75 2.38 2.38 0 0 1-2.33 2.33c-.75 0-1.33-.5-2.25-1.33l-6.24-6.25a6.8 6.8 0 0 1-1.67-4.41zM134.8 34.06a6.82 6.82 0 0 0-4.91 2.33l-2.92 2.92c-3.33 3.33-2.58 7.16-.58 9.24l10.24 10.24c1.33 1.34 2.5 1 3.33.17a2.11 2.11 0 0 0-.08-3.33l-2.25-2.25a2.8 2.8 0 0 0 1.67-.92l3.58-3.58c2.25-2.25 3.33-6.08.25-9.16l-3.33-3.33a7.66 7.66 0 0 0-5-2.33zm0 4.66a2.9 2.9 0 0 1 1.83 1l2.75 2.75a2.22 2.22 0 0 1 0 3.58l-2.91 2.92a2.23 2.23 0 0 1-3.5 0l-3-3a2.16 2.16 0 0 1 0-3.33l2.91-2.92c.67-.58 1.25-1.08 1.92-1zM149.96 18.9a6.82 6.82 0 0 0-4.92 2.33l-2.91 2.92c-3.33 3.33-2.58 7.16-.58 9.24l3.83 3.91a6.1 6.1 0 0 0 8.9.09l3.59-3.58c2.25-2.25 3.33-6.08.25-9.16l-3.33-3.34a6.47 6.47 0 0 0-4.83-2.41zm.08 4.58a2.9 2.9 0 0 1 1.83 1l2.75 2.75a2.22 2.22 0 0 1 0 3.58l-2.91 2.92a2.23 2.23 0 0 1-3.5 0l-3-3a2.16 2.16 0 0 1 0-3.34l2.91-2.91a2.73 2.73 0 0 1 1.92-1z"/>
</svg>
