<svg id="Layer_1" data-name="Layer 1" xmlns="http://www.w3.org/2000/svg" viewBox="0 0 300 120">
  <title>logos</title>
  <g id="layer1">
    <path id="rect5943" d="M103.238,54.3l41.057-41.057a8.044,8.044,0,0,1,11.41,0L196.762,54.3a8.042,8.042,0,0,1,0,11.41l-41.057,41.057a8.044,8.044,0,0,1-11.41,0L103.238,65.705a8.044,8.044,0,0,1,0-11.41Z" fill="#c4c4c4"/>
    <path id="path5933" d="M109.151,59.709a7.09,7.09,0,0,1,1.915-4.5l3.581-3.581a7.078,7.078,0,0,1,4.747-2.082c2.166,0,3.581,1,5.414,2.915l5.663,5.663a2.12,2.12,0,0,1,.832,1.749,2.364,2.364,0,0,1-2.248,2.332c-1,0-1.666-.833-2.415-1.582l-5.83-5.83a2.2,2.2,0,0,0-1.582-.75,3.087,3.087,0,0,0-1.916,1l-3.081,3.081a2.009,2.009,0,0,0,0,2.915l6.579,6.579a2.17,2.17,0,0,1,.833,1.749,2.382,2.382,0,0,1-2.332,2.332c-.749,0-1.332-.5-2.248-1.333l-6.246-6.246a6.8,6.8,0,0,1-1.666-4.413Z" fill="#fff"/>
    <path id="path5935" d="M134.8,34.058a6.82,6.82,0,0,0-4.913,2.332l-2.915,2.915c-3.331,3.331-2.582,7.162-.583,9.244l10.244,10.243c1.332,1.333,2.5,1,3.331.167a2.112,2.112,0,0,0-.084-3.331l-2.248-2.249a2.8,2.8,0,0,0,1.666-.916l3.581-3.581c2.248-2.248,3.331-6.079.25-9.161L139.8,36.39a7.663,7.663,0,0,0-5-2.332Zm0,4.664a2.893,2.893,0,0,1,1.832,1l2.749,2.749a2.22,2.22,0,0,1,0,3.581l-2.915,2.914a2.231,2.231,0,0,1-3.5,0l-3-3a2.16,2.16,0,0,1,0-3.331l2.915-2.915c.666-.583,1.249-1.082,1.915-1Z" fill="#fff"/>
    <path id="path5939" d="M149.958,18.9a6.82,6.82,0,0,0-4.913,2.332l-2.915,2.915c-3.331,3.331-2.582,7.162-.583,9.244l3.831,3.914a6.093,6.093,0,0,0,8.911.083l3.581-3.581c2.248-2.248,3.331-6.079.25-9.16l-3.331-3.332a6.474,6.474,0,0,0-4.831-2.415Zm.084,4.581a2.9,2.9,0,0,1,1.832,1l2.748,2.748a2.22,2.22,0,0,1,0,3.581l-2.915,2.915a2.233,2.233,0,0,1-3.5,0l-3-3a2.16,2.16,0,0,1,0-3.331l2.915-2.915a2.727,2.727,0,0,1,1.916-1Z" fill="#fff"/>
  </g>
  <rect width="300" height="120" fill="none"/>
</svg>
