<svg xmlns="http://www.w3.org/2000/svg" viewBox="0 0 300 120">
  <path fill="#c4c4c4" d="M148.6 10.1A50.04 50.04 0 0 1 200 58.7a49.43 49.43 0 0 1-5.8 24.7 49.97 49.97 0 1 1-84.5-52.9 50.94 50.94 0 0 1 15.6-14 47.4 47.4 0 0 1 23.3-6.4zm-1 1.6a47.67 47.67 0 0 0-26 9 48.3 48.3 0 0 0-10.4 68.4 49.49 49.49 0 0 0 13 12 48.4 48.4 0 0 0 41.4 4.8 48.9 48.9 0 0 0 26.7-22.3 48.4 48.4 0 0 0-5.3-54.8 49.4 49.4 0 0 0-14-11.3 47.08 47.08 0 0 0-25.4-5.8z"/>
  <path fill="#c4c4c4" d="M141 36.6h4a10.45 10.45 0 0 1 2.5 0 2.09 2.09 0 0 1 1.4 2.2v19c0 .7-.2 1.4.2 2a1.69 1.69 0 0 0 1 .3h7.5a2.23 2.23 0 0 1 2.4 2v4.5a2.15 2.15 0 0 1-2 2h-16.7a2.14 2.14 0 0 1-2-2.3V38.8a2.25 2.25 0 0 1 1.6-2.2z"/>
  <path fill="#c4c4c4" d="M183.3 42.1a4.79 4.79 0 0 1 3.5-1.6 4.67 4.67 0 0 1 1.7.3 4.27 4.27 0 0 1 .5 3.3 12.15 12.15 0 0 1-2.8 4.6c-2 2.5-3.8 5.2-5.6 7.8l-1.2 1.6c-.2.3 0 .5 0 .7 4 5.5 7.6 11 11.4 16.5a5.22 5.22 0 0 1 1.4 3.4 2.3 2.3 0 0 1-1.5 1.8 29.59 29.59 0 0 1-7.2 2 3.9 3.9 0 0 1-4-2.2c-2-4.3-4.3-8.5-6.4-12.7l-7.6 11.5a5.51 5.51 0 0 1-2 1.7 1.7 1.7 0 0 1-1.4 0 5.26 5.26 0 0 1-1.2-1.4 29.22 29.22 0 0 1-2.4-3.7 4.6 4.6 0 0 1-.2-3.8 8.96 8.96 0 0 1 1.7-3c3-3.3 5.7-6.6 8.6-10l-6-11.5a6.15 6.15 0 0 1-.7-3.5 3.04 3.04 0 0 1 1.3-2.3 4.35 4.35 0 0 1 4-.2 4.63 4.63 0 0 1 1.6 1.5l6 9 8.3-9.7.2-.1zM119.5 41.8a14.96 14.96 0 0 1 9 2 17.92 17.92 0 0 1 7.5 9 22.37 22.37 0 0 1 .6 14 19.27 19.27 0 0 1-7.2 10.5 15.21 15.21 0 0 1-8 2.6 14.93 14.93 0 0 1-8.6-3 19.5 19.5 0 0 1-7.3-11.3 22.03 22.03 0 0 1 2.2-15.3 17.96 17.96 0 0 1 7.2-7 17.02 17.02 0 0 1 4.5-1.5zm.5 6a7.07 7.07 0 0 0-3.8 3 17.17 17.17 0 0 0-2.4 7 20.9 20.9 0 0 0 1.2 10.5 10.46 10.46 0 0 0 3.6 4.7 4.8 4.8 0 0 0 4.5.3 7.37 7.37 0 0 0 3.3-3 15.97 15.97 0 0 0 2.4-6.6 20.26 20.26 0 0 0-1.3-10.6 10.8 10.8 0 0 0-3.4-4.5 4.94 4.94 0 0 0-4.1-.8z"/>
</svg>
