<svg id="Layer_1" data-name="Layer 1" xmlns="http://www.w3.org/2000/svg" viewBox="0 0 300 120">
  <title>logos</title>
  <path d="M148.6,10.1A50.037,50.037,0,0,1,200,58.7a49.432,49.432,0,0,1-5.8,24.7,49.973,49.973,0,1,1-84.5-52.9,50.935,50.935,0,0,1,15.6-14,47.4,47.4,0,0,1,23.3-6.4Zm-1,1.6a47.671,47.671,0,0,0-26,9,48.3,48.3,0,0,0-10.4,68.4,49.49,49.49,0,0,0,13,12,48.391,48.391,0,0,0,41.4,4.8,48.906,48.906,0,0,0,26.7-22.3A48.4,48.4,0,0,0,187,28.8a49.409,49.409,0,0,0-14-11.3A47.075,47.075,0,0,0,147.6,11.7Z" fill="#c4c4c4"/>
  <path d="M141,36.6h4a10.454,10.454,0,0,1,2.5,0,2.087,2.087,0,0,1,1.4,2.2v19c0,.7-.2,1.4.2,2a1.689,1.689,0,0,0,1,.3h7.5a2.23,2.23,0,0,1,2.4,2v4.5a2.151,2.151,0,0,1-2,2H141.3a2.138,2.138,0,0,1-2-2.3V38.8a2.25,2.25,0,0,1,1.6-2.2Z" fill="#c4c4c4"/>
  <path d="M183.3,42.1a4.79,4.79,0,0,1,3.5-1.6,4.671,4.671,0,0,1,1.7.3,4.273,4.273,0,0,1,.5,3.3,12.146,12.146,0,0,1-2.8,4.6c-2,2.5-3.8,5.2-5.6,7.8l-1.2,1.6c-.2.3,0,.5,0,.7,4,5.5,7.6,11,11.4,16.5a5.218,5.218,0,0,1,1.4,3.4,2.293,2.293,0,0,1-1.5,1.8,29.586,29.586,0,0,1-7.2,2,3.893,3.893,0,0,1-4-2.2c-2-4.3-4.3-8.5-6.4-12.7l-7.6,11.5a5.51,5.51,0,0,1-2,1.7,1.708,1.708,0,0,1-1.4,0,5.263,5.263,0,0,1-1.2-1.4,29.218,29.218,0,0,1-2.4-3.7,4.6,4.6,0,0,1-.2-3.8,8.958,8.958,0,0,1,1.7-3c3-3.3,5.7-6.6,8.6-10l-6-11.5a6.147,6.147,0,0,1-.7-3.5,3.037,3.037,0,0,1,1.3-2.3,4.346,4.346,0,0,1,4-.2,4.629,4.629,0,0,1,1.6,1.5l6,9,8.3-9.7.2-.1Z" fill="#c4c4c4"/>
  <path d="M119.5,41.8a14.957,14.957,0,0,1,9,2,17.922,17.922,0,0,1,7.5,9,22.369,22.369,0,0,1,.6,14,19.274,19.274,0,0,1-7.2,10.5,15.214,15.214,0,0,1-8,2.6,14.932,14.932,0,0,1-8.6-3,19.507,19.507,0,0,1-7.3-11.3,22.032,22.032,0,0,1,2.2-15.3,17.957,17.957,0,0,1,7.2-7,17.022,17.022,0,0,1,4.5-1.5Zm.5,6a7.067,7.067,0,0,0-3.8,3,17.17,17.17,0,0,0-2.4,7A20.9,20.9,0,0,0,115,68.3a10.461,10.461,0,0,0,3.6,4.7,4.792,4.792,0,0,0,4.5.3,7.367,7.367,0,0,0,3.3-3,15.967,15.967,0,0,0,2.4-6.6,20.26,20.26,0,0,0-1.3-10.6,10.791,10.791,0,0,0-3.4-4.5,4.94,4.94,0,0,0-4.1-.8Z" fill="#c4c4c4"/>
  <rect width="300" height="120" fill="none"/>
</svg>
