<svg xmlns="http://www.w3.org/2000/svg" viewBox="0 0 300 120">
  <path d="M157.4 47.2h-4.2v-3.8h12.7v3.8h-4.2v21.4h-4.3V47.2zm11.4 21.4V43.4h4.2v10.3h4.4V43.4h4.2v25.2h-4.2V57.4H173v11.2h-4.2zm16.7-25.2h4.2v19.5c0 1.9.7 2.8 2.2 2.8 1.5 0 2.2-.9 2.2-2.8V43.4h4.2v19.3c0 4.4-2.4 6.9-6.4 6.9-3.9 0-6.4-2.4-6.4-6.9V43.4zm17.7 0h3.9v25.2h-3.9V43.4zm17 6.1c-.2-2.2-1.3-2.8-2.3-2.8-1.4 0-2.1.9-2.1 2.5 0 4.3 8.6 6.4 8.6 13.4 0 4.2-2.8 6.5-6.7 6.5-3.9 0-6.2-3.3-6.4-7.1l4-.6c.2 2.6 1.2 3.9 2.5 3.9 1.5 0 2.5-.8 2.5-2.3 0-5.1-8.7-6.4-8.7-13.7 0-4.1 2.4-6.4 6.6-6.4 3.5 0 5.5 2.6 5.9 6.2l-3.9.4z" opacity=".7"/><path d="M137.5 71.2v.6a33 33 0 0 1-3.1 5.1c-.4.5-.3.4-.8.4h-.1a55 55 0 0 1-4.1 4.7 32 32 0 0 1-20.6 10.4c-3.2-.1-7.2-1.5-9.8-3-2.6-1.5-6.9-5.8-6.9-5.8l-9.3 3.7s2.4-2.2 5.2-5.2c2.8-3-1-6-3.3-9.6-2.4-3.6-6.6-9.2-8.4-16.6a21 21 0 0 1 3.5-18.5c4.8-6.5 12.8-8 14.6-8.5 4-.9 8-1.4 12.1-1.4h.1l2.5.1c6.9.4 15 2.4 21.2 5.9 5.1 2.9 8.8 7.9 10.2 13.7l.6 2.8a24 24 0 0 1 .2 11.3l-.6 2.4c-.9 2.6-1.9 5.1-3.2 7.5zm-13.1-32.4c.8-.5-.1-2.4-2.2-3.1-2.2-.7-5.7-2.3-16.2-1.7-1.6.1-4.2.4-4.6 1.7-.4 1.3-.6 2.5 1.6 3s4 .8 5.2 1.2c1.2.4 1.9 1.2 2.3 6.1a369 369 0 0 1-.3 26.1c-.1 2.2-.5 5.4-.2 6.5.3 1.2 1.6 5.1 2.8 2.1.8-1.9 1.4-11.5 1.6-16.6.2-5.1 1.1-13.4 1.3-17.6.2-4.1 1.1-7.1 3-7.1 2 .1 4.9-.1 5.7-.6zm5.4 3.2c-1.9-.7-2.6.9-3.1 2.7-.7 3.5-1 7-1.1 10.6.1 2.7 0 5.4-1.9 5.2s-1.6-1.3-1.4-6c.2-4.6 2.3-14.1-.5-13.9-1.3.1-1.7.3-1.9 1-.3.7-1.3 3.7-1.2 9.2.2 5.5-.4 12.8-.5 15.5l-.8 13c-.1 2.3.2 7.2 2.4 2.7 1-1.9 1.1-5 1.7-8.6.6-3.6.5-4.8 1.1-6.6.6-1.8 2.1-3.7 2.5-.8.2 1.6-1 7.9-1 9.8 0 3.4.1 7.3.7 8.1 1.8 2.2 2.5-.6 2.8-1.8.3-1.3.9-7.7 1.1-9.7l2.3-26.2c.1-1.3.7-3.5-1.2-4.2zm7.7 29.2c-.2-.9-1.2-1.3-1.8-1.7-1-.7-1.6-.8-1.7-4.2-.1-3.4 1-4.1 1.7-4.4.7-.3 2.4-.2 3.9-1.6 1.5-1.4-.4-2.8-2.5-3.7-2-.9-1.5-1.5-1-4.7.4-3 3.7-1.9 4.3-1.6l-1.4-5.4c-1.3 0-2.6.3-3.8.9-1.5.7-3.1 4-3 5.3.1 1.2-1.4 20.7-1.2 22.6.2 2.6 1.8 4.5 2.5 4.6 1.5-1.9 2.9-3.9 4-6.1zm-4.7-30.5c1.6 1 5.3.9 5.3.9a7 7 0 0 0-1-1.7l-.4-.4-.2-.2c-1.9-.5-3.3-.9-4-.4-.6.4-1.3.8.3 1.8zM99 43.1c-.6.7-2.6 1.8-3.8 10-1.2 8.1-1.5 8.5-1.8 13.6-.4 5.3-.6 10.2.8 10.6 1.3.5 1.6-1.5 1.8-3.3.2-1.7.5-2.7 1.6-7.3 1-4.6 1.9-7.5 3.2-7.8 2.7-.4 2.3 4.4 2.6 6.5.3 1.9 1 7.3 1.7 9.2 2.3 6.2 3.3.7 3.5-1.7.2-2.4-.6-13.2-1.7-21.6-1.1-8.3-5.3-11.4-7.9-8.2zm4.3 10.6c-.3.6-4.7 2.5-3.9-1.1.3-1.1.9-5.5 2.3-3.6 1.4 1.8 1.8 4.2 1.6 4.7zm-9-6.6c-.2-2.3-3-5.2-3.9-5.6-6.5-3-11.8 4.1-11.9 4.5-.6 1.8-.4 1.7-.1 3.4.6 3.3 4.9 16.6 8.3 23.1 3.4 6.6 2.6-2.4 1.7-7.9-.6-3.7-1-7.8-1-7.8s1.9-.9 4.7-2.8c2.7-1.9 2.3-4.6 2.2-6.9zM88.7 50c-.1 1.4-2.9 2.9-3.3 2.1-2-3.3-1.2-4.4-.6-5.4s1.9-.8 2.8 0c.7.7 1.1 2.2 1.1 3.3z" opacity=".7" fill="#c4c4c4"/>
</svg>
