<svg xmlns="http://www.w3.org/2000/svg" viewBox="0 0 300 120">
  <path fill="#999" d="M193.8 48v-9.3c12.2-.2 12.7-.4 16.8-.3 6.2.2 10 2 12.7 4.7 2.6 2.6 4.7 6.6 4.6 12.5-.1 3.3-2.2 15.7-17.1 16.4-1.8.2-5.8 0-8.3.1l2.5-9.6c5.9.5 10.7-1.3 10.9-7 .3-6.3-5.3-8.3-10.9-7.4l-11.2-.1"/>
  <path fill="#999" d="M204.8 81.1h-11V46l11 .1v35"/>
  <path fill="#999" d="M244.6 53.6l9.1 3.2c6 2.4 7.4 7.2 7.3 11.4-.1 9.7-7.8 13.3-14 13.8-7 .6-12.4-.5-14.2-.9V70.6c5.6 1.7 11.9 1.6 14.1.8 1.6-.6 2.9-1.6 2.8-2.9-.1-.7-.1-1.6-2.2-2.5l-8.5-3c-5.4-2-7.4-7-7.2-11.6.4-9.2 7.8-13.8 15.1-13.6 2.2.1 5.3 0 9.7.6v10.4c-4.9-1.2-7.3-1.2-9.9-.8-2.9.4-4.1 1.8-4.1 3.4.2.9 1 1.8 2 2.2"/>
  <path fill="#999" d="M89.5 54.4h11.9V38.6h11.1v42.5h-11.1V64H89.5v17.1h-11V38.6h11v15.8"/>
  <path fill="#999" d="M122.9 38.6h11v42.5h-11z"/>
  <path fill="#999" d="M172.3 38.6h11v42.5h-11z"/>
  <path fill="#999" d="M155.4 71.5h11.4v9.6h-22.5V38.6h11.1v32.9"/>
  <path fill="#999" d="M39.1 48v-9.3c12.2-.2 12.7-.4 16.8-.3 6.2.2 10 2 12.7 4.7 2.6 2.6 4.7 6.6 4.6 12.5-.1 3.3-2.2 15.7-17.1 16.4-1.8.2-5.7 0-8.3.1l2.4-9.6c5.9.5 10.7-1.3 10.9-7 .3-6.3-5.3-8.3-10.9-7.4L39.1 48"/>
  <path fill="#999" d="M50.2 81.1H39.1V46.7l11.1.1v34.3"/>
</svg>
