<svg xmlns="http://www.w3.org/2000/svg" viewBox="0 0 300 120">
  <defs>
    <filter id="mask" width="112.4" height="95.5" x="21.5" y="12.2" filterUnits="userSpaceOnUse">
      <feColorMatrix values="1 0 0 0 0 0 1 0 0 0 0 0 1 0 0 0 0 0 1 0"/>
    </filter>
  </defs>
  <path fill="#888" d="M-260.4-64.6v18.8h-3.8l-.7-2.1h-.5c-.8.9-2.4 2.3-5.5 2.3-5 0-7.5-3.5-7.5-8.8v-10.2h5.1v9c0 2.3.2 5.6 3.4 5.6 1.7 0 4.4-.9 4.4-5.8v-8.8h5.1zM-241.1-67.4h-7.1v21.6h-5v-21.6h-7.1v-4.7h19.2v4.7zM-237.2-57.5h8.4c-.6-2.2-2.1-3.1-4-3.1-2 0-3.7 1.1-4.4 3.1m13.4 3.8h-13.7c.6 2.9 2.9 3.9 4.9 3.9 2.6 0 3.6-1.6 3.6-1.6h4.7a8.79 8.79 0 01-8.5 5.8c-5.1 0-9.5-3.9-9.5-9.7 0-5.8 4.4-9.4 9.3-9.4s9.8 3.3 9.2 11m12.5 8.1c-5.2 0-9.5-4-9.5-9.5 0-5.6 4.4-9.6 9.7-9.6 4.3 0 7.9 2.7 9 7.1h-5.1c-.8-1.5-2.2-2.5-4-2.5-2.6 0-4.7 2.1-4.7 5s2.1 5 4.7 5c1.7 0 3-.9 3.8-2.3h5.1c-1.2 4.5-5 6.8-9 6.8m30.5-10.4v10.2h-5v-9c0-1.8.3-5.6-3.1-5.6-1.7 0-4.8.9-4.8 5.8v8.8h-5v-26.7h4.8v9.8h.6c.9-.9 2.6-2.1 5.4-2.1 4.8.1 7.1 3.7 7.1 8.8m-122.7-2.9c0-4.9 3.1-8.4 7.6-8.4s7.7 3.5 7.7 8.4-3.1 8.4-7.6 8.4c-4.6-.1-7.7-3.5-7.7-8.4zm17.4 8.7c1.9-2.3 3.1-5.3 3.1-8.7 0-7.7-6-13.3-12.8-13.3-6.9 0-12.8 5.6-12.8 13.3 0 7.7 5.9 13.3 12.8 13.3h15.3v-4.6h-5.6z" class="st0" transform="translate(459.27 118.06)"/>
  <mask id="mask2" width="112.4" height="95.5" x="21.5" y="12.2" maskUnits="userSpaceOnUse">
    <path fill="#fff" fill-rule="evenodd" d="M60.5 101.2c.4 0 .8.1 1.1.4l3.1 2.5h.1c.7.6.8 1.7.2 2.5l-.1.1c-.4.4-.9.6-1.4.6h-.1c-.4 0-.7-.1-1.1-.4l-3.1-2.5h-.1c-.7-.6-.8-1.7-.2-2.5.5-.4 1.1-.7 1.6-.7zm11.8.4c.4 0 .8.1 1.1.4l2.4 2h.1c.7.6.8 1.7.2 2.5l-.1.1c-.3.4-.8.6-1.3.6h-.1c-.4 0-.7-.1-1-.4l-2.4-2h-.1c-.7-.6-.8-1.7-.2-2.5.3-.5.8-.7 1.4-.7zm11.7.3c.4 0 .8.1 1.1.4l1.8 1.5h.1c.7.6.8 1.7.2 2.4l-.1.1c-.3.4-.8.6-1.3.6h-.1c-.4 0-.7-.1-1-.4l-1.8-1.5h-.1c-.7-.6-.8-1.7-.2-2.4.4-.5.9-.7 1.4-.7zm11.8.3c.4 0 .8.1 1.1.4l1.2 1h.1c.7.6.8 1.7.2 2.4l-.1.1c-.3.4-.8.6-1.3.6h-.1c-.4 0-.7-.1-1-.4l-1.2-1h-.1c-.7-.6-.8-1.7-.2-2.4.4-.5.9-.7 1.4-.7zm35.2 1c.9 0 1.6.8 1.6 1.6v.1c0 .9-.7 1.6-1.6 1.6h-.1c-.9 0-1.6-.7-1.6-1.6 0-1 .8-1.7 1.7-1.7zm-23.3-.7c.4 0 .8.1 1.1.4l.6.5h.1c.7.6.8 1.6.2 2.3l-.1.1c-.3.4-.8.6-1.3.6h-.1c-.3 0-.7-.1-1-.4l-.6-.5h-.1c-.7-.6-.8-1.6-.2-2.3.4-.4.9-.7 1.4-.7zm11.9.4h.4c.1 0 .2 0 .2.1h.1c.1 0 .1.1.2.1h.1c.1 0 .1.1.2.2l.1.1.2.2v.1c0 .1.1.1.1.2v.1c0 .1.1.2.1.2v.4c0 .4-.2.8-.5 1.1l-.1.1-.2.2h-.1c-.1 0-.1.1-.2.1h-.1c-.1 0-.2.1-.2.1h-.4c-.4 0-.8-.2-1.1-.5l-.1-.1c-.3-.3-.4-.7-.4-1.1v-.1V104.1c0-.1 0-.2.1-.2v-.1c0-.1.1-.1.1-.2v-.1c0-.1.1-.1.2-.2l.1-.1c.1-.1.1-.1.2-.1h.1c.1 0 .1-.1.2-.1h.1c.1 0 .2-.1.2-.1h.4zM38.3 90.8c.6 0 1 .2 1.4.6l3.3 3.5v.1c.7.8.6 1.9-.1 2.6l-.1.1c-.3.3-.8.4-1.2.4h-.1c-.5 0-.9-.2-1.3-.6L36.9 94v-.1c-.7-.8-.6-1.9.1-2.6.3-.3.8-.5 1.3-.5zm11.5.2c.5 0 1 .2 1.3.6l2.8 3v.1c.6.7.6 1.9-.1 2.5l-.1.1c-.3.3-.8.4-1.2.4h-.1c-.5 0-.9-.2-1.3-.6l-2.8-3V94c-.6-.7-.6-1.9.1-2.5.5-.4 1-.5 1.4-.5zm11.6.1c.5 0 1 .2 1.3.6l2.4 2.5v.1c.6.7.6 1.8-.1 2.5l-.1.1c-.3.3-.8.4-1.2.4h-.1c-.5 0-.9-.2-1.2-.6L60 94.2v-.1c-.6-.7-.6-1.8.1-2.5.4-.3.8-.5 1.3-.5zm11.5.1c.5 0 1 .2 1.3.6l1.9 2v.1c.6.7.6 1.8-.1 2.5-.3.3-.7.4-1.2.4h-.1c-.4 0-.9-.2-1.2-.6l-1.9-2v-.1c-.6-.7-.6-1.8.1-2.5.4-.2.8-.4 1.2-.4zm11.6.2c.5 0 1 .2 1.3.6l1.4 1.5v.1c.6.7.6 1.8-.1 2.4H87c-.3.3-.7.4-1.1.4h-.1c-.4 0-.9-.2-1.2-.6l-1.4-1.5v-.1c-.6-.7-.6-1.8.1-2.4.3-.3.8-.4 1.2-.4zm11.6.1c.5 0 .9.2 1.3.5l.9 1v.1c.6.7.6 1.7-.1 2.4l-.1.1c-.3.2-.7.4-1.1.4-.4 0-.9-.2-1.2-.5l-.9-1v-.1c-.6-.7-.6-1.7.1-2.4.3-.3.7-.5 1.1-.5zm11.7.2c.5 0 .9.2 1.2.5l.5.5v.1c.6.7.5 1.7-.1 2.3l-.1.1c-.3.3-.7.4-1.1.4h-.1c-.4 0-.8-.2-1.2-.5l-.5-.5v-.1c-.6-.7-.5-1.7.1-2.3.4-.4.9-.5 1.3-.5zm23 .2c.9 0 1.6.8 1.6 1.6v.1c0 .9-.7 1.6-1.6 1.6h-.1c-.9 0-1.6-.7-1.6-1.6.1-.9.8-1.7 1.7-1.7zm-11.3-.1h.4c.1 0 .2 0 .2.1h.1c.1 0 .1.1.2.1h.1c.1 0 .1.1.2.2l.2.2v.1c0 .1.1.1.1.2v.1c0 .1 0 .2.1.2V93.7c0 .1 0 .2-.1.2v.1c0 .1-.1.1-.1.2v.1c0 .1-.1.1-.2.2l-.2.2h-.1c-.1 0-.1.1-.2.1h-.1c-.1 0-.2 0-.2.1H119.2c-.1 0-.2 0-.2-.1h-.1c-.1 0-.1-.1-.2-.1h-.1c-.1 0-.1-.1-.2-.2l-.1-.1-.2-.2v-.1c0-.1-.1-.1-.1-.2v-.1c0-.1 0-.2-.1-.2v-.1V93.2 92.9c0-.1 0-.2.1-.2v-.1c0-.1.1-.1.1-.2v-.1c0-.1.1-.1.2-.2.3-.1.8-.3 1.2-.3zM29.1 79.3c.7 0 1.2.3 1.6.8l3.2 4.8v.1c.5.9.3 2-.6 2.6h-.1c-.3.2-.6.3-1 .3h-.1c-.6 0-1.1-.3-1.5-.8l-3.2-4.8v-.1c-.5-.9-.3-2 .6-2.6.4-.2.7-.3 1.1-.3zm11.3.2c.6 0 1.2.3 1.5.8l2.8 4.2v.1c.5.8.3 2-.5 2.5h-.1c-.3.2-.6.3-1 .3H43c-.6 0-1.1-.3-1.5-.8l-2.8-4.2v-.1c-.5-.8-.3-2 .5-2.5.5-.2.9-.3 1.2-.3zm11.3.2c.6 0 1.2.3 1.5.8l2.4 3.6v.1c.5.8.3 1.9-.5 2.5H55c-.3.2-.6.3-.9.3H54c-.6 0-1.1-.3-1.5-.8l-2.4-3.6v-.1c-.5-.8-.3-1.9.5-2.5.4-.2.7-.3 1.1-.3zm11.2.1c.6 0 1.2.3 1.5.8l2 3v.1c.5.8.3 1.9-.5 2.4h-.1c-.3.2-.6.3-.9.3h-.1c-.6 0-1.1-.3-1.4-.8l-2-3v-.1a1.75 1.75 0 011.5-2.7zm11.3.2c.6 0 1.2.3 1.5.8l1.6 2.4v.1c.5.8.3 1.9-.5 2.4h-.1c-.3.2-.6.3-.9.3h-.1c-.5 0-1.1-.3-1.4-.8l-1.6-2.4v-.1a1.75 1.75 0 011.5-2.7zm11.2.2c.6 0 1.1.3 1.5.8l1.2 1.8v.1c.5.8.3 1.8-.5 2.4h-.1c-.3.2-.6.2-.9.2h-.1c-.5 0-1.1-.3-1.4-.8L84 82.9v-.1c-.5-.8-.3-1.8.5-2.4.3-.1.6-.2.9-.2zm11.3.2c.6 0 1.1.3 1.4.8l.8 1.2v.1c.5.8.3 1.8-.5 2.3h-.1c-.3.2-.6.2-.9.2h-.1c-.5 0-1-.3-1.4-.8l-.6-1.2v-.1c-.5-.8-.3-1.8.5-2.3.3-.1.6-.2.9-.2zm11.4.1c.6 0 1.1.3 1.4.8l.4.6v.1c.5.8.3 1.8-.5 2.3h-.1c-.3.2-.6.2-.9.2h-.1c-.5 0-1-.3-1.3-.8l-.4-.6V83c-.5-.8-.3-1.8.5-2.3.4-.1.7-.2 1-.2zm11.4.2h.4c.1 0 .2 0 .2.1h.1c.1 0 .1.1.2.1h.1c.1 0 .1.1.2.2l.1.1c0 .1.1.1.1.2v.1c0 .1.1.1.1.2v.1c0 .1.1.2.1.2V82.7c0 .1 0 .2-.1.2v.1c0 .1-.1.1-.1.2v.1c0 .1-.1.1-.2.2l-.1.1c-.3.3-.7.4-1.1.4h-.4c-.1 0-.2 0-.2-.1h-.1c-.1 0-.1-.1-.2-.1h-.1c-.1 0-.1-.1-.2-.2l-.1-.1-.2-.2v-.1c0-.1-.1-.1-.1-.2v-.1c0-.1-.1-.2-.1-.2v-.1V82.3 82c0-.1 0-.2.1-.2v-.1c0-.1.1-.1.1-.2v-.1c0-.1.1-.1.2-.2.5-.3.9-.5 1.3-.5zM24.3 67.8c.8 0 1.5.5 1.8 1.2l1.9 5.3v.1c.3 1-.2 2-1.1 2.4h-.1c-.2.1-.4.1-.6.1h-.1c-.7 0-1.4-.5-1.7-1.2l-1.9-5.3v-.1c-.3-1 .2-2 1.1-2.4.2 0 .5-.1.7-.1zm11.9.2c.8 0 1.5.5 1.7 1.2l1.7 4.6v.1c.3.9-.2 2-1.1 2.3h-.1c-.2.1-.4.1-.5.1h-.1c-.7 0-1.4-.5-1.7-1.2l-1.7-4.6v-.1c-.3-.9.2-2 1.1-2.3.2 0 .5-.1.7-.1zm11.8.3c.8 0 1.5.5 1.7 1.2l1.5 4v.1c.3.9-.2 1.9-1.1 2.3H50c-.2.1-.4.1-.5.1h-.1c-.7 0-1.4-.5-1.7-1.2l-1.5-4v-.1c-.3-.9.2-1.9 1.1-2.3.3-.1.5-.1.7-.1zm11.9.2c.8 0 1.4.5 1.7 1.2l1.2 3.3v.1c.3.9-.2 1.9-1.1 2.3h-.1c-.2.1-.4.1-.5.1H61c-.7 0-1.4-.5-1.6-1.2L58.2 71v-.1c-.3-.9.2-1.9 1.1-2.3.2-.1.4-.1.6-.1zm11.8.2c.8 0 1.4.5 1.7 1.2l1 2.6v.1c.3.9-.2 1.9-1.1 2.2h-.1c-.2.1-.4.1-.5.1h-.1c-.7 0-1.3-.5-1.6-1.2l-1-2.6V71c-.3-.9.2-1.9 1.1-2.2.2 0 .4-.1.6-.1zm11.9.3c.8 0 1.4.5 1.6 1.1l.7 2v.1c.3.9-.2 1.9-1.1 2.2h-.1c-.2.1-.3.1-.5.1h-.1c-.7 0-1.3-.5-1.6-1.1l-.7-2v-.1c-.3-.9.2-1.9 1.1-2.2.3-.1.5-.1.7-.1zm11.9.2c.7 0 1.4.5 1.6 1.1l.5 1.3v.1c.3.9-.2 1.8-1 2.1h-.1c-.2.1-.3.2-.5.2h-.1c-.7 0-1.3-.5-1.5-1.1l-.5-1.3v-.1c-.3-.9.2-1.8 1-2.1.2-.2.4-.2.6-.2zm12 .2c.7 0 1.4.4 1.6 1.1l.2.7v.1c.3.9-.2 1.8-1 2.1h-.1c-.2.1-.3.1-.5.1h-.1c-.7 0-1.3-.4-1.5-1.1l-.2-.7v-.1c-.3-.9.2-1.8 1-2.1.2-.1.4-.1.6-.1zm12 .2c.5 0 .9.2 1.2.5l.1.1c.3.3.4.7.4 1.1v.4c0 .1 0 .2-.1.2v.1c0 .1-.1.1-.1.2v.1l-.2.2-.1.1c-.3.3-.7.4-1.1.4h-.4c-.1 0-.2 0-.2-.1h-.1c-.1 0-.1-.1-.2-.1h-.1c-.1 0-.1-.1-.2-.2l-.1-.1-.2-.2v-.1c0-.1-.1-.1-.1-.2v-.1c0-.1-.1-.2-.1-.2v-.1V71.3 71c0-.1 0-.2.1-.2v-.1c0-.1.1-.1.1-.2v-.1c0-.1.1-.1.2-.2l.1-.1.2-.2h.1c.1 0 .1-.1.2-.1h.1c.1 0 .2-.1.2-.1s.2-.1.3-.1zM23.4 55.3c1.1 0 1.9.9 1.9 1.9V63.1c0 1-.9 1.8-1.9 1.8h-.1c-1 0-1.8-.9-1.8-1.9v-5.8c0-1 .9-1.9 1.9-1.9zm12 .4c1.1 0 1.9.9 1.9 1.9v5.1c0 1-.9 1.8-1.9 1.8h-.1c-1 0-1.8-.9-1.8-1.9v-5c.1-1 .9-1.9 1.9-1.9zm12 .4c1 0 1.8.8 1.8 1.8V62.3c0 1-.8 1.8-1.8 1.8h-.1c-1 0-1.8-.8-1.8-1.8V58c0-1 .9-1.9 1.9-1.9zm11.9.4c1 0 1.8.8 1.8 1.8V62c0 1-.8 1.7-1.8 1.7h-.1c-1 0-1.7-.8-1.7-1.8v-3.6c0-1 .8-1.8 1.8-1.8zm12 .4c1 0 1.8.8 1.8 1.8v3c0 1-.8 1.7-1.8 1.7h-.1c-1 0-1.7-.8-1.7-1.8v-2.9c0-1 .8-1.8 1.8-1.8zm12 .5c1 0 1.8.8 1.8 1.8V61.5c0 .9-.8 1.7-1.7 1.7h-.1c-.9 0-1.7-.8-1.7-1.7v-2.2c-.1-1.2.7-1.9 1.7-1.9zm12 .4c1 0 1.7.8 1.7 1.7V61c0 .9-.8 1.7-1.7 1.7h-.1c-.9 0-1.7-.8-1.7-1.7v-1.4c.1-1.1.9-1.8 1.8-1.8zm12.1.4c1 0 1.7.8 1.7 1.7V60.7c0 .9-.8 1.6-1.7 1.6h-.1c-.9 0-1.6-.8-1.6-1.7v-.7c0-1 .7-1.7 1.7-1.7zm12.1.4c.5 0 .9.2 1.2.5l.1.1c.3.3.4.7.4 1.1v.4c0 .1 0 .2-.1.2v.1c0 .1-.1.1-.1.2v.1c0 .1-.1.1-.2.2l-.1.1c-.3.3-.7.4-1.1.4h-.4c-.1 0-.2 0-.2-.1h-.1c-.1 0-.1-.1-.2-.1h-.1c-.1 0-.1-.1-.2-.2l-.1-.1-.2-.2v-.1c0-.1-.1-.1-.1-.2v-.1c0-.1-.1-.2-.1-.2v-.1V60.3c0-.4.2-.8.5-1.1.2-.5.7-.6 1.1-.6zM24.4 42.8h.4c1 .2 1.7 1.1 1.5 2.2l-.9 5.8v.1c-.2.9-1 1.5-1.8 1.5h-.4c-1-.2-1.7-1.1-1.5-2.2l.9-5.8c0-.9.8-1.6 1.8-1.6zm11.8.6h.4c1 .2 1.6 1.1 1.5 2.1l-.8 5.1v.1c-.2.9-.9 1.5-1.8 1.5h-.4c-1-.2-1.6-1.1-1.5-2.1l.8-5.1c.2-.9 1-1.6 1.8-1.6zm11.9.6h.4c1 .2 1.6 1.1 1.4 2.1l-.7 4.3v.1c-.2.9-1 1.5-1.8 1.5H47c-1-.2-1.6-1.1-1.4-2.1l.7-4.3c.1-1 .9-1.6 1.8-1.6zm11.8.6h.4c.9.2 1.6 1.1 1.4 2.1l-.6 3.6v.1c-.2.8-.9 1.4-1.8 1.4h-.4c-.9-.2-1.6-1.1-1.4-2.1l.6-3.6c.2-.9 1-1.5 1.8-1.5zm11.9.6h.4c.9.2 1.6 1.1 1.4 2l-.5 2.9v.1c-.2.8-.9 1.4-1.7 1.4H71c-.9-.2-1.6-1.1-1.4-2l.5-2.9c.1-.9.8-1.5 1.7-1.5zm11.8.5h.4c.9.2 1.5 1.1 1.4 2l-.4 2.2v.1c-.2.8-.9 1.4-1.7 1.4h-.4c-.9-.2-1.5-1.1-1.4-2l.4-2.2c.2-.8.9-1.5 1.7-1.5zm11.9.6h.4c.9.2 1.5 1 1.4 2l-.3 1.5v.1c-.2.8-.9 1.4-1.7 1.4h-.4c-.9-.2-1.5-1-1.4-2l.2-1.4c.3-1 1-1.6 1.8-1.6zm12 .6h.4c.9.2 1.5 1 1.3 1.9l-.1.7v.1c-.2.8-.9 1.4-1.7 1.4h-.4c-.9-.2-1.5-1-1.3-1.9l.1-.7c.2-.9.9-1.5 1.7-1.5zm12 .6c.5 0 .9.2 1.2.5l.1.1.2.2v.1c0 .1.1.1.1.2v.1c0 .1.1.2.1.2v.4c0 .4-.2.8-.5 1.1l-.1.1c-.3.3-.7.4-1.1.4h-.1c-.4 0-.8-.2-1.1-.5l-.1-.1c-.3-.3-.4-.7-.4-1.1v-.1V48.8c0-.1 0-.2.1-.2v-.1c0-.1.1-.1.1-.2v-.1c0-.1.1-.1.2-.2.4-.3.9-.5 1.3-.5zM37.9 32c.3 0 .4 0 .6.1h.1c.9.3 1.4 1.4 1.1 2.3l-1.6 4.7v.1c-.3.7-1 1.2-1.7 1.2h-.1c-.2 0-.3 0-.5-.1h-.1c-.9-.3-1.4-1.4-1.1-2.3l1.6-4.7c.2-.8.9-1.3 1.7-1.3zm11.5.6c.3 0 .4 0 .6.1h.1c.9.3 1.4 1.4 1.1 2.3l-1.3 4v.1c-.3.7-1 1.2-1.7 1.2h-.1c-.2 0-.3 0-.5-.1h-.1c-.9-.3-1.4-1.4-1.1-2.3l1.3-4c.3-.8 1-1.3 1.7-1.3zm11.6.6c.3 0 .4 0 .6.1h.1c.9.3 1.4 1.3 1.1 2.3L61.6 39v.1c-.3.7-1 1.2-1.7 1.2h-.1c-.2 0-.3 0-.5-.1h-.1c-.9-.3-1.4-1.3-1.1-2.3l1.1-3.4c.3-.8 1-1.3 1.8-1.3zm11.5.7c.2 0 .4 0 .6.1h.1c.9.3 1.4 1.3 1.1 2.2l-.9 2.7v.1c-.3.7-.9 1.2-1.7 1.2h-.1c-.2 0-.3 0-.5-.1L71 40c-.9-.3-1.4-1.3-1.1-2.2l.9-2.7c.3-.8 1-1.2 1.7-1.2zm11.6.6c.2 0 .4 0 .5.1h.1c.9.3 1.3 1.3 1.1 2.2l-.7 2v.1c-.3.7-.9 1.1-1.6 1.1h-.1c-.2 0-.3 0-.5-.1h-.1c-.9-.3-1.3-1.3-1.1-2.2l.7-2c.3-.7.9-1.2 1.7-1.2zm11.6.6c.2 0 .4 0 .5.1h.1c.9.3 1.3 1.3 1 2.2l-.4 1.3v.1c-.3.7-.9 1.1-1.6 1.1h-.1c-.1 0-.3 0-.5-.1h-.1c-.9-.3-1.3-1.3-1-2.2l.4-1.3c.3-.7.9-1.2 1.7-1.2zm11.6.7c.2 0 .4 0 .5.1h.1c.9.3 1.3 1.3 1 2.1l-.2.7v.1c-.3.7-.9 1.1-1.6 1.1h-.1c-.1 0-.3 0-.4-.1h-.1c-.9-.3-1.3-1.3-1-2.1l.2-.7c.2-.8.9-1.2 1.6-1.2zM41.7 21.2c.4 0 .6.1.9.2h.1c.9.5 1.1 1.6.7 2.5l-2.2 4v.1c-.3.6-1 .9-1.6.9h-.1c-.3 0-.6-.1-.8-.2h-.1c-.9-.5-1.1-1.6-.7-2.5l2.2-4c.3-.6 1-1 1.6-1zm11 .6c.4 0 .6.1.9.2h.1c.8.5 1.1 1.6.6 2.5l-1.9 3.4v.1c-.3.6-.9.9-1.6.9h-.1c-.3 0-.5-.1-.8-.2h-.1c-.8-.5-1.1-1.6-.6-2.5l1.9-3.4c.3-.7 1-1 1.6-1zm11 .6c.4 0 .6.1.9.2h.1c.8.5 1.1 1.6.6 2.4l-1.6 2.8v.1c-.3.6-.9.9-1.5.9h-.1c-.3 0-.5-.1-.8-.2h-.1c-.8-.5-1.1-1.6-.6-2.4l1.6-2.8c.2-.7.9-1 1.5-1zm11 .6c.4 0 .6.1.9.2h.1c.8.5 1.1 1.5.6 2.4L75 27.9v.1c-.3.5-.9.8-1.5.8h-.1c-.3 0-.5-.1-.8-.2h-.1c-.8-.5-1.1-1.5-.6-2.4l1.3-2.3c.2-.6.8-.9 1.5-.9zm11 .6c.3 0 .6.1.9.2h.1c.8.5 1.1 1.5.6 2.3l-1 1.7v.1c-.3.5-.9.8-1.5.8h-.1c-.3 0-.5-.1-.8-.2h-.1c-.8-.5-1.1-1.5-.6-2.3l1-1.7c.2-.6.8-.9 1.5-.9zm11 .6c.3 0 .6.1.8.2h.1c.8.5 1.1 1.5.6 2.3l-.6 1.1v.1c-.3.5-.9.8-1.5.8H96c-.3 0-.5-.1-.8-.2h-.1c-.8-.5-1.1-1.5-.6-2.3l.6-1.1c.4-.6 1-.9 1.6-.9zm11.1.6c.3 0 .6.1.8.2h.1c.8.5 1 1.5.6 2.3l-.3.6v.1c-.3.5-.9.8-1.4.8h-.1c-.3 0-.5-.1-.7-.2h-.1c-.8-.5-1-1.5-.6-2.3l.3-.6c.2-.6.8-.9 1.4-.9zM65 12.2c.4 0 .8.1 1.1.3h.1c.8.6.9 1.7.4 2.5l-2.2 3v.1c-.4.4-.9.7-1.4.7h-.1c-.3 0-.7-.1-1-.3h-.1c-.8-.6-.9-1.7-.4-2.5l2.2-3c.3-.5.9-.8 1.4-.8zm11 .4c.4 0 .7.1 1 .3h.1c.7.6.9 1.7.3 2.4l-1.8 2.4v.1c-.3.4-.9.7-1.4.7h-.1c-.3 0-.7-.1-1-.3H73c-.7-.6-.9-1.7-.3-2.4l1.8-2.4c.4-.5.9-.8 1.5-.8zm10.9.5c.4 0 .7.1 1 .3h.1c.7.6.9 1.6.3 2.4L87 17.6v.1c-.3.4-.9.7-1.4.7h-.1c-.3 0-.7-.1-.9-.3h-.1c-.7-.6-.9-1.6-.3-2.4l1.3-1.8c.3-.6.8-.8 1.4-.8z" clip-rule="evenodd" filter="url(#mask)"/>
  </mask>
  <linearGradient id="gradient" x1="-74.76" x2="-74.48" y1="273.37" y2="273.37" gradientTransform="matrix(400 0 0 -340 29925 93007)" gradientUnits="userSpaceOnUse">
    <stop offset="0" stop-color="#ccc"/>
    <stop offset="1" stop-color="#777"/>
  </linearGradient>
  <path fill="url(#gradient)" fill-rule="evenodd" d="M21.5 12.2h112.4v95.5H21.5V12.2z" clip-rule="evenodd" mask="url(#mask2)"/>
</svg>
