<svg xmlns="http://www.w3.org/2000/svg" viewBox="0 0 300 120">
  <style>.st0{opacity:.7}.st2{opacity:.8}</style>
  <g class="st0"><path d="M175.8 80.7c4.2 1.9 8.7 3.5 12.9 5.3.4.1-.1.4-.2.5-2.1 2.5-5 4.9-7.3 7.3-3.5-2-6.8-4.3-10.3-6.3a92 92 0 0 0 9.2-27.5c1.5-9.1 1.9-21-2.2-27.6a9.6 9.6 0 0 0-2-2.5c-3.3-2.7-9.2-2.8-14.7-2.3-5.3.5-10.3 1.5-14.8 2.5-9.7 2.1-18.3 4.7-26.9 7.6-.1 0 0-.1 0-.1 8.8-4.9 17.9-9.6 28.1-13.4a99 99 0 0 1 16.1-4.7c6-1.5 12.2-1.2 18 .8 5 2.3 7.5 6.6 8.2 12.6a45 45 0 0 1-2.3 18.2c-3 10.9-7.3 20.4-11.8 29.6" fill-rule="evenodd" clip-rule="evenodd" fill="gray"/><path class="st0" d="M136.6 35.6c-1.4 1.4-2.8 2.7-4.1 4.2a85.9 85.9 0 0 0-14.1 28.4 25 25 0 0 0-.4 14.6c3.1 8.3 12.1 11.3 23.1 10.8 5.3-.2 10.1-1.1 14.1-2.8 4-1.7 7.7-3.7 10.3-6.7-5-3.3-10.5-6.5-15.3-9.7h9.4l3.4 1.4 10.2 4a36.5 36.5 0 0 1-24.1 20.4c-12.9 3.4-28.1-.2-34.5-7.3-3.6-4-5.6-9.3-4.6-17.1a59.1 59.1 0 0 1 26.6-40.2m33.8 28.2v3.4c1.4-1.3 4.2-1.1 4.5 1.3.2 1.4-.1 3.3 0 4.9h-1.2c-.3-2.4.9-6.2-1.8-6-2.2.2-1.4 3.7-1.6 6h-1.2v-9.6h1.3z"/><path class="st2" d="M168.1 68.6l-1 .2c-.5-.5-.6-1.1-1.4-1.3-3.3-.6-3.1 5.4-.1 4.9.7-.1 1.3-.5 1.4-1.6l1.2.2c-.2 3-4.5 3.2-5.7 1-.7-1.3-.6-3.9.5-4.9 1.5-1.3 5-.8 5.1 1.5m-7 1.6h-5.2c-.3 2.4 3.3 2.9 4 1l1.1.2c-.4 2.7-5.2 2.9-6.2.3-.5-1.2-.4-3 .4-4.1 1-1.3 3.6-1.6 4.9-.5.7.8.9 1.8 1 3.1m-5.2-1.1h3.9c0-2.1-3.9-2.1-3.9 0m-.5-5.3v1.1h-3.2v8.5h-1.3v-8.5h-3.2c.1-.3-.1-.9.1-1.1h7.6z"/><path d="M144.6 63.8v5.9c0 1.9-.7 2.8-2 2.8s-1.9-1-1.9-2.8v-5.9h-2v5.9c0 4 2.4 4.6 3.9 4.6 2.6 0 4.1-1.7 4.1-4.6v-5.8l-2.1-.1z" fill="gray"/><path class="st2" d="M135.9 72.2c.4.4 1 .5 1.5.8-.2.5-.4 1.1-.8 1.4-.8-.3-1.3-.8-2-1.2-4 1.2-6.9-.8-6.9-4.6 0-3.6 2.4-5.3 5.2-5 2.8.2 4.5 2.4 4.1 6.1-.1.9-.5 1.8-1.1 2.5m-3-6.9c-4.3-.7-4.2 7.8.2 6.5l-1.1-.5.5-1 1.8.9c1.4-2.1.7-5.6-1.4-5.9"/></g>
</svg>
