<svg id="Layer_1" data-name="Layer 1" xmlns="http://www.w3.org/2000/svg" viewBox="0 0 300 120">
  <title>logos</title>
  <path d="M83.776,64.171c-6.7-1.038-9.47-4.952-9.47-9.852,0-9.067,8.8-11.535,20.083-11.535,15.448,0,21.81,4.08,22.293,11.484H100.74a2.946,2.946,0,0,0-2.085-2.821,10.862,10.862,0,0,0-4.271-.74c-4.09,0-5.5,1.007-5.5,2.519,0,1.007.439,1.621,1.8,1.813l16.391,2.453c6.9,1.007,11.182,4.261,11.182,10.2,0,8.532-6.916,12.552-22.314,12.552-10.537,0-22.062-1.471-22.112-11.767h16.5A2.729,2.729,0,0,0,91.8,71a10.81,10.81,0,0,0,4.664.745c4.271,0,5.44-1.178,5.44-2.846,0-1.007-.63-2.055-2.468-2.352Zm93.571-20.188V54.9H165.4V79.075H149.861V54.9H137.923V43.983ZM192.02,58.524l-2.519,7h5.1l-2.6-7Zm31.657,16.119h-9.948l1.934,4.407H199.837l-1.586-4.3h-11.51l-1.561,4.282H169.565l15.529-35.042h15.035l9.44,21.487h10.074l4.039,9.137ZM120.369,79h15.449V44.043H120.369Z" fill="#c4c4c4"/>
  <rect width="300" height="120" fill="none"/>
</svg>
