<svg xmlns="http://www.w3.org/2000/svg" viewBox="0 0 300 120">
  <path fill="#5f5f5f" d="M61.43 42.18l-1.62 7.78h9.99l-6.94 32.46H73.7l6.87-32.47H90.9l1.68-7.77zm49.2 10.29a13.64 13.64 0 0 0-3.94-.66c-4.07 0-6.94 1.97-9.87 6.16l1.08-5.44h-9.45l-6.1 29.9h10.47l2.8-12.86c1.38-6.28 3.42-9.2 8.2-9.2a17.6 17.6 0 0 1 4.54.83zm17.29-.66c-11.96 0-19.14 7.17-19.14 17.88 0 8.37 5.74 13.63 15.3 13.63 11.9 0 19.32-7.24 19.32-17.46 0-8.73-5.8-14.05-15.48-14.05zm5.02 13.57c0 6.4-3.65 10.88-7.84 10.88-3.34 0-5.74-2.8-5.74-6.7 0-6.4 3.83-10.88 8.02-10.88 3.29 0 5.56 2.52 5.56 6.7zm18.11-12.73l-2.5 11.9a40.23 40.23 0 0 0-1.08 8.3c0 6.7 3.58 10.4 9.74 10.4 4.19 0 8.01-1.97 11.36-5.8l-1.13 5.09h9.32l6.4-29.84H172.7L170 65.26c-1.37 6.52-4.3 9.8-8.06 9.8-2.57 0-3.95-1.55-3.95-4.48a12.67 12.67 0 0 1 .36-2.93l3.1-14.95h-10.4v-.06zm34.8 0l2.87 29.77h12.14l7.42-15.84c.6-1.2 1.5-3.41 2.8-6.7-.05 1.13-.05 2.33-.05 3.46 0 1.92.06 3.77.12 5.63l.53 13.39h11.84l15.67-29.72h-10.35l-6.75 14.41a50.86 50.86 0 0 0-3 7.71v-7.05l-.35-15.06h-12.26l-7.05 14.7a51.24 51.24 0 0 0-3.11 7.42c.06-4.55.06-7.12.06-7.83l-.3-14.35h-10.23zM163.07 49.3c0-.66.6-.84 1.08-1.38.48.06 2.51.06 2.93.12.6.06 1.07.36 1.07.96 0 1.02-1.31 1.91-2.69 1.91-1.31.06-2.39-.83-2.39-1.61zm-54.4-1.44L112 39.2c.42-1.02.84-1.38 1.68-1.38v-.3h-3.77v.3c1.08 0 1.5.18 1.5.66a3.48 3.48 0 0 1-.3 1.01l-2.58 6.7-2.93-7.29c-.3-.78.06-1.07 1.56-1.13v-.3h-4.49v.3c1.02 0 1.2.23 1.62 1.25l3.53 8.79h.83zm9.08-4.36v-.36c-.54-.54-.48-2.1-2.69-2.1a3.25 3.25 0 0 0-3.1 3.48 3.07 3.07 0 0 0 2.8 3.34 3.89 3.89 0 0 0 2.87-1.67l-.18-.18a2.6 2.6 0 0 1-2.1 1.08 2.64 2.64 0 0 1-2.44-2.81c0-.24.06-.42.06-.66h4.78zm-4.72-.42c.36-1.5 1.2-1.73 1.73-1.73.78 0 1.44.72 1.62 1.73zm7.47.18a4.85 4.85 0 0 1 .54-.84.81.81 0 0 1 .66-.42 1.16 1.16 0 0 1 .6.18 2.56 2.56 0 0 0 .84.24l.42-.96-.84-.24a1.09 1.09 0 0 0-.54-.12c-.54 0-.72.3-1.55 1.62h-.06v-1.73h-.3l-1.86.65v.3l1.08.42v3.77c0 .84-.24 1.2-1.08 1.2v.3h3.83v-.3h-.6c-.84 0-1.08-.24-1.08-.9v-3.17zm8.2-1.97a4.58 4.58 0 0 0-1.62-.3 3.56 3.56 0 0 0-3.53 3.65c0 1.73 1.14 3.17 2.57 3.17a5.42 5.42 0 0 0 2.51-1.14v1.13h.18l2.1-.84v-.36l-.42.12c-.48.12-.78 0-.78-.54v-9.5l-2.27.66v.3l.53.06c.54.06.66.12.66.48v3.1zm0 5.02a4.23 4.23 0 0 1-1.92.84c-1.2 0-2.1-1.38-2.1-3 0-1.55.84-2.68 2.1-2.68a2.17 2.17 0 0 1 1.91 1.2zm5.31-5.38h-.23l-2.1.72v.24l.78.12c.42.06.48.18.48.77v3.3c0 .83-.36 1.2-1.38 1.2v.3h3.59v-.3c-.84 0-1.2-.37-1.2-.96v-5.4zm-1.37-3.05a.64.64 0 0 0 .72.6.67.67 0 0 0 .71-.6.73.73 0 0 0-1.43 0zm8.9 5.62v-.36c-.53-.54-.47-2.1-2.68-2.1a3.25 3.25 0 0 0-3.11 3.48 3.07 3.07 0 0 0 2.8 3.35 3.89 3.89 0 0 0 2.88-1.68l-.18-.18a2.6 2.6 0 0 1-2.1 1.08 2.64 2.64 0 0 1-2.44-2.81c0-.24.05-.42.05-.66h4.79zm-4.66-.42c.36-1.5 1.2-1.73 1.74-1.73.78 0 1.43.72 1.61 1.73zm7.42 4.3a3.7 3.7 0 0 0 1.5.3 3.63 3.63 0 0 0 3.47-3.64c0-1.61-1.14-3.05-2.4-3.05a4.67 4.67 0 0 0-2.5 1.2v-1.56h-.3l-1.75 1.07v.36l.54.12c.42.12.48.24.48.54v7.18c0 .96-.24 1.2-1.07 1.2h-.18v.3h3.82v-.3h-.42c-.65 0-1.07-.24-1.07-1.08v-2.64zm0-4.72a2.97 2.97 0 0 1 1.73-.77c.84 0 2.16.83 2.16 2.93a2.24 2.24 0 0 1-1.92 2.45 3.13 3.13 0 0 1-1.91-.9v-3.7zm7.71-1.73h-.24l-2.1.72v.24l.79.12c.41.06.47.18.47.77v3.3c0 .83-.35 1.2-1.37 1.2v.3h3.59v-.3c-.84 0-1.2-.37-1.2-.96v-5.4zm-1.37-3.05a.64.64 0 0 0 .71.6.67.67 0 0 0 .72-.6.73.73 0 0 0-1.43 0zm5.38 4.78a4.53 4.53 0 0 1 2.15-1.01c.66 0 1.25.42 1.25 1.73 0 2.15-.06 3.35-.35 3.65a1.3 1.3 0 0 1-.96.3v.3h3.47v-.3h-.36c-.66 0-.96-.24-.9-.66 0-.66.12-1.08.12-3.23 0-1.61-.66-2.45-1.74-2.45a6.58 6.58 0 0 0-2.8 1.26v-1.26h-.25l-1.85.65v.24l.54.12c.42.06.48.18.48.78v3.4c0 .67-.36 1.02-1.08 1.02v.3h3.3v-.3c-.9 0-1.09-.23-1.09-1.07v-3.47zm13.15-1.2c-.72.06-1.37.18-2.15.18a2.54 2.54 0 0 0-1.8-.65 2.66 2.66 0 0 0-2.87 2.5 2.21 2.21 0 0 0 1.56 2.04c-.6.42-1.68.48-1.68 1.2 0 .54.66 1.08 1.56 1.14-.78.9-1.73 1.07-1.73 1.97 0 .78.83 1.55 2.5 1.55 3 0 4.43-1.61 4.43-2.69a1.59 1.59 0 0 0-.48-1.13c-.48-.48-1.13-.6-2.93-.6-1.61 0-2.33-.18-2.33-.6 0-.36.72-.54 1.02-.84a1.65 1.65 0 0 0 .78.12c1.79 0 2.87-1.14 2.87-2.33a1.7 1.7 0 0 0-.3-1.02 10.86 10.86 0 0 0 1.61.18v-1.01zm-2.45 2.04c0 1.14-.6 1.91-1.55 1.91-1.26 0-1.74-1.25-1.74-2.27 0-1.5.96-1.85 1.56-1.85 1.01 0 1.73.83 1.73 2.21zm-68.94-.36a3.49 3.49 0 0 0-1.13-.24 2.55 2.55 0 0 0-2.52 2.63A2.04 2.04 0 0 0 96 47.75a3.8 3.8 0 0 0 1.8-.84v.84h.11l1.5-.6v-.24l-.3.06c-.3.12-.54 0-.54-.36v-6.76l-1.62.42v.18l.36.06c.36.06.48.12.48.3zm0 3.53a2.9 2.9 0 0 1-1.37.6c-.84 0-1.5-.96-1.5-2.15 0-1.08.6-1.92 1.5-1.92a1.56 1.56 0 0 1 1.37.9zm6.16-1.98v-.23c-.36-.36-.36-1.5-1.91-1.5a2.31 2.31 0 0 0-2.22 2.51 2.23 2.23 0 0 0 2.04 2.4 3.02 3.02 0 0 0 2.09-1.2l-.12-.13a1.8 1.8 0 0 1-1.5.78 1.9 1.9 0 0 1-1.73-2.03 1.31 1.31 0 0 1 .06-.48h3.29zm-3.35-.3c.24-1.07.84-1.25 1.26-1.25.54 0 1.01.48 1.13 1.26z"/>
</svg>
