<svg id="Layer_1" data-name="Layer 1" xmlns="http://www.w3.org/2000/svg" viewBox="0 0 300 120">
  <title>logos</title>
  <path d="M61.428,42.182l-1.615,7.773H69.8L62.863,82.422H73.685l6.876-32.467H90.905l1.674-7.773Zm49.208,10.284a13.643,13.643,0,0,0-3.946-.657c-4.066,0-6.936,1.973-9.866,6.158L97.9,52.526H88.453l-6.1,29.9H92.818l2.81-12.855c1.375-6.278,3.408-9.208,8.192-9.208a17.608,17.608,0,0,1,4.544.837Zm17.279-.657c-11.958,0-19.133,7.175-19.133,17.877,0,8.371,5.74,13.633,15.307,13.633,11.9,0,19.312-7.235,19.312-17.459C143.4,57.13,137.6,51.809,127.915,51.809Zm5.023,13.572c0,6.4-3.647,10.882-7.833,10.882-3.348,0-5.74-2.81-5.74-6.7,0-6.4,3.827-10.882,8.012-10.882C130.666,58.685,132.938,61.2,132.938,65.381Zm18.117-12.735-2.512,11.9a40.231,40.231,0,0,0-1.076,8.311c0,6.7,3.588,10.4,9.746,10.4,4.185,0,8.012-1.973,11.36-5.8l-1.136,5.082h9.328l6.4-29.836H172.7l-2.691,12.557c-1.375,6.517-4.305,9.8-8.071,9.8-2.571,0-3.947-1.554-3.947-4.484a12.669,12.669,0,0,1,.359-2.93l3.109-14.948h-10.4v-.059Zm34.8,0,2.87,29.776h12.138l7.414-15.845c.6-1.2,1.494-3.408,2.81-6.7-.06,1.136-.06,2.332-.06,3.468,0,1.914.06,3.767.12,5.621l.538,13.393h11.838l15.666-29.716H228.843l-6.757,14.409a50.863,50.863,0,0,0-2.989,7.713V67.713l-.359-15.067H206.481l-7.055,14.708a51.236,51.236,0,0,0-3.11,7.414c.06-4.544.06-7.115.06-7.832l-.3-14.35H185.853Z" fill="#c4c4c4"/>
  <path d="M163.073,49.3c0-.657.6-.837,1.076-1.375.478.06,2.511.06,2.93.12.6.06,1.076.359,1.076.956,0,1.017-1.316,1.914-2.691,1.914C164.149,50.972,163.073,50.075,163.073,49.3Zm-54.41-1.435,3.348-8.669c.419-1.017.837-1.375,1.674-1.375v-.3h-3.767v.3c1.077,0,1.495.179,1.495.657a3.479,3.479,0,0,1-.3,1.017l-2.571,6.7-2.93-7.294c-.3-.778.06-1.076,1.555-1.136v-.3h-4.484v.3c1.016,0,1.2.239,1.614,1.255l3.528,8.79h.837Zm9.088-4.364v-.359c-.538-.538-.478-2.093-2.691-2.093a3.245,3.245,0,0,0-3.109,3.468,3.073,3.073,0,0,0,2.81,3.348,3.886,3.886,0,0,0,2.87-1.674l-.179-.179a2.609,2.609,0,0,1-2.093,1.076,2.636,2.636,0,0,1-2.451-2.81c0-.239.06-.419.06-.658h4.783Zm-4.724-.419c.359-1.495,1.2-1.734,1.734-1.734.778,0,1.435.718,1.615,1.734Zm7.474.179a4.854,4.854,0,0,1,.538-.837A.812.812,0,0,1,121.7,42a1.156,1.156,0,0,1,.6.179,2.557,2.557,0,0,0,.837.239l.419-.956c-.419-.12-.658-.18-.837-.239a1.09,1.09,0,0,0-.539-.12c-.538,0-.717.3-1.554,1.614h-.06V40.986h-.3l-1.853.658v.3l1.076.419v3.766c0,.838-.239,1.2-1.076,1.2v.3h3.826v-.3h-.6c-.837,0-1.076-.239-1.076-.9V43.258Zm8.192-1.973a4.579,4.579,0,0,0-1.615-.3,3.562,3.562,0,0,0-3.527,3.648c0,1.734,1.136,3.169,2.571,3.169a5.422,5.422,0,0,0,2.511-1.136V47.8h.179l2.093-.837v-.359l-.419.119c-.478.12-.777,0-.777-.538V36.681l-2.272.658v.3l.538.06c.538.06.658.12.658.478v3.109Zm0,5.023a4.226,4.226,0,0,1-1.914.837c-1.195,0-2.092-1.375-2.092-2.99,0-1.554.837-2.69,2.092-2.69a2.175,2.175,0,0,1,1.914,1.2Zm5.321-5.381h-.239l-2.093.717v.239l.778.12c.418.06.478.179.478.777v3.289c0,.837-.359,1.2-1.375,1.2v.3h3.587v-.3c-.837,0-1.2-.358-1.2-.956V40.927Zm-1.375-3.05a.635.635,0,0,0,.717.6.673.673,0,0,0,.718-.6.729.729,0,0,0-1.435,0Zm8.909,5.621v-.359c-.538-.538-.479-2.093-2.691-2.093a3.245,3.245,0,0,0-3.109,3.468,3.073,3.073,0,0,0,2.81,3.348,3.888,3.888,0,0,0,2.87-1.674l-.179-.179a2.609,2.609,0,0,1-2.093,1.076,2.636,2.636,0,0,1-2.451-2.81c0-.239.059-.419.059-.658h4.784Zm-4.664-.419c.359-1.495,1.2-1.734,1.734-1.734.777,0,1.435.718,1.614,1.734Zm7.414,4.305a3.691,3.691,0,0,0,1.5.3,3.63,3.63,0,0,0,3.468-3.647c0-1.615-1.136-3.05-2.392-3.05a4.67,4.67,0,0,0-2.511,1.2V40.628h-.3L142.325,41.7v.359l.538.119c.419.12.478.239.478.538V49.9c0,.957-.239,1.2-1.076,1.2h-.179v.3h3.827v-.3h-.419c-.658,0-1.076-.239-1.076-1.076V47.384Zm0-4.723a2.969,2.969,0,0,1,1.734-.778c.837,0,2.153.837,2.153,2.93a2.244,2.244,0,0,1-1.914,2.451,3.126,3.126,0,0,1-1.913-.9V42.661Zm7.713-1.734h-.239l-2.093.717v.239l.778.12c.418.06.478.179.478.777v3.289c0,.837-.359,1.2-1.375,1.2v.3h3.587v-.3c-.837,0-1.2-.358-1.2-.956V40.927Zm-1.375-3.05a.635.635,0,0,0,.717.6.673.673,0,0,0,.718-.6.729.729,0,0,0-1.435,0Zm5.381,4.784a4.532,4.532,0,0,1,2.153-1.017c.657,0,1.255.419,1.255,1.734,0,2.153-.06,3.348-.358,3.647a1.3,1.3,0,0,1-.957.3v.3h3.468v-.3h-.359c-.658,0-.957-.239-.9-.657,0-.658.12-1.077.12-3.229,0-1.614-.658-2.452-1.734-2.452a6.575,6.575,0,0,0-2.81,1.256V40.986h-.24l-1.853.658v.239l.538.12c.419.06.478.179.478.777v3.408c0,.658-.358,1.017-1.076,1.017v.3h3.289v-.3c-.9,0-1.077-.239-1.077-1.077V42.661Zm13.154-1.2c-.717.06-1.375.179-2.152.179a2.543,2.543,0,0,0-1.794-.658,2.66,2.66,0,0,0-2.87,2.512,2.21,2.21,0,0,0,1.555,2.033c-.6.418-1.675.478-1.675,1.2,0,.539.658,1.077,1.555,1.136-.777.9-1.734,1.077-1.734,1.974,0,.777.837,1.554,2.511,1.554,2.99,0,4.425-1.614,4.425-2.691a1.588,1.588,0,0,0-.478-1.136c-.479-.478-1.137-.6-2.93-.6-1.615,0-2.332-.18-2.332-.6,0-.359.717-.538,1.016-.837a1.651,1.651,0,0,0,.778.119c1.793,0,2.87-1.136,2.87-2.332a1.7,1.7,0,0,0-.3-1.016,10.858,10.858,0,0,0,1.614.179V41.465ZM166.72,43.5c0,1.136-.6,1.913-1.555,1.913-1.255,0-1.734-1.256-1.734-2.272,0-1.5.957-1.854,1.555-1.854C166,41.285,166.72,42.122,166.72,43.5Zm-68.939-.359a3.489,3.489,0,0,0-1.136-.239,2.554,2.554,0,0,0-2.512,2.631,2.041,2.041,0,0,0,1.854,2.212,3.793,3.793,0,0,0,1.794-.837v.837H97.9l1.495-.6v-.239l-.3.06c-.3.119-.538,0-.538-.359V39.85l-1.614.419v.179l.358.06c.359.06.479.12.479.3Zm0,3.528a2.9,2.9,0,0,1-1.376.6c-.837,0-1.494-.956-1.494-2.152,0-1.076.6-1.913,1.494-1.913a1.556,1.556,0,0,1,1.376.9Zm6.158-1.974v-.239c-.359-.358-.359-1.494-1.913-1.494a2.315,2.315,0,0,0-2.212,2.511,2.228,2.228,0,0,0,2.032,2.391,3.023,3.023,0,0,0,2.093-1.2l-.119-.12a1.793,1.793,0,0,1-1.495.777,1.9,1.9,0,0,1-1.734-2.033,1.31,1.31,0,0,1,.06-.478h3.288Zm-3.348-.3c.239-1.077.837-1.256,1.255-1.256.539,0,1.017.478,1.137,1.256Z" fill="#c4c4c4"/>
  <rect width="300" height="120" fill="none"/>
</svg>
