<svg id="Layer_1" data-name="Layer 1" xmlns="http://www.w3.org/2000/svg" viewBox="0 0 300 120">
  <title>logos</title>
  <path d="M120.04,79.908a3.347,3.347,0,0,1,1.008,2.408,3.216,3.216,0,0,1-1.008,2.408,13.419,13.419,0,0,1-4.256,2.856,12.585,12.585,0,0,1-4.984,1.008H78.992A13,13,0,0,1,66,75.6V43.788A13,13,0,0,1,78.992,30.8H110.8a12.585,12.585,0,0,1,4.984,1.008,12.763,12.763,0,0,1,4.76,3.36,3.667,3.667,0,0,1,1.008,2.408,3.442,3.442,0,0,1-3.416,3.416,3.485,3.485,0,0,1-2.408-1.008,6.965,6.965,0,0,0-2.464-1.848,5.8,5.8,0,0,0-2.408-.5H78.992A5.956,5.956,0,0,0,74.68,39.42a6.052,6.052,0,0,0-1.792,4.312V75.54a5.956,5.956,0,0,0,1.792,4.312,6.052,6.052,0,0,0,4.312,1.792H110.8a5.991,5.991,0,0,0,2.408-.5,6.782,6.782,0,0,0,1.96-1.344,3.347,3.347,0,0,1,2.408-1.008A3.884,3.884,0,0,1,120.04,79.908Zm-9.3-4.088c-.112-2.52-1.848-6.384-6.1-6.888H89.464l17.472-16.744c.728-.728,2.408-3.08,1.232-5.656-.952-2.072-2.52-2.968-5.32-2.968H81.064c.112,2.912,1.512,6.328,5.376,6.944H98.872L80.5,67.812A4.99,4.99,0,0,0,79.5,72.964c.9,2.016,2.352,2.856,5.1,2.856Zm49.784-15.792V72.852A16.414,16.414,0,0,1,155.768,85a14.723,14.723,0,0,1-10.808,4.2,15.375,15.375,0,0,1-12.208-6.216c2.184-2.184,5.152-3.472,8.12-1.736a8.119,8.119,0,0,0,4.088,1.12c7.448,0,8.68-6.664,8.68-8.624a17.25,17.25,0,0,1-19.712-1.624l-.056-.056a14.411,14.411,0,0,1-4.592-10.584v-4.2a14.171,14.171,0,0,1,4.592-10.528,15.978,15.978,0,0,1,22.736.672,3.366,3.366,0,0,1,.784,2.184,3.517,3.517,0,0,1-1.008,2.464,3.382,3.382,0,0,1-2.464,1.008,3.288,3.288,0,0,1-2.408-1.008,8.887,8.887,0,0,0-12.712-.56,7.524,7.524,0,0,0-2.52,5.712c-.056,1.008-.056,3.136,0,4.144A7.675,7.675,0,0,0,138.8,67.2a8.59,8.59,0,0,0,6.1,2.408,8.684,8.684,0,0,0,6.1-2.408,8.286,8.286,0,0,0,2.016-2.912,5.559,5.559,0,0,1,3.3-3.584,11.508,11.508,0,0,1,4.2-.672Zm32.592.672a5.681,5.681,0,0,0-3.3,3.584A7.613,7.613,0,0,1,187.8,67.2a8.94,8.94,0,0,1-12.208,0,7.877,7.877,0,0,1-2.52-5.824c-.056-.952-.056-3.136,0-4.144a7.439,7.439,0,0,1,2.52-5.712,8.406,8.406,0,0,1,6.1-2.408,8.552,8.552,0,0,1,6.608,2.968,3.288,3.288,0,0,0,2.408,1.008,3.517,3.517,0,0,0,2.464-1.008,3.477,3.477,0,0,0,.224-4.648,15.257,15.257,0,0,0-11.7-5.1,15.584,15.584,0,0,0-11.032,4.424,14.171,14.171,0,0,0-4.592,10.528v4.2a14.115,14.115,0,0,0,4.592,10.584l.056.056a17.25,17.25,0,0,0,19.712,1.624c0,1.96-1.232,8.624-8.68,8.624a7.392,7.392,0,0,1-4.088-1.12c-2.968-1.792-5.936-.448-8.12,1.736A15.375,15.375,0,0,0,181.752,89.2,14.723,14.723,0,0,0,192.56,85a16.414,16.414,0,0,0,4.76-12.152V60.028a11.144,11.144,0,0,0-4.2.672ZM234,57.284A14.292,14.292,0,0,0,229.408,46.7a15.967,15.967,0,0,0-22.064,0,14.171,14.171,0,0,0-4.592,10.528v4.2a14.115,14.115,0,0,0,4.592,10.584l.056.056a17.138,17.138,0,0,0,21.952,0l.056-.056A14.411,14.411,0,0,0,234,61.428V57.284M218.376,69.66a8.684,8.684,0,0,1-6.1-2.408,7.877,7.877,0,0,1-2.52-5.824c-.056-.952-.056-3.136,0-4.144a7.439,7.439,0,0,1,2.52-5.712,8.406,8.406,0,0,1,6.1-2.408,8.322,8.322,0,0,1,6.1,2.464A7.666,7.666,0,0,1,227,57.4c.056.952.056,3.08,0,4.144a7.617,7.617,0,0,1-2.464,5.768,9.018,9.018,0,0,1-6.16,2.352m-94.528-26.1c-3.584,0-6.888,3.024-6.888,6.272V75.764c3.584,0,6.888-3.024,6.888-6.272Z" fill="#c4c4c4"/>
  <rect width="300" height="120" fill="none"/>
</svg>
