<svg xmlns="http://www.w3.org/2000/svg" viewBox="0 0 300 120">
  <path fill="#c4c4c4" d="M120.04 79.9a3.35 3.35 0 0 1 1 2.42 3.22 3.22 0 0 1-1 2.4 13.42 13.42 0 0 1-4.26 2.86 12.59 12.59 0 0 1-4.98 1H79A13 13 0 0 1 66 75.6V43.79A13 13 0 0 1 79 30.8h31.8a12.59 12.59 0 0 1 4.98 1 12.76 12.76 0 0 1 4.76 3.37 3.67 3.67 0 0 1 1.01 2.4 3.44 3.44 0 0 1-3.41 3.42 3.48 3.48 0 0 1-2.41-1 6.96 6.96 0 0 0-2.47-1.85 5.8 5.8 0 0 0-2.4-.5H78.99a5.96 5.96 0 0 0-4.31 1.78 6.05 6.05 0 0 0-1.8 4.31v31.81a5.96 5.96 0 0 0 1.8 4.31 6.05 6.05 0 0 0 4.31 1.8h31.81a6 6 0 0 0 2.4-.5 6.78 6.78 0 0 0 1.97-1.35 3.35 3.35 0 0 1 2.4-1 3.88 3.88 0 0 1 2.47 1.1zm-9.3-4.08c-.11-2.52-1.85-6.38-6.1-6.89H89.46l17.48-16.74c.72-.73 2.4-3.08 1.23-5.66-.95-2.07-2.52-2.97-5.32-2.97H81.06c.12 2.92 1.52 6.33 5.38 6.95h12.43L80.5 67.8a4.99 4.99 0 0 0-1 5.15c.9 2.02 2.35 2.86 5.1 2.86zm49.78-15.8v12.83A16.41 16.41 0 0 1 155.77 85a14.72 14.72 0 0 1-10.81 4.2 15.38 15.38 0 0 1-12.2-6.22c2.18-2.18 5.14-3.47 8.11-1.73a8.12 8.12 0 0 0 4.09 1.12c7.45 0 8.68-6.67 8.68-8.63a17.25 17.25 0 0 1-19.71-1.62l-.06-.06a14.41 14.41 0 0 1-4.59-10.58v-4.2a14.17 14.17 0 0 1 4.6-10.53 15.98 15.98 0 0 1 22.73.67 3.37 3.37 0 0 1 .78 2.19 3.52 3.52 0 0 1-1 2.46 3.38 3.38 0 0 1-2.47 1.01 3.29 3.29 0 0 1-2.4-1 8.89 8.89 0 0 0-12.72-.57 7.52 7.52 0 0 0-2.52 5.71c-.06 1.01-.06 3.14 0 4.15a7.67 7.67 0 0 0 2.52 5.83 8.59 8.59 0 0 0 6.1 2.4 8.68 8.68 0 0 0 6.1-2.4 8.29 8.29 0 0 0 2.02-2.91 5.56 5.56 0 0 1 3.3-3.59 11.5 11.5 0 0 1 4.2-.67zm32.6.68a5.68 5.68 0 0 0-3.3 3.58 7.61 7.61 0 0 1-2.02 2.92 8.94 8.94 0 0 1-12.2 0 7.88 7.88 0 0 1-2.53-5.82c-.05-.96-.05-3.14 0-4.15a7.44 7.44 0 0 1 2.52-5.71 8.4 8.4 0 0 1 6.1-2.4 8.55 8.55 0 0 1 6.61 2.96 3.29 3.29 0 0 0 2.4 1 3.52 3.52 0 0 0 2.47-1 3.48 3.48 0 0 0 .23-4.65 15.26 15.26 0 0 0-11.7-5.1 15.58 15.58 0 0 0-11.04 4.43 14.17 14.17 0 0 0-4.59 10.52v4.2a14.12 14.12 0 0 0 4.6 10.59l.05.05a17.25 17.25 0 0 0 19.71 1.63c0 1.96-1.23 8.62-8.68 8.62a7.4 7.4 0 0 1-4.09-1.12c-2.96-1.79-5.93-.45-8.12 1.74a15.38 15.38 0 0 0 12.21 6.21 14.72 14.72 0 0 0 10.81-4.2 16.41 16.41 0 0 0 4.76-12.15V60.03a11.14 11.14 0 0 0-4.2.67zM234 57.28a14.3 14.3 0 0 0-4.6-10.58 15.97 15.97 0 0 0-22.06 0 14.17 14.17 0 0 0-4.59 10.53v4.2a14.12 14.12 0 0 0 4.6 10.58l.05.06a17.14 17.14 0 0 0 21.95 0l.06-.06A14.41 14.41 0 0 0 234 61.43v-4.15m-15.62 12.38a8.68 8.68 0 0 1-6.1-2.4 7.88 7.88 0 0 1-2.52-5.83c-.06-.95-.06-3.14 0-4.15a7.44 7.44 0 0 1 2.52-5.7 8.4 8.4 0 0 1 6.1-2.42 8.32 8.32 0 0 1 6.1 2.47A7.67 7.67 0 0 1 227 57.4c.06.95.06 3.08 0 4.14a7.62 7.62 0 0 1-2.46 5.77 9.02 9.02 0 0 1-6.16 2.35m-94.53-26.1c-3.59 0-6.89 3.03-6.89 6.28v25.92c3.58 0 6.89-3.02 6.89-6.27z"/>
</svg>
