<svg xmlns="http://www.w3.org/2000/svg" xmlns:xlink="http://www.w3.org/1999/xlink" preserveAspectRatio="none" width="256" height="103"><defs><path fill="#00F" d="M.5 103.35q.3-.05.5-.25-.45.1-1 .2.25.1.5.05m40.2-61.1q.05.05.15.1-.2-.2-.4-.15.1 0 .25.05m63.45 41.15q-.5.4-.65.65-.1.05-.15.25.1-.05.2-.15.4-.25.6-.75m.7-77.45q-.55-.05-.75-.25-.2-.15-.35-.7-.6-2.25-2.05-3.6-.75-.75-1.75-1.1Q98.9-.1 97.9.05q-1.05.1-2.55 1Q92.1 3 90.45 5.7q-.9 1.5-1.25 3.15-.4 1.7-.05 3.35.05.55.3.85-.6.3-1.2.65-1.1.55-1.95 1.3-.05-.1-.15-.2-.65-.9-1.7-1.65-1.35-.9-2.9-1.25v-.15h-.5q-.95-.1-1.4-.1H78.55q-3.3.25-5.5 2.35-.75.75-1.2 1.6-.45 1-.4 1.9-1.9-.35-2.8-.3-1.65.05-2.55 1-1.1 1.15-.95 3.65.2 2.25 1.1 4.2-.85.45-1.35 1.3-.5.8-.6 1.8-.2 1.5.5 3.7 1.15 3.85 3.25 5.95 1.25 1.25 2.85 1.9.05 0 .15.05-.35 0-.65.05-.9.15-1.5.7-.3.3-.5.7-1.1-.3-2.25-.3-.95 0-1.45.2-.4.1-1.05.55-.85.55-1.15 1-.15.2-.3.5-.1.2-.25.6-.15.3-.8 1.25l-1 1.5q-.45.75-.9 1.6-.4.8-.65 1.2-.15.2-.5.65-.3.35-.4.65-.05.1-.15.35-.35.15-.75.2-.5-.95-.95-2.5-.45-1.7-.7-2.6-.35-1.1-1.3-3.45l-1.45-3.7q-.45-1.05-.55-1.75 0-.3-.05-.45 0-.25-.1-.45-.1-.25-.3-.35-.1-.5-.2-1.05-.15-.85-.65-.9h-.1l.1-.4q.2-.7.85-2.1.6-1.35.8-2.1.2-.95-.05-1.55-.25-.65-1.2-1.25-1.55-1-4.15-1.85-1.35-.4-2.05-.25-.15.05-.25.1-.15-.15-.3-.25-.35-.25-1.2-.2-.9.05-1.05.05-.6 0-1.05-.1-.3-.05-.45-.1l-.15-.15q-.1-.1-.1-.15L34 24.6q-1 0-1.5-.05-.65-.1-.95-.15-.55-.1-.95-.05-1.2.05-1.7.8-.25.4-.3 1.15 0 .85.3 1.5.35.8 1.05 1.1l.6.15q.45.05.65.15.2.05.55.25.35.2.55.3 0 .1-.05.2-.1-.05-.25-.1-.85-.3-1.7 0-.05 0-.1.05.3.05.65.05.4.05 1.2.05.7.05 1.2.3 0-.2.05-.35.2 0 .65-.05 2.6-.1 3.75-.3.1-.05.15-.05v.15q-.45.25-.6.65-.05.25.1.95.25.95.3 1.8h.15q-.6.4-.85.95-.3.6-.35 1.85-.05.85 0 1.35.1.75.3 1.3.2.4.55.85-.15 0-.25.05-.05.05-.1.15.45.05.75.3.05 0 .05.05l.15.15q.1.15.25.3.55.55.85.75.5.4 1 .5.8.25 2.35-.2.75-.2 1.5-.45.1 2.5.5 4.3.1.55.35 1.6v1.45q.05 2.05.1 3.05l.15 2q.55 5.35 2.5 10.15.75 1.85 1.45 2.75.45.6 1.5 1.7.2.25.55.7.3.4.55.65.35.3.75.4.4.15.8.05l1.25 1.15q.5.4.8.6.45.3.9.3.6 0 1.2-.5.4-.3.95-1.05 1.5-1.95 3.3-3.45.15-.1.25-.2 0 .15-.05.35-.25 2.45.15 5.6.35 2.85 1 5.05.4 1.15.95 2.65l1.55 4.2q.35.9.75 1.2.3.2.6.2-1.25 3.25-2.05 6.6-.25 1.1-.2 1.7.1.85.55 1.25h-.85q-.2.75-.8 1.95-.1.45-.1 1.45h.5q5.9.2 8.9.4 4.9.25 8.85.65.95.1 1.45.1.8-.05 1.35-.25.7-.3 1.1-.95l.2-.4q.7-.1 1.4-.15.95-.05 1.45-.2.8-.35 1-1 .2-.55-.2-1.15-.15-.25-.35-.4h.25q.5 0 .8-.05.05.45.2.7.5.75 1.6.65.05.85.65 1.3.35.2.7.25.4.05.7-.15.7-.35 1-1.7.3-1.8.05-3.15-.1-.75-.6-2.05.15.2.3.45.7 1 .95 1.4.45.8.5 1.55 0 .15.05.45 0 .25.1.4.05.15.2.4.2.25.25.4.05.2.05.55-.05.2-.05.6-.05.5.1 1.3.35 1.25 1.05 1.5.4.15.85-.05.45-.2.7-.6.4-.55.45-1.75.1-2-.45-4-.2-.65-.45-1.4.05 0 .1-.05.8-.4 1.75-1.3 1-1.05 1.55-1.55.4-.4 2.35-1.95 1-.9 3.45-3.35 2.35-2.4 3.45-3.85.95-1.2 2.3-3.45 1.55-2.6 2.15-3.5.45-.65.7-1.1.2.05.75.1.1 0 .25.05-.05.2.05.4.15.35.6.45.5.15 1.4 0 .9-.2 1.7-.5.5-.2 1.5-.65.6-.3 1.85-.8 1.1-.5 1.8-.9 1.4-.9 2.75-2.5l.65-.8q.3-.25.4-.4.25-.25.35-.5.25-.5.05-.95-.05-.15-.15-.25-.2-.3-.45-.45-.1-.05-.2-.05.4-.65.8-1.75.25-.6.3-1 .1-.55.1-.6.2-.5.2-.75v-.65q.05-.25.05-.4v-.3q0-.15.1-.45.1-.3.1-.45.05-.45-.3-.75-.2-.1-.4-.15-.2 0-.4.1-.15.15-.3.4-.2.3-.4 1l-.8 2.8q-.05.35-.25.7-.4.8-.4.9-.2.35-.3.6-.05.2 0 .5.05.45.35.75-.05 0-.1.05-.2.25-.8 1.1-.7 1.05-1.7 1.75-.6.5-2 1.25-2.5 1.4-3.9 1.85-.2.05-.35.1-.6-.25-1.05-.3-.65 0-1.45.15-.1.05-.2.05v-.05q-.1-.5-.45-.75-.35-.3-.9-.3-.5.05-.95.35-.6.4-1.25 1.6-1.45 2.6-2.25 3.95-1.35 2.1-2.6 3.7-1 1.3-2.6 3-2.1 2.2-2.7 2.85-1.95 2-2.45 2.6-.8.85-2.4 3l-.75-2.05q-.15-.45-.3-.75.1-.2.2-.5.1-.45 0-1-.15-.5-.45-.9-.15-.15-.45-.4-.4-.25-.5-.35-.3-.3-.7-.95-.75-1.35-1.4-3.25-.55-1.65-1.35-4.55-.35-1.4-.5-2.35 1.55-.95 2.65-2.95.5-.85 1-2.15.65-1.4.95-2.15l.3-.75q.1-.3.1-.6.3-.05.7-.15 2.5-.7 4.55-1.3-.15.55-.6 1.8l-.8 2.35q-.25.65-.3.95-.1.55-.05 1 0 .05.05.1-.05.3-.1.55-.1.55-.15 1.6l-.05 2.75v1.35l-.9.6q-.95.75-1.5 1.3-.05.05-.6.65-.3.4-.6.65-.35.3-.5.5-.2.35-.1.6.1.2.3.3.2.1.4.05.25-.05.75-.35 1.45-.9 3.05-1.75v.05q.2-.1.35-.2.95-.5 2-.55h.35q-.05-.4-.1-.65.35-.15.65-.3 1.25-.6 1.75-.9.3-.2 1.1-.85 1.3-1.05 2.05-1.75.9-.9 1.35-1.3.85-.8 1.45-1.25.35-.2.45-.35.3-.2.4-.35.2-.3.3-.6.3.2.55.1.25-.1.2-.5-.05-.3-.3-.65-.7-1.05-.9-2.45-.15-1.35.2-2.7.15-.6.65-1.7.4-1.15.95-1.5.7-.5 2.1-.15l1.05.3q.6.1 1.05.05h.2v.05q.05.35-.2.9-.3.7-.6.95-.3.2-.9.25-.75.1-1 .2t-.35.25q-.15.2-.1.4.05.2.3.35.4.25.85.3-.5.5-.7.9-.15.4-.1.8.05.45.4.7.25.2.7.3.3 0 .85.05.35.1.85.35.3.1.85.35 1 .45 1.65.15.15.1.3.15 0 .05.05.05.55.75 1.8.75.55 0 1-.15.1-.1.15-.2.5-.5.95-.85.05-.15.15-.25.65-1.25 1-2.45.3-.95-.05-1.35-.25-.3-1.1-.35l-1.35-.05q-.5-.05-.85 0-.5-.4-1.15-.5-.15 0-.35-.05l.2-.1q.25-.15.2-.3l-.15-.15q-.1-.2.1-.45.75-1.1 2.6-3.05l.55-.6.1-.1-.3.7q-.65 1.5-.65 2.3-.05 1 .6 1.35.25.2.65.15.35-.1.6-.35l.1-.2q.1.5.3.75.3.3.75.3.4-.05.65-.4.15-.15.25-.65.2-.55.25-.7 0-.1.1-.65.05-.4.2-.95.2-.75.25-.95l.15-.65q.05-.25.2-.6l.75-1.75q.2-.5.1-.75-.1-.2-.3-.25-.25-.1-.4.05-.15.05-.3.25-.15.15-.45.35-.15.15-.35.55-.7 1.2-1.3 2.35-.05.2-.15.35l.65-2.4q.1-.35.1-.6l.1-.1-.1-.1v-.1q-.05-.2-.2-.35-.15-.2-.4-.2t-.5.3q-.45.05-1.05.4-.4.3-.85.65-.45.45-.9 1-1.45 1.7-2.55 3.65-.25.4-.35.7-.05.3-.05.7.05.4.2.55h-.35q-.4-.05-.7-.1.3-.65.45-1.45.2-1.05-.1-1.7l-.35-.6q-.2-.4-.35-.6-.3-.3-.75-.25-.35 0-.55.15h-.2q-.5-.1-.75-.1-1.05-.15-1.6-.15-.9-.05-1.5.15-1.45.45-2.5 2.45-.3-.15-.7-.3-.9-.35-1.4-.25-.4.1-1 .5l-.3.2v.05q-.05.1-.15.4-.05.1-.15.4-.55-.2-.85-.2-.35 0-.7.1-.35.2-.5.45-.2.35-.1.75t.4.6q.15.15.4.2l.45.15q.15.05.4.15-.05.4-.05.7.2.05.5.25-.05.45.45 1 .7.85 1.5.85.3 0 .6-.1.15.9.55 1.65-.75.1-1.7 1.2-1.85 1.95-2.5 2.55-.8.75-2 1.65-.7.55-1.3 1-.2.1-.4.25l-.05-1.95v-1.6q.05 0 .1-.05.3-.3.6-1.15l.6-1.85q.5-1.45.75-2.15.25-.9.35-1.65.4-2.3-.35-4.65-.75-2.3-2.4-4l-.7-.7-.7-.7q-.5-.65-.65-.75-.25-.2-.65-.4-.55-.3-.65-.4-.35-.2-.55-.3-.3-.2-.5-.3-.35-.05-.65.05-.3.1-.45.35-.15.45.45 1.1l1.65 2q.8.9 1.15 1.3.6.75 1 1.4.6 1.05.85 2.25-.85.45-2.6 1.35-1.55.75-2.75 1-.4.05-.65.1 0-.3.05-.7.1-2.05-.5-3.1-.4-.7-1.1-1.05v2.25q0 1.1-.05 1.8-.1 1.35-.45 2.9-.25 1.05-.8 2.8-.4 1.55-.85 2.35-.5.9-1.15 1.45-.05-.05-.1-.05-.3-.1-.55.1-.25.1-.35.4-.4.15-.9.2-.45.05-1.45.05-1.2 0-1.55-.05-.85-.05-1.5-.25-.9-.25-1.85-.95-.6-.4-1.7-1.3l-2.25-2H79q-4.85-.25-7.3-.2-.85 0-1.4.1-.75.1-1.25.5.1.3.5.45.2.05.75.1.5.05 1.3.3.9.25 1.2.35.75.1 2.2.15 1.2.1 3.5.65 1.55.35 2.3.8.45.3 1.05.8.3.3.95.9 1.9 1.6 4.4 2.1 1.5.25 2.55-.15.25-.05.5-.2-.45 3.4-.55 5.3-.15 3.4.35 6.05.2.9.5 1.45-2.45-.45-7.45-.75-5.25-.35-8.15-1.2-.9-.3-1.6-.5-.1-.1-.2-.1-.1-.05-.2-.05-.85-.3-1.45-.45-1.6-.5-2.85-.55l-.1-.5q-.1-.65-.75-2.05-2.7-5.8-3.5-12.25-.15-.75-.15-1.35.35.15.75.25-.6-2.1-.65-3.85l-.05-.05q-.05-.3-.25-.6l-.2-.2q-.5-.95-.6-2.25-.1-.9-.1-2.75.05-1.35.25-1.95.2-.6.75-1.5.45-.75.9-1.2.25-.3 1.1-.85.95-.7 1.55-.95 1.15-.5 2.95-.45.6.05.85-.2.15-.15.15-.45-.05-.3-.2-.5-.35-.35-1-.45-1.05-.3-2.05-.3.3-1.7.9-3.25h.15q.5.05 1.05-.45.45-.4.65-.9.15-.6-.05-1.1-.05-.1-.15-.2.4-.15 1.1.05 1.05.4 2.1.9.05.9.35 1.85.3.95.75 1.35.75.65 2 .35 1.5-.3 3.15-2.05 1.25-1.2 1.95-1.9 0 .05-.05.1-.85 5.35-1.6 7.65-.15.6-.55 1.7-.3 1-.45 1.7 0 .2-.15 1 .8.65 2.55 1.45.4.15.8.35 1.8-2.45 3.3-5.05 1-1.75 1.5-2.4.3-.5 1.1-1.35.05-.1.15-.2 1.45.65 3.2.75 1.7.05 3.45-.35 2.85-.75 6.15-2.95 4.6-3.1 7.05-6.9 1.45-2.15 2.15-4.55.75-2.5.55-4.9-.15-3.15-1.9-6.55 0-.05-.05-.15.55.15 1.1.1 1.6-.2 2.75-2.2.75-1.35.65-2.35-.15-1-1.15-2.15-1.45-1.6-1.65-1.95.45-1.1.5-2.3.05-1.25-.4-2.35Q110.85 9 110 8.1q-.85-.9-1.9-1.4-1.3-.6-3.25-.75m-.85 2.6q.95-.2 1.85.05.95.25 1.7.85.7.6 1.15 1.45.45.9.5 1.85 0 .25-.1.45-.15.2-.65.25-.9.15-1.45 1.05-.5.85-.25 1.7.3.9 1.3 1.2 1 .3 1.7-.3.1.15.95 1.1.6.7.65 1.25 0 .7-.85 1.45-.75.65-1.35.65-.15 0-.45-.1-.25-.1-.4-.1-1.1-1.75-2.6-3.7-1.65-2.1-2.9-3.15-2.9-2.45-7.05-2.6-2.3-.1-4.4.5.1-.4.1-.95-.05-.7-.05-1.05.05-1.05.7-2.2.4-.85 1.3-1.95 1.65-2.1 3.05-2.9 1.25-.7 2.25-.55.9.15 1.55.9.6.65.9 1.55.15.65.1 1.15-.1.3-.3.7-.1.2-.35.6-.55 1.1-.6 2.35 0 1 .45 1.5.5.5 1.3.35.8-.1 1.3-.65.4-.5.65-1.3.15-.5.3-1.4M103.3 19q.4.45.8 1 2.6 3.45 3.65 6.4 1.4 3.9.6 7.3-.8 3.35-4 6.85-1.65 1.85-3.4 3.15-2.05 1.5-4.35 2.45-3.65 1.5-6.3.7 0-.1.05-.2l-.6-.2q-.6-.3-1.05-.85-.1-.2-.2-.35-.2.1-.5.35-1.6-1.25-2.95-3.6-.15-.35-.35-.65 0-.3.05-.6l.5-3.65q.1-.55 0-.9-.05-.1-.15-.2l.1-.1q2.25-2.65 4.95-7.05 1.4-2.15 2.15-3.65 1.05-2.1 1.55-3.95.45-1.7.75-4.8 2.35 1.05 4.55 2.4 1.25.7 1.9.9 1.15.3 1.95-.35.2-.2.3-.4m-20.55-3.6q1.1.65 1.65 1.55-1.65 2.2-1.7 4.6-.45-.3-1.1-.15-.6.2-.95.7-.5.7-.6 2.25-.5 5.8.35 10.65-.65.45-.85 1.55-.25 1.15.2 1.95.2.45.65.7.45.3.95.25h.2q.4 1.2.95 2.35-.05.05-.15.1l-4.3 3.05q-.45.3-.65.2-.3-.1-.4-.6-.4-2.2.55-4.25l.4-.8q.2-.45.3-.8.1-.45 0-.85-.15-.5-.45-.75-.6-.4-1.55-.1-.25.1-.7.4-.5.25-.75.35-1.3.5-2.8-.05-1.4-.5-2.35-1.7-.8-1-1.4-2.5-.35-.95-.85-2.8-.2-.75-.1-1.1.05-.3.25-.55.2-.25.45-.25.3 0 .9.4 1.05.7 2 .7.6.05 1.05-.25.55-.25.8-.75.35-.8-.2-1.65-.5-.85-1.4-1.2-.55-.15-.8-.25-.5-.15-.75-.35-.5-.4-.85-1.15-.9-1.9-.5-3.9.85-.3 1.85-.15.95.2 1.65.85.3.25.85.85.55.45 1 .45.5-.05.85-.45.3-.35.4-.9.05-.4-.05-.95-.05-.3-.25-.95-.35-1.2-.2-1.9.25-1 1.45-1.75 1.5-.95 3.45-.95h.15q.35.45.9.55.45.05.9-.3.8.2 1.55.6m-.05 7.35l.2.7q.1.4.3.65.3.3.6.25.4-.1.7-.8.5-1.65.8-2.5.5-1.45 1.15-2.3.7-1 2.15-2 2.25-1.5 4.7-1.95-.1.2-.2.7-.4 2.1-.9 3.7-1.15 3.6-3.85 7.55-1.65 2.4-5.25 6.7-.55.6-.95.9-.05-.4-.15-.75-.8-4.3-.45-9 .05-.85.2-1.3.15-.65.55-1.1.25.15.4.55m16.7-6.55q-.7-.25-2.55-1.05-.75-.35-1.15-.5-.15-.05-.3-.05 1.75-.05 3.35.65 1.3.55 2.6 1.65-.9-.25-1.95-.7m-16 22.25q-.1-.2-.15-.4l.35-.35q-.15.35-.2.75m.25 9.65q.25-1.3.55-3.25 1.15 1.7 2.5 2.8-1.85 2.8-4.85 7.65 1.05-3.15 1.8-7.2m37.25 19q-.35-.35-.35-.95 0-.5.3-1 .15-.4.3-.55.25-.25.6-.3.35-.05.65.1l.2.2q0-.05.05-.05.25.15.7.2.75.1.9.2-.2.8-.6 1.4-.1.25-.25.25-.1 0-.3-.15-.4-.2-.8-.25-.4 0-.75.2-.4.3-.4.85v.05q-.15-.1-.25-.2M87.05 91.35q1.7.05 2.65.35l.9.45q.35.15.6.2l-.15.15q-.35-.2-.75-.35-.4-.1-1-.1-.15 0-1 .05-3.95.2-7.85-.25 4.1-.5 6.6-.5M47 30.15q-.25.05-.5.3-.2.2-.2.5-.05.1 0 .4 0 .3-.05.45-.15.45-.75.55-.15 0-.3.05l-.2-.2q-.2-.15-.45-.3.2-.3.2-.7 0-.45-.25-.9.05.05.1.05.4.15.75-.25.2-.25.3-.8.05-.6-.15-1-.1-.15-.25-.35 0-.05.05-.1 2 .25 3.75 1.05 1.05.45 1.25 1.05.15.4 0 .9-.05.25-.3.85-1 2.5-.8 5.1.3-.05.55-.3-.1 1.35.4 3.05.25.8.8 2.35.4.25.7.75l.85 2.05 1.45 5.15q.5 1.6.8 2.7.35 1.35.45 2.2.1.7.2.9.25.4.7.55.5.1.85-.1.25-.15.5-.45.25-.35.35-.55.2-.25 1.45-1.5.85-.9 1.05-1.7.05-.2.05-.4.55-.75 1.05-1.55 1.05-1.5 1.5-2.3.5-.75 1.1-1.75.4-.75.75-.95.35-.2.9-.3 1-.05 1.75.25-.3.8-.8 2-.5 1.6-.4 2.8-.8.3-1.7.8-1.1.6-1.7 1.25-.45.45-1.05 1.45-.45.7-.7 1.15-.65 1.35-.75 3.4-.05 1.3.1 3.85.1 1.45.3 2.05.05.15.15.35-.25.1-.55.35-2.2 1.75-3.8 4.15-.1.2-.2.25-.25.1-.6-.2l-1.55-1.45q-.1.1-.25.1-.25-.5-.9-1.15-.7-.7-1.05-1.1-1-1.1-1.85-3.5-1.35-3.75-2-7.45-.6-3.1-.95-8.55-.2-2.4-.35-5.45.3-.2.3-.5t-.3-.45h-.05l-.1-1.4q-.1.1-.25.2-.5.4-.65.6-.15.15-.35.45-1.25 0-2.4.35-.7.25-1 .35-.6.1-1 .05-.7-.2-1.45-1.05-.95-1.15-1-2.2 0-.85.5-1.35.2-.2.6-.3.15-.1.65-.2.55-.2 1.65-.65.8-.2 1.4-.1 0 .15.05.35-1.25 1.05-2.85 1.4-.75.15-1.05.3-.55.25-.65.7-.05.35.2.7.2.3.6.45.55.2 1.5-.1 1.7-.45 3.15-1.55.65-.45 1.05-.95 1.15-.1 1.5-.65 0-.05.3-.65 0-.05.3-.65.25-.4.25-.7.05-.15 0-.5-.05-.3 0-.45.1-.45.1-.7 0-.25-.25-.45t-.55-.2m-6.45-3.65q.2.05.45.1-.45 0-1.05.05-.9.05-1.1.45-.05.05-.05.1-.45.05-.65.5-.1.25-.2.75-.1-.05-.25-.05-.6-.15-1.6-.2-1.4-.1-1.65-.15-1.95-.2-3.65-1.1-.2-.1-.25-.2-.05-.15.05-.3t.3-.2q.1 0 .3.05.15 0 .35.1.45.1 1.35.1h7.65m3.05 2.6q.15.1.25.1.1.2.25.6v.05q-.2-.2-.4-.3-.5-.2-1.4-.2-1.8 0-2.95.1 0-.3-.05-.5-.05-.4 0-.6.05 0 .1.05 1.55-.2 2.95 0 .5.05.85.2.15.35.4.5m-.55 2.5q-.55 0-1.2.15-1.1.3-1.6.4-1.4.4-1.9.65l-.2.1q.4-.85.55-1.75 2.1-.1 4.25.1.05.2.1.35m29.85 9.55q.65.05 1.3-.1-.05.35-.1.65-.25-.15-.4-.2-.4-.2-.8-.35M68.8 85.4q.7.25 1.5.6l.7.35H69.55q-.4-.05-.7 0 0-.5-.05-.95m-.8 5.8l.25-1.2q1.25.45 2.55.8-1.55.25-2.8.4m1.15 2.25q-.1.15-.1.25-.25.05-.45.2-.25.15-.35.45-.05-.1-.3-.3-.2-.2-.25-.35-.05-.1-.05-.3h.05q.7-.05 1.6-.1l-.15.15m-.4 2.05l.2.1-1.1-.05q.05 0 .05-.05.3-.2.4-.55V95q.15.3.45.5m2.95-2.4q1.4-.15 3.1-.4-.05.25.05.55-1.85-.1-3.15-.15m8.25-4q-1.25.25-2.35.45v-.05q-.1-.45-.5-.9 1.1.2 2.85.5m12.9-52.4l-.4-.8q-.25-.4-.6-.55-.25-.15-.55-.05-.35.05-.4.35-.05.2.1.5l.45.95q.4.85.7 1.25.2.3.55.7.25.25.65.7.75.85 1.05 1.05.4.3 1.05.55.4.1 1.2.35.5.25.6.25.35.15.6.15.4.05.95-.15.3-.1.9-.35.1-.05.75-.25.45-.15.7-.3.6-.35 1.35-1.35 2-2.6 2.4-5.05.25-1.3-.25-1.95-.25-.3-.65-.45-.4-.1-.75-.05-.35.1-.65.4-.3.25-.4.65-.1.3-.05 1-.05.55-.3 1.15-.15.4-.5 1.1-.65 1.25-1.15 1.85-.8 1-1.75 1.3-1.3.4-2.9-.35-1.75-.9-2.7-2.6m3.85-6q.2-.15.35-.6.3-.8.35-1.25.15-.85-.25-2.4-.15-.75-.45-1-.3-.25-.8-.25-.65-.05-1.05.3-.4.4-.35 1.5 0 1.2-.05 1.7 0 .15-.1.5 0 .3.05.55.15.7 1.1 1.05.8.25 1.2-.1m5.8-6.35q-.35-.35-.8-.4-.65 0-1 .5-.2.25-.3.6-.35 1-.3 2.5 0 .6.25.85.2.2.6.3.45.1.75 0 .4-.2.65-.75.25-.45.45-1.05.35-1.05.15-1.75-.15-.5-.45-.8m72.15 3.5q-.4-.3-.75-.45-.55-.25-.6-.3-.15-.1-.5-.6-.25-.4-.65-.75-.35-.3-.6-.4-.45-.1-.7.15-.15.15-.2.65-.05.5 0 .85.1.3.35.7.4.65.75.95.5.55 1.85 1.1.85.35 1.35.3.4-.1.6-.4.2-.3 0-.8-.2-.45-.9-1m3.75-9.65q-.35-.5-.85-.6-.25-.05-.5.2-.25.2-.3.5 0 .15.05.35 0 .15.05.4v.85q0 .75.45 1.4.45.6 1.15.95.6.25.95.05.3-.2.25-.65 0-.3-.2-.7-.35-.8-.65-1.8-.2-.65-.4-.95m-7.05-3.35q-.7-.2-1.3.45-.6.6-.55 1.4 0 .6.3 1.3.2.45.7 1.15 1.7 2.6 2.95 4.1 1.8 2.05 3.75 3.2.6.35 1 .25.25-.15.4-.4.1-.3.05-.6-.05-.4-.55-1.05-1.15-1.6-3.45-4.9-1.25-1.85-1.75-2.95-.4-.9-.6-1.2-.4-.6-.95-.75m83.6 82.35q1.45 0 1.65-.8.15-.6-.55-1-.6-.3-1.4-.25-7.6.1-21.25-.8-5.1-.35-9.2-.55.15-.8.15-1.2.1-.75 0-1.3v-.15q.2-1.8.65-4.35.7-4.1.9-5.6 1.4-11.35-3.1-18.15-1.3-1.95-3.15-3.5-1.5-1.3-3.25-2.2-1.05.15-2.2.35-5.1.8-7.65 1.55-.65.15-.95.25-.55.1-.95-.05-.6-.1-.95-.65-.4-.55-.35-1.15 0-.35.15-.65-.5-1.1-.95-2.65-.6-2.05-.9-3.05-.25-.85-.6-1.15.7-1.4 1.2-2.95.1-.2.15-.45.2.05.45.05.7 0 1.5-.35 1.6-.8 2.7-2.4 1-1.6 1.05-3.4.05-1.85-.9-3.5-.95-1.65-2.6-2.5.2-1.55.05-3.3-.15-1.95-.9-2.95-.5-.65-1.3-1-.8-.4-1.65-.4-.55 0-1.1.15-.6-.65-.95-1-.6-.55-1.2-.6-.35 0-.7.15-.3.15-.45.45l-.05.2.05-5.15q0-1.05-.1-1.65-.15-.85-.6-1.45-.85-1.1-2.65-1.25-2.05-.1-3.85 1.1-1.85 1.25-2.5 3.2-.35 1.2-.35 2.95 0 .8.1 1.5-.55.2-1.1.55-1 .65-1.7 1.6-.7 1-1 2.15-.25 1.05-.1 2.05l-.4.4q-2.65 2.95-4.3 6.75-1.6 3.75-1.9 7.75-.25 2.9.3 5 .45 1.8 1.65 3.75 1.85 3.2 4.05 4.55 1.7 1.05 3.9 1.25 2.05.15 4.1-.5.55-.15 1.05-.35.45.95 1.4 1.95.6.7 1.85 1.7-.55.05-1.15.15-2.1.4-3.8 1.55-.65.4-1.2.9-.15.1-.25.15-.5.35-2.25 1.55l-9.3 6.1q-1.85-3.45-2.95-7.1-.7-2.4-1.1-3.6-.5-1.3-1.05-2.25.85-.35 1.65-.7 1.25-.55 1.7-1.2.75-1.05.35-3.1-.3-1.45-1.35-4-.45-1.15-1-1.5-.55-.4-1.25-.3-.65.1-1.3.45-.05-.2-.15-.5-.45-1.45-.7-4.05-.25-3.05-.5-4.15-.2-.95-.65-1.6-.55-.8-1.3-.9-.5 0-.95.2-.45.25-.75.65-.5.65-.7 1.8-.25 1.1-.3 2.45 0 .9.05 2.5 0 1.05.1 1.6v.2q-.7-.25-1.3.05-.7.4-.95 1.8-.25 1.5-.2 2.95.05 1.6.5 2.65.2.4.5.75-.1-.1-.25-.1-.05-.05-.1-.05h-.75q-.15-.1-.35-.4l-.6-.9q-.7-1.1-.7-1.8.05-.4.35-1.15.35-.7.35-1.1.15-.1.25-.3.1-.2 0-.4-.7.15-1.4 1-.75.9-.9 1.75-.15.8.25 1.75.25.65.85 1.65.5.8.9 1.15.1.15.25.25-.25.15-.5.25-.5.15-.85-.05-.3-.15-.55-.55-.65-.9-1.1-1.95-.75-1.65 0-2.45.2-.2.35-.3.2-.15.25-.35-.35-.4-.95-.35-.6.05-1 .45-.6.75-.5 2.05.15 1.1.8 2.5.15.3.65 1.2.55.9 1 1.25.55.4 1.2.5.7.05 1.3-.15.45-.2.85-.55-.05.8-.05 1.4.05 1.75.7 3 .2.3.35.55.1 1.45.35 3.25.2 1.3.7 3.7.15.8.3 1.35.6.4.9 1.3.15.65.25 1.95.1.75.35 1.7l-.05-.45q-.05-.4-.1-.7l.3.7 1.1 2.4q.75 1.65 1.3 2.8 1.6 3.4 3.15 5.55.8 1.1 1.55 1.1.5.05.95-.35.35-.35.55-.85.1-.25.15-.45.1 0 .15-.05-.65 1.5-.25 4 .2 1.15.6 2.05-14.2.35-27.45.35-1.25 0-1.7.35-.4.25-.45.75-.1.5.25.75.25.2.9.2 17.65-.1 26.45-.35 1-.05 2.2-.05h.7q.7 0 3.05-.1.5-.05 1.15-.05 2.75-.1 6.05-.25v.45q-.4-.15-.75 0 .15.05.35.1.8.3 2 1.5.9.8 1.4 1.6.1 0 .3-.05.05-.1.15-.15.85.05 1.7.05.2 0 .45.05.4.15 1 .45h.35q1.85.25 4.2.25.85 0 2.25-.05.2 0 .4-.05 1.85-.15 4.75-.25 4.1-.1 4.75-.15h3.95l3.85-.1q.8-.05 1.2-.1.65-.1 1.1-.35.5-.25.95-.8l1.25-.05q.45 0 .65-.05.35-.1.55-.3.25-.25.45-.95l.3-1.4q6.1.3 16.3 1.05 7.9.4 14.9.4m-51.6-54.3q.3.3.65.45-.35.2-.7.35-.05 0-.1.05.1-.45.15-.85m-14.1-19.95q.1-1.1.6-1.8.6-.85 1.65-1.2 1.05-.3 2 .05.05.35.05.85-.25-.2-.7-.3-.8-.25-1.5.15T190.3 22q-.35.8-.55 2.35-.05.45-.05.8-.25-.1-.5-.1v-.2q-.1-1.2.05-1.9m-23.3 20.3q.25-.85.8-1.3.15 4.9 1.2 9.9.1.4.2.65-.25.15-.5.25-.55.25-.85.35-.5.2-.75.55-.3.35-.35 1v.55q-.1.15-.15.3-.4.8-1.1 1.2-.6-.35-.8-1.2-.1-.6-.1-1.6 0-1.65.4-2.45l.15.45q.1.25.2.4.3.25.7.15.25-.1.4-.2.25.2.6.3-.6-3.85-.35-7.65.1-1 .3-1.65M178.7 47q.35-5.1 2.1-8.9 1.4-3.2 3.65-5.35.4-.05.65-.15.7-.25 1.25-1.55h.05V31q.45-.3 1.3-.65l1.15-.45q.7.45 1.55.55.4.75 1.1 1.25.8.6 1.7.65.3.05 1 0 .65 0 1 .05.5.1 1.5.6.8.35 1.35.45 1.1 1.1 1.65 2.5.5 1.4.55 3.95.1 2.75-.25 4.55-.9 4.85-5.2 9.65-3.25 3.55-6.35 4.15l-.6.1q-.2.05-.45.05h-2.05q-.6 0-1-.1-.85-.2-1.3-.8-.05-.05-.15-.05-.75-.5-1.4-1.35-.5-.65-1.1-1.75-1.15-1.9-1.5-3.2-.4-1.6-.2-4.15m21.25-16.75v-.1q.1-.05.25-.1-.1.25-.25.2m2.05 30q.2.1.35.15l-.2 1.65q-.35 2.25-.5 3.65-.1 1.45-.15 4.4v1.85q-.4.1-.7-.25-.15-.15-.4-.7l-3.15-6.55q.2-.5 0-.95-.2-.3-.8-.8l-2.5-1.95q-.8-.6-1.25-1.1 2.15-1.25 4.1-3.35 1.6-1.7 2.8-3.6l1.5 5.8q.15.65.3.95.25.55.6.8m-29.15-4.3q.7 1.55.3 2.4-.3.7-1.5 1.3-1.2.55-1.65 1-1.55.55-2.5.9-1.85.75-3.25 1.55-.05-.05-.15-.1h-.25q-.25-.7-.3-1.8v-1.4q-.05-.8-.2-1.35-.05-.15-.05-.2.4.3.9.45.75.15 1.3-.15.2-.15.5-.45l.2.2q.45.5 1.45.55 1.85.15 3.35-1 .95-.75.95-1.6 0-.5-.4-.85-.4-.4-.85-.2-.2.05-.4.3-.15.1-.35.35-.45.45-1.05.7-.6.15-1.2.05-.15-.3-.1-.65.05-.3.25-.6.25-.35 1-.85.85-.65 1.25-.85.75-.45 1.35-.65.85 1.6 1.4 2.95m3.5 35.1q.1-1.1.5-1.65.7-1.05 2.9-1.2 3.05-.15 4.25 1.25.65.7.85 1.95.1.75.05 2.2l-8.05.75q-.6-1.55-.5-3.3m6.05-6.75l2.3-1.65q.75-.55 1.5-1.05.9 3.05 2.4 5.85-1 .4-1.9.75-.1.1-.25.15-.15-.25-.3-.45-1.25-1.5-3.75-2-1.05-.2-2.1-.15.9-.6 2.1-1.45m9.35-44.4q-.75 1.2-1.2 2.6-.3.95-.1 1.5.2.35.6.55.35.15.75.05.6-.15 1.2-1.15.95-1.65 1.15-2.7.15-.7-.05-1.1-.2-.45-.65-.6-.5-.15-.9 0-.4.2-.8.85m-3.5-.85q.15-.9-.35-1.4-.55-.4-1.3-.1-.45.2-1.05.8-.9 1.05-1.4 2.35-.3.8-.25 1.4.05.4.25.7.2.35.5.45.8.35 1.7-.4.55-.5.85-1.1.15-.25.3-.65.15-.5.2-.65.2-.45.3-.7.2-.4.25-.7m-6.85 9.15q.25.15.6.15.25 0 .65-.05-.1 1.85.1 2.95.25 1.55 1.1 2.55 1 1.15 2.7 1.4 1.55.2 3.1-.4 2.3-.95 4.65-4 .7-.85.5-1.45-.2-.55-1.35-.85-2.5-.6-4.85-1.05-2.15-.45-3.4-.6-1.9-.2-3.4 0-.55.05-.75.3-.2.25-.05.6.1.3.4.45m7.6 4.35q-.55.2-1.45.3-.8.1-1.15-.05-.55-.2-.95-.85-.45-.75-.55-1.65-.1-.9.15-1.75 3.4.9 6.9 1.6-.5.4-1.4 1.35-.8.8-1.55 1.05z" id="a"/></defs><use xlink:href="#a"/></svg>
