<svg xmlns="http://www.w3.org/2000/svg" viewBox="0 0 16 16">
  <path d="M6.3,12.4c-0.9-0.9-1.7-1.9-2.4-3.2C3.2,8,2.7,6.7,2.4,5.5C2.2,4.8,2.1,4.1,2.1,3.5c0.5-0.3,1.2-0.6,2-0.8
	c0.5-0.1,1-0.2,1.5-0.3c0,0.2,0,0.5,0,0.7c0,0.5,0.1,1.1,0.2,1.6C5.4,4.7,5.1,4.9,4.8,5c0,0.3,0,0.7,0.1,1.1c0.2,0.6,0.4,1.3,0.8,2
	s0.8,1.2,1.3,1.7c0.3,0.3,0.6,0.5,0.9,0.7V0C4.6,0,1.7,0.9,0.1,2.3l0,0c-0.4,2.1,0.3,5.1,2,8C3.8,13.1,6,15.2,8,16v-2.3l0,0
	C7.5,13.4,6.9,12.9,6.3,12.4z"/>
  <path opacity=".4" d="M15.9,2.3C14.3,0.9,11.4,0,8,0v10.4l0,0c0.3-0.2,0.6-0.4,0.9-0.7c0.5-0.5,0.9-1,1.3-1.7c0.4-0.7,0.7-1.3,0.8-2
	c0.1-0.4,0.1-0.8,0.1-1.1c-0.2-0.1-0.5-0.3-0.9-0.4c0.1-0.5,0.1-1.1,0.2-1.6c0-0.2,0-0.5,0-0.7c0.5,0.1,1,0.2,1.5,0.3l0,0
	c0.8,0.2,1.4,0.5,1.9,0.8c0,0.6-0.1,1.3-0.3,2.1c-0.3,1.2-0.8,2.5-1.5,3.7s-1.5,2.3-2.4,3.2c-0.6,0.5-1.1,1-1.7,1.3V16
	c2-0.7,4.2-2.8,5.9-5.7l0,0C15.6,7.3,16.3,4.4,15.9,2.3z"/>
</svg>
