<svg xmlns="http://www.w3.org/2000/svg" viewBox="0 0 300 120">
  <path fill="#888888" d="M95.04 59.98l1.48-5.7h7.36l1.42 5.7h5.68l-7-25.79h-7.1L89.71 60m13-9.69h-5.14l2.46-11.12h.08zm18.26-1.6h3.14c2.72 0 3.58 1.4 3.58 3.68 0 3.6-2.58 3.64-3.71 3.64h-3.01m0-17.86h3.33a3.1 3.1 0 0 1 3.1 3.08v.2c0 2.51-1.63 3.3-2.82 3.3H121zm4.14 21.82c2.3 0 8-.28 8-6.81 0-3.54-1-6-4.8-6.55v-.08c2.94-.56 4.4-2.72 4.4-5.68 0-5.5-3.4-6.67-7.5-6.67h-9.6V60zm19.3 0V41.12h.08l7.04 18.86h7.1V34.2h-5.04v17.86h-.06l-6.86-17.86h-7.28v25.78m27.71-11.39l3.47-3.45-3.52-3.46-3.44 3.46m14 14.84l1.48-5.7h7.36l1.42 5.7h5.68l-7-25.78h-7.1l-7.2 25.78m12.97-9.68h-5.15l2.48-11.12h.08zm18 9.68v-19.9h.08l4.72 19.9h5.15l4.96-19.9h.08v19.9h5.25V34.2h-8.4l-4.28 17.54h-.08l-4.04-17.6h-8.64v25.84m37.93-21.84h2.4c1.7 0 2.74.94 2.74 3.4 0 1.64-.6 3.8-2.74 3.8h-2.4m0 4h1.44c4.16 0 3.88 2.56 3.88 5.68 0 1.68-.16 3.36.56 4.96h5.28c-.5-1.12-.6-5.92-.6-7.6 0-4.64-3.5-4.96-4.68-5.12v-.08c3.5-.56 4.8-3.04 4.8-6.32 0-4.4-2.37-6.76-6.04-6.76h-10v25.88h5.38V49.3zm25.2 7.2c-3.04 0-3.36-2.88-3.36-9.52s.4-9.44 3.36-9.44 3.44 2.82 3.44 9.44-.4 9.45-3.44 9.45m0 3.86c8.88.04 8.88-6.54 8.88-13.28s0-13.33-8.88-13.33-8.88 6.5-8.88 13.33 0 13.32 8.88 13.32"/>
  <path fill="#fff" d="M30.05 30.34H74.5v37.04L52.26 89.61l-22.2-22.22V30.35"/>
  <path fill="#e5e5e5" d="M52.27 89.68v-.08L74.5 67.4v-.05l.06.08-22.28 22.24"/>
  <path fill="#fff" d="M52.27 89.6V45.14l22.23 22.2v.05L52.26 89.6"/>
  <path fill="#e5e5e5" d="M52.27 89.6V45.14l22.23 22.2v.05L52.26 89.6"/>
  <path fill="#888888" d="M52.27 89.68L30 67.42V30.28h44.56V67.4l-.08-.13V30.38H30.06v37.04l22.16 22.16.06.14"/>
  <path fill="#fff" d="M52.22 89.54L30.06 67.39V30.35H74.5v36.91L52.2 45v44.54"/>
  <path fill="#888888" d="M52.22 89.54L30.06 67.39V30.35H74.5v36.91L52.2 45v44.54"/>
  <path fill="#e5e5e5" d="M74.56 67.42l-.07-.08v.08M52.26 89.66l-.08-.16.08.08v.08"/>
  <path fill="#888888" d="M74.56 67.42l-.07-.08v.08M52.26 89.66l-.08-.16.08.08v.08"/>
  <path fill="#fff" d="M52.27 89.6l-.05-.06V45L74.5 67.28v.08L52.26 45.12V89.6"/>
  <path fill="#e5e5e5" d="M52.27 89.6l-.05-.06V45L74.5 67.28v.08L52.26 45.12V89.6"/>
  <path fill="#888888" d="M52.27 89.6l-.05-.06V45L74.5 67.28v.08L52.26 45.12V89.6"/>
</svg>
