<svg xmlns="http://www.w3.org/2000/svg" xml:space="preserve" id="Layer_1" x="0" y="0" version="1.1" viewBox="0 0 300 120">
  <path fill="#999999" d="M55.3 62c-2 0-3.1 1-3.2 4.6 0 2.2-1.3 2.8-2.4 2.8-2 0-2.7-2-2.7-6.7v-6.3c0-3.8.1-6.6 2.7-6.6 1.4 0 2.4 1 2.4 2.7 0 2.7 1.1 3.6 3.2 3.6 1.8 0 3.1-1.1 3.1-3.6s-1.5-7.7-8.8-7.7c-7.7 0-9.1 4.3-9.2 10.2H21c-2.4 0-3.4 1.5-3.4 3.1 0 1.8 1 3.2 3.4 3.2h19.3v.8c0 6.7.8 12.2 9.2 12.2 7.4 0 8.8-5.9 8.8-8.7.2-2.3-1-3.6-3-3.6zM63.2 40.9c0-2.7 1.3-3.8 3.2-3.8 2 0 3.2 1.3 3.2 3.8v7.6h.1c1-2.4 3.5-3.6 5.9-3.6 3.5 0 6 2.2 6 7v18.8c0 2.7-1.3 3.8-3.2 3.8-2 0-3.2-1.3-3.2-3.8V53.4c0-2.1-1.1-2.9-2.4-2.9-2 0-3.4 1.5-3.4 5v15.1c0 2.7-1.3 3.8-3.2 3.8-2 0-3.2-1.3-3.2-3.8l.2-29.7zM105.4 71.8c0 1.7-1.1 2.5-3.2 2.5-1.7 0-3.4-.8-3.4-3.6h-.1c-1.1 2.5-3.5 3.5-5.7 3.5-3.8 0-6.6-2.2-6.6-7.6 0-4.2 1.3-6.7 4.5-8.4l5.6-2.9c1.4-.7 2-1.8 2-2.9 0-1.5-.8-2.8-2.4-2.8-2.2 0-2.8 1.1-3.1 3.4-.1 1.3-1.4 2-3.1 2-1.4 0-3.4-.7-3.4-2.7 0-4.9 3.9-7.4 8.8-7.4 8.4 0 9.4 3.8 9.4 8.3v14.6c0-.2.7 3.2.7 4zm-6.8-12.6-2.2 1.5c-2.8 2-3.4 2.9-3.4 5.3 0 2.1.8 3.4 2.2 3.4 2.1 0 3.4-2.2 3.4-5.2v-5zM110.3 48.3c0-2.1.8-3.4 2.9-3.4s2.9 1.4 2.9 3.4V51h.1c1-3.5 2.5-6 4.8-6 1.7 0 3.1 1.3 3.1 4.1 0 2-1 3.8-3.9 3.8-2 0-3.6 1.4-3.6 3.8v13.9c0 2.7-1.3 3.8-3.2 3.8s-3.2-1.3-3.2-3.8l.1-22.3zM126.4 55.5c0-5.3 1.4-10.5 6.7-10.5 2.4 0 4.9 1.4 5.9 3.8h.1c0-2.7 1.1-3.8 3.1-3.8 1.8 0 3.1 1.3 3.1 3.8v26.6c0 6.4-3.2 9.2-9.5 9.2-4.8 0-8.3-1.5-8.3-5.2 0-1.8 1.4-2.8 3.2-2.8 1.4 0 2.4.8 2.8 1.8.6 1.3 1.4 1.7 2.2 1.7 2.8 0 3.4-1.8 3.4-5.6v-3.9h-.1c-1.4 2.7-2.9 3.2-5.6 3.2-5.7 0-6.7-5.2-6.7-10.9l-.3-7.4zm6.7 5.3c0 6.2.6 7.8 2.7 7.8 1.5 0 3.1-1.1 3.1-6.9v-4.9c0-5.6-1.8-6.9-3.1-6.9-1.8 0-2.8 1.7-2.8 6.2l.1 4.7zM150.3 56.7c0-7.1 1-11.8 9.7-11.8 6.6 0 8.8 3.6 8.8 11.1 0 2.5-.3 4.5-3.5 4.5H157v2.8c0 3.4.3 6 2.8 6 1.4 0 2.4-1.4 2.4-2.9.1-2.8 1.4-3.4 3.1-3.4 1.8 0 3.2.6 3.2 3.1 0 5-3.5 8.1-8.7 8.1-8.7 0-9.7-4.6-9.7-11.8l.2-5.7zm12.1-.7v-2.4c0-2.1-.7-3.8-2.8-3.8-2.1 0-2.8 1.7-2.8 3.8V56h5.6z"/>
  <path fill="#555555" d="M173.4 48.7c0-2.7 1.3-3.8 3.2-3.8s3.2 1.3 3.2 3.8h.1c1.1-2.4 3.4-3.8 5.6-3.8 5.7 0 6.7 5.2 6.7 10.9v7.6c0 5.7-1 10.9-6.7 10.9-2.4 0-4.5-1-5.6-3.2h-.1v8c0 2.7-1.3 3.8-3.2 3.8s-3.2-1.3-3.2-3.8V48.7zm6.5 13.9c0 4.1.7 6.9 3.2 6.9 2.4 0 2.7-2.7 2.7-7.4v-3.9c0-6.2-.6-7.8-2.7-7.8-1.5 0-3.1 1.1-3.1 6.9l-.1 5.3zM196.4 55.9c0-6 2-10.9 9.5-10.9 7.6 0 9.5 4.9 9.5 10.9v7.7c0 6-2 10.9-9.5 10.9-7.6 0-9.5-4.9-9.5-10.9v-7.7zm6.7 7.1c0 5.2.8 6.4 2.9 6.4 2.1 0 2.9-1.3 2.9-6.4v-6.7c0-5-1-6.3-2.9-6.3-1.8 0-2.9 1.3-2.9 6.3V63zM220.6 48.7c0-2.7 1.3-3.8 3.2-3.8s3.2 1.3 3.2 3.8v21.8c0 2.7-1.3 3.8-3.2 3.8-2 0-3.2-1.3-3.2-3.8V48.7zM278.6 55.2H269v-7.3c0-2.1-1.3-3.6-3.1-3.6s-3.1 1.5-3.1 3.6V55h-11.6v-3.2c0-4.8-2.5-7-6-7-2.4 0-4.9 1.3-5.9 3.6h-.1c0-2.4-1.3-3.6-3.2-3.6-2 0-3.2 1.3-3.2 3.8v21.8c0 2.7 1.3 3.8 3.2 3.8s3.2-1.3 3.2-3.8v-15c0-3.5 1.3-5 3.4-5 1.4 0 2.4.8 2.4 2.9v17.2c0 2.7 1.3 3.8 3.2 3.8 2 0 3.2-1.3 3.2-3.8v-9.2H263v9.5c0 2.1 1.3 3.6 3.1 3.6s3.1-1.5 3.1-3.6v-9.5h9.5c2.2 0 3.6-1.3 3.6-3.1-.1-1.8-1.5-3-3.7-3zM223.8 35.4c2 0 3.6 1.7 3.6 3.6s-1.7 3.6-3.6 3.6c-2 0-3.6-1.7-3.6-3.6 0-2 1.5-3.6 3.6-3.6z"/>
</svg>
