<?xml version="1.0" encoding="utf-8"?>
<!-- Generator: Adobe Illustrator 26.4.1, SVG Export Plug-In . SVG Version: 6.00 Build 0)  -->
<svg version="1.1" id="Layer_1" xmlns="http://www.w3.org/2000/svg" xmlns:xlink="http://www.w3.org/1999/xlink" x="0px" y="0px"
	 viewBox="0 0 300 120" style="enable-background:new 0 0 300 120;" xml:space="preserve">
<style type="text/css">
	.st0{fill:#999999;}
	.st1{fill:#555555;}
</style>
<g>
	<path class="st0" d="M55.3,62c-2,0-3.1,1-3.2,4.6c0,2.2-1.3,2.8-2.4,2.8c-2,0-2.7-2-2.7-6.7v-6.3c0-3.8,0.1-6.6,2.7-6.6
		c1.4,0,2.4,1,2.4,2.7c0,2.7,1.1,3.6,3.2,3.6c1.8,0,3.1-1.1,3.1-3.6c0-2.5-1.5-7.7-8.8-7.7c-7.7,0-9.1,4.3-9.2,10.2H21
		c-2.4,0-3.4,1.5-3.4,3.1c0,1.8,1,3.2,3.4,3.2h19.3v0.8c0,6.7,0.8,12.2,9.2,12.2c7.4,0,8.8-5.9,8.8-8.7C58.5,63.3,57.3,62,55.3,62z"
		/>
	<path class="st0" d="M63.2,40.9c0-2.7,1.3-3.8,3.2-3.8c2,0,3.2,1.3,3.2,3.8v7.6h0.1c1-2.4,3.5-3.6,5.9-3.6c3.5,0,6,2.2,6,7v18.8
		c0,2.7-1.3,3.8-3.2,3.8c-2,0-3.2-1.3-3.2-3.8V53.4c0-2.1-1.1-2.9-2.4-2.9c-2,0-3.4,1.5-3.4,5v15.1c0,2.7-1.3,3.8-3.2,3.8
		c-2,0-3.2-1.3-3.2-3.8L63.2,40.9z"/>
	<path class="st0" d="M105.4,71.8c0,1.7-1.1,2.5-3.2,2.5c-1.7,0-3.4-0.8-3.4-3.6h-0.1c-1.1,2.5-3.5,3.5-5.7,3.5
		c-3.8,0-6.6-2.2-6.6-7.6c0-4.2,1.3-6.7,4.5-8.4l5.6-2.9c1.4-0.7,2-1.8,2-2.9c0-1.5-0.8-2.8-2.4-2.8c-2.2,0-2.8,1.1-3.1,3.4
		c-0.1,1.3-1.4,2-3.1,2c-1.4,0-3.4-0.7-3.4-2.7c0-4.9,3.9-7.4,8.8-7.4c8.4,0,9.4,3.8,9.4,8.3v14.6C104.7,67.6,105.4,71,105.4,71.8z
		 M98.6,59.2l-2.2,1.5c-2.8,2-3.4,2.9-3.4,5.3c0,2.1,0.8,3.4,2.2,3.4c2.1,0,3.4-2.2,3.4-5.2V59.2z"/>
	<path class="st0" d="M110.3,48.3c0-2.1,0.8-3.4,2.9-3.4s2.9,1.4,2.9,3.4V51h0.1c1-3.5,2.5-6,4.8-6c1.7,0,3.1,1.3,3.1,4.1
		c0,2-1,3.8-3.9,3.8c-2,0-3.6,1.4-3.6,3.8v13.9c0,2.7-1.3,3.8-3.2,3.8s-3.2-1.3-3.2-3.8L110.3,48.3z"/>
	<path class="st0" d="M126.4,55.5c0-5.3,1.4-10.5,6.7-10.5c2.4,0,4.9,1.4,5.9,3.8h0.1c0-2.7,1.1-3.8,3.1-3.8c1.8,0,3.1,1.3,3.1,3.8
		v26.6c0,6.4-3.2,9.2-9.5,9.2c-4.8,0-8.3-1.5-8.3-5.2c0-1.8,1.4-2.8,3.2-2.8c1.4,0,2.4,0.8,2.8,1.8c0.6,1.3,1.4,1.7,2.2,1.7
		c2.8,0,3.4-1.8,3.4-5.6v-3.9H139c-1.4,2.7-2.9,3.2-5.6,3.2c-5.7,0-6.7-5.2-6.7-10.9L126.4,55.5z M133.1,60.8c0,6.2,0.6,7.8,2.7,7.8
		c1.5,0,3.1-1.1,3.1-6.9v-4.9c0-5.6-1.8-6.9-3.1-6.9c-1.8,0-2.8,1.7-2.8,6.2L133.1,60.8z"/>
	<path class="st0" d="M150.3,56.7c0-7.1,1-11.8,9.7-11.8c6.6,0,8.8,3.6,8.8,11.1c0,2.5-0.3,4.5-3.5,4.5h-8.3v2.8c0,3.4,0.3,6,2.8,6
		c1.4,0,2.4-1.4,2.4-2.9c0.1-2.8,1.4-3.4,3.1-3.4c1.8,0,3.2,0.6,3.2,3.1c0,5-3.5,8.1-8.7,8.1c-8.7,0-9.7-4.6-9.7-11.8L150.3,56.7z
		 M162.4,56v-2.4c0-2.1-0.7-3.8-2.8-3.8c-2.1,0-2.8,1.7-2.8,3.8V56H162.4z"/>
	<path class="st1" d="M173.4,48.7c0-2.7,1.3-3.8,3.2-3.8s3.2,1.3,3.2,3.8h0.1c1.1-2.4,3.4-3.8,5.6-3.8c5.7,0,6.7,5.2,6.7,10.9v7.6
		c0,5.7-1,10.9-6.7,10.9c-2.4,0-4.5-1-5.6-3.2h-0.1v8c0,2.7-1.3,3.8-3.2,3.8s-3.2-1.3-3.2-3.8V48.7z M179.9,62.6
		c0,4.1,0.7,6.9,3.2,6.9c2.4,0,2.7-2.7,2.7-7.4v-3.9c0-6.2-0.6-7.8-2.7-7.8c-1.5,0-3.1,1.1-3.1,6.9L179.9,62.6z"/>
	<path class="st1" d="M196.4,55.9c0-6,2-10.9,9.5-10.9c7.6,0,9.5,4.9,9.5,10.9v7.7c0,6-2,10.9-9.5,10.9c-7.6,0-9.5-4.9-9.5-10.9
		V55.9z M203.1,63c0,5.2,0.8,6.4,2.9,6.4c2.1,0,2.9-1.3,2.9-6.4v-6.7c0-5-1-6.3-2.9-6.3c-1.8,0-2.9,1.3-2.9,6.3V63z"/>
	<path class="st1" d="M220.6,48.7c0-2.7,1.3-3.8,3.2-3.8s3.2,1.3,3.2,3.8v21.8c0,2.7-1.3,3.8-3.2,3.8c-2,0-3.2-1.3-3.2-3.8V48.7z"/>
	<path class="st1" d="M278.6,55.2H269v-7.3c0-2.1-1.3-3.6-3.1-3.6s-3.1,1.5-3.1,3.6V55h-11.6v-3.2c0-4.8-2.5-7-6-7
		c-2.4,0-4.9,1.3-5.9,3.6h-0.1c0-2.4-1.3-3.6-3.2-3.6c-2,0-3.2,1.3-3.2,3.8v21.8c0,2.7,1.3,3.8,3.2,3.8s3.2-1.3,3.2-3.8v-15
		c0-3.5,1.3-5,3.4-5c1.4,0,2.4,0.8,2.4,2.9v17.2c0,2.7,1.3,3.8,3.2,3.8c2,0,3.2-1.3,3.2-3.8v-9.2H263v9.5c0,2.1,1.3,3.6,3.1,3.6
		s3.1-1.5,3.1-3.6v-9.5h9.5c2.2,0,3.6-1.3,3.6-3.1C282.2,56.4,280.8,55.2,278.6,55.2z"/>
	<path class="st1" d="M223.8,35.4c2,0,3.6,1.7,3.6,3.6s-1.7,3.6-3.6,3.6c-2,0-3.6-1.7-3.6-3.6C220.2,37,221.7,35.4,223.8,35.4z"/>
</g>
</svg>
