<svg xmlns="http://www.w3.org/2000/svg" viewBox="0 0 300 120">
  <g fill="#888888">
    <path d="M147.38 21.53a78.43 78.43 0 0 0-26.89 6.27c-3.92 1.67-7.97 3.92-7.95 4.34s8.5 15 8.93 15.49a9.25 9.25 0 0 0 2.8-1.14 57.82 57.82 0 0 1 29-6.49 57.2 57.2 0 0 1 25.17 6.54c1.5.75 2.61 1.23 2.75 1.08.3-.3 9.07-15.47 9.07-15.63a63.27 63.27 0 0 0-7.71-4.02 91.2 91.2 0 0 0-13.73-4.58 79.76 79.76 0 0 0-21.44-1.89z"/>
    <path d="M132.65 45.54a52.96 52.96 0 0 0-20.91 12.66l-2 1.9.88.77.88.77 2.62-2.41c5.3-4.87 9.75-7.57 9.75-5.88a22.85 22.85 0 0 1-2.03 3.35c-2.09 3.12-2.74 4.67-2.22 5.28s1.79.36 5.62-1.55c9.28-4.64 20.59-8.04 23.86-7.19 1.63.46 1.22.89-2.97 2.98a87.66 87.66 0 0 0-11.17 6.6c-3.63 2.48-3.36 2.15-2.8 3.1.27.44 1.08 1.84 1.82 3.1l1.3 2.3 1.58-.72a49.73 49.73 0 0 1 14.85-3.4c2.68 0 3.56.36 3.56 1.5 0 1.73-4.36 6.06-11.47 11.4-1.9 1.42-2.29 1.8-2.13 2.14.72 1.3 9.38 16.16 9.55 16.34.43.43 9.85-11.61 13.85-17.68a86.1 86.1 0 0 0 3.37-5.72c3.14-6.14 2.75-8.57-1.76-10.55-3.86-1.71-9.8-2.14-18.8-1.3-3.92.35-4.58-.07-2.9-1.97s7.23-4.05 15.97-6.26c5.04-1.3 5.45-1.44 6.19-2.1 1.53-1.48-.33-3.26-4.19-4.02a76.48 76.48 0 0 0-13.7.37 74.02 74.02 0 0 0-18.61 5.6 31.65 31.65 0 0 1-3.97 1.54c-.92-.57 2.22-3.68 6.44-6.45l3.6-2.46c1.97-1.31 1.56-2.68-.78-2.67a14.65 14.65 0 0 0-3.28.63z"/>
  </g>
</svg>
