<svg xmlns="http://www.w3.org/2000/svg" viewBox="0 0 300 120">
  <path fill="#888" d="M30.2 54.7c0-2.8 2.3-5.1 5.1-5.1s5.1 2.3 5.1 5.1-2.3 5.1-5.1 5.1c-2.9.1-5.1-2.2-5.1-5.1 0 .1 0 .1 0 0zm-4 0c0 5 4.1 9 9.1 9s9.1-4 9.1-9-4.1-9-9.1-9-9.1 4-9.1 9z"/>
  <path fill="#888" d="m64.3 35.2-.8-.5c-1-.7-2.2-.3-2.8.7L34.9 79.2c-7.5-7.8-16.1-18.7-16.1-24.7 0-9.1 7.3-16.7 16.5-16.9 4.7 0 9.5 2.6 13 6.9.7.9 2 1 2.8.3.4-.3.7-.8.8-1.3.1-.5-.1-1.1-.3-1.4-3.8-5.1-9.8-8.2-16.1-8.5C24.1 34 15 43.2 15 54.5c0 10.4 17.1 27.4 19.2 29.4.8.8 2.1.8 2.8 0 .1-.1.2-.2.3-.4l25.8-44.1c7.3 6.5 15.6 16.1 15.6 22.3-.1 8.1-6.4 14.8-14.5 15.5V65.4l7.7-6.4c.9-.7 1-2 .3-2.7l-.1-.1c-.8-.9-2-1-2.8-.2l-5.2 4.3v-4.9c0-1.1-.9-2-2.1-2-1.1 0-2 .9-2.1 2V66l-3-1.8c-1-.5-2.2-.3-2.8.7-.5 1-.2 2.2.7 2.7l5.2 3.1v6.5c-3.5-.4-6.7-2-9.2-4.3-.4-.3-.9-.5-1.4-.5-1.1 0-2 .9-2 2.1 0 .5.2 1 .7 1.4 3.3 3.1 7.5 5.1 12 5.5V84c0 1.1.9 2 2.1 2 1.2 0 2.1-.9 2.1-2v-2.7c10.3-.7 18.4-9.1 18.5-19.5-.3-10.7-16.7-25-18.5-26.6zm50.2 34.4v6.3H95V42.6h6.6v27h12.9zm3.4 6.2h6.2V52.1h-6.2v23.7zm-.6-30.3c0-2.1 1.7-3.8 3.8-3.8 2.2 0 3.9 1.7 3.9 3.8-.2 2.1-2.1 3.7-4.1 3.5-2-.3-3.5-1.7-3.6-3.5zm20.4 6.3v.2h5.1v5.9h-5.1v17.9h-6.2V58H128v-5.9h3.5v-.2c0-6.5 3.6-10.4 11.3-10v5.9c-3.3-.2-5.1.8-5.1 4zm24.3 10c-.5-2.9-3-5-6-4.9-3.3 0-5.6 1.7-6.3 4.9H162zm-5.3 9.2c2.4 0 4.3-1 5.4-2.4l5 2.8c-2.4 3.4-6.3 5.3-10.5 5.1-8.1 0-13.2-5.5-13.2-12.6-.2-6.7 5.1-12.4 11.8-12.6h.9c6.7-.1 12.1 5.3 12.1 11.9v.7c0 .9-.1 1.7-.2 2.5h-18.1c.9 3.3 3.5 4.6 6.8 4.6zM200 48.9h-9.1v27h-6.6v-27h-9v-6.3H200v6.3zm16.4 12.9c-.5-2.9-3-5-6-4.9-3.4 0-5.6 1.7-6.3 4.9h12.3zM211 71c2.4 0 4.3-1 5.4-2.4l5 2.8c-2.4 3.4-6.3 5.3-10.5 5.1-8.1 0-13.2-5.5-13.2-12.6-.2-6.7 5.1-12.4 11.8-12.6h.9c7.2 0 12.1 5.5 12.1 12.6 0 .9-.1 1.7-.2 2.5h-18.1c1 3.3 3.6 4.6 6.8 4.6zm29.5-19.4v6.8c-3.3-.3-7.3 1.1-7.3 6.1v11.4h-6.3V52.1h6.2v4.1c1.3-3.2 4.4-4.6 7.4-4.6zm17.1 0v6.8c-3.3-.3-7.4 1.1-7.4 6.1v11.4H244V52.1h6.2v4.1c1.3-3.2 4.4-4.6 7.4-4.6zm20.9 12.3a6.4 6.4 0 0 0-6.2-6.7h-.5a6.4 6.4 0 0 0-6.6 6.3v.4c-.1 3.6 2.6 6.5 6.2 6.7h.4c3.6.1 6.5-2.6 6.7-6.2v-.5zm6.2-11.8v23.7h-6.2V73c-1.7 2.2-4.3 3.5-7.8 3.5-6.4 0-11.7-5.5-11.7-12.6s5.3-12.6 11.7-12.6c3.5 0 6.1 1.3 7.8 3.5V52l6.2.1z"/>
</svg>
