<svg xmlns="http://www.w3.org/2000/svg" viewBox="0 0 300 120">
  <path fill="#ababab" d="M124.7 15.6c10.8 0 28.1 6.8 39.6 13.2 12.7 7.1 30.5 21.3 30.5 31.1 0 10.4-18.3 24.3-30.5 31.1-11.1 6.1-28.1 13.3-39.3 13.3-3 0-5.4-.5-7.2-1.4-8.7-4.9-12.8-25.8-12.8-43 0-8.7 1.1-18 3.1-25.6 2.4-9.1 5.7-15.1 9.7-17.4 1.8-.8 4.1-1.3 6.9-1.3"/>
  <path fill="#fff" d="m172.3 67.7-.1-7.5c0-1.7-.6-2.4-1.9-2.4-.5 0-1.1.1-1.6.5-.6.4-1 .6-1.2.7l-.1.1v8.5s0 .1-.1.1h-3.4s-.1 0-.1-.1v-12c0-.2.1-.4.4-.4h3s.1 0 .1.1v1s0 .1.1.1h.1l.1-.1c.4-.2 1-.6 1.3-.7.8-.4 1.7-.5 2.4-.5 2.8 0 4.2 1.6 4.2 4.6v8s0 .1-.1.1l-3.1-.1m6.2 0c-.1 0-.1 0 0 0l-.1-18.4c0-.1 0-.1.1-.1.2 0 2 1.2 2.6 1.8.5.5.7 1.2.7 1.8v14.7s0 .1-.1.1h-3.2"/>
  <path fill="#414141" d="M141.7 61.5c0 4.4-2.9 6.5-6.5 6.5s-6.5-2-6.5-6.5 2.9-6.5 6.5-6.5c3.7 0 6.5 2.1 6.5 6.5m-3.6 0c0-2.4-1.2-3.4-2.8-3.4-1.6 0-2.8 1.1-2.8 3.4 0 2.2 1.2 3.4 2.8 3.4 1.6.1 2.8-1.1 2.8-3.4zm20.5-9.6c0-.1 0-.1-.1-.1-.2 0-2.2 1.2-2.6 1.8-.5.5-.7 1.2-.7 1.8v8c0 3.5 2 4.6 4.2 4.6 1.2 0 2-.1 2.5-.5.1 0 .2-.1.2-.4v-2.3c0-.1 0-.1-.1-.1s-1 .4-1.4.4c-1.1 0-1.8-.5-1.8-2.3v-4.6c0-.1 0-.1.1-.1h3c.1 0 .1 0 .1-.1v-2.4c0-.2-.1-.4-.4-.4h-2.8c-.1 0-.1 0-.1-.1l-.1-3.2m-43.2 3.8c0-.2.2-.4.4-.4h4.7c4.7 0 7.1 2.8 7.1 6.3s-2.6 6.1-7.1 6.1H119c-.1 0-.1 0-.1.1v5.9c0 .1 0 .1-.1.1-.2 0-2.2-1.2-2.6-1.8-.5-.5-.7-1.2-.7-1.8V55.7m8.5 5.8c0-1.6-1-3-3.6-3H119c-.1 0-.1 0-.1.1v5.7c0 .1 0 .1.1.1h1.4c3.1.1 3.6-2.1 3.6-2.9zm27.8-.5c-.7-.5-1.7-.7-2.5-.8-.1 0-.7-.1-.8-.2-1.1-.2-1.9-.5-1.9-1.1s.6-1 1.4-1c1.1 0 2.6.2 4.3.8.1 0 .2 0 .2-.1v-2.4c0-.1-.1-.4-.2-.4-.6-.2-2.4-.7-3.8-.7-1.7 0-3 .4-4 1.1-1 .7-1.4 1.7-1.4 2.9 0 2.8 2.3 3.2 4.4 3.7.4.1.2.1.4.1 1 .2 2 .5 2 1.2 0 .2-.1.5-.2.6-.2.2-.7.4-1.4.4-1.3 0-4-.6-4.7-.8-.1 0-.1.1-.1.1v2.4c0 .1.1.4.2.4 0 0 2.3.7 4.3.7 3.7 0 5.6-1.4 5.6-4.1-.4-1.2-.8-2.2-1.8-2.8"/>
  <path fill="#fff" d="M129.9 52.2c-.2 0-.5-.1-.5-.5v-1.4c0-.4.2-.6.6-.6h10.7c.4 0 .6.2.6.6v1.3c0 .4-.1.5-.5.5h-10.9m9.6-3.8c-.1 0-.2 0-.2-.1V48l1.6-4.4c.1-.2 0-.5-.2-.6l-.6-.2h-.1c-.1 0-.2 0-.2.1-.2.6-.4 1-.6 1.6 0 .1-.1.1-.2.1h-1.2c-.1 0-.1 0-.2-.1v-.2c.4-1.1.6-1.9 1.1-2.9.1-.1.2-.5.7-.5h.2c.4.1.8.2 1.3.4.4.1.7.2 1.2.4 1.2.5 1.2 1.3 1 2.2-.1.5-.8 2.5-1.3 3.7-.1.2-.1.5-.2.6 0 .1-.1.2-.4.2h-1.4v-.1zm-5 0c-.2 0-.2-.2-.2-.4 0-.1-.1-6.3-.1-7.2 0-.1 0-.2.1-.2 0 0 .1-.1.2-.1h1.7c.1 0 .1 0 .2.1s.1.2.1.2c0 .8-.1 7.1-.1 7.2 0 0 0 .4-.2.4h-1.7zm-4.9 0c-.2 0-.2-.1-.4-.2 0-.1-.1-.4-.2-.6-.5-1.2-1.1-3.1-1.3-3.7-.2-.8-.2-1.8 1-2.2.4-.1.8-.2 1.2-.4.5-.1 1-.2 1.3-.4h.2c.4 0 .6.2.7.5.5 1 .7 1.8 1.1 2.9v.2s-.1.1-.2.1h-1.2c-.1 0-.2 0-.2-.1-.2-.6-.4-1.1-.6-1.6 0 0-.1-.1-.2-.1h-.1l-.6.2c-.2.1-.4.4-.2.6 0 0 1.2 3.4 1.6 4.4v.2s-.1.1-.2.1c-.2.1-1.7.1-1.7.1zm5.7-9.1c-.1 0-.1 0-.2-.1-.5-.4-1-.8-1.3-1.3 0 0-.1-.1 0-.4.4-.6 1-1 1.4-1.4h.2c.5.4 1 .8 1.4 1.4.1.1.1.2 0 .4-.4.5-.8 1-1.3 1.3-.1.1-.1.1-.2.1z"/>
</svg>
