<svg xmlns="http://www.w3.org/2000/svg" viewBox="0 0 300 120">
  <path fill="#888888" d="M192.5 54.9v16.4h-3.3l-.6-1.8h-.4c-.7.8-2.1 2-4.8 2-4.4 0-6.6-3.1-6.6-7.7v-8.9h4.5v7.9c0 2 .2 4.9 3 4.9 1.4 0 3.8-.8 3.8-5V55c0-.1 4.4-.1 4.4-.1zm16.8-2.5h-6.2v18.9h-4.4V52.4h-6.2v-4.1h16.8v4.1zm3.4 8.7h7.4c-.5-1.9-1.8-2.7-3.5-2.7-1.8 0-3.2 1-3.9 2.7zm11.7 3.3h-12c.5 2.5 2.5 3.4 4.3 3.4 2.2 0 3.2-1.4 3.2-1.4h4.1a7.7 7.7 0 0 1-7.4 5.1c-4.4 0-8.3-3.4-8.3-8.5s3.8-8.2 8.2-8.2c4.2 0 8.4 2.9 7.9 9.6zm10.9 7.1c-4.6 0-8.3-3.5-8.3-8.3 0-4.9 3.9-8.4 8.5-8.4 3.7 0 6.9 2.3 7.8 6.2h-4.5a3.9 3.9 0 0 0-3.5-2.2c-2.3 0-4.1 1.8-4.1 4.4 0 2.6 1.8 4.4 4.1 4.4 1.5 0 2.6-.8 3.3-2h4.5c-.9 3.9-4.3 5.9-7.8 5.9zm26.7-9.1v8.9h-4.4v-7.9c0-1.6.3-4.9-2.7-4.9-1.4 0-4.2.8-4.2 5v7.7h-4.4V48.1h4.2v8.6h.6c.8-.8 2.3-1.9 4.7-1.9 4.2 0 6.2 3.1 6.2 7.6zm-107.2-2.5c0-4.3 2.7-7.3 6.7-7.3s6.7 3 6.7 7.3-2.7 7.3-6.7 7.3-6.7-3.1-6.7-7.3zm15.2 7.6c1.7-2 2.7-4.6 2.7-7.6 0-6.7-5.2-11.6-11.2-11.6-6 0-11.2 4.9-11.2 11.6 0 6.7 5.2 11.6 11.2 11.6h13.4v-4H170zM71.6 96.6c.8-.1 3 2.1 3.7 2.5 1.2.9.4 2.9-1 2.8-.8.1-3-2.1-3.7-2.5-1.1-.8-.4-2.8 1-2.8zm10.3.3c.8-.1 2.5 1.7 3.2 2.1 1.1.9.3 2.8-1.1 2.7-1.8-.4-5.9-4-2.1-4.8zm10.2.3c1.9.3 5 3.7 1.6 4.3-1.8-.2-5-3.7-1.6-4.3zm10.4.3c2 .1 4 3.5 1.1 3.9-2-.2-4.1-3.5-1.1-3.9zm30.7.9c1.8 0 1.9 2.9 0 2.8-1.9 0-1.9-2.9 0-2.8zm-20.4-.6c2 0 2.9 3.2.5 3.4-1.9-.1-2.9-3.3-.5-3.4zm10.4.3c1.7 0 2 2.6.3 2.9-2.1.3-2.4-2.9-.3-2.9zm-71-10.6c1.1-.2 3.3 3 4.1 3.6 1.5 1.5-.9 3.8-2.4 2.2-1.1-1.2-5.7-5-1.7-5.8zm10.1.2c1.1-.2 2.9 2.6 3.6 3.1 1 1 .1 2.8-1.2 2.7-1 .1-2.9-2.6-3.6-3.1-1-1-.2-2.8 1.2-2.7zm10.1.1c1.1-.1 2.6 2.2 3.3 2.7.9 1 .1 2.7-1.3 2.6-1 .1-2.5-2.2-3.1-2.7-1-.9-.3-2.7 1.1-2.6zm10.1.1c1-.1 2.2 1.7 2.8 2.3.9 1 .1 2.7-1.2 2.6-1.8-.4-5.1-4.4-1.6-4.9zm10.1.1c1.9.2 4.4 4 1.2 4.4-1.9-.2-4.3-4-1.2-4.4zm10.1.1c1.9.1 3.6 3.7.8 3.9-1.9-.1-3.5-3.6-.8-3.9zm10.2.2c1.9 0 2.7 3.3.4 3.4-1.9-.1-2.7-3.3-.4-3.4zm20.1.2c1.8 0 1.9 2.9 0 2.8-1.8.1-1.8-2.8 0-2.8zm-9.9-.1c1.7 0 2 2.6.3 2.9-2.1.3-2.4-2.9-.3-2.9zM44.2 77.5c1.4-.3 3.4 4.1 4.2 4.9 1.2 1.8-1.6 3.6-2.7 1.8-.8-1.5-5.5-6.2-1.5-6.7zm9.9.1c1.4-.2 3 3.6 3.8 4.4 1.2 1.7-1.5 3.6-2.7 1.8-.8-1.4-4.9-5.6-1.1-6.2zm9.8.2c1.4-.2 2.7 3.1 3.4 3.8 1.2 1.7-1.5 3.5-2.7 1.8-.8-1.4-4.2-5.1-.7-5.6zm9.8.1c1.3-.2 2.4 2.6 3.1 3.3 1.2 1.7-1.5 3.5-2.6 1.8-1-1.3-3.7-4.7-.5-5.1zm9.9.2c1.2-.1 2.1 2.1 2.7 2.8 1.1 1.7-1.5 3.3-2.6 1.7-1-1.3-3-4.1-.1-4.5zm9.8.2c1.1-.1 1.8 1.6 2.3 2.3.7 1-.2 2.4-1.4 2.3-1.7-.3-3.8-4.4-.9-4.6zm9.9.1c1.9.1 3.3 3.9.7 4-1.9 0-3.4-3.9-.7-4zm9.9.2c1.9 0 2.6 3.4.3 3.5-1.9-.1-2.6-3.5-.3-3.5zm10 .1c1.9 0 1.9 2.9 0 2.9s-1.9-2.9 0-2.9zM40 67.4c1.9-.2 2.6 4.6 3.3 5.8.7 2-2.4 3.1-3.1 1.1-.3-1.6-3.7-6.6-.2-6.9zm10.4.2c1.9-.2 2.4 4.1 3 5.2.7 1.9-2.4 3-3.1 1.1-.3-1.6-3.2-6 .1-6.3zm10.3.2c1.8-.2 2.2 3.5 2.8 4.5.4 1-.4 2.2-1.5 2.2-1.8.2-2.2-3.5-2.8-4.5-.4-1 .4-2.2 1.5-2.2zm10.4.2c1.7-.2 2 2.9 2.5 3.9.4 1-.4 2.1-1.5 2.1-1.7.2-2-2.9-2.5-3.9-.4-.9.4-2.1 1.5-2.1zm10.3.2c1.5-.1 1.8 2.3 2.3 3.3.4 1-.4 2.1-1.5 2.1-1.5.1-1.8-2.4-2.2-3.3-.4-1 .4-2.1 1.4-2.1zm10.4.2c1.9 0 3.3 4.9.6 4.8-1.9-.1-3.3-4.7-.6-4.8zm10.4.2c1.9 0 2.9 4.2.4 4.2-1.9-.1-2.8-4.1-.4-4.2zm10.4.2c1.9 0 2.4 3.6.2 3.5-1.9 0-2.3-3.5-.2-3.5zm10.5.2c2.4.1 1.6 3.7-.6 2.8-1.4-.6-.9-2.8.6-2.8zM39.2 56.5c2.7-.1 1.3 5.2 1.6 6.7 0 .9-.7 1.6-1.6 1.6-.9 0-1.6-.7-1.6-1.6.3-1.4-1.1-6.8 1.6-6.7zm10.5.4c2.6-.1 1.4 4.6 1.6 6 0 .9-.7 1.6-1.6 1.6-.9 0-1.6-.7-1.6-1.6.3-1.4-1-6.1 1.6-6zm10.4.3c2.4-.1 1.4 4 1.6 5.4 0 .9-.7 1.6-1.6 1.6-.9 0-1.6-.7-1.6-1.6.3-1.4-.8-5.4 1.6-5.4zm10.5.4c2.3-.1 1.4 3.4 1.6 4.7 0 .9-.7 1.6-1.6 1.6-2.3.1-1.4-3.4-1.6-4.7 0-.9.7-1.6 1.6-1.6zm10.5.3c2.1 0 1.5 2.8 1.6 4.1 0 .9-.7 1.6-1.6 1.6-.9 0-1.6-.7-1.6-1.6.1-1.3-.5-4.1 1.6-4.1zm10.4.4c2.2-.1 2.2 5.1 0 4.9-2.2.2-2.2-5 0-4.9zm10.5.4c2.1 0 2.1 4.3 0 4.3s-2.1-4.4 0-4.3zm10.6.3c2 0 2 3.6 0 3.6-2.1 0-2.1-3.6 0-3.6zm10.5.4c1.9 0 1.9 3-.1 2.9-1.8-.1-1.7-3 .1-2.9zM40 45.6c1 0 1.8.9 1.6 1.9-.5 1.3-.1 6.6-2.4 6.4-1 0-1.8-.9-1.6-1.9.5-1.3.1-6.6 2.4-6.4zm10.4.5c1 0 1.8.9 1.6 1.9-.5 1.3-.1 6-2.3 5.8-1 0-1.8-.9-1.6-1.9.5-1.3.1-5.9 2.3-5.8zm10.4.5c1 0 1.7.9 1.6 1.9-.4 1.3-.1 5.3-2.2 5.1-1 0-1.7-.9-1.6-1.9.4-1.2 0-5.2 2.2-5.1zm10.3.5c1 0 1.7.9 1.6 1.8-.4 1.2-.1 4.6-2.1 4.5-1 0-1.7-.9-1.6-1.8.4-1.2.1-4.6 2.1-4.5zm10.4.6c.9 0 1.7.9 1.5 1.8-.3 1.2-.1 3.9-1.9 3.8-.9 0-1.7-.9-1.5-1.8.2-1.2 0-3.9 1.9-3.8zm10.3.5c2.4-.2 1.7 5.1-.3 5-2.4.1-1.7-5.2.3-5zm10.4.5c2.3 0 1.8 4.3-.2 4.3-2.3 0-1.8-4.3.2-4.3zm10.5.5c2.1 0 1.9 3.6-.1 3.6-2.1 0-1.9-3.6.1-3.6zm10.4.5c1.9 0 1.9 2.9 0 2.9-1.8 0-1.8-2.9 0-2.9zM51.9 36.1c1.1 0 1.9 1.1 1.5 2.1-.6 1.1-1 5.5-3 5.2-1 0-1.8-1.1-1.5-2.1.7-1.1 1.1-5.4 3-5.2zm10.1.6c3 .2.7 4.2.3 5.7-.7 1.9-3.7.9-3-1.1.5-1.1.8-4.8 2.7-4.6zm10 .5c1 0 1.8 1.1 1.5 2.1-.5 1.1-.8 4.2-2.5 4-1 0-1.8-1.1-1.5-2.1.6-1 .8-4.1 2.5-4zm10.1.6c1 0 1.8 1.1 1.5 2-.4 1-.7 3.5-2.3 3.4-1 0-1.8-1.1-1.5-2 .5-1 .7-3.5 2.3-3.4zm10.1.5c2.6 0 1.3 4.8-.6 4.8-2.6.1-1.3-4.7.6-4.8zm10.1.6c2.4 0 1.5 4.2-.4 4.2-2.4 0-1.5-4.2.4-4.2zm10.2.6c2.2 0 1.7 3.6-.2 3.6-2.2-.1-1.7-3.7.2-3.6zM55.2 26.7c3.5.4.1 4.5-.6 5.9-1.1 1.8-3.8.1-2.8-1.6.8-.8 1.9-4.5 3.4-4.3zm9.6.6c3.2.4.4 4-.3 5.4-1 1.8-3.8.1-2.8-1.6.7-.9 1.6-4 3.1-3.8zm9.6.5c3 .3.8 3.5 0 4.9-1 1.7-3.7.1-2.7-1.6.6-.9 1.3-3.5 2.7-3.3zm9.6.5c1.1 0 1.9 1.3 1.4 2.3-.6.8-1.2 2.9-2.5 2.8-3.1-.1-.7-5.1 1.1-5.1zm9.6.5c2.3.2 1.4 2.6.5 3.8-1 1.7-3.6.1-2.6-1.5.4-.8.9-2.4 2.1-2.3zm9.6.5c2.5.1 1.3 3.9-.6 4-2.5-.1-1.3-3.9.6-4zm9.7.5c2.2 0 1.6 3.5-.3 3.5-2.2 0-1.6-3.5.3-3.5zM75.6 18.9c3.3.5.3 3.9-.7 5.2-1.2 1.6-3.7-.3-2.5-1.9.7-.7 1.9-3.5 3.2-3.3zm9.5.4c1.2 0 2 1.5 1.3 2.5-.6.7-1.6 2.9-2.8 2.8-1.2 0-2-1.5-1.3-2.5.7-.8 1.7-3 2.8-2.8zm9.6.3c3.4.2 0 6-2.1 4.3-1.6-1.1.6-4.2 2.1-4.3z"/>
</svg>
