<svg xmlns="http://www.w3.org/2000/svg" viewBox="0 0 300 120">
  <path fill="#888888" d="M83.78 64.17c-6.7-1.04-9.47-4.95-9.47-9.85 0-9.07 8.8-11.54 20.08-11.54 15.45 0 21.8 4.08 22.3 11.49h-15.95a2.95 2.95 0 0 0-2.08-2.82 10.86 10.86 0 0 0-4.28-.74c-4.09 0-5.5 1-5.5 2.52 0 1 .44 1.62 1.8 1.8l16.4 2.46c6.9 1 11.18 4.26 11.18 10.2 0 8.53-6.92 12.55-22.32 12.55-10.53 0-22.06-1.47-22.1-11.76h16.5A2.73 2.73 0 0 0 91.8 71a10.81 10.81 0 0 0 4.66.74c4.28 0 5.44-1.17 5.44-2.84 0-1-.63-2.06-2.46-2.35zm93.57-20.19V54.9H165.4v24.18h-15.54V54.9h-11.94V43.98zm14.67 14.54l-2.52 7h5.1l-2.6-7zm31.66 16.12h-9.95l1.93 4.41h-15.82l-1.59-4.3h-11.5l-1.57 4.28h-15.62L185.1 44h15.04l9.44 21.49h10.07l4.04 9.13zM120.37 79h15.45V44.04h-15.45z"/>
</svg>
