<?xml version="1.0" encoding="utf-8"?>
<!-- Generator: Adobe Illustrator 26.4.1, SVG Export Plug-In . SVG Version: 6.00 Build 0)  -->
<svg version="1.1" id="layer_1" xmlns="http://www.w3.org/2000/svg" xmlns:xlink="http://www.w3.org/1999/xlink" x="0px" y="0px"
	 viewBox="0 0 300 120" style="enable-background:new 0 0 300 120;" xml:space="preserve">
<style type="text/css">
	.st0{fill:#666666;}
	.st1{fill:#888888;}
</style>
<g>
	<path class="st0" d="M83.3,78.5c-2.2,0-4.2-0.2-6-0.8l0,0c-1.8-0.5-3.2-1.1-4.1-1.8c-0.7-0.5-1.1-1-1.1-1.6s0.3-1.2,0.8-2.1
		c0.6-0.9,1-1.3,1.4-1.3c0.3,0,0.7,0.2,1.3,0.6c1.1,0.6,2.3,1,3.4,1.4s2.4,0.6,3.9,0.6c1.7,0,3.2-0.5,4.4-1.4s1.7-2.2,1.7-3.9
		c0-1.1-0.3-2-0.8-2.7s-1.3-1.3-2.1-1.8c-0.9-0.4-2.1-1-3.6-1.7l-1.1-0.4c-1.8-0.7-3.3-1.5-4.4-2.2c-1.1-0.7-2.1-1.7-2.9-3.1
		c-0.8-1.3-1.2-3-1.2-5.1c0-2,0.5-3.8,1.5-5.2c1-1.5,2.4-2.6,4.2-3.4c1.8-0.8,3.8-1.2,6-1.2c1.3,0,2.7,0.2,4.2,0.5
		c1.4,0.4,2.6,0.8,3.4,1.4c0.8,0.4,1.1,1,1.1,1.5c0,0.5-0.2,1.2-0.8,2c-0.5,0.9-1,1.3-1.3,1.3c-0.1,0-0.4-0.1-1.5-0.6
		c-1.6-0.7-3.2-1.1-4.9-1.1c-1.9,0-3.4,0.4-4.4,1.3c-1,0.9-1.6,2.1-1.6,3.5c0,1.1,0.3,1.9,0.8,2.6c0.6,0.7,1.2,1.2,2,1.6
		c0.8,0.4,2,0.9,3.7,1.5c2,0.8,3.7,1.6,5,2.3s2.4,1.8,3.4,3.2c0.9,1.4,1.4,3.2,1.4,5.4c0,3.4-1.1,6-3.2,7.8
		C89.5,77.6,86.7,78.5,83.3,78.5z"/>
	<path class="st0" d="M108.7,78.5c-1.9,0-3.6-0.6-4.9-1.7l0,0c-1.4-1.2-2.1-3.1-2.1-5.8V55.6h-2c-0.4,0-0.8-0.2-1-0.5
		s-0.3-0.8-0.3-1.5V53c0-0.7,0.1-1.2,0.3-1.5c0.2-0.3,0.5-0.5,1-0.5h2l0.6-5.2c0.1-0.9,0.8-1.4,2.1-1.4h0.8c1.3,0,1.9,0.5,1.9,1.4
		V51h3.7c0.4,0,0.8,0.2,1,0.5c0.2,0.3,0.3,0.8,0.3,1.5v0.7c0,0.7-0.1,1.2-0.3,1.5c-0.2,0.3-0.5,0.5-1,0.5h-3.7v15.1
		c0,1.2,0.2,2.1,0.6,2.5s1,0.7,1.8,0.7c0.5,0,0.9,0,1.2-0.1c0.3-0.1,0.6-0.1,0.8-0.1c0.4,0,0.7,0.4,1,1.2c0.2,0.8,0.4,1.3,0.4,1.7
		C112.9,77.9,111.5,78.5,108.7,78.5z"/>
	<path class="st0" d="M125.6,78.5c-2.6,0-4.7-0.7-6.3-2l0,0c-1.5-1.3-2.3-3.3-2.3-5.8c0-3.5,1.5-6,4.4-7.4c2.9-1.4,6.9-2.1,12.1-2.1
		v-2.1c0-1.2-0.4-2.1-1.2-2.8c-0.8-0.7-2.1-1-3.9-1c-1.4,0-2.6,0.2-3.7,0.5c-1,0.3-1.9,0.7-2.7,1c-1,0.5-1.2,0.6-1.3,0.6
		c-0.4,0-0.9-0.4-1.4-1.3c-0.5-0.8-0.8-1.5-0.8-1.9c0-0.5,0.4-1,1.4-1.6c0.9-0.5,2.1-1,3.6-1.3c1.5-0.4,3.1-0.5,4.8-0.5
		c3.4,0,6.1,0.7,7.8,2.2c1.8,1.5,2.7,3.6,2.7,6.1v11c0,2.3,0.1,4,0.3,5c0.3,1.5,0.3,1.7,0.3,1.8c0,0.5-0.4,0.9-1.3,1.1
		c-0.8,0.2-1.7,0.3-2.4,0.3c-0.6,0-1-0.3-1.3-0.8c-0.2-0.5-0.4-1.1-0.5-1.7c-0.1-0.4-0.2-0.8-0.2-1c-0.9,1-2.1,1.9-3.4,2.7
		C129.1,78.2,127.5,78.5,125.6,78.5z M133.5,65.5c-3.3,0-5.9,0.3-7.9,0.9c-2,0.6-2.9,1.9-2.9,3.9c0,1.1,0.3,2,1,2.6
		c0.6,0.6,1.6,0.9,2.8,0.9c1.5,0,2.8-0.3,3.9-0.9l0,0c1.1-0.6,2.1-1.5,3.1-2.5V65.5z"/>
	<path class="st0" d="M149.9,78.5h-0.6c-1.7,0-2.5-0.5-2.5-1.4V59.3c0-2.3-0.1-3.9-0.3-4.9c-0.2-1-0.3-1.6-0.3-1.8
		c0-0.5,0.4-0.9,1.4-1.1c0.8-0.2,1.7-0.3,2.4-0.3c0.6,0,1,0.3,1.2,0.8c0.2,0.5,0.4,1,0.5,1.6c0.1,0.4,0.2,0.7,0.2,0.9
		c1.7-2.5,3.7-3.8,5.8-3.8c1,0,1.8,0.2,2.3,0.7c0.5,0.5,0.8,1,0.8,1.7c0,0.6-0.1,1.3-0.4,2.1c-0.2,0.8-0.6,1.2-0.9,1.2
		c-0.2,0-0.6-0.1-1.1-0.3c-0.5-0.2-1.1-0.2-1.7-0.2c-1.1,0-2,0.4-2.7,1c-0.8,0.7-1.4,1.3-1.7,1.9v18.4
		C152.3,78.1,151.5,78.5,149.9,78.5z"/>
	<path class="st0" d="M174.8,78.5c-1.9,0-3.6-0.6-4.9-1.7c-1.4-1.2-2.1-3.1-2.1-5.8V55.6h-2c-0.4,0-0.8-0.2-1-0.5s-0.3-0.8-0.3-1.5
		V53c0-0.7,0.1-1.2,0.3-1.5c0.2-0.3,0.5-0.5,1-0.5h2l0.6-5.2c0.1-0.9,0.8-1.4,2.1-1.4h0.8c1.3,0,1.9,0.5,1.9,1.4V51h3.7
		c0.4,0,0.8,0.2,1,0.5s0.3,0.8,0.3,1.5v0.7c0,0.7-0.1,1.2-0.3,1.5c-0.2,0.3-0.5,0.5-1,0.5h-3.7v15.1c0,1.2,0.2,2.1,0.6,2.5
		s1,0.7,1.8,0.7c0.5,0,0.9,0,1.2-0.1c0.3-0.1,0.6-0.1,0.8-0.1c0.4,0,0.7,0.4,1,1.2c0.2,0.8,0.4,1.3,0.4,1.7
		C179,77.9,177.6,78.5,174.8,78.5z"/>
	<path class="st1" d="M203.4,61.6l10.6-19c0.4-0.7,1.2-1.1,2.5-1.1h2c1.6,0,2.4,0.4,2.4,1.3v34.4c0,0.8-0.8,1.3-2.4,1.3h-0.7
		c-1.6,0-2.4-0.4-2.4-1.3V53.5c0-1.3,0-2.8,0-2.8l-9.6,16.6c-0.3,0.5-0.8,0.8-1.4,0.8h-1.9c-0.6,0-1.1-0.2-1.4-0.8l-9.7-16.8
		c0,0,0,1.5,0,2.7v24c0,0.8-0.8,1.3-2.4,1.3h-0.7c-1.6,0-2.4-0.4-2.4-1.3V42.8c0-0.8,0.8-1.3,2.4-1.3h2.1c1.3,0,2.1,0.4,2.5,1.1
		L203.4,61.6z"/>
	<path class="st1" d="M230.1,76.6c-1.5-1.3-2.3-3.2-2.3-5.7c0-3.5,1.5-5.9,4.3-7.3c2.9-1.4,6.9-2.1,12.1-2.1v-2.2
		c0-1.2-0.4-2.2-1.3-2.9c-0.8-0.7-2.1-1.1-4-1.1c-1.4,0-2.6,0.2-3.7,0.5c-1,0.3-1.9,0.7-2.7,1c-0.7,0.4-1.2,0.5-1.3,0.5
		c-0.4,0-0.8-0.4-1.3-1.2c-0.5-0.8-0.8-1.4-0.8-1.8c0-0.5,0.4-1,1.4-1.5c0.9-0.5,2.1-1,3.6-1.3c1.5-0.4,3.1-0.5,4.8-0.5
		c3.4,0,6,0.7,7.8,2.2s2.7,3.5,2.7,6.1v11c0,2.3,0.1,4,0.3,5s0.3,1.6,0.3,1.7c0,0.5-0.4,0.8-1.3,1c-0.8,0.2-1.6,0.3-2.3,0.3
		c-0.6,0-0.9-0.2-1.2-0.8c-0.2-0.5-0.4-1-0.5-1.7c-0.1-0.6-0.2-1-0.2-1.2c-0.9,1.1-2.1,2-3.5,2.8c-1.4,0.8-3,1.1-4.9,1.1
		C233.7,78.6,231.6,77.9,230.1,76.6z M241.1,73.2c1.1-0.6,2.2-1.5,3.1-2.5v-5.2c-3.4,0-6,0.3-8,1c-2,0.6-3,2-3,4
		c0,1.2,0.3,2.1,1,2.7c0.7,0.6,1.6,1,2.9,1C238.7,74.1,240,73.8,241.1,73.2z"/>
	<path class="st1" d="M257.6,77.2V52.1c0-0.8,0.8-1.3,2.4-1.3h0.5c1.6,0,2.4,0.4,2.4,1.3v25.1c0,0.8-0.8,1.3-2.4,1.3H260
		C258.4,78.5,257.6,78.1,257.6,77.2z"/>
	<path class="st1" d="M257.6,46.2v-3.4c0-0.8,0.8-1.3,2.4-1.3h0.5c1.6,0,2.3,0.4,2.3,1.3v3.4c0,0.8-0.8,1.3-2.4,1.3H260
		C258.4,47.5,257.6,47.1,257.6,46.2z"/>
	<path class="st1" d="M274.6,41.5H274c-1.5,0-2.3,0.4-2.3,1.3v9.9l0,0v24.6c0,0.8,0.8,1.3,2.4,1.3h0.5c1.6,0,2.4-0.4,2.4-1.3V71
		V52.6v-9.9C276.9,41.9,276.2,41.5,274.6,41.5z"/>
	<path class="st0" d="M60,48c0-0.7,0-2.5,0-3c0-1.9-1.6-3.5-3.5-3.5h-30c-1.9,0-3.5,1.6-3.5,3.5v2.9c1.4,1.3,14.2,13.4,18.6,13.4
		C46.2,61.4,58.5,49.4,60,48z"/>
	<path class="st1" d="M53.4,59.1c-5,4.6-9,6.9-11.9,6.9c-6.4,0-17.2-9.7-18.6-10.9c0,4.5,0,15.8,0,20c0,1.9,1.6,3.5,3.5,3.5h30
		c1.9,0,3.5-1.6,3.5-3.5V52.4C59.4,53.1,56.7,56.1,53.4,59.1z"/>
</g>
</svg>
