<svg xmlns="http://www.w3.org/2000/svg" viewBox="0 0 300 120">
  <path fill="#888888" d="M58.9 45.67V103l182.2-28.67V17L58.9 45.67Zm176.52 23.88L64.58 96.43V50.45l170.84-26.88v45.98Z"/>
  <path fill="#888888" d="M78.14 62.65v23.28l5.78-.91V61.74l5.99-.94 1.8-6.07-21.35 3.36 1.8 5.5 5.98-.94zM210.18 36.18l-5.78.91v23.29l-5.9.93V38.02l-5.79.91v29.08l17.47-2.75V36.18zM107.09 75.45l-7.71 1.21v-4.19l6.72-1.06v-5.56l-6.72 1.06v-4.2l7.71-1.21v-5.56l-13.5 2.12v25.3l13.5-2.12v-5.79zM113.54 78.86c.71.48 1.53.78 2.42.87a9.5 9.5 0 0 0 2.5-.06 7.6 7.6 0 0 0 2.82-1.05 9.23 9.23 0 0 0 3.77-4.49c.37-.92.55-1.88.55-2.84v-2.63l-5.79.91v2.28c0 .4-.05.74-.15.99-.09.23-.2.41-.31.54-.15.14-.31.25-.49.33-.2.09-.38.15-.54.18-.82.13-1-.12-1.06-.2a2.45 2.45 0 0 1-.36-1.42V62.15c0-.76.12-1.39.37-1.89.05-.11.21-.43 1.09-.57.44-.07.75.03 1.01.31.3.35.45.78.45 1.34v2.24l5.79-.91V60.2c0-1.06-.18-2.03-.54-2.88a5.97 5.97 0 0 0-1.51-2.15c-1.33-1.18-3.06-1.61-5.15-1.28a8.84 8.84 0 0 0-5.26 2.9 8.38 8.38 0 0 0-2.04 5.46v11.18c0 1.39.23 2.53.69 3.38a5.44 5.44 0 0 0 1.75 2ZM135.33 66.58l4.81-.76v10.22l5.79-.91v-25.3l-5.79.91v9.75l-4.81.76V51.5l-5.79.91v25.3l5.79-.92V66.58zM188.71 62.61 181 63.82v-4.2l6.72-1.05v-5.56L181 54.07v-4.2l7.71-1.21V43.1l-13.5 2.12v25.3l13.5-2.13v-5.78zM219.95 54.76l1.99-.31a9.13 9.13 0 0 0 3.97-1.49 8.34 8.34 0 0 0 2.48-2.8 8.7 8.7 0 0 0 1.03-2.87c.15-.91.22-2.02.22-3.28 0-1.13-.06-1.4-.26-1.78-.04-.08-.09-.16-.15-.38a5.5 5.5 0 0 0-4.2-3.98 9.4 9.4 0 0 0-3.13.02l-7.74 1.22v25.3l5.79-.91v-8.72Zm0-11.02 2.02-.32c.78-.12 1.15-.04 1.29.02.24.1.4.25.52.49.15.29.24.67.25 1.11 0 .1.02.19.04.27 0 .51-.02.98-.05 1.42-.03.43-.11.79-.25 1.07v.02c-.13.25-.3.45-.56.63-.2.14-.61.33-1.39.45l-1.87.29v-5.46ZM165.46 54.3v18l5.79-.91V41.93l-10.68 5.49v6.33l4.89-2.52v3.07zM155.67 55.84v-3.07l4.9.98v-6.33l-10.69-2.13v29.46l5.79-.91v-18z"/>
</svg>
