<svg xmlns="http://www.w3.org/2000/svg" viewBox="0 0 300 120">
  <path fill-rule="evenodd" clip-rule="evenodd" fill="#888" d="M111.1 89.3c4.7 0 7.1-3.1 7.1-7.5V59.6h9.9v22.7c-.1 9.9-8 13.9-17.1 13.9s-17-3.9-17.1-13.9V59.6h9.9v22.2c.2 4.4 2.7 7.5 7.3 7.5"/>
  <path fill-rule="evenodd" clip-rule="evenodd" fill="#bbb" d="M194.3 83.9v-2.3c0-6.9-3.9-11.7-10.9-11.7-7.9 0-11.5 6.1-11.5 13.4s3.2 13 11.2 13c5.9 0 10.3-2.8 11-8.5h-4.9c-.6 3.6-2.4 5.1-6.1 5.1-4.8 0-6.4-4.3-6.4-8.9l17.6-.1zm-17.6-3.3c0-3.9 2.4-7.4 6.3-7.4 4.5 0 6.3 3.1 6.3 7.4h-12.6z"/>
  <path fill-rule="evenodd" clip-rule="evenodd" fill="#bbb" d="M200 59.6h4.7v35.8H200V59.6z"/>
  <path fill-rule="evenodd" clip-rule="evenodd" fill="#888" d="M68.4 95.4h9.9V66.6h11.1v-7h-32v7h11.1v28.8"/>
  <path fill-rule="evenodd" clip-rule="evenodd" fill="#888" d="M92.2 42.2c-2.4.7-4.9.2-4.9-3.1 0-4.9 11.6-9 13.1-13.4.4-1.1.4-2-.1-2-.4 0-.1.6-.9 1.4-4.8 4.8-12.8 4.8-19 7.6-4 1.8-15.8 7.4-13.1 19.9.2.6.5 2.5.8 2.5.4 0 .4-1.1.4-2.6-.1-7.4 8.7-9.5 11.5-14.3.3-.6.9-1.4 1.1-1 .1.2 0 .5-.1 1-.9 3.9-5 6.6-3.9 9.4 1.6 3.7 5.9.9 7.3-1.4.3-.7.6-1.1.8-1 .2.1.2.8.1 1.5-.7 4.3-1.7 6.7-4.8 9.1-1 .8-2.5.9-2.4 1.6.1.2.7.2 1.2.1 8.5-.6 15.4-10.3 17.2-16.8.2-.4.2-.9.1-1.1-.2-.2-.7.2-1 .6a9 9 0 01-3.4 2"/>
  <path fill-rule="evenodd" clip-rule="evenodd" fill="#bbb" d="M219.4 95.4V73.8h5.7v-3.3h-5.7v-4c0-2.9 1.4-3.4 4-3.4.8 0 1.6.1 2.4.2v-3.9c-1.1-.2-2.2-.5-3.4-.5-4.4 0-7.8 2.2-7.8 7v4.7h-4.8v3.3h4.8v21.6h4.8"/>
  <path fill-rule="evenodd" clip-rule="evenodd" fill="#bbb" d="M227.9 70.6v3.3h4.3v15.8c0 3.3.1 6.5 7.1 6.5 1.1 0 2.1-.1 3.2-.3v-3.5c-.7.2-1.7.3-2.5.3-1.6 0-3-.8-3-2.6V73.8h5.7v-3.3H237v-6.8l-4.7 1.5v5.3h-4.4"/>
  <path fill-rule="evenodd" clip-rule="evenodd" fill="#bbb" d="M143.1 63.9h7.3c8.3 0 11.7 6.2 11.7 13.6s-3.4 13.6-11.7 13.6h-7.3V63.9zm-5 31.5h12.2c15.3 0 16.9-13 16.9-17.9s-1.6-17.9-16.9-17.9h-12.2v35.8z"/>
</svg>
