<svg xmlns="http://www.w3.org/2000/svg" viewBox="0 0 300 120">
  <path fill="#888" d="M116.9 97.4c-.1-.5-.6-1.5-.7-2.3-.3-1.7.6-2.8 1.5-3.1.9-.3 1.3.2 1.6 1.3.5 1.6.5 3.8.4 6.8-.2 4.2-2.3 9.3-7.5 9.2-4.5-.1-6.5-3-6.7-7.5-.1-2.1.1-4.2.9-7.2.5-1.6.9-2.2 2.3-2.5 1.1-.2 1 1 .8 2.4-.6 3.1-.8 4.5-.6 8 .2 3.7 1.9 5.1 3.7 5.1 2.8.1 4-2.2 4.5-5.6.4-2.5.1-3.8-.2-4.6zm58.9 3.6c1.1 0 1.4 1.3 1.1 2-.3.8-1.2 1.6-2.6 1.9-.3-.7-.5-3.9 1.5-3.9zm-20 1.7c0-.9-.5-1.6-1-1.6s-1.5.5-1.5 2.1c0 1.3.5 1.9.7 2.2 1.4-.4 1.8-1.6 1.8-2.7zm-15.9-10.4c-.1-.8-.7-1.4-1.6-1.4-1 0-1.9 1-1.8 2.3.1.8.6 1.5 1.5 1.5 1.2.1 2-1.2 1.9-2.4zm8.3 3c-.1-1.4-.4-2.1-1.2-2-1 .1-1.5 3.3-1.3 6.6.1 2.2.5 2.5.8 2.5.6 0 1.9-3.9 1.7-7.1zm33.9 5.4c-.6 2.6-2.6 6.5-5.4 6.5-.7 0-1.8-.3-1.8-.9 0-.7 4.5-.8 4.5-4.2 0-1.3-1.2-3.1-2.9-3.1-2.3 0-4.5 2.5-4.5 6 0 3.1 1.9 4.1 3.9 4.1 3.4 0 5.4-2.8 6.5-5.1.5 1.5.8 5.1 2.1 5.1.5 0 .9-.3 1.5-1.6 1.5-3.4 3-7.4 5.1-7.4.8 0 .3 1.4 2.1 1.4.9 0 1.5-.7 1.5-1.5 0-1.2-1.1-2.1-2.7-2.1-4.8 0-5.8 7.2-6.6 7.2-1.3 0-.9-5.8-1.8-5.8-1 0-1.4.9-1.5 1.4zm-40.9 6.1c.8 0 2.1-.2 3.1-1.9-.6-1.3-1-4-1.1-4.9-.3-5 1.6-9.6 3.7-9.7 1.5-.1 2.8 1.4 2.9 3.7.4 6.2-1.7 8.8-2.7 11 .2.9 1.6 2.3 3 2.3.5 0 1.1-.3 1.3-.5-.1-.4-.2-.8-.2-1.5 0-3.6 2.3-6.6 4.3-6.6 1.6 0 2.5 2.1 2.5 3.5 0 1.6-1.4 3-3.4 4.2.4.4 1 .6 1.6.6 2.9 0 4.4-3.5 5.6-6.8.2-.6.6-1.5 1.3-1.5 1.2 0 1.7 8.1 3.8 8.1.9 0 1.6-1.8 1.6-3.2 0-1-.4-1.1-.4-2.6 0-1.6.9-3 2-3 .7 0 1 .7 1 1.6 0 3.3-2.4 9.4-5.8 9.4-2.6 0-2.4-4.5-3.3-4.5-1 0-2.5 4.6-7.5 4.6-.8 0-1.7-.4-2.4-1.2-1.2.8-2.3 1.2-3.4 1.2-1.9 0-2.7-1.9-3.5-1.9-.9 0-1.9 2-5 2-2.5 0-2.9-3.3-3.7-3.3-.8 0-1.9 3.3-3.2 3.3-2.2 0-2.6-5.7-4.5-5.7-1.5 0-6.2 5.8-7.4 5.6-.5-.1-.7-.4-.7-.9.1-.7.7-2.6.9-3.5.4-1.6.8-3.3 1-3.8.2-.5.8-.9 1.2-.9.2 0 .3.4.4.8.3 1.3.6 2.6 1 2.6.7 0 3.1-4.6 4.5-4.6 1.7 0 1.9 7.2 4.2 7.2.8 0 1.3-.9 1.8-2 .1-1.9.6-4.6 2.1-4.6 1.1 0 1.6 2.4.8 4.5-.1 2.3 1.6 2.9 2.6 2.9"/>
  <path fill="#888" d="M176.8 26.7c-.4 0-.9 0-1.2-.6-.2-.5-.2-1.3-.6-1.6.5.1.9.1 1.3.1 1.2 0 2.4-.8 3.3-.8.6 0 .8.4.8.8 0 1.1-2.4 2.1-3.6 2.1zm.6 3c2.8 0 5.4-2.3 5.4-4.2 0-.9-.4-1.7-1.5-1.8.2.2.3.4.3.9 0 1.5-2.3 3.1-4.7 3.1-.9 0-1.2.6-1.2.9-.1.8.7 1.1 1.7 1.1zm-.2 1.2c.4 2.6 4.3 6 5.3 6 .7-.1 1-3.4 1-6 0-1.5.1-2.7-.7-2.9-1.2 2.5-4.5 3-5.6 2.9M116.2 47.9c.9 0 .7-5.6 2.2-5.6.4 0 .5.4.5.8 0 1.3-.6 3.1-.6 4.2 0 .5.1.7.4.7.7 0 1.8-6.2 2.9-6.2.4 0 .5.4.5.7 0 1.3-1.7 5-1.7 6.1 0 .2.1.3.2.3.7 0 2-2.9 2.5-4.4.2-.8.6-1.2.9-1.2.3 0 .5.3.5.9 0 1.5-1.4 4.9-2.6 7.2-.9 1.8-2.4 4.4-2.4 5.8 0 .7.1 1.5 1.2 2.4-1.7-.1-2.4-.3-3.1-1.6-2.9 5.8 5.3 5.2 2.5 10.3-.5-.9-4.6-1.9-4.6-7.2 0-4.6 4.1-7.4 4.1-9.3 0-.4-.1-.7-.5-1-.9-.8-.9-1.4-1.6-1.4-.5 0-1.1 1.2-.5 2.3.2.4.4.6.4.9 0 .8-1.2 2.8-2 2.8s-1.5-2.1-1.5-5.5c0-3 .7-6 1.5-6 .2 0 .3.2.3.4 0 .4-.1 1.1-.1 2.3 0 1.2.3 1.3.6 1.3"/>
  <path fill="#888" d="M123.1 55.9c1.1 0 2.1-.8 2.1-2.7v-2.8c0-1.1.1-2.3.8-3.1-.1.4-.1.7-.1 1.1 0 2.3 1.3 3.9 1.3 6.2 0 .8-.2 1.3-.9 1.3-.6 0-.6-.6-.7-.6-.1 0-.3.4-.3.7 0 .6.4 1.5 1.5 1.5 1 0 1.8-.9 1.8-1.9 0-2.4-1.9-5.2-1.9-7.8 0-1.1.3-1.9.5-2.5 0 5.4 4.6 9.3 4.6 11.6 0 .5-.4.9-.9.9a.9.9 0 01-.9-.9c0-.2 0-.2-.1-.2-.2 0-.7.5-.7 1.2 0 .9.7 2 2.1 2 1.5 0 2.4-1.3 2.4-2.5 0-2.8-5.6-7.2-5.6-11.8 0-.8.1-2.1.7-3-3.6 2.3-4.7 5.4-4.7 8.1 0 2.3-.1 3.5-1.3 3.5-.6 0-.8-.6-1-.6-.2 0-.2.5-.2.6 0 1.1.7 1.7 1.5 1.7M164.2 25.3c.3-.2 1.9.1 3.9-.8.2-.1.5-.2.7-.2 1 0 .7 1.1 1.6 1.1.7 0 1.5-.6 2.1-.6.8 0 2 2.6 2 3.7 0 1.4-2.1 2.2-4.6 2.2-3.6 0-5.8-3.1-5.8-5.2-.1-.1 0-.1.1-.2zm5.9 3.5c1.2 0 2.1-.5 2.1-.9 0-.1-.2-.2-.5-.2-.4 0-1.1 0-2.4-.2-1.1-.2-2-.6-2.3-.6-.1 0-.2.1-.2.1 0 .7 1.3 1.8 3.3 1.8M123.6 66.1c-.9.2-2.3 1.6-2.3 3.9 0 2.7 2.8 6.8 7.5 6.8 4 0 4.9-2.7 4.9-4.6 0-4.1-2.5-7-5.8-7-1.8 0-3.4 1.3-3.4 3.2 0 1.8 1.4 4.5 4.6 4.5 1.5 0 2.4-1.1 2.4-2.3 0-1.2-1.1-2.9-2.7-2.9-.5 0-.8.3-.8.8 0 .6.9 1.3 2 1.3.3 0 .5-.1.6-.1.1.1.1.2.1.3 0 .6-.6 1-1.5 1-1.4 0-2.7-1-2.7-2.7 0-1 .8-1.7 2.1-1.7 2.4 0 3.9 2.1 3.9 4.3 0 1.9-1.1 3-3.2 3-4.5.1-6.6-3.8-5.7-7.8M154.6 82c1.3 0 1.2-.1 1.6-.1.4 0 .4.2.4.4 0 .6-1.3 1.3-3.7 1.3-1.4 0-2.2-.7-2.5-1.5-1.4.9-3.4 1.7-5.5 1.7-5.6 0-7-2.4-8.7-3.2-1.3-.6-3.4.6-6.2-2.6.4.1.9.1 1.3.1 2.5 0 3.8-1.2 3.8-3.2 0-.2 0-.5-.1-.8.8.3 2.5 1.6 2.9 3.9.1.3 1.2.5 1.9.5 1 0 2.2-.4 2.4-2 3.3-.3 5.5-2.2 5.9-4.6 1.2.4 2.5 1.4 2.8 2 .5-.2 1-.2 1.6-.2.9 0 1.8.2 3 .5.1-.4.1-.8.7-.8.8 0 .6.9.9 1.4.1.3.8.4.8 1 0 .5-.4.7-.7.7-.1 0-.2 0-.3-.1-.5.2-.6 4.1-2.8 4.1-1.7 0-3.2-1.4-3.9-3.1-.2-.5-.6-.8-1-.8s-.7.1-1.2.7c-1.5 1.6-3.9 3-6.9 3-.9 0-1.7-.1-1.8-.1-.1 0-.1 0-.1.1 0 .2.9.9 2.9.9 4.8 0 5.9-2.7 6.7-2.7.1 0 .4 0 .6.4 1.3 2.5 3.7 3.1 5.2 3.1zm-2.1-5.4c0 .6.5 1.1 1.1 1.1.6 0 1.1-.5 1.1-1.1 0-.6-.5-1.1-1.1-1.1-.6 0-1.1.5-1.1 1.1M174 63c-.4 0-.8.3-.8 1 0 .8.6 1.3 1 1.5.2.1.5.2.8.2.8 0 1.4-.2 1.4-.9S175.2 63 174 63zm-2.9 1.7c-.6 0-3.7 4.2-5.8 4.2-.5 0-.9-.9-.9-1.6 0-.4.2-.7 1.1-.8 4.7-1.1 3.6-4.6 7.6-4.6 2.2 0 4.6 1.5 4.6 4.9 0 3.6-5.1 8-5.9 8-.6 0-1.3-.9-1.3-1.5 0-.2.1-.4.6-.7 2.6-1 4.1-3.4 4.1-4.6 0-.3-.1-.5-.5-.5-.5 0-2.4 4.5-4.6 4.5-1.5 0-3.1-1.4-3.1-2 0-1.1 4.4-3.1 4.4-4.6.2-.7-.1-.7-.3-.7M117.4 29.2s-.8.6-1.8.6c-1.2 0-2.1-.9-2.1-2.1 0-.8.4-1.7 1.4-2.1v.5c0 1.4.9 2.6 2.5 3.1zm5.8 5.2c-.6.7-1.2 1.9-1.2 3.1 0 1.5.9 2.7 2.3 2.7 1.3 0 2-1.1 2-2.3-.1-1.9-1.8-3.1-3.1-3.5zm-9 1.1c-.1.1-.1.2-.1.3 0 .2.3.5.5.5s.4-.1.5-.1c.7 0 1.4.5 2.4.5a5.52 5.52 0 005-4.5c0-.5-.4-.4-.8-.9-.3-.5-.2-.9-.4-1.1-.1-.1-.5-.1-1-.2h-.6c-.9 0-2 .1-3.1.9-2.4 1.4-2 3.9-2.4 4.6zm6.4-3.4c.2.3.7.6.7.8 0 .4-.2.9-.7.9-1 0-1.7-1.4-1.7-2.3 0-.5.3-.6.7-.6.2 0 .3 0 .4.1.3.1.3.7.6 1.1zm-2.5 3.3c-.9 0-1.9-1.1-1.9-2.1 0-.5.4-1.2.7-1.2.1 0 .2.1.2.3.2 1.3 1 2.1 1.8 2.5l.1.1c.1.1-.5.4-.9.4zm2.3-6.8c.1-.4.2-1 .2-1.6 0-1.3-.6-3.3-2.4-3.3-1.1 0-1.8.8-1.8 1.8-.1 2.2 2.1 3.1 4 3.1zm-7.1 10.8c0 2.1.6 3 1.7 3 .9 0 2-.6 3.4-1.8-1.1.2-1.9.4-2.6.4-.9 0-1.6-.3-2.5-1.6zm1-2.4v.4c0 1.3.7 2 1.6 2 .7 0 1.5-.4 2.2-1.3-.3.1-.7.1-1 .1-1.1 0-2.2-.3-2.8-1.2zm6.6-.4c-.6.2-1.9.9-1.9 2.3 0 1 .8 1.6 1.7 1.6.5 0 .8-.1 1.1-.3-.8-.7-1-1.5-1-2.4-.1-.5 0-.9.1-1.2zm1-7.4c0 .6.5 1.1 1.1 1.1.6 0 1.1-.5 1.1-1.1 0-.6-.5-1.1-1.1-1.1-.6 0-1.1.5-1.1 1.1zm1.4 2.4c0 .6.5 1.1 1.1 1.1.6 0 1.1-.5 1.1-1.1 0-.6-.5-1.1-1.1-1.1-.6 0-1.1.5-1.1 1.1M165.6 44.9c0-.5.5-1 1-1 .6 0 1.1.5 1.1 1 0 .6-.5 1.1-1.1 1.1-.5 0-1-.4-1-1.1zm-9.5-8.3c0 .6.5 1.1 1.1 1.1.6 0 1.1-.5 1.1-1.1 0-.6-.5-1.1-1.1-1.1-.6 0-1.1.5-1.1 1.1zm-.9 3.8c0 .8.7 1.5 1.5 1.5s1.5-.7 1.5-1.5-.7-1.5-1.5-1.5-1.5.7-1.5 1.5zm3.4-1.7c0 .9.7 1.7 1.7 1.7.9 0 1.7-.7 1.7-1.7 0-.9-.7-1.7-1.7-1.7s-1.7.8-1.7 1.7zm.2-3.5a1 1 0 002 0c0-.6-.5-1-1-1-.6-.1-1 .4-1 1zm4.9-2.7a1 1 0 002 0 1 1 0 00-2 0zm-2.1 3.4c0 .9.8 1.7 1.7 1.7 1 0 1.7-.8 1.7-1.7 0-1-.8-1.7-1.7-1.7-.9-.1-1.7.7-1.7 1.7zm-2.8 6.3c0 .6.5 1.1 1.1 1.1.6 0 1.1-.5 1.1-1.1 0-.6-.5-1.1-1.1-1.1-.6 0-1.1.5-1.1 1.1zm3.6-2.1c0 .6.5 1.1 1.1 1.1.6 0 1.1-.5 1.1-1.1 0-.6-.5-1.1-1.1-1.1-.6 0-1.1.5-1.1 1.1zm-1 3.8a1.9 1.9 0 103.8 0c0-1.1-.8-1.9-1.9-1.9-1.1 0-1.9.9-1.9 1.9zm3.9-2.3c0 .7.6 1.3 1.3 1.3.7 0 1.3-.6 1.3-1.3 0-.7-.6-1.3-1.3-1.3-.7 0-1.3.6-1.3 1.3zm-.1-3.4c0 .6.5 1.1 1.1 1.1.6 0 1.1-.5 1.1-1.1 0-.6-.5-1.1-1.1-1.1-.6-.1-1.1.4-1.1 1.1M168 73.8c-.7.5-2.4 1.8-5.1 1.8-1.5 0-2.1-.5-2.3-.5-.3 0-.6.3-.9.6-.6.8-1.5 2.2-1.5 3.7 0 1.1.8 2.2 2.4 2.2 5.1 0 8.9-3.2 8.9-5.7 0-1.5-.9-2.1-1.5-2.1zm-1.4-.3c.2-.2.3-.5.3-.8V72c0-.8-1.2-1.2-2.8-1.2-2 0-3 .9-3 1.3v1.2c0 .5 1.2 1 2.7 1 1 .1 2.1-.2 2.8-.8zm-.3 2.6c.1 0 .3.1.3.6 0 .6-.3 1.4-1.2 2-.7.5-1.6.8-3 .9.2-.6.4-1.3.4-2 0-.2 0-.4-.1-.6h.4c2.2 0 3.1-.9 3.2-.9M156 43c.3 2.3 3.4 1.1 3.4 3.9 0 .4-.1 1-.1 1.5 0 .6.1 1.1.5 1.1.5 0 .6-.3.6-.8 0-.4-.1-1-.1-1.3 0-1 .7-1.2 1.1-1.2 1 0 1.8 1.1 3.4 1.1-.4 1.7-3.9 1.3-3.9 3.2 0 1 1 1.2 1.6 1.2.6 0 .8-.1.8-.6 0-.3-.1-.6-.1-.8 0-.1.1-.2.2-.2.6 0 3.5 2.2 3.5 2.9 0 .6-3.1 1.2-4 1.2-.3 0-.3-.2-.3-.3 0-.2.5-.8.5-1.1 0-.2-.4-.4-1.5-.4-.5 0-.9.1-.9.5 0 .7 1.2 1.6 1.2 2.3 0 .5-.3.9-1.2.9-.7 0-1.8-.6-1.8-1.5 0-.8.8-1.5.8-2 0-.1-.1-.4-.4-.4-1 0-1.3 2.7-4.8 3 .6-.5 1.1-1.1 1.1-2.2 0-.6-.1-1-.1-1.7 0-.8.4-1.2.9-1.2 1 0 1.5 1.4 2.1 1.4.4 0 .7-.3.7-.8 0-2.1-4-1.8-4-4.7-.2-.7.1-1.7.8-3zm12.9 7.9c0 .7.2 1.5.9 1.5.6 0 1.1-.9 1.1-1.8 0-1.1-.2-1.9-.2-2.4 0-.2.1-.3.2-.3.4 0 .8 1.1 1.2 1.1.5 0 1.2-.9 1.5-.9.1 0 .1.1.1.1 0 .4-.6 1.3-.6 1.7 0 .3 1.6.4 1.6.6 0 .4-1.7.4-2.4.8-.8.3-1.2.7-1.2 1.3 0 .5.5.7 1.3.7 1.8 0 3.1-1 3.5-1 .1 0 .1.1.1.1 0 .3-.9 1.2-.9 1.6 0 .5 1.7 1 1.7 1.3 0 .1-.1.1-.3.1-.3 0-.8-.1-1.1-.1-.2 0-.4 0-.5.1-.2.2.1 1.7-.3 1.7s-1.3-3.2-3.4-3.2c-.3 0-.5.2-.5.7 0 1.1 1.1 2.3 2.1 2.9.5.3 1.2.6 1.2.8 0 .3-1.7 0-1.7.6 0 .5.2 1.2.2 1.7 0 .1 0 .3-.2.3-.3 0-1.1-1.5-1.5-1.5-.3 0-1 .9-1.3.9-.1 0-.1-.1-.1-.2 0-.6 1-2 1-3.4 0-.7-.1-2.1-.9-2.1-.7 0-1.4 1-1.7 2.1-.2.6-.1 2.9-.5 2.9s-.3-1.5-.8-1.5c-.4 0-1.3.7-1.6.7-.1 0-.1 0-.1-.1 0-.3.8-1.4.8-1.6 0-.4-1.8-.5-1.8-.8 0-.2.7-.3 1.4-.4 1.4-.2 3.4-1.2 3.4-2.7 0-1.6-1.5-2.3-2.5-2.9-.5-.3-1.1-.6-1.1-.8 0-.2.7-.2.9-.2.4 0 .8 0 .8-.4 0-.2-.1-.7-.1-1.1 0-.3 0-.5.1-.5.4 0 1 1.3 1.2 1.3.4 0 1-1.1 1.4-1.1.1 0 .2.1.2.3-.1 1-.6 2.2-.6 3.1"/>
  <path fill="#888" d="M156.8 58.5c1.2.2 1.5.6 1.5 1 0 .6-.5.8-1.1.8-.4 0-.8-.1-1.3-.1-.6 0-1.2.1-1.7.7.4.1.9.3.9.8 0 1.6-4.4.3-4.4 4.3 0 2.1 2.2 4.5 5.6 4.5 1.7 0 2.9-.6 2.9-1.2 0-.5-.9-.2-.9-.6 0-.2.3-.5.3-.8 0-.1-.1-.4-.3-.4-.5 0-1.4.8-3.3.8-1.5 0-2.9-.8-2.9-2 0-.2.1-.4.3-.4.2 0 .4.1.6.1.2 0 .2-.1.2-.4 0-.3 0-1.1.5-1.1s1.5 1.9 5.2 1.9c1.2 0 3.7-.2 4.6-1.1 0 3-2.4 6.9-7.2 6.9-5.1 0-7.8-4.1-7.8-7.8a8 8 0 018-7.9c1.2 0 2.2.4 2.2.9 0 .6-1.8.2-1.9 1.1zm8.3 1.4c.2.3.3.6.3.9 0 .8-.5 1.5-.5 2.3 0 .9.7 1.6 1.7 1.6 1.1 0 1.9-.9 1.9-2-.1-1.5-1.4-2.7-3.4-2.8zm-9 1.7c.3.3.4.5.4.8 0 .4-.2.8-.2 1.3 0 .6.5 1.2 1.2 1.2.8 0 1.3-.6 1.3-1.3 0-1-1.1-2-2.7-2zm3.6-4.6c2.9.5 4.4 2.7 4.4 4.7 0 1.4-.9 2.7-2.4 2.7-1.4 0-2.4-.9-2.4-2.5 0-1.1.9-2.3.9-3.5 0-.5-.1-.9-.5-1.4zm1.4 3.6c0 .4.3.7.7.7.4 0 .7-.4.7-.8 0-.6-.5-1.4-1-1.4-.2 0-.1.3-.2.7 0 .3-.2.6-.2.8M131.2 32.7c.9 0 2-5 2-5.8 0-.2-.1-.4-.3-.4-.8 0-2 4.7-2 5.8 0 .2 0 .4.3.4zm6.6 1.5c.7 0 1.4-2.6 1.4-4.2 0-.4-.1-.7-.2-.7-.6 0-1.5 2.7-1.5 4.2 0 .5.2.7.3.7zm-4.4-2.4c.3 0 .7-.3 1.4-1.1.1-.4.1-.7.1-1.1 0-.5-.2-1.1-.5-1.1-.8 0-1.2 2.2-1.2 2.7-.1.3.1.6.2.6zm3.7-1.1c0-.5-.1-.6-.2-.6-.3 0-.6.3-1 1.1.1 1 .2 1.4.5 1.4s.7-1 .7-1.9zm2.1-3.2c1.8 0 2.6 1.5 2.6 3.3 0 .8-.2 1.9-.6 1.9-.4 0-.3-.6-.4-1.2-.1-.7-.2-.9-.4-.9-.5 0-.8 1.1-.8 2.1 0 .6.1 1.3.6 1.3.3 0 .5-.1.7-.3-.1 1.2-1 2.3-2.3 2.3-2.4 0-3.3-2.8-3.6-4.4-1.4 1.5-2.8 2.6-5.2 2.6-2.2 0-3.2-1.6-3.2-3.2 0-.5.2-1.7.7-1.7.7 0 .1 2.2 1.4 2.2.3 0 .9-.3 1.2-1.2.2-.5.3-1.1.3-1.6 0-.7-.2-1.2-.7-1.2-.5 0-1 .4-1.2.5.7-2 2.2-3 4-3 2.1 0 3.3 1.9 3.3 4 0 .3 0 .6-.1.9 1.1-1.3 2.3-2.4 3.7-2.4"/>
  <path fill="#888" d="M134.1 34.8c-1.2 0-1.2 1.4-1.2 4.3-.9-1.9-2.3-3.9-4-3.9-1.1 0-1.6.8-1.6 2.1 0 .3 0 .7.1.9.1-.5.6-.7 1.1-.7 1.2 0 2.6.9 3.5 2.1-1.1-.2-2.1-.4-3-.4-.5 0-1 .1-1.4.2-.8.4-1.8 1.5-1.8 3.3 0 .3 0 .6.1.9.9-2.1 3.5-3.1 5.1-3.1.3 0 .6 0 .8.1-.8.8-1 2.1-1.1 3 0 .4-.2.5-.5.5 0 .9.7 2.2.7 2.9 0 .2-.1.5-.3.5 0 1.2 1.2 2.1 1.2 2.8 0 .2-.1.4-.1.4.1.5 1.4 1.3 1.6 1.7.2.5.4.6.6.6.5 0 1.2-.5 1.2-1 0-.2-.1-.4-.2-.4-.5-.4-.8-1.2-1-1.7-.2 0-.4-.1-.5-.4-.1-.6-.2-1.6-.4-2.2-.4-.1-.5-.2-.5-.9 0-.4.2-1.7.2-2.2-.2 0-.4-.1-.4-.4 0-.9.9-1.5 1.1-2.7 1.5 1.1 1.9 2.3 1.9 3.3 0 .5-.1 1.1-.2 1.5 1.1-.6 2.8-1.4 2.8-3.1 0-1-.5-2.1-3.5-2.6.9-.4 2.1-.5 3.1-.5 1.7 0 2.7.5 3 1.8.4-.5.6-1.2.6-1.7 0-1.3-1.1-2.2-2.5-2.2-1.7 0-3.1.9-4.7 1.9.7-1.5 1.2-2.3 2.1-2.3.1 0 .3 0 .4.1-.4-1.4-1.6-2.5-2.3-2.5M179.9 54.3c1.4 0 2.4 1.8 2.4 3.8 0 2.2-1 4.6-2.9 6.2 0-3.7-4.5-2.5-4.5-5.2 0-1.1.8-1.9 1.8-1.9.9 0 1.5.2 2 .7-.5-.5-.7-1.1-.7-1.7 0-.9.7-1.9 1.9-1.9M155.6 28.6c.7.7 1.3 1 2.1 1 .3 0 .7-.1.8-.1.2 0 .4.1.4.3 0 .3-.3.8-.6 1.1.3.1.7.2 1.1.2 1.5 0 3.3-1 3.3-3.4.3.4.5 1.3.5 1.7 0 3-2.2 4.1-4.2 4.1-1.3 0-2-.4-2.1-.4-.5 0-.5 1-.8 1-.6-.1-1.2-1.5-1.2-3 0-.9.2-1.9.7-2.5zm4.1-2c-.2-.4-1-.5-1.4-.5-1.2 0-2 .8-2.2 1.6-.1-.3-.2-.6-.2-.9 0-1.2.8-2.7 2.8-2.7 1.7 0 2.4.9 2.7.9.3 0 .5-.3.8-.3.3 0 .3.5.3.8 0 1.1-.5 3-1.7 3.6-.2-.5-.7-1-1.4-1.3-.2-.1-.3-.2-.3-.4 0-.3.3-.7.6-.8M136.8 20.7c0 .9 3.4 5.6 4 5.6.5 0 .9-.9.9-1.8 0-.2-.1-.4-.2-.6-.5-.7-3.9-3.4-4.7-3.4v.2zm-20-2.8c0 .5-2.1 2.4-2.8 2.4-.3 0-.4-.3-.4-.6 0-.5.2-1.3.5-1.5.4-.3 1.2-.5 1.8-.5.5-.1.9 0 .9.2zm24.8 1.5c0-1.6-4.4-4.6-4.4-5.9 0-.1.1-.2.2-.3.8-.8 3.9-1.4 3.9-2.1 0-.4-.7-.4-1-.4-2.5 0-6.2.9-6.2 1.8s3.3 3.2 3.3 4.3c0 .3-.2.4-.5.4-.9 0-2.9-1.1-3.9-1.1-.4 0-.6.3-.6.7 0 1.3 1.5 3.8 1.5 4.5 0 .1 0 .2-.1.2-.5 0-2.8-2.7-3.6-2.7-.3 0-.3.4-.3 1v.9c0 .6 0 1-.3 1-.7 0-1-2-1.7-2s-.8 3.5-1.5 3.5c-.8 0-.1-3.9-.9-3.9s-1.8 2.6-2.4 2.6c-.2 0-.3-.2-.3-.4 0-.8.5-2.1.5-2.8 0-.4-.1-.6-.4-.6-.8 0-2.7 1.4-3.4 1.4-.1 0-.2-.1-.2-.2 0-.6 3-2.7 3-3.6 0-.9-4.1-.3-4.1-1.3 0-.9 2.9-1.8 2.9-2.7 0-.8-3.4-1.1-4.8-1.1-1.6 0-2.5.2-2.5.6 0 .7 3.6.9 3.6 1.5s-3.8 2.2-3.8 3.1c0 .8 5.3.1 5.3.9 0 .9-4.6 4.9-4.6 6.2 0 .3.2.4.5.4 1.4 0 5.1-2.7 6.1-2.7.4 0 .4.4.4.8 0 .7-.2 1.8-.2 2.6 0 .6.2 1.1.7 1.1 1 0 1.9-1.7 2.6-1.7.9 0 .4 5 1.7 5 1.1 0 1.6-5.4 2.3-5.4.7 0 1.3 1.6 1.9 1.6.8 0 .4-2.7 1.3-2.7s3.7 3.3 4.9 3.3c.4 0 .5-.3.5-.7 0-1.4-2-4.7-2-5.7 0-.3.1-.4.4-.4 1.1 0 4.2 1.5 5.6 1.5.3.2.6-.1.6-.5zm-2.8-5.3c0 .5 1.7 1.5 2.5 1.5.5 0 .6-.6.6-1.3 0-.8-.4-.8-1.1-.8-.9 0-2 .2-2 .6zm-6.4-2.8c0-.2-.8-.3-1.9-.3-1.8 0-1.5 1.5-2.9 1.5s-1.1-1.5-2.8-1.5c-1.1 0-2.1.2-2.1.4 0 .3 1.3.2 1.3 1.1 0 .9-2.7 1.2-2.7 1.8 0 .2.2.3.5.3.6 0 1.5-.3 2.2-.3.4 0 .7.1.7.4 0 .7-1.5 1.9-1.5 2.4 0 .2.1.2.3.2.5 0 1.5-1.4 2.3-1.4 1.4 0 .5 3.1 1.3 3.1s.5-3 1.6-3c1 0 1.7 2.1 2.3 2.1.2 0 .3-.1.3-.3 0-.6-.8-1.7-.8-2.5 0-.5.3-.7.8-.7.6 0 1.5.4 1.9.4.2 0 .3-.1.3-.2 0-.7-2.4-1.4-2.4-2.2 0-.9 1.3-.9 1.3-1.3M180.5 15.7c0 2.4-1.8 4.3-4.9 4.8h1c3.7 0 5.1-1.7 5.1-3.1-.1-.8-.5-1.5-1.2-1.7zm-4.6 2.7c0-1.9-4.6-2.4-4.6-2.8 0-.4 2.6-1 3.9-1-2-2.6-4.9-2.3-4.9-2.8 0-.3 2.2-.8 4.2-.8 1.7 0 3.3.4 3.3 1.7 0 .7-.6 1.4-.6 2.5 0 .6.3 1.1 1.1 1.1s1-.9 1-1.8c0-.8-.1-1.4-.1-1.8 0-1.1.8-1.9 1.9-1.9.9 0 1.1.4 2.5.4-.7.4-1 1.2-1 1.6 0 1.1.7 1.9.7 4.3 0 4.3-4 5.8-8.9 5.8-1.4 0-2.8-.1-4.2-.3-.2 0-.3-.1-.3-.2 0-.4 1.9-.5 1.9-2.3 0-.7-.2-1.3-.2-1.6 0-.1.1-.2.2-.2.4 0 1.2 1.6 2.7 1.6.4-.1 1.4-.2 1.4-1.5zm4.4-6c0 .4.3.7.7.7.4 0 .7-.3.7-.7 0-.4-.3-.7-.7-.7-.4.1-.7.4-.7.7M177.9 37.5c0-.6-1.4-.6-1.6-2.2 0-.2-.1-.7-.4-.7-.5 0-.1 1.5-.7 1.5-1.2 0-1.7-2.4-2.1-2.4-.1 0-.2.1-.2.4 0 .3.1.5.1.8 0 .4-.1.6-.4.6-.7 0-1.4-1.7-2-1.7-.1 0-.3.1-.3.2 0 .3.5.9.5 1.2 0 .7-1.8.3-1.8.8 0 .2.2.3.6.3.6 0 1.5-.2 1.9-.2.3 0 .7.1.7.4 0 .4-1 .9-1 1.2 0 .2.2.2.3.2.7 0 2-1.3 3-1.3.2 0 .6.1.6.3 0 .4-.9 1-.9 1.5 0 .1.1.3.2.3.5 0 1.1-1.3 2.1-1.3.4 0 .9.1 1.1.1.2.2.3.1.3 0zm.7 13.2c.4-1.4 1-2.3 1.9-3.8-.9-.5-3.3-1.4-3.3-3 0-1.9 2.3-3.3 2.8-3.3.2 0 .3.2.3.5 0 1-.5 2.5-.5 3.4 0 .8.5 1.5.9 1.5.5 0 1.7-1.6 1.7-3.2 0-2.9-2.5-3.7-3.3-3.7-.7 0-2.1 1.2-5.2 1.2-5.8 0-7.2-5.8-7.2-8.3 0-.1 0-.1.1-.1s.7.7 2.6.7c1 0 1.8-.2 3.2-.2 3.2 0 4.7 2.3 6.7 5.1 1.2.8 4.1 2 4.1 5.4 0 3-3.2 4.7-4 8 1.2-.1 2-2.4 3.3-2.4.7 0 1 .5 1 1.3 0 1.2-.7 3-2 4.1v-.4c0-.8-.3-1.8-1.2-1.8-1.4 0-1.8 1.5-2.5 2.7-.8-2.8-1.8-5.3-3.7-6.8-1.9-1.5-5.2-.7-5.2-3.5 0-.8.5-1.8.5-2.7 0-.3-.1-.6-.2-.8 2.6 1 1.7 2.7 3.3 4.5 1 1.1 3.8 2.2 5.4 6.9 0-.1.1-.5.1-.7 0-4-5.3-7.9-5.8-9.6 3.1.4 3.6 1.1 5.1 5.2.2.7 1.1 2.7 1.1 3.8"/>
  <path fill="#888" d="M163.8 22c-1.9 0-3.1-.9-3.1-1.4 0-.2.2-.4.4-.4.6 0 1.9.9 2.3.9.1 0 .2-.1.2-.2 0-.5-.5-1.3-.5-1.7 0-.1.1-.2.2-.2.7 0 1.8.3 2.4.3.2 0 .2-.1.2-.2 0-.6-1.8-1.8-1.8-2.1 0-.3 2.2-.8 2.2-1.3s-3-.2-3-.7c0-.4.6-1 .6-1.3 0-.1-.1-.2-.3-.2-.2 0-1.5.5-2.1.5-.3 0-.6-.1-.6-.4 0-.6 1.1-1.3 2.7-1.3 2.7 0 4.3 1.8 4.3 4.9.1 3.8-2.6 4.8-4.1 4.8zm-5.3-5.2c0-.3-1.1-.9-1.1-1.2 0-.1.1-.1.1-.1.3 0 .8.1 1.2.1.4 0 .4-1.5.7-1.5.2 0 .5 1.4.8 1.4.4 0 1-.4 1.3-.4.1 0 .1 0 .1.1 0 .2-.7.9-.7 1.1 0 .2 1.5.5 1.5.8 0 .3-1.5.2-1.5.5 0 .2.6.9.6 1.2 0 .1 0 .1-.1.1-.2 0-1.1-.4-1.3-.4-.3 0-.8 1.1-1 1.1-.1 0-.1-.1-.1-.2l-.1-1.1c0-.1-.1-.2-.2-.2h-1.1c-.1 0-.2 0-.2-.1 0-.2 1.1-1 1.1-1.2zm-.8 4.5c.4 0 .5 1.1.6 1.7.1.3.1.4.2.4.3 0 .8-1.2 1.2-1.2.5 0 1.9 1.4 4.2 1.4 3.3 0 6.4-2.3 6.4-6.4 0-3.9-2.8-6.2-6.6-6.2-1.8 0-3.1.9-3.9.9-.4 0-1.1-1.1-1.4-1.1-.1 0-.3.3-.3.7 0 .3 0 1.2-.3 1.2-.7 0-3.2-1.9-3.2-1.2 0 .6 1.7 2.5 1.7 3s-1.7 1-1.7 1.3c0 .6 1.8.7 1.8 1.5s-1.8 1.4-1.8 1.9 1.8.1 1.8.7-1.4 2.5-1.4 3c0 .1 0 .1.1.1.7 0 2.2-1.7 2.6-1.7M145.4 68.9c0 .2-.1.5-.3.8-.3-.5-1.1-.8-1.5-.8-2.8 0-1.7 4-4.7 4-1.2 0-1.4-.2-1.8-.2-.2 0-.3.1-.3.2 0 .7 1 2.4 3.8 2.4s5.5-1.7 5.5-3.8c0-.4-.1-.7-.2-1.1.1-.2.4-.3.6-.3.4 0 .7.5 1.1.5.4 0 .8-.3.8-.8 0-.4-.2-.6-.5-.8.2-.2.4-.4.4-.7 0-.5-.3-.9-.9-.9-.2 0-.4.1-.6.3-.1-.5-.3-.9-.8-.9-.4 0-.7.3-.7.8-.2.5.1.8.1 1.3"/>
  <path fill="#888" d="M130.6 63.9c2.2.5 3.3 1.7 3.5 3.1.2 1.3.5 2.4 1 3 .7.8 2 1.4 3.2 1.4 1 0 1.8-.3 1.8-1.2 0-1-1.3-3.2-3.3-3.2h-.7c-.2 0-.6-.1-.8-.2-.4-.4-.6-2.4-1.4-3.6-.9-1.4-1.9-1.7-3.2-1.7-.9 0-2 .5-2 1.3-.1.3.1.6 1.9 1.1zm7.5 6c-.8 0-2-.9-2-1.4 0-.4.4-.6.7-.6.7 0 1.9.8 1.9 1.5 0 .3-.2.5-.6.5"/>
  <path fill="#888" d="M135.6 48.8c0-1.7 4.1-2.7 4.1-4.8 0-.4-.1-1-.4-1.4 1.4.8 2.5 2.1 2.5 3.2 0 1.9-2 2.7-2 3.9 0 1.4 2.1 1.6 2.1 3.3 0 1.4-2 3-2 4.8 0 1.4 1 2.5 2.5 2.7-.5.1-.9.2-1.4.2-2.7 0-5.6-2.3-5.6-4.9 0-1.3.6-2.5 1.4-3.3.8.7 1.5 1.1 2 1.1.4 0 .6-.2.6-.5.2-1.2-3.8-2.2-3.8-4.3zm8.7 13.7c-.9.4-1.3.4-1.3 1.3 0 .4-.1.8-.1 1.1 0 .3.1.5.4.5 1 0 2.5-1.7 2.5-3.1 0-.4-.2-.5-.5-.5-.1 0-.4.4-1 .7zm-.1-2c0-1.2-2.5-1.2-2.5-3.1 0-.5.3-1.2.9-2.1.2 1.4.8 2.1 2 2.6 2.4.9 2.7 2.2 2.7 3.7 0 2.4-1.7 5.5-6.1 5.5-3.5 0-6.1-3.1-6.1-5.8 0-.7.2-1.5.7-1.5.4 0 .5.3.9.6 1.2 1.2 2.6 1.5 4.5 1.5 1.7.1 3-.6 3-1.4M125 61.1c.1.6-.3 1.1-.9 1.1-.6.1-1.1-.3-1.1-.9-.1-.6.3-1.1.9-1.1s1 .4 1.1.9zm-5.1 1.1c.1.9 1 1.6 2 1.5.4 0 .7-.1.9-.3.2.9.9 1.4 1.9 1.3 1-.1 1.7-.9 1.6-1.9 0-.3-.1-.4-.2-.6h.2c1-.2 1.6-1 1.6-1.9-.1-1-1-1.7-1.9-1.6-.4 0-.7.2-.9.4-.2-.8-1-1.5-2.1-1.3-.9.2-1.6 1-1.5 2 0 .2.1.4.1.5h-.3c-.7 0-1.5.8-1.4 1.9"/>
</svg>
