<svg xmlns="http://www.w3.org/2000/svg" viewBox="0 0 136.94 200.11">
  <path d="M48.27 66.92h19.98c4.86 0 11.27 0 14.58 2.01a13.06 13.06 0 0 1 6.48 11.5c0 5.86-3.08 10.26-8.18 12.34v.16c6.79 1.39 10.49 6.48 10.49 13.27 0 8.1-5.79 15.82-16.74 15.82H48.27v-55.1zM55.6 90.6h14.67C78.6 90.6 82 87.59 82 81.8c0-7.64-5.4-8.72-11.73-8.72H55.6V90.6zm0 25.23h18.37c6.32 0 10.34-3.86 10.34-9.87 0-7.18-5.79-9.18-11.96-9.18H55.6v19.05z"/>
  <path d="M110.37 94.48a41.9 41.9 0 1 1-83.8 0 41.9 41.9 0 0 1 83.8 0zM68.47 46.2a48.26 48.26 0 1 0 0 96.53 48.26 48.26 0 0 0 0-96.53zM20.3 152.91h96.33v6.33H20.3zm93.32-6.97.34-.01c.1-.01.2-.03.28-.06.09-.04.15-.1.2-.17a.57.57 0 0 0 .07-.31.51.51 0 0 0-.06-.27.35.35 0 0 0-.17-.15.75.75 0 0 0-.24-.08l-.27-.01h-.69v1.07h.54zm.23-1.5c.4 0 .69.08.89.24.19.16.29.4.29.73 0 .31-.09.52-.25.67-.17.14-.38.22-.64.25l.96 1.48h-.56l-.92-1.45h-.55v1.45h-.53v-3.36h1.31zm-2.36 2.65a2.34 2.34 0 0 0 1.25 1.31c.28.12.6.18.93.18.34 0 .65-.06.93-.18.29-.13.54-.3.75-.52.21-.22.38-.48.49-.79a2.58 2.58 0 0 0-.49-2.72 2.38 2.38 0 0 0-1.68-.7 2.38 2.38 0 0 0-1.68.7 2.54 2.54 0 0 0-.68 1.75c-.01.34.05.67.18.97m-.48-2.11a2.84 2.84 0 0 1 2.65-1.72 2.88 2.88 0 0 1 2.65 1.72c.16.35.23.73.23 1.14a2.82 2.82 0 0 1-2.88 2.88c-.39 0-.76-.07-1.11-.21a2.74 2.74 0 0 1-.92-.61 2.82 2.82 0 0 1-.84-2.06c-.01-.41.06-.79.22-1.14m-79.03-120a4 4 0 0 0-3.36-1.84 4.09 4.09 0 0 0-3.66 1.84c-.37.56-.65 1.2-.82 1.92a9.63 9.63 0 0 0-.26 2.22c0 .73.08 1.44.26 2.13.17.69.44 1.31.82 1.87a4.15 4.15 0 0 0 3.66 1.83c1.17 0 2.09-.36 2.74-1.07a5 5 0 0 0 1.21-2.83h3.71a8.83 8.83 0 0 1-.76 2.95 6.95 6.95 0 0 1-3.95 3.66 8.7 8.7 0 0 1-2.95.49 8.86 8.86 0 0 1-3.6-.7 7.64 7.64 0 0 1-2.7-1.92 8.46 8.46 0 0 1-1.68-2.87c-.39-1.1-.59-2.28-.59-3.55 0-1.3.19-2.51.59-3.62a8.64 8.64 0 0 1 1.68-2.91 7.62 7.62 0 0 1 2.7-1.95 8.8 8.8 0 0 1 3.6-.71c.96 0 1.87.14 2.72.41.85.28 1.62.68 2.29 1.21a6.62 6.62 0 0 1 2.5 4.64h-3.71a3.1 3.1 0 0 0-.44-1.2zm9.29 9.74c.52.5 1.27.76 2.24.76.7 0 1.3-.17 1.81-.52.5-.35.81-.72.93-1.11h3.05a5.82 5.82 0 0 1-2.25 3.25 6.62 6.62 0 0 1-3.66.98c-.99 0-1.89-.16-2.68-.48a5.73 5.73 0 0 1-3.31-3.45 7.69 7.69 0 0 1-.45-2.68c0-.94.15-1.82.46-2.63a6.19 6.19 0 0 1 5.98-4.02 5.58 5.58 0 0 1 4.77 2.29 7 7 0 0 1 1.11 2.39c.23.89.31 1.83.24 2.81h-9.1c.05 1.09.33 1.91.86 2.41zm3.91-6.63c-.42-.45-1.05-.68-1.89-.68a2.7 2.7 0 0 0-2.26.97c-.22.28-.37.57-.46.88-.09.31-.14.58-.16.83h5.64a3.9 3.9 0 0 0-.87-2zm9.19-2.96v2.34h.05a4.23 4.23 0 0 1 1.61-1.94 4.16 4.16 0 0 1 2.42-.74c.23 0 .48.04.76.12v3.22a6.08 6.08 0 0 0-.59-.08c-.23-.02-.45-.04-.66-.04-.63 0-1.17.11-1.61.32-.44.21-.79.5-1.06.87s-.46.79-.57 1.28a7.25 7.25 0 0 0-.17 1.59v5.69h-3.46V25.13h3.28zm14.1 0v2.32h-2.54v6.25c0 .59.1.98.29 1.17.19.19.59.29 1.17.29l.56-.02a7 7 0 0 0 .51-.07v2.68a18.94 18.94 0 0 1-2.03.13c-.54 0-1.05-.04-1.52-.11a3.4 3.4 0 0 1-1.27-.43 2.29 2.29 0 0 1-.87-.9c-.21-.39-.32-.9-.32-1.54v-7.44h-2.1v-2.32h2.1v-3.78h3.46v3.78h2.56zm2.02-1.95v-2.86h3.46v2.86h-3.46zm3.46 1.95v12.61h-3.46V25.13h3.46zm1.38 2.32v-2.32h2.07v-.98a3.8 3.8 0 0 1 1.05-2.76c.7-.72 1.76-1.07 3.17-1.07.31 0 .62.01.93.04l.9.06v2.59c-.41-.05-.83-.07-1.27-.07-.47 0-.81.11-1.01.33-.2.22-.3.59-.3 1.11v.76h2.39v2.32h-2.39v10.3H77.4v-10.3h-2.07zm10.27-4.27v-2.86h3.46v2.86H85.6zm3.47 1.95v12.61H85.6V25.13h3.47zm5.46 9.59c.52.5 1.27.76 2.24.76.7 0 1.3-.17 1.81-.52.5-.35.81-.72.93-1.11h3.05a5.86 5.86 0 0 1-2.24 3.25 6.62 6.62 0 0 1-3.66.98c-.99 0-1.89-.16-2.68-.48a5.73 5.73 0 0 1-3.31-3.45 7.69 7.69 0 0 1-.45-2.68c0-.94.16-1.82.46-2.63a6 6 0 0 1 3.36-3.53 6.55 6.55 0 0 1 2.62-.51 5.58 5.58 0 0 1 4.77 2.29 7 7 0 0 1 1.11 2.39c.23.89.31 1.83.25 2.81h-9.1c.04 1.11.32 1.93.84 2.43zm3.92-6.63c-.41-.45-1.05-.68-1.89-.68a2.7 2.7 0 0 0-2.26.97c-.22.28-.37.57-.46.88-.09.31-.14.58-.16.83h5.63a3.99 3.99 0 0 0-.86-2zm14.85 8.05a3.61 3.61 0 0 1-1.6 1.48c-.66.3-1.4.45-2.23.45-.94 0-1.77-.18-2.49-.55a4.94 4.94 0 0 1-1.77-1.49 7 7 0 0 1-1.05-2.16 8.9 8.9 0 0 1 0-4.99c.23-.79.59-1.48 1.05-2.09a5.14 5.14 0 0 1 4.18-2c.75 0 1.46.16 2.13.48a3.7 3.7 0 0 1 1.6 1.4h.05v-6.34h3.46v17.42h-3.29v-1.61h-.04zm-.15-6.24c-.1-.48-.26-.9-.5-1.27s-.54-.66-.92-.89c-.37-.23-.85-.34-1.41-.34s-1.05.11-1.44.34c-.39.23-.7.53-.94.9-.23.37-.4.8-.51 1.28a6.7 6.7 0 0 0 .01 2.96c.11.49.3.92.55 1.31.25.38.57.69.95.93.38.24.84.35 1.38.35.57 0 1.04-.11 1.43-.34.38-.23.69-.53.92-.92.23-.38.39-.82.49-1.3a7.5 7.5 0 0 0-.01-3.01zm-84.4 141.77c-.17-1.22-1.34-2.15-2.68-2.15-2.42 0-3.33 2.06-3.33 4.21 0 2.04.91 4.1 3.33 4.1 1.65 0 2.58-1.13 2.78-2.75h2.62c-.28 3.06-2.39 5.02-5.4 5.02-3.8 0-6.03-2.84-6.03-6.37 0-3.64 2.23-6.48 6.03-6.48 2.7 0 4.96 1.58 5.29 4.42h-2.61zm8.35-.98c2.8 0 4.6 1.85 4.6 4.69 0 2.82-1.8 4.67-4.6 4.67-2.78 0-4.59-1.86-4.59-4.67 0-2.83 1.81-4.69 4.59-4.69zm0 7.53c1.67 0 2.16-1.43 2.16-2.83 0-1.43-.5-2.85-2.16-2.85-1.65 0-2.15 1.43-2.15 2.85 0 1.4.5 2.83 2.15 2.83zm6.11-7.3h2.32v1.65h.04a3.13 3.13 0 0 1 2.84-1.89c.17 0 .38.03.53.08v2.27a4.71 4.71 0 0 0-.88-.08c-1.79 0-2.41 1.29-2.41 2.85v4h-2.44v-8.88zm6.68.01h2.32v1.13h.03a2.95 2.95 0 0 1 2.64-1.37c2.79 0 4.04 2.25 4.04 4.77 0 2.37-1.3 4.59-3.9 4.59a3.14 3.14 0 0 1-2.66-1.34h-.04v4.23h-2.44v-12.01zm6.59 4.47c0-1.41-.57-2.87-2.13-2.87-1.6 0-2.11 1.43-2.11 2.87 0 1.44.55 2.82 2.13 2.82 1.6 0 2.11-1.38 2.11-2.82zm7.79-4.71c2.8 0 4.61 1.85 4.61 4.69 0 2.82-1.81 4.67-4.61 4.67-2.78 0-4.58-1.86-4.58-4.67 0-2.83 1.8-4.69 4.58-4.69zm0 7.53c1.67 0 2.17-1.43 2.17-2.83 0-1.43-.5-2.85-2.17-2.85-1.65 0-2.15 1.43-2.15 2.85.01 1.4.51 2.83 2.15 2.83zm6.12-7.3h2.32v1.65h.04a3.13 3.13 0 0 1 2.83-1.89c.17 0 .38.03.53.08v2.27a4.56 4.56 0 0 0-.88-.08c-1.79 0-2.41 1.29-2.41 2.85v4h-2.44v-8.88zm6.44 2.74c.14-2.29 2.18-2.97 4.18-2.97 1.77 0 3.9.39 3.9 2.52v4.62c0 .81.08 1.61.31 1.98h-2.48a3.64 3.64 0 0 1-.17-.86c-.77.81-1.9 1.1-2.99 1.1-1.68 0-3.02-.84-3.02-2.66 0-2.01 1.51-2.49 3.02-2.7 1.5-.22 2.89-.17 2.89-1.17 0-1.05-.73-1.2-1.58-1.2-.93 0-1.53.38-1.62 1.34h-2.44zm5.63 1.81c-.42.36-1.27.38-2.03.52-.76.15-1.44.41-1.44 1.31 0 .91.7 1.13 1.5 1.13 1.9 0 1.98-1.51 1.98-2.04v-.92zm7.37-4.54h1.79v1.63h-1.79v4.4c0 .83.21 1.03 1.03 1.03.26 0 .5-.02.76-.07v1.91c-.41.07-.95.09-1.43.09-1.49 0-2.8-.35-2.8-2.11v-5.24h-1.48v-1.63h1.48v-2.66h2.44v2.65zm6.07-1.37h-2.44v-2.01h2.44v2.01zm-2.44 1.37h2.44v8.88h-2.44v-8.88zm8.66-.24c2.8 0 4.61 1.85 4.61 4.69 0 2.82-1.81 4.67-4.61 4.67-2.78 0-4.58-1.86-4.58-4.67 0-2.83 1.8-4.69 4.58-4.69zm0 7.53c1.67 0 2.17-1.43 2.17-2.83 0-1.43-.5-2.85-2.17-2.85-1.65 0-2.15 1.43-2.15 2.85 0 1.4.5 2.83 2.15 2.83zm6.18-7.29h2.32v1.24h.05c.62-1 1.68-1.48 2.72-1.48 2.59 0 3.25 1.46 3.25 3.66v5.46h-2.44v-5.02c0-1.46-.43-2.18-1.56-2.18-1.33 0-1.89.74-1.89 2.55v4.66h-2.44v-8.89z"/>
</svg>
