<svg xmlns="http://www.w3.org/2000/svg" viewBox="0 0 136.94 200.11" style="enable-background:new 0 0 136.94 200.11" xml:space="preserve"><path d="M48.27 66.92h19.98c4.86 0 11.27 0 14.58 2.01 3.63 2.16 6.48 6.09 6.48 11.5 0 5.86-3.08 10.26-8.18 12.34v.16c6.79 1.39 10.49 6.48 10.49 13.27 0 8.1-5.79 15.82-16.74 15.82H48.27v-55.1zM55.6 90.6h14.67C78.6 90.6 82 87.59 82 81.8c0-7.64-5.4-8.72-11.73-8.72H55.6V90.6zm0 25.23h18.37c6.32 0 10.34-3.86 10.34-9.87 0-7.18-5.79-9.18-11.96-9.18H55.6v19.05z"/><path d="M110.37 94.48c0 23.14-18.76 41.9-41.91 41.9-23.14 0-41.9-18.76-41.9-41.9 0-23.14 18.76-41.9 41.9-41.9 23.15.01 41.91 18.77 41.91 41.9zM68.47 46.2c-26.65 0-48.26 21.61-48.26 48.26s21.61 48.26 48.26 48.26c26.66 0 48.27-21.61 48.27-48.26S95.13 46.2 68.47 46.2zM20.3 152.91h96.33v6.33H20.3zM113.62 145.94c.12 0 .23-.01.34-.01.1-.01.2-.03.28-.06.09-.04.15-.1.2-.17a.57.57 0 0 0 .07-.31c0-.11-.02-.21-.06-.27a.353.353 0 0 0-.17-.15.752.752 0 0 0-.24-.08c-.09-.01-.17-.01-.27-.01h-.69v1.07h.54zm.23-1.5c.4 0 .69.08.89.24.19.16.29.4.29.73 0 .31-.09.52-.25.67-.17.14-.38.22-.64.25l.96 1.48h-.56l-.92-1.45h-.55v1.45h-.53v-3.36h1.31zm-2.36 2.65c.11.3.28.57.5.79.21.22.46.39.75.52.28.12.6.18.93.18.34 0 .65-.06.93-.18.29-.13.54-.3.75-.52.21-.22.38-.48.49-.79.12-.3.19-.62.19-.97s-.06-.67-.19-.97c-.12-.3-.29-.56-.49-.78a2.377 2.377 0 0 0-1.68-.7 2.377 2.377 0 0 0-1.68.7c-.22.22-.38.48-.5.78-.12.3-.18.61-.18.97-.01.34.05.67.18.97m-.48-2.11c.15-.35.36-.64.62-.9s.57-.45.92-.6c.35-.15.73-.22 1.11-.22.4 0 .77.07 1.13.22.34.15.65.34.9.6.26.26.48.56.62.9.16.35.23.73.23 1.14 0 .41-.07.79-.23 1.14-.15.36-.36.66-.62.92-.26.27-.56.46-.9.61-.36.14-.73.21-1.13.21-.39 0-.76-.07-1.11-.21a2.74 2.74 0 0 1-.92-.61c-.26-.26-.47-.56-.62-.92-.16-.35-.22-.73-.22-1.14-.01-.41.06-.79.22-1.14M31.98 24.98c-.23-.37-.51-.69-.85-.96-.34-.28-.73-.49-1.16-.65-.43-.15-.88-.23-1.35-.23-.86 0-1.59.17-2.2.5-.6.33-1.09.78-1.46 1.34-.37.56-.65 1.2-.82 1.92a9.63 9.63 0 0 0-.26 2.22c0 .73.08 1.44.26 2.13.17.69.44 1.31.82 1.87.37.55.86 1 1.46 1.33.6.33 1.33.5 2.2.5 1.17 0 2.09-.36 2.74-1.07.66-.72 1.06-1.66 1.21-2.83h3.71c-.1 1.09-.35 2.07-.76 2.95-.41.88-.94 1.63-1.61 2.24-.67.62-1.45 1.09-2.34 1.42-.89.32-1.88.49-2.95.49-1.33 0-2.53-.23-3.6-.7a7.64 7.64 0 0 1-2.7-1.92c-.73-.81-1.29-1.77-1.68-2.87-.39-1.1-.59-2.28-.59-3.55 0-1.3.19-2.51.59-3.62.39-1.11.95-2.09 1.68-2.91.73-.83 1.63-1.48 2.7-1.95 1.06-.47 2.26-.71 3.6-.71.96 0 1.87.14 2.72.41.85.28 1.62.68 2.29 1.21.67.53 1.23 1.18 1.67 1.96.44.78.72 1.68.83 2.68h-3.71c-.07-.44-.21-.84-.44-1.2zM41.27 34.72c.52.5 1.27.76 2.24.76.7 0 1.3-.17 1.81-.52.5-.35.81-.72.93-1.11h3.05c-.49 1.51-1.24 2.6-2.25 3.25-1.01.65-2.23.98-3.66.98-.99 0-1.89-.16-2.68-.48-.8-.32-1.47-.77-2.03-1.35-.55-.58-.98-1.28-1.28-2.1-.3-.81-.45-1.71-.45-2.68 0-.94.15-1.82.46-2.63.31-.81.75-1.52 1.32-2.11.57-.59 1.25-1.06 2.04-1.4.79-.34 1.66-.51 2.62-.51 1.07 0 2.01.21 2.81.62.8.42 1.45.97 1.96 1.67s.88 1.5 1.11 2.39c.23.89.31 1.83.24 2.81h-9.1c.05 1.09.33 1.91.86 2.41zm3.91-6.63c-.42-.45-1.05-.68-1.89-.68-.55 0-1.01.09-1.38.28-.37.19-.66.42-.88.69-.22.28-.37.57-.46.88-.09.31-.14.58-.16.83h5.64c-.16-.88-.45-1.55-.87-2zM54.37 25.13v2.34h.05c.16-.39.38-.75.66-1.09.28-.33.59-.62.95-.85.36-.23.74-.42 1.15-.55.41-.13.83-.19 1.27-.19.23 0 .48.04.76.12v3.22c-.16-.03-.36-.06-.59-.08-.23-.02-.45-.04-.66-.04-.63 0-1.17.11-1.61.32-.44.21-.79.5-1.06.87s-.46.79-.57 1.28c-.11.49-.17 1.02-.17 1.59v5.69h-3.46V25.13h3.28zM68.47 25.13v2.32h-2.54v6.25c0 .59.1.98.29 1.17.19.19.59.29 1.17.29.2 0 .38-.01.56-.02.18-.02.35-.04.51-.07v2.68c-.29.05-.62.08-.98.1-.36.02-.71.03-1.05.03-.54 0-1.05-.04-1.52-.11-.48-.07-.9-.21-1.27-.43-.37-.21-.65-.51-.87-.9-.21-.39-.32-.9-.32-1.54v-7.44h-2.1v-2.32h2.1v-3.78h3.46v3.78h2.56zM70.49 23.18v-2.86h3.46v2.86h-3.46zm3.46 1.95v12.61h-3.46V25.13h3.46zM75.33 27.45v-2.32h2.07v-.98c0-1.12.35-2.04 1.05-2.76.7-.72 1.76-1.07 3.17-1.07.31 0 .62.01.93.04.31.02.61.05.9.06v2.59c-.41-.05-.83-.07-1.27-.07-.47 0-.81.11-1.01.33-.2.22-.3.59-.3 1.11v.76h2.39v2.32h-2.39v10.3H77.4v-10.3h-2.07zM85.6 23.18v-2.86h3.46v2.86H85.6zm3.47 1.95v12.61H85.6V25.13h3.47zM94.53 34.72c.52.5 1.27.76 2.24.76.7 0 1.3-.17 1.81-.52.5-.35.81-.72.93-1.11h3.05c-.49 1.51-1.24 2.6-2.24 3.25-1.01.65-2.23.98-3.66.98-.99 0-1.89-.16-2.68-.48-.8-.32-1.47-.77-2.03-1.35-.55-.58-.98-1.28-1.28-2.1-.3-.81-.45-1.71-.45-2.68 0-.94.16-1.82.46-2.63.31-.84.75-1.54 1.32-2.13.57-.59 1.25-1.06 2.04-1.4.79-.34 1.66-.51 2.62-.51 1.07 0 2.01.21 2.81.62.8.42 1.45.97 1.96 1.67s.88 1.5 1.11 2.39c.23.89.31 1.83.25 2.81h-9.1c.04 1.11.32 1.93.84 2.43zm3.92-6.63c-.41-.45-1.05-.68-1.89-.68-.55 0-1.01.09-1.38.28-.37.19-.66.42-.88.69-.22.28-.37.57-.46.88-.09.31-.14.58-.16.83h5.63c-.16-.88-.45-1.55-.86-2zM113.3 36.14c-.41.68-.94 1.18-1.6 1.48-.66.3-1.4.45-2.23.45-.94 0-1.77-.18-2.49-.55-.72-.37-1.31-.86-1.77-1.49-.46-.63-.81-1.35-1.05-2.16s-.35-1.66-.35-2.54c0-.85.12-1.66.35-2.45.23-.79.59-1.48 1.05-2.09.46-.6 1.05-1.09 1.74-1.45.7-.37 1.51-.55 2.44-.55.75 0 1.46.16 2.13.48.68.32 1.21.78 1.6 1.4h.05v-6.34h3.46v17.42h-3.29v-1.61h-.04zm-.15-6.24c-.1-.48-.26-.9-.5-1.27s-.54-.66-.92-.89c-.37-.23-.85-.34-1.41-.34s-1.05.11-1.44.34c-.39.23-.7.53-.94.9-.23.37-.4.8-.51 1.28a6.696 6.696 0 0 0 .01 2.96c.11.49.3.92.55 1.31.25.38.57.69.95.93.38.24.84.35 1.38.35.57 0 1.04-.11 1.43-.34.38-.23.69-.53.92-.92.23-.38.39-.82.49-1.3.1-.49.15-.99.15-1.51-.01-.52-.06-1.02-.16-1.5zM28.75 171.67c-.17-1.22-1.34-2.15-2.68-2.15-2.42 0-3.33 2.06-3.33 4.21 0 2.04.91 4.1 3.33 4.1 1.65 0 2.58-1.13 2.78-2.75h2.62c-.28 3.06-2.39 5.02-5.4 5.02-3.8 0-6.03-2.84-6.03-6.37 0-3.64 2.23-6.48 6.03-6.48 2.7 0 4.96 1.58 5.29 4.42h-2.61zM37.1 170.69c2.8 0 4.6 1.85 4.6 4.69 0 2.82-1.8 4.67-4.6 4.67-2.78 0-4.59-1.86-4.59-4.67 0-2.83 1.81-4.69 4.59-4.69zm0 7.53c1.67 0 2.16-1.43 2.16-2.83 0-1.43-.5-2.85-2.16-2.85-1.65 0-2.15 1.43-2.15 2.85 0 1.4.5 2.83 2.15 2.83zM43.21 170.92h2.32v1.65h.04c.44-1.12 1.65-1.89 2.84-1.89.17 0 .38.03.53.08v2.27c-.23-.05-.59-.08-.88-.08-1.79 0-2.41 1.29-2.41 2.85v4h-2.44v-8.88zM49.89 170.93h2.32v1.13h.03c.58-.94 1.54-1.37 2.64-1.37 2.79 0 4.04 2.25 4.04 4.77 0 2.37-1.3 4.59-3.9 4.59-1.06 0-2.08-.46-2.66-1.34h-.04v4.23h-2.44v-12.01zm6.59 4.47c0-1.41-.57-2.87-2.13-2.87-1.6 0-2.11 1.43-2.11 2.87 0 1.44.55 2.82 2.13 2.82 1.6 0 2.11-1.38 2.11-2.82zM64.27 170.69c2.8 0 4.61 1.85 4.61 4.69 0 2.82-1.81 4.67-4.61 4.67-2.78 0-4.58-1.86-4.58-4.67 0-2.83 1.8-4.69 4.58-4.69zm0 7.53c1.67 0 2.17-1.43 2.17-2.83 0-1.43-.5-2.85-2.17-2.85-1.65 0-2.15 1.43-2.15 2.85.01 1.4.51 2.83 2.15 2.83zM70.39 170.92h2.32v1.65h.04c.44-1.12 1.65-1.89 2.83-1.89.17 0 .38.03.53.08v2.27c-.22-.05-.58-.08-.88-.08-1.79 0-2.41 1.29-2.41 2.85v4h-2.44v-8.88zM76.83 173.66c.14-2.29 2.18-2.97 4.18-2.97 1.77 0 3.9.39 3.9 2.52v4.62c0 .81.08 1.61.31 1.98h-2.48c-.08-.28-.16-.57-.17-.86-.77.81-1.9 1.1-2.99 1.1-1.68 0-3.02-.84-3.02-2.66 0-2.01 1.51-2.49 3.02-2.7 1.5-.22 2.89-.17 2.89-1.17 0-1.05-.73-1.2-1.58-1.2-.93 0-1.53.38-1.62 1.34h-2.44zm5.63 1.81c-.42.36-1.27.38-2.03.52-.76.15-1.44.41-1.44 1.31 0 .91.7 1.13 1.5 1.13 1.9 0 1.98-1.51 1.98-2.04v-.92zM89.83 170.93h1.79v1.63h-1.79v4.4c0 .83.21 1.03 1.03 1.03.26 0 .5-.02.76-.07v1.91c-.41.07-.95.09-1.43.09-1.49 0-2.8-.35-2.8-2.11v-5.24h-1.48v-1.63h1.48v-2.66h2.44v2.65zM95.9 169.56h-2.44v-2.01h2.44v2.01zm-2.44 1.37h2.44v8.88h-2.44v-8.88zM102.12 170.69c2.8 0 4.61 1.85 4.61 4.69 0 2.82-1.81 4.67-4.61 4.67-2.78 0-4.58-1.86-4.58-4.67 0-2.83 1.8-4.69 4.58-4.69zm0 7.53c1.67 0 2.17-1.43 2.17-2.83 0-1.43-.5-2.85-2.17-2.85-1.65 0-2.15 1.43-2.15 2.85 0 1.4.5 2.83 2.15 2.83zM108.3 170.93h2.32v1.24h.05c.62-1 1.68-1.48 2.72-1.48 2.59 0 3.25 1.46 3.25 3.66v5.46h-2.44v-5.02c0-1.46-.43-2.18-1.56-2.18-1.33 0-1.89.74-1.89 2.55v4.66h-2.44v-8.89z"/></svg>
