<svg xmlns="http://www.w3.org/2000/svg" xmlns:xlink="http://www.w3.org/1999/xlink" width="202.941" height="153.49"><path d="M137.57 65.36H20.958V20.943H137.57zM23.478 62.84H135.05V23.463H23.478zm146.536 45.94H10.478v-98.3h159.536zm-157.016-2.52h154.5V13h-154.5zM202.94 153.5H0V0h202.94zM2.52 150.97h197.9V2.525H2.52z"/><g fill-rule="evenodd"><use xlink:href="#a"/><use xlink:href="#b"/><path d="M72.176 34.562h14.1v2.557h-5.643V52.83h-2.818V37.12h-5.643z"/><use xlink:href="#c"/><use xlink:href="#d"/><use xlink:href="#e"/><path d="M48.445 95.195h2.818v-18.27h-2.818z"/><use xlink:href="#f"/><path d="M87.358 95.195h2.818v-18.27h-2.818zm10.992-18.27h14.1v2.557h-5.64v15.712h-2.818V79.483H98.35z"/><use xlink:href="#g"/><path d="M142.375 76.926h2.818V92.69h9.168v2.506h-11.986z"/><use xlink:href="#h"/><use xlink:href="#i"/><path d="M66.81 120.265h12.012v2.506H69.63v5.062h8.463v2.506H69.63v5.69h9.27v2.506H66.8z"/><use xlink:href="#j"/><use xlink:href="#k"/><path d="M139.777 138.533h2.818v-18.268h-2.818z"/><use xlink:href="#l"/><path d="M182.118 127.937c3.94.757 5.9 2.4 5.9 5.454 0 2.95-2.558 5.508-6.687 5.508-4.36 0-6.892-2.506-7.493-5.767l2.48-1.278c.518 3 2.217 4.593 4.988 4.593 2.427 0 3.89-1.332 3.89-2.95 0-1.907-1.512-2.743-4.647-3.34-3.394-.654-5.875-2.3-5.875-5.377 0-2.9 2.585-4.88 6.265-4.88a6.71 6.71 0 0 1 6.764 4.542l-2.244 1.3a4.505 4.505 0 0 0-4.547-3.394c-1.93 0-3.577.812-3.577 2.377 0 1.644 1.568 2.584 4.78 3.21"/></g><path d="M137.57 65.36H20.958V20.943H137.57zM23.478 62.84H135.05V23.463H23.478zm146.536 45.94H10.478v-98.3h159.536zm-157.016-2.52h154.5V13h-154.5z"/><g fill-rule="evenodd"><use xlink:href="#a"/><use xlink:href="#b"/><path d="M72.176 34.562h14.1v2.557h-5.643V52.83h-2.818V37.12h-5.643z"/><use xlink:href="#c"/><use xlink:href="#d"/><use xlink:href="#e"/><path d="M48.445 95.195h2.818v-18.27h-2.818z"/><use xlink:href="#f"/><path d="M87.358 95.195h2.818v-18.27h-2.818zm10.992-18.27h14.1v2.557h-5.64v15.712h-2.818V79.483H98.35z"/><use xlink:href="#g"/><path d="M142.375 76.926h2.818V92.69h9.168v2.506h-11.986z"/><use xlink:href="#h"/><use xlink:href="#i"/><path d="M66.81 120.265h12.012v2.506H69.63v5.062h8.463v2.506H69.63v5.69h9.27v2.506H66.8z"/><use xlink:href="#j"/><use xlink:href="#k"/><path d="M139.777 138.533h2.818v-18.268h-2.818z"/><use xlink:href="#l"/></g><defs><path id="a" d="M46.606 43.696c0-4.465-2.74-6.578-6.712-6.578h-2.507v13.156h2.507c3.97 0 6.712-2.114 6.712-6.578zm-12.04-9.135h5.274c5.566 0 9.64 3.16 9.64 9.135s-4.075 9.134-9.64 9.134h-5.274z"/><path id="b" d="M68.37 46.33c0 4.4-3 6.865-7.132 6.865S54.11 50.74 54.11 46.33V34.563h2.82v11.69a4.076 4.076 0 0 0 4.308 4.38 4.08 4.08 0 0 0 4.315-4.382v-11.69h2.818z"/><path id="c" d="M105.836 48.393c-1.9 3.106-4.05 4.8-8 4.8-5.2 0-9.062-3.917-9.062-9.5a9.145 9.145 0 0 1 9.192-9.5 8.27 8.27 0 0 1 7.81 4.724l-2.244 1.617c-1.308-2.53-3.11-3.784-5.616-3.784-3.448 0-6.27 2.922-6.27 6.944 0 3.966 2.636 6.94 6.244 6.94 2.454 0 4.385-1.174 5.77-3.783z"/><path id="d" d="M110.52 34.562h2.816v7.672h8.514v-7.672h2.825v18.27h-2.825v-8.04h-8.514v8.04h-2.818z"/><path id="e" d="M36.373 86.06c0-4.464-2.74-6.578-6.71-6.578h-2.508v13.16h2.508c3.97 0 6.71-2.113 6.71-6.578zm-12.04-9.134h5.274c5.565 0 9.64 3.16 9.64 9.134s-4.075 9.134-9.64 9.134h-5.274z"/><path id="f" d="M75.017 92.376a6.157 6.157 0 0 1-5.694 3.184c-5.146 0-8.91-3.992-8.91-9.5a9.235 9.235 0 0 1 9.219-9.5 8.523 8.523 0 0 1 7.786 4.464l-2.144 1.487a6.167 6.167 0 0 0-5.694-3.446c-3.42 0-6.292 2.74-6.292 6.994 0 4.15 2.48 6.942 6.084 6.942 3.316 0 4.99-2.114 5.383-4.957H68.59V85.72h8.984v9.473h-1.878z"/><path id="g" d="m124.954 81.885-2.222 5.77h5.694l-2.217-5.77-.627-1.748-.628 1.748zm-.784-4.958h2.825l7.3 18.27h-2.977l-1.962-5.09h-7.578l-1.958 5.09h-2.978z"/><path id="h" d="M22.945 125.223 20.723 131h5.694l-2.222-5.77-.627-1.748-.623 1.748zm-.785-4.958h2.82l7.314 18.27h-2.98l-1.958-5.09h-7.574l-1.958 5.09h-2.977z"/><path id="i" d="M53.884 135.714a6.15 6.15 0 0 1-5.694 3.184c-5.145 0-8.908-3.992-8.908-9.5a9.236 9.236 0 0 1 9.218-9.5 8.542 8.542 0 0 1 7.787 4.464l-2.143 1.487a6.17 6.17 0 0 0-5.694-3.446c-3.42 0-6.293 2.74-6.293 7 0 4.15 2.48 6.94 6.084 6.94 3.317 0 4.99-2.114 5.383-4.956h-6.166v-2.33h8.983v9.474h-1.876z"/><path id="j" d="M88.81 120.264h2.87L99.88 133a14.31 14.31 0 0 1 .785 1.384v-14.12h2.714v18.27h-2.87l-8.2-12.737a13.812 13.812 0 0 1-.782-1.382v14.12H88.8z"/><path id="k" d="M130.21 134.096c-1.9 3.106-4.05 4.8-8 4.8-5.2 0-9.062-3.916-9.062-9.5a9.145 9.145 0 0 1 9.192-9.5 8.27 8.27 0 0 1 7.807 4.726l-2.243 1.618c-1.31-2.53-3.11-3.784-5.616-3.784-3.448 0-6.27 2.922-6.27 6.944 0 3.966 2.636 6.94 6.243 6.94 2.455 0 4.386-1.174 5.77-3.784z"/><path id="l" d="M153.24 120.265h12.012v2.506h-9.195v5.062h8.463v2.506h-8.463v5.69h9.272v2.506h-12.09z"/></defs></svg>
