<svg xmlns="http://www.w3.org/2000/svg" viewBox="0 0 189.56 32">
  <path fill="#070de9" d="M5.04 7.71c-.53 3.04.5 7.32 2.9 11.5 2.42 4.18 5.62 7.21 8.51 8.29v-23c-4.83 0-9.07 1.25-11.43 3.21z"/>
  <path fill="#e9d100" d="M24.93 19.21c2.42-4.18 3.43-8.46 2.93-11.5C25.5 5.77 21.29 4.5 16.43 4.5v23c2.89-1.07 6.1-4.1 8.51-8.29z"/>
  <path fill="#070de9" d="M43.84 7.23a8.42 8.42 0 0 1 3.9.92 7.04 7.04 0 0 1 2.9 2.83 9.34 9.34 0 0 1 1.1 4.74 9.33 9.33 0 0 1-1.1 4.74 7.05 7.05 0 0 1-2.9 2.82 8.42 8.42 0 0 1-3.9.92h-5.31V7.23zm3.07 12.81q1.63-1.24 1.63-4.32t-1.63-4.33a6.5 6.5 0 0 0-4.06-1.25h-1.17V21.3h1.17a6.5 6.5 0 0 0 4.06-1.24zm6.74 1.05a7.56 7.56 0 0 1 0-6 5.53 5.53 0 0 1 1.94-2.37 5.6 5.6 0 0 1 3.31-.93 5.3 5.3 0 0 1 5.1 3.2 7 7 0 0 1 .6 2.84v1.23h-8.41A2.96 2.96 0 0 0 57 21a2.69 2.69 0 0 0 2.07.82 3.01 3.01 0 0 0 1.71-.46 4.18 4.18 0 0 0 1.25-1.43l2.43.9a5.53 5.53 0 0 1-5.56 3.57 5.4 5.4 0 0 1-5.25-3.31zM60.66 15a2.35 2.35 0 0 0-1.76-.65 2.45 2.45 0 0 0-1.77.68 2.94 2.94 0 0 0-.87 1.65h5.26a3.32 3.32 0 0 0-.86-1.68zm13.7-7.78 3.81 12.56 3.8-12.56h3.5l-5.7 16.97h-3.2l-5.7-16.97zm10.26 14.09a6.92 6.92 0 0 1-.74-3.23 6.92 6.92 0 0 1 .74-3.22 5.5 5.5 0 0 1 2.15-2.26 7.1 7.1 0 0 1 6.64 0 5.49 5.49 0 0 1 2.15 2.26 6.9 6.9 0 0 1 .74 3.22 6.9 6.9 0 0 1-.74 3.23 5.48 5.48 0 0 1-2.15 2.25 7.1 7.1 0 0 1-6.64 0 5.49 5.49 0 0 1-2.15-2.25zm8.52-3.23a4.24 4.24 0 0 0-.82-2.65 2.85 2.85 0 0 0-4.46 0 4.24 4.24 0 0 0-.83 2.65 4.25 4.25 0 0 0 .83 2.66 2.85 2.85 0 0 0 4.46 0 4.25 4.25 0 0 0 .82-2.66zm5.28 3.23a6.92 6.92 0 0 1-.74-3.23 6.92 6.92 0 0 1 .73-3.22 5.5 5.5 0 0 1 2.15-2.26 7.1 7.1 0 0 1 6.64 0 5.49 5.49 0 0 1 2.15 2.26 6.9 6.9 0 0 1 .74 3.22 6.9 6.9 0 0 1-.74 3.23 5.48 5.48 0 0 1-2.15 2.25 7.1 7.1 0 0 1-6.64 0 5.48 5.48 0 0 1-2.14-2.25zm8.52-3.23a4.25 4.25 0 0 0-.83-2.65 2.85 2.85 0 0 0-4.46 0 4.25 4.25 0 0 0-.82 2.65 4.25 4.25 0 0 0 .82 2.66 2.85 2.85 0 0 0 4.46 0 4.25 4.25 0 0 0 .83-2.66zm7.66-6.1v1.98a4.85 4.85 0 0 1 1.6-1.61 3.83 3.83 0 0 1 2.01-.57 5.14 5.14 0 0 1 1.48.24l-.56 2.8a2.37 2.37 0 0 0-1.26-.35 2.79 2.79 0 0 0-2.35 1.3 7.16 7.16 0 0 0-.92 4.09v4.33h-3V11.98zm9.4-4.95v6.9a4.68 4.68 0 0 1 1.6-1.56 4.39 4.39 0 0 1 2.27-.59 3.97 3.97 0 0 1 2.8.93 3.55 3.55 0 0 1 1.01 2.75v8.73h-3v-7.66a2.53 2.53 0 0 0-.46-1.65 1.7 1.7 0 0 0-1.37-.53 2.22 2.22 0 0 0-1.38.5 3.58 3.58 0 0 0-1.06 1.56 7.2 7.2 0 0 0-.42 2.62v5.16h-3V7.04zm9.95 14.28a6.92 6.92 0 0 1-.74-3.23 6.92 6.92 0 0 1 .74-3.22 5.5 5.5 0 0 1 2.14-2.26 7.1 7.1 0 0 1 6.65 0 5.5 5.5 0 0 1 2.14 2.26 6.92 6.92 0 0 1 .74 3.22 6.92 6.92 0 0 1-.74 3.23 5.49 5.49 0 0 1-2.14 2.25 7.1 7.1 0 0 1-6.65 0 5.49 5.49 0 0 1-2.14-2.25zm8.52-3.23a4.25 4.25 0 0 0-.82-2.65 2.85 2.85 0 0 0-4.47 0 4.25 4.25 0 0 0-.82 2.65 4.25 4.25 0 0 0 .82 2.66 2.85 2.85 0 0 0 4.47 0 4.25 4.25 0 0 0 .82-2.66zm5.15 3a7.57 7.57 0 0 1 0-6 5.53 5.53 0 0 1 1.94-2.37 5.6 5.6 0 0 1 3.31-.93 5.3 5.3 0 0 1 5.1 3.2 7 7 0 0 1 .6 2.84v1.23h-8.41a2.96 2.96 0 0 0 .8 1.94 2.7 2.7 0 0 0 2.08.82 3.01 3.01 0 0 0 1.71-.46 4.17 4.17 0 0 0 1.25-1.42l2.43.9a5.53 5.53 0 0 1-5.56 3.56 5.6 5.6 0 0 1-3.31-.93 5.54 5.54 0 0 1-1.94-2.38zm7-6.08a2.35 2.35 0 0 0-1.75-.65 2.45 2.45 0 0 0-1.77.68 2.95 2.95 0 0 0-.87 1.65h5.26a3.33 3.33 0 0 0-.86-1.68zm5.43 3.08a7.05 7.05 0 0 1 1.39-4.6 4.8 4.8 0 0 1 3.94-1.7 4.7 4.7 0 0 1 1.9.37 3.25 3.25 0 0 1 1.3.93V7.04h3V24.2h-3v-1.26a2.58 2.58 0 0 1-1.15 1 4.37 4.37 0 0 1-2.05.46 4.8 4.8 0 0 1-3.94-1.71 7.05 7.05 0 0 1-1.4-4.6zm8.8 0a4.3 4.3 0 0 0-.8-2.75 2.48 2.48 0 0 0-2.02-.98 2.51 2.51 0 0 0-2.03.98 4.24 4.24 0 0 0-.8 2.75 4.25 4.25 0 0 0 .8 2.74 2.58 2.58 0 0 0 4.06.02 4.3 4.3 0 0 0 .79-2.76zm4.85 3a7.57 7.57 0 0 1 0-6 5.4 5.4 0 0 1 5.25-3.3 5.3 5.3 0 0 1 5.1 3.2 7 7 0 0 1 .6 2.84v1.23h-8.42a2.96 2.96 0 0 0 .82 1.94 2.69 2.69 0 0 0 2.07.82 3 3 0 0 0 1.71-.46 4.17 4.17 0 0 0 1.25-1.43l2.43.9a5.53 5.53 0 0 1-5.56 3.57 5.4 5.4 0 0 1-5.25-3.31zm7-6.08a2.35 2.35 0 0 0-1.75-.65 2.45 2.45 0 0 0-1.77.68 2.94 2.94 0 0 0-.87 1.65h5.26a3.3 3.3 0 0 0-.86-1.68z"/>
  <path fill="#fff" d="M22.15 8.27A15.88 15.88 0 0 0 20 7.82a7.72 7.72 0 0 1-.04.98 39.2 39.2 0 0 1-.26 2.32 5.89 5.89 0 0 1 1.27.55 6.55 6.55 0 0 1-.22 1.61 10.22 10.22 0 0 1-1.2 2.84 9.52 9.52 0 0 1-1.82 2.45 7.66 7.66 0 0 1-1.3.98 6.57 6.57 0 0 1-1.28-.98 10.52 10.52 0 0 1-1.87-2.45 11.2 11.2 0 0 1-1.2-2.84 5.92 5.92 0 0 1-.18-1.61 4.9 4.9 0 0 1 1.25-.55 43.57 43.57 0 0 1-.25-2.32c0-.35-.03-.68-.05-1-.74.15-1.46.3-2.13.48a11.21 11.21 0 0 0-2.8 1.17 12.16 12.16 0 0 0 .4 3.01 20.75 20.75 0 0 0 2.21 5.32 21.43 21.43 0 0 0 3.5 4.56 12.35 12.35 0 0 0 2.39 1.86 11.6 11.6 0 0 0 2.42-1.85 22.1 22.1 0 0 0 3.5-4.57 20.5 20.5 0 0 0 2.2-5.31 10.97 10.97 0 0 0 .4-3.02 11.9 11.9 0 0 0-2.79-1.17z"/>
</svg>
