<svg xmlns="http://www.w3.org/2000/svg" viewBox="0 0 32 32">
  <g fill="#231f20">
    <path d="M16 20.5a4.5 4.5 0 0 1-3.75-6.99l-3.1-3.1a16.65 16.65 0 0 0-4.94 5.13l-.12.2v.51l.12.2c.16.3 4.18 7.2 11.66 7.2h.25a11.85 11.85 0 0 0 5.11-1.16l-2.74-2.75a4.46 4.46 0 0 1-2.49.75z"/>
    <path d="M17.18 18.44l-3.62-3.62a2.72 2.72 0 0 0 3.62 3.62zM27.78 15.54c-.17-.3-4.18-7.2-11.66-7.2h-.25a11.6 11.6 0 0 0-3.3.49L8.5 4.75 7.24 6l18.75 18.75 1.26-1.26-2.98-2.98a16.66 16.66 0 0 0 3.51-4.06l.12-.24v-.47z"/>
  </g>
</svg>
