<svg xmlns="http://www.w3.org/2000/svg" fill="currentColor" viewBox="0 0 32 32">
  <path d="M19.656 1.445c.266 0 .52.102.707.29l9.903 9.902a1 1 0 0 1 0 1.414c-.961.96-2.145 1.176-3.008 1.176-.356 0-.668-.036-.918-.079l-6.27 6.266c.164.668.274 1.344.32 2.027.09 1.407-.066 3.375-1.44 4.75a1 1 0 0 1-1.415 0l-5.656-5.656-6.363 6.363c-.391.391-2.442 1.805-2.829 1.415-.39-.387 1.024-2.438 1.415-2.829l6.363-6.363-5.656-5.656a1 1 0 0 1 0-1.414c1.375-1.375 3.343-1.535 4.75-1.442.683.047 1.359.157 2.027.32l6.266-6.265a5.612 5.612 0 0 1-.079-.922c0-.86.215-2.043 1.176-3.008.188-.183.442-.289.707-.289Zm0 0"/>
</svg>
