<svg xmlns="http://www.w3.org/2000/svg" viewBox="0 0 32 32">
  <path fill="#070de9" d="M12.42 25.7a13.42 13.42 0 0 0 13.82-13.21l-.01-.6a9.68 9.68 0 0 0 2.42-2.42 10.19 10.19 0 0 1-2.79.74A4.72 4.72 0 0 0 28 7.64a9.91 9.91 0 0 1-3.09 1.12 4.96 4.96 0 0 0-3.54-1.47 4.76 4.76 0 0 0-4.86 4.65 4.97 4.97 0 0 0 .13 1.06A14 14 0 0 1 6.63 8.14a4.5 4.5 0 0 0-.66 2.34 4.61 4.61 0 0 0 2.16 3.87 5.08 5.08 0 0 1-2.2-.58v.06a4.71 4.71 0 0 0 3.9 4.56 5.09 5.09 0 0 1-2.2.08 4.83 4.83 0 0 0 4.55 3.23 10.02 10.02 0 0 1-6.04 1.99A9.83 9.83 0 0 1 5 23.63a14.28 14.28 0 0 0 7.43 2.07"/>
</svg>
