<svg xmlns="http://www.w3.org/2000/svg" viewBox="0 0 124 477"><path fill="#fffed9" d="M118 0a239 239 0 0 0-32 7c-9 3-17 6-23 11a48 48 0 0 0-13 19c-4 7-5 16-5 27l1 25 3 28 2 28 1 26c0 11-1 21-4 28s-7 12-12 16a41 41 0 0 1-17 8 95 95 0 0 1-19 2v24a95 95 0 0 1 19 2 40 40 0 0 1 17 8c5 4 9 9 12 16s4 17 4 28l-1 26-2 29c0 10-2 20-3 29l-1 26c0 11 1 20 5 27a48 48 0 0 0 13 19 64 64 0 0 0 23 11 222 222 0 0 0 32 7l6-23-25-6a61 61 0 0 1-17-6 22 22 0 0 1-8-10c-2-4-3-10-3-17a534 534 0 0 1 3-53 540 540 0 0 0 3-60c0-12-1-21-3-29a62 62 0 0 0-9-18 38 38 0 0 0-13-11 123 123 0 0 0-14-7 123 123 0 0 0 14-7 40 40 0 0 0 13-11 59 59 0 0 0 9-18c2-7 3-17 3-29a519 519 0 0 0-3-58 502 502 0 0 1-3-52l2-17a22 22 0 0 1 9-10c4-2 10-5 17-6l25-6z"/></svg>
