<svg xmlns="http://www.w3.org/2000/svg" viewBox="0 0 124 477">
  <path d="M5.487,477a231.211,231.211,0,0,0,32.371-6.838q13.718-4.1,22.77-11.487A47.105,47.105,0,0,0,74.345,440.35Q79.009,429.409,79.009,413q0-10.941-1.1-24.616t-2.468-28.172q-1.372-14.5-2.469-28.444t-1.1-25.437q0-17.5,4.39-28.171t11.8-16.411A40.087,40.087,0,0,1,104.8,254.09a95.217,95.217,0,0,1,19.2-1.915V227.56a95.29,95.29,0,0,1-19.2-1.915,40.087,40.087,0,0,1-16.735-7.658q-7.407-5.744-11.8-16.411t-4.39-28.171q0-11.487,1.1-25.71T75.443,118.7q1.371-14.771,2.468-28.992T79.009,64q0-16.41-4.664-27.351A47.105,47.105,0,0,0,60.628,18.325q-9.052-7.384-22.77-11.487A231.211,231.211,0,0,0,5.487,0L0,22.428q14.814,3.282,25.239,6.017T41.7,35.009a22.4,22.4,0,0,1,8.779,10.12q2.744,6.291,2.743,16.684a509.657,509.657,0,0,1-3.292,53.608,557.972,557.972,0,0,0-3.292,59.625q0,17.505,3.566,28.718a63.06,63.06,0,0,0,9.054,18.6,38.412,38.412,0,0,0,12.619,11.214,124.143,124.143,0,0,0,14.266,6.564,123.973,123.973,0,0,0-14.266,6.564,39.609,39.609,0,0,0-12.619,10.941A59.185,59.185,0,0,0,50.2,275.971q-3.565,11.214-3.566,28.718a528.047,528.047,0,0,0,3.292,58.531,475.986,475.986,0,0,1,3.292,51.967q0,10.393-2.743,16.684a22.4,22.4,0,0,1-8.779,10.12q-6.034,3.828-16.46,6.564T0,454.572Z" fill="#0000ff"/>
</svg>
