<svg xmlns="http://www.w3.org/2000/svg" preserveAspectRatio="xMin yMid meet" viewBox="0 0 79 301" width="79" height="301"><path fill="#00F" fill-rule="nonzero" d="M74.78 301a145.9 145.9 0 0 1-20.42-4.31c-5.77-1.73-10.56-4.15-14.37-7.25a29.72 29.72 0 0 1-8.66-11.57c-1.96-4.6-2.94-10.35-2.94-17.26 0-4.6.23-9.78.7-15.53.46-5.75.98-11.68 1.55-17.78.58-6.1 1.1-12.08 1.56-17.95.46-5.86.7-11.21.7-16.05 0-7.36-.93-13.28-2.78-17.77-1.84-4.5-4.32-7.94-7.44-10.36a25.3 25.3 0 0 0-10.56-4.83A60.08 60.08 0 0 0 0 159.13V143.6c4.07 0 8.13-.4 12.12-1.21a25.3 25.3 0 0 0 10.56-4.83c3.11-2.42 5.6-5.87 7.44-10.36 1.85-4.49 2.77-10.41 2.77-17.78 0-4.83-.23-10.24-.7-16.22-.45-5.98-.97-12.08-1.55-18.3-.58-6.21-1.1-12.3-1.56-18.3-.46-5.97-.69-11.38-.69-16.21 0-6.9.98-12.66 2.94-17.26 1.9-4.51 4.87-8.48 8.66-11.57 3.8-3.1 8.6-5.52 14.37-7.25A145.9 145.9 0 0 1 74.78 0l3.47 14.15a434.2 434.2 0 0 0-15.93 3.8c-4.38 1.15-7.85 2.53-10.39 4.14a14.14 14.14 0 0 0-5.54 6.39c-1.15 2.64-1.73 6.15-1.73 10.53.1 11.3.8 22.6 2.08 33.82a352.1 352.1 0 0 1 2.08 37.63c0 7.36-.75 13.4-2.25 18.12a39.8 39.8 0 0 1-5.72 11.74 24.24 24.24 0 0 1-7.96 7.07 78.34 78.34 0 0 1-9 4.15 78.23 78.23 0 0 1 9 4.14 25 25 0 0 1 7.96 6.9c2.57 3.5 4.5 7.4 5.72 11.57 1.5 4.71 2.25 10.75 2.25 18.12 0 12.34-.7 24.67-2.08 36.93a300.36 300.36 0 0 0-2.07 32.8c0 4.37.57 7.88 1.73 10.52a14.14 14.14 0 0 0 5.54 6.39c2.53 1.6 6 2.99 10.38 4.14a433.3 433.3 0 0 0 15.93 3.8L74.78 301z"/></svg>
