<svg xmlns="http://www.w3.org/2000/svg" preserveAspectRatio="xMinYMid meet" viewBox="0 0 79 301" width="79" height="301">
<path fill="#fffed9" fill-rule="nonzero" d="M3.5,0c6.9,0.9,13.7,2.4,20.4,4.3c5.8,1.7,10.6,4.1,14.4,7.2c3.8,3.1,6.8,7.1,8.7,11.6c2,4.6,2.9,10.4,2.9,17.3
	c0,4.6-0.2,9.8-0.7,15.5c-0.5,5.8-1,11.7-1.5,17.8C47,79.8,46.5,85.8,46,91.7c-0.5,5.9-0.7,11.2-0.7,16.1c0,7.4,0.9,13.3,2.8,17.8
	c1.8,4.5,4.3,7.9,7.4,10.4c3.1,2.4,6.7,4.1,10.6,4.8c4,0.8,8,1.2,12.1,1.2v15.5c-4.1,0-8.1,0.4-12.1,1.2c-3.8,0.8-7.5,2.4-10.6,4.8
	c-3.1,2.4-5.6,5.9-7.4,10.4c-1.8,4.5-2.8,10.4-2.8,17.8c0,4.8,0.2,10.2,0.7,16.2c0.5,6,1,12.1,1.5,18.3c0.6,6.2,1.1,12.3,1.6,18.3
	c0.5,6,0.7,11.4,0.7,16.2c0,6.9-1,12.7-2.9,17.3c-1.9,4.5-4.9,8.5-8.7,11.6c-3.8,3.1-8.6,5.5-14.4,7.2c-6.7,1.9-13.5,3.4-20.4,4.3
	L0,286.9c5.3-1.2,10.6-2.4,15.9-3.8c4.4-1.1,7.8-2.5,10.4-4.1c2.5-1.5,4.4-3.7,5.5-6.4c1.2-2.6,1.7-6.1,1.7-10.5
	c-0.1-11.3-0.8-22.6-2.1-33.8c-1.4-12.5-2.1-25.1-2.1-37.6c0-7.4,0.8-13.4,2.2-18.1c1.2-4.2,3.2-8.2,5.7-11.7c2.1-2.9,4.8-5.3,8-7.1
	c2.9-1.6,5.9-3,9-4.1c-3.1-1.2-6.1-2.6-9-4.1c-3.1-1.7-5.8-4.1-8-6.9c-2.6-3.5-4.5-7.4-5.7-11.6c-1.5-4.7-2.2-10.8-2.2-18.1
	c0-12.3,0.7-24.7,2.1-36.9c1.3-10.9,2-21.8,2.1-32.8c0-4.4-0.6-7.9-1.7-10.5c-1.2-2.6-3.1-4.9-5.5-6.4c-2.5-1.6-6-3-10.4-4.1
	C10.6,16.6,5.3,15.3,0,14.2L3.5,0z"/>
</svg>
