<svg width="124" height="477" xmlns="http://www.w3.org/2000/svg"><path d="M118.513 477a231.21 231.21 0 0 1-32.371-6.838c-9.145-2.733-16.735-6.562-22.77-11.487a47.105 47.105 0 0 1-13.717-18.325c-3.11-7.294-4.664-16.41-4.664-27.35 0-7.294.367-15.5 1.1-24.616.733-9.117 1.556-18.507 2.468-28.172.915-9.667 1.738-19.148 2.469-28.444.731-9.296 1.098-17.775 1.1-25.437 0-11.667-1.463-21.057-4.39-28.171-2.927-7.114-6.86-12.584-11.8-16.411A40.087 40.087 0 0 0 19.2 254.09 95.217 95.217 0 0 0 0 252.175V227.56a95.29 95.29 0 0 0 19.2-1.915 40.087 40.087 0 0 0 16.735-7.658c4.938-3.83 8.871-9.3 11.8-16.411 2.929-7.111 4.392-16.502 4.39-28.171 0-7.658-.367-16.228-1.1-25.71a1920.263 1920.263 0 0 0-2.468-28.995 1869.925 1869.925 0 0 1-2.468-28.992c-.731-9.48-1.097-18.05-1.098-25.708 0-10.94 1.555-20.057 4.664-27.351a47.105 47.105 0 0 1 13.717-18.324c6.035-4.923 13.625-8.752 22.77-11.487A231.211 231.211 0 0 1 118.513 0L124 22.428c-9.876 2.188-18.289 4.194-25.239 6.017-6.95 1.823-12.437 4.011-16.461 6.564a22.4 22.4 0 0 0-8.779 10.12c-1.83 4.194-2.744 9.755-2.743 16.684a509.657 509.657 0 0 0 3.292 53.608 557.972 557.972 0 0 1 3.292 59.625c0 11.67-1.189 21.243-3.566 28.718a63.06 63.06 0 0 1-9.054 18.6 38.412 38.412 0 0 1-12.619 11.214 124.143 124.143 0 0 1-14.266 6.564 123.973 123.973 0 0 1 14.266 6.564 39.609 39.609 0 0 1 12.619 10.941 59.185 59.185 0 0 1 9.058 18.324c2.377 7.476 3.565 17.049 3.566 28.718a528.047 528.047 0 0 1-3.292 58.531 475.986 475.986 0 0 0-3.292 51.967c0 6.929.914 12.49 2.743 16.684a22.4 22.4 0 0 0 8.779 10.12c4.023 2.552 9.51 4.74 16.46 6.564 6.95 1.824 15.363 3.83 25.236 6.017L118.513 477z" fill="#00F" fill-rule="nonzero"/></svg>
