<svg xmlns="http://www.w3.org/2000/svg" width="79" height="301">
  <path fill="#00F" fill-rule="nonzero" d="M3.46 301c6.9-.95 13.73-2.4 20.43-4.31 5.77-1.73 10.56-4.15 14.37-7.25a29.72 29.72 0 0 0 8.65-11.57c1.97-4.6 2.95-10.35 2.95-17.26 0-4.6-.23-9.78-.7-15.53-.46-5.75-.98-11.68-1.55-17.78-.58-6.1-1.1-12.08-1.56-17.95-.46-5.86-.7-11.21-.7-16.05 0-7.36.93-13.28 2.77-17.77 1.85-4.5 4.33-7.94 7.45-10.36a25.3 25.3 0 0 1 10.56-4.83 60.08 60.08 0 0 1 12.12-1.21V143.6c-4.07 0-8.13-.4-12.12-1.21a25.3 25.3 0 0 1-10.56-4.83c-3.11-2.42-5.6-5.87-7.44-10.36-1.85-4.49-2.78-10.41-2.77-17.78 0-4.83.23-10.24.69-16.22.46-5.98.98-12.08 1.56-18.3.57-6.21 1.1-12.3 1.55-18.3.47-5.97.7-11.38.7-16.21 0-6.9-.98-12.66-2.95-17.26a29.72 29.72 0 0 0-8.65-11.57c-3.81-3.1-8.6-5.52-14.37-7.25A145.9 145.9 0 0 0 3.46 0L0 14.15a434.2 434.2 0 0 1 15.93 3.8c4.38 1.15 7.84 2.53 10.38 4.14a14.14 14.14 0 0 1 5.54 6.39c1.16 2.64 1.73 6.15 1.73 10.53-.1 11.3-.79 22.6-2.07 33.82a352.1 352.1 0 0 0-2.08 37.63c0 7.36.75 13.4 2.25 18.12a39.8 39.8 0 0 0 5.71 11.74 24.24 24.24 0 0 0 7.97 7.07 78.34 78.34 0 0 0 9 4.15 78.23 78.23 0 0 0-9 4.14 25 25 0 0 0-7.97 6.9c-2.56 3.5-4.5 7.4-5.71 11.57-1.5 4.71-2.25 10.75-2.25 18.12 0 12.34.7 24.67 2.07 36.93a300.36 300.36 0 0 1 2.08 32.8c0 4.37-.57 7.88-1.73 10.52a14.14 14.14 0 0 1-5.54 6.39c-2.54 1.6-6 2.99-10.39 4.14A433.3 433.3 0 0 1 0 286.85L3.46 301z"/>
</svg>
