<svg id="Layer_1" data-name="Layer 1" xmlns="http://www.w3.org/2000/svg" viewBox="0 0 187 28"><title>logo</title><g id="Symbols"><g id="appheader_large" data-name="appheader/large"><g id="Group-2"><g id="download"><path id="Shape" d="M.169,4.031C-.483,7.7.766,12.9,3.678,17.96,6.609,23.025,10.48,26.7,13.989,28V.142c-5.861,0-11,1.519-13.857,3.889Z" fill="#070de9"/><path id="Shape-2" data-name="Shape" d="M24.264,17.96C27.2,12.9,28.425,7.7,27.81,4.031,24.952,1.679,19.85.142,13.971.142V28c3.492-1.3,7.381-4.975,10.311-10.04Z" fill="#e9d100"/><path id="Shape-3" data-name="Shape" d="M20.9,4.7a19.494,19.494,0,0,0-2.6-.542,9.092,9.092,0,0,1-.055,1.194c-.072.9-.181,1.863-.307,2.8a7.181,7.181,0,0,1,1.538.67,7.9,7.9,0,0,1-.272,1.953,12.375,12.375,0,0,1-1.447,3.438,11.545,11.545,0,0,1-2.207,2.966,9.21,9.21,0,0,1-1.574,1.194,7.951,7.951,0,0,1-1.556-1.194,12.718,12.718,0,0,1-2.261-2.966,13.561,13.561,0,0,1-1.447-3.438,7.156,7.156,0,0,1-.235-1.953,5.981,5.981,0,0,1,1.519-.67c-.126-.94-.235-1.9-.307-2.8,0-.435-.036-.833-.054-1.212-.905.18-1.773.361-2.587.578A13.631,13.631,0,0,0,3.66,6.129a14.792,14.792,0,0,0,.488,3.655,25.173,25.173,0,0,0,2.678,6.44,25.944,25.944,0,0,0,4.233,5.535A14.931,14.931,0,0,0,13.953,24a14.079,14.079,0,0,0,2.931-2.243,26.773,26.773,0,0,0,4.233-5.535,24.908,24.908,0,0,0,2.677-6.44,13.308,13.308,0,0,0,.488-3.655A14.45,14.45,0,0,0,20.9,4.718Z" fill="#fff"/><path id="Shape-4" data-name="Shape" d="M12.415,17.182a13.11,13.11,0,0,1-2.261-2.948A14.78,14.78,0,0,1,8.707,10.76a7.112,7.112,0,0,1-.235-1.935,7.047,7.047,0,0,1,1.519-.651c-.126-.941-.235-1.9-.289-2.822L9.63,4.14c-.905.18-1.773.361-2.587.578A14.347,14.347,0,0,0,3.66,6.129a14.792,14.792,0,0,0,.488,3.655,26.527,26.527,0,0,0,2.678,6.44,25.944,25.944,0,0,0,4.233,5.535A14.931,14.931,0,0,0,13.953,24V18.394A9.3,9.3,0,0,1,12.415,17.182Z" fill="#fff"/></g></g></g></g><path d="M44.984,7.169a8.416,8.416,0,0,1,3.9.922,7.044,7.044,0,0,1,2.9,2.824,9.334,9.334,0,0,1,1.1,4.74,9.328,9.328,0,0,1-1.1,4.74,7.055,7.055,0,0,1-2.9,2.826,8.427,8.427,0,0,1-3.9.92h-5.31V7.169Zm3.067,12.814q1.636-1.248,1.637-4.328t-1.637-4.328a6.5,6.5,0,0,0-4.061-1.248H42.826V21.232H43.99A6.5,6.5,0,0,0,48.051,19.983Z" fill="#070de9"/><path d="M54.8,21.026a7.564,7.564,0,0,1,0-5.989,5.531,5.531,0,0,1,1.94-2.376,5.6,5.6,0,0,1,3.309-.934,5.3,5.3,0,0,1,5.092,3.2,7,7,0,0,1,.606,2.836V19H57.331a2.96,2.96,0,0,0,.812,1.94,2.689,2.689,0,0,0,2.073.824,3.01,3.01,0,0,0,1.71-.461,4.162,4.162,0,0,0,1.248-1.43l2.425.9a5.532,5.532,0,0,1-5.553,3.565,5.409,5.409,0,0,1-5.249-3.31ZM61.8,14.952a2.347,2.347,0,0,0-1.758-.654,2.448,2.448,0,0,0-1.77.678,2.937,2.937,0,0,0-.872,1.649h5.261A3.317,3.317,0,0,0,61.8,14.952Z" fill="#070de9"/><path d="M75.509,7.169l3.807,12.559L83.122,7.169h3.492l-5.7,16.972h-3.2l-5.7-16.972Z" fill="#070de9"/><path d="M86.324,21.256a6.917,6.917,0,0,1-.739-3.225,6.923,6.923,0,0,1,.739-3.225,5.492,5.492,0,0,1,2.146-2.254,7.1,7.1,0,0,1,6.643,0,5.48,5.48,0,0,1,2.146,2.254A6.912,6.912,0,0,1,98,18.031a6.906,6.906,0,0,1-.74,3.225,5.476,5.476,0,0,1-2.146,2.255,7.1,7.1,0,0,1-6.643,0A5.489,5.489,0,0,1,86.324,21.256Zm8.523-3.225a4.25,4.25,0,0,0-.824-2.654,2.846,2.846,0,0,0-4.462,0,4.244,4.244,0,0,0-.824,2.654,4.247,4.247,0,0,0,.824,2.655,2.846,2.846,0,0,0,4.462,0A4.253,4.253,0,0,0,94.847,18.031Z" fill="#070de9"/><path d="M100.119,21.256a6.917,6.917,0,0,1-.739-3.225,6.923,6.923,0,0,1,.739-3.225,5.486,5.486,0,0,1,2.146-2.254,7.1,7.1,0,0,1,6.643,0,5.48,5.48,0,0,1,2.146,2.254,6.912,6.912,0,0,1,.74,3.225,6.906,6.906,0,0,1-.74,3.225,5.476,5.476,0,0,1-2.146,2.255,7.1,7.1,0,0,1-6.643,0A5.482,5.482,0,0,1,100.119,21.256Zm8.523-3.225a4.244,4.244,0,0,0-.825-2.654,2.844,2.844,0,0,0-4.46,0,4.238,4.238,0,0,0-.825,2.654,4.241,4.241,0,0,0,.825,2.655,2.844,2.844,0,0,0,4.46,0A4.247,4.247,0,0,0,108.642,18.031Z" fill="#070de9"/><path d="M116.424,11.922V13.91a4.842,4.842,0,0,1,1.6-1.613,3.829,3.829,0,0,1,2.011-.57,5.118,5.118,0,0,1,1.48.243l-.558,2.789a2.369,2.369,0,0,0-1.261-.34,2.781,2.781,0,0,0-2.352,1.3,7.159,7.159,0,0,0-.921,4.086v4.339h-3.007V11.922Z" fill="#070de9"/><g style="isolation:isolate"><path d="M125.635,6.975v6.911a4.682,4.682,0,0,1,1.612-1.565,4.387,4.387,0,0,1,2.268-.594,3.972,3.972,0,0,1,2.788.934,3.546,3.546,0,0,1,1.018,2.752v8.728h-3.006V16.479a2.524,2.524,0,0,0-.449-1.648,1.687,1.687,0,0,0-1.37-.533,2.227,2.227,0,0,0-1.382.508,3.583,3.583,0,0,0-1.067,1.552,7.2,7.2,0,0,0-.412,2.619v5.164h-3.006V6.975Z" fill="#070de9"/></g><path d="M135.714,21.256a6.917,6.917,0,0,1-.739-3.225,6.923,6.923,0,0,1,.739-3.225,5.486,5.486,0,0,1,2.146-2.254,7.1,7.1,0,0,1,6.643,0,5.486,5.486,0,0,1,2.146,2.254,6.924,6.924,0,0,1,.74,3.225,6.918,6.918,0,0,1-.74,3.225,5.482,5.482,0,0,1-2.146,2.255,7.1,7.1,0,0,1-6.643,0A5.482,5.482,0,0,1,135.714,21.256Zm8.523-3.225a4.25,4.25,0,0,0-.824-2.654,2.846,2.846,0,0,0-4.462,0,4.244,4.244,0,0,0-.825,2.654,4.247,4.247,0,0,0,.825,2.655,2.846,2.846,0,0,0,4.462,0A4.253,4.253,0,0,0,144.237,18.031Z" fill="#070de9"/><path d="M149.263,21.026a7.564,7.564,0,0,1,0-5.989,5.529,5.529,0,0,1,1.939-2.376,5.6,5.6,0,0,1,3.31-.934,5.4,5.4,0,0,1,3.2.91,5.459,5.459,0,0,1,1.891,2.291,7,7,0,0,1,.606,2.837V19H151.8a2.964,2.964,0,0,0,.811,1.94,2.693,2.693,0,0,0,2.074.824,3.02,3.02,0,0,0,1.71-.46,4.175,4.175,0,0,0,1.248-1.431l2.424.9a5.529,5.529,0,0,1-5.552,3.565,5.6,5.6,0,0,1-3.31-.934A5.541,5.541,0,0,1,149.263,21.026Zm7.007-6.074a2.347,2.347,0,0,0-1.758-.654,2.448,2.448,0,0,0-1.77.678,2.938,2.938,0,0,0-.873,1.649h5.262A3.329,3.329,0,0,0,156.27,14.952Z" fill="#070de9"/><path d="M161.564,18.031a7.052,7.052,0,0,1,1.393-4.595,4.8,4.8,0,0,1,3.94-1.709,4.7,4.7,0,0,1,1.9.376,3.26,3.26,0,0,1,1.3.934V6.975h3.007V24.141H170.1v-1.26a2.586,2.586,0,0,1-1.152,1.006,4.381,4.381,0,0,1-2.049.449,4.8,4.8,0,0,1-3.94-1.71A7.05,7.05,0,0,1,161.564,18.031Zm8.8,0a4.288,4.288,0,0,0-.788-2.752,2.48,2.48,0,0,0-2.024-.981,2.514,2.514,0,0,0-2.036.981,4.237,4.237,0,0,0-.8,2.752,4.246,4.246,0,0,0,.8,2.74,2.58,2.58,0,0,0,4.06.012A4.284,4.284,0,0,0,170.364,18.031Z" fill="#070de9"/><path d="M175.376,21.026a7.564,7.564,0,0,1,0-5.989,5.531,5.531,0,0,1,1.94-2.376,5.6,5.6,0,0,1,3.309-.934,5.3,5.3,0,0,1,5.092,3.2,7,7,0,0,1,.607,2.837V19h-8.415a2.966,2.966,0,0,0,.813,1.94,2.689,2.689,0,0,0,2.073.824,3.014,3.014,0,0,0,1.709-.46,4.177,4.177,0,0,0,1.249-1.431l2.425.9a5.532,5.532,0,0,1-5.553,3.565,5.409,5.409,0,0,1-5.249-3.31Zm7.007-6.074a2.35,2.35,0,0,0-1.758-.654,2.45,2.45,0,0,0-1.77.678,2.937,2.937,0,0,0-.872,1.649h5.26A3.312,3.312,0,0,0,182.383,14.952Z" fill="#070de9"/></svg>