<svg xmlns="http://www.w3.org/2000/svg" viewBox="0 0 662.15 600.81">
  <defs>
    <style>
      .cls-1{fill:#070de9}
      .cls-2{fill:#e9d100}
      .cls-3{fill:#fff}
      .cls-4{fill:#0c23c6}
      .cls-5{fill:#091672}
    </style>
  </defs>
  <g id="Layer_2" data-name="Layer 2">
    <g id="Layer_1-2" data-name="Layer 1">
      <path class="cls-1" d="M114 160.49c-10.22 57.71 9.39 139.31 55.23 219 46.06 79.6 106.9 137.32 162 157.79v-438c-92.11 0-172.85 23.88-217.77 61.13Z"/>
      <path class="cls-2" d="M492.66 379.4c46.07-79.6 65.39-161.2 55.72-219-44.86-36.88-125.09-61.12-217.48-61.12v438c54.88-20.47 116-78.19 162.05-157.79Z"/>
      <path class="cls-3" d="M439.78 171a303 303 0 0 0-41-8.54 146.9 146.9 0 0 1-.84 18.76c-1.14 14.21-2.85 29.29-4.83 44.07a112 112 0 0 1 24.16 10.51 125 125 0 0 1-4.27 30.73 194.62 194.62 0 0 1-22.74 54 181.26 181.26 0 0 1-34.69 46.63 145.7 145.7 0 0 1-24.76 18.76 125.11 125.11 0 0 1-24.45-18.76 200.24 200.24 0 0 1-35.53-46.63 213.33 213.33 0 0 1-22.74-54 112.74 112.74 0 0 1-3.56-30.71 93.26 93.26 0 0 1 23.88-10.51q-3-22-4.84-44.07c0-6.82-.57-13.08-.86-19-14.2 2.84-27.86 5.71-40.65 9.08a213.5 213.5 0 0 0-53.21 22.19 232 232 0 0 0 7.62 57.43 394.89 394.89 0 0 0 42.07 101.21 407.87 407.87 0 0 0 66.53 87 235.15 235.15 0 0 0 45.53 35.32 220.82 220.82 0 0 0 46.06-35.25 420.55 420.55 0 0 0 66.52-87A390.48 390.48 0 0 0 485.27 251a208.76 208.76 0 0 0 7.62-57.44 226.74 226.74 0 0 0-53.17-22.18Z"/>
      <path class="cls-2" d="M76.14 366.62a43.12 43.12 0 0 0-5.82 1.47 22.39 22.39 0 0 1 1.06 2.47c.75 1.91 1.47 4 2.15 6a16.39 16.39 0 0 1 3.77-.16 17.6 17.6 0 0 1 1.38 4.23 27.86 27.86 0 0 1 .45 8.4 25.73 25.73 0 0 1-1.55 8.19 20.36 20.36 0 0 1-2 4 18.21 18.21 0 0 1-4.33-.89 28.73 28.73 0 0 1-7.52-3.79A30.34 30.34 0 0 1 57.4 391a16.29 16.29 0 0 1-2.4-3.77 13.25 13.25 0 0 1 2.43-2.85c-1.18-1.77-2.31-3.56-3.39-5.39-.43-.87-.9-1.65-1.31-2.4-1.65 1.26-3.23 2.49-4.67 3.72a30.6 30.6 0 0 0-5.48 6.21 33.75 33.75 0 0 0 4.59 6.93A56.78 56.78 0 0 0 59 403.87a58.48 58.48 0 0 0 14 7.05 34 34 0 0 0 8.09 1.7 31.62 31.62 0 0 0 3.73-7.44 60.39 60.39 0 0 0 3.18-15.4 56.28 56.28 0 0 0-.92-15.7 30.13 30.13 0 0 0-2.62-7.89 32.6 32.6 0 0 0-8.25.48Z"/>
      <path class="cls-2" d="M65.77 329a42.79 42.79 0 0 0-6 .45 23.77 23.77 0 0 1 .63 2.62c.4 2 .77 4.15 1.08 6.27a15.74 15.74 0 0 1 3.75.49 17.65 17.65 0 0 1 .64 4.4 28 28 0 0 1-1 8.35 26.07 26.07 0 0 1-2.87 7.84 21.1 21.1 0 0 1-2.7 3.58 18.27 18.27 0 0 1-4.12-1.61 29.13 29.13 0 0 1-6.75-5 30.84 30.84 0 0 1-5.29-6.54 16.48 16.48 0 0 1-1.71-4.09 13.46 13.46 0 0 1 2.87-2.4q-1.27-2.91-2.42-5.88c-.27-.94-.6-1.78-.87-2.59-1.85.95-3.61 1.89-5.24 2.87a30.39 30.39 0 0 0-6.46 5.17 33.16 33.16 0 0 0 3.34 7.62 56.77 56.77 0 0 0 9.82 12.27 59 59 0 0 0 12.64 9.35 33.56 33.56 0 0 0 7.68 3.06 31.82 31.82 0 0 0 4.95-6.7 60.65 60.65 0 0 0 5.71-14.63 56 56 0 0 0 1.77-15.63A29.71 29.71 0 0 0 74 330a32.39 32.39 0 0 0-8.21-.94Z"/>
      <path class="cls-2" d="M61.3 288.73a44.34 44.34 0 0 0-6-.43 20.21 20.21 0 0 1 .24 2.69c.11 2 .15 4.22.15 6.36a15.91 15.91 0 0 1 3.64 1 17.91 17.91 0 0 1 0 4.45 27.9 27.9 0 0 1-2.21 8.11 25.83 25.83 0 0 1-4 7.3 21.81 21.81 0 0 1-3.16 3.14 18.07 18.07 0 0 1-3.84-2.21 28.64 28.64 0 0 1-5.94-5.95 30.55 30.55 0 0 1-4.31-7.19 16.29 16.29 0 0 1-1.1-4.3 13.78 13.78 0 0 1 3.2-1.95q-.84-3.06-1.53-6.17c-.13-1-.33-1.85-.48-2.69-2 .67-3.86 1.34-5.61 2.06a31.12 31.12 0 0 0-7.14 4.17 32.92 32.92 0 0 0 2.17 8 56.91 56.91 0 0 0 7.92 13.59 58.74 58.74 0 0 0 11.12 11.1 33.51 33.51 0 0 0 7.14 4.19 31.24 31.24 0 0 0 5.88-5.89 59.71 59.71 0 0 0 7.8-13.64 56 56 0 0 0 4.06-15.19 30 30 0 0 0 0-8.31 33 33 0 0 0-8-2.15Z"/>
      <path class="cls-2" d="M62.07 247.36a42.12 42.12 0 0 0-5.89-1.2 20.24 20.24 0 0 1-.11 2.69c-.15 2-.39 4.2-.67 6.32a15.77 15.77 0 0 1 3.48 1.5 18.23 18.23 0 0 1-.6 4.41 28.09 28.09 0 0 1-3.23 7.76 26.09 26.09 0 0 1-4.95 6.71 21.1 21.1 0 0 1-3.54 2.7 17.94 17.94 0 0 1-3.56-2.67 28.93 28.93 0 0 1-5.13-6.67 31.1 31.1 0 0 1-3.29-7.74 16.36 16.36 0 0 1-.53-4.4 13.62 13.62 0 0 1 3.42-1.53c-.29-2.1-.53-4.2-.72-6.32 0-1-.09-1.87-.13-2.73-2 .42-4 .84-5.83 1.33a30.59 30.59 0 0 0-7.62 3.21 33.27 33.27 0 0 0 1.17 8.27 56.33 56.33 0 0 0 6.09 14.5A58.51 58.51 0 0 0 40 285.91a33.86 33.86 0 0 0 6.56 5 32.18 32.18 0 0 0 6.59-5.08 60.66 60.66 0 0 0 9.49-12.52 55.87 55.87 0 0 0 6-14.55 29.78 29.78 0 0 0 1.06-8.24 32.47 32.47 0 0 0-7.64-3.15ZM70.74 205.49a44.74 44.74 0 0 0-5.61-2.15 21.32 21.32 0 0 1-.55 2.64c-.48 2-1.07 4.09-1.69 6.13a16.25 16.25 0 0 1 3.18 2 17.64 17.64 0 0 1-1.3 4.26 27.93 27.93 0 0 1-4.46 7.13 25.57 25.57 0 0 1-6 5.81 20.29 20.29 0 0 1-3.93 2.09 18.13 18.13 0 0 1-3-3.21 29.12 29.12 0 0 1-4-7.42 30.32 30.32 0 0 1-2-8.17 16 16 0 0 1 .2-4.43 13.23 13.23 0 0 1 3.62-.94q.08-3.18.32-6.36c.16-1 .22-1.86.31-2.71-2.07.07-4.07.17-6 .35a31 31 0 0 0-8 1.93 33.5 33.5 0 0 0-.23 8.31 56.84 56.84 0 0 0 3.65 15.3 58.3 58.3 0 0 0 7.44 13.84 33.3 33.3 0 0 0 5.64 6 31.61 31.61 0 0 0 7.35-3.89 60.52 60.52 0 0 0 11.41-10.8 56.07 56.07 0 0 0 8.27-13.37 29.93 29.93 0 0 0 2.39-8 32.63 32.63 0 0 0-7-4.35Z"/>
      <path class="cls-2" d="M85.21 166.55a43.38 43.38 0 0 0-5.19-3 20 20 0 0 1-1 2.51c-.8 1.88-1.72 3.86-2.67 5.78a15.73 15.73 0 0 1 2.81 2.53 17.82 17.82 0 0 1-2 4 27.67 27.67 0 0 1-5.56 6.31 25.58 25.58 0 0 1-6.85 4.76 20.78 20.78 0 0 1-4.22 1.43 18.16 18.16 0 0 1-2.47-3.67 28.43 28.43 0 0 1-2.7-8 30.24 30.24 0 0 1-.63-8.38 16.15 16.15 0 0 1 .91-4.34 13.38 13.38 0 0 1 3.73-.34q.6-3.13 1.35-6.22c.32-.92.52-1.8.76-2.63-2.06-.26-4.05-.49-6-.62a31.3 31.3 0 0 0-8.25.59 33 33 0 0 0-1.58 8.16 57 57 0 0 0 1.1 15.69A58.88 58.88 0 0 0 51.93 196a34.05 34.05 0 0 0 4.58 6.88 31.37 31.37 0 0 0 7.88-2.69 60.34 60.34 0 0 0 13-8.8 56.15 56.15 0 0 0 10.34-11.84 30.13 30.13 0 0 0 3.68-7.55 32.87 32.87 0 0 0-6.22-5.44Z"/>
      <path class="cls-2" d="M106.08 131a43.63 43.63 0 0 0-4.56-3.92 21.36 21.36 0 0 1-1.4 2.3c-1.13 1.71-2.39 3.49-3.67 5.2a16 16 0 0 1 2.31 3 17.77 17.77 0 0 1-2.66 3.56 28 28 0 0 1-6.6 5.21 26 26 0 0 1-7.59 3.46 21.14 21.14 0 0 1-4.41.64 17.59 17.59 0 0 1-1.77-4.05 28.62 28.62 0 0 1-1.24-8.32 30.54 30.54 0 0 1 .89-8.36 16.16 16.16 0 0 1 1.68-4.11 13.38 13.38 0 0 1 3.73.34c.76-2 1.58-3.94 2.44-5.88.48-.85.84-1.68 1.21-2.45-2-.62-3.89-1.21-5.73-1.67a30.81 30.81 0 0 0-8.22-.9 33 33 0 0 0-3 7.74 56.43 56.43 0 0 0-1.72 15.63 58.41 58.41 0 0 0 2.3 15.58 33.6 33.6 0 0 0 3.27 7.59 31.34 31.34 0 0 0 8.23-1.23A60.55 60.55 0 0 0 94 154a56.55 56.55 0 0 0 12.3-9.8 30 30 0 0 0 4.93-6.69 32.45 32.45 0 0 0-5.14-6.47Z"/>
      <path class="cls-2" d="M131.46 101.07a44.71 44.71 0 0 0-3.83-4.64 21.37 21.37 0 0 1-1.78 2c-1.4 1.48-2.94 3-4.49 4.5a15.68 15.68 0 0 1 1.76 3.34 18 18 0 0 1-3.23 3.06 27.76 27.76 0 0 1-7.4 4 26.15 26.15 0 0 1-8.07 2.11 20.71 20.71 0 0 1-4.45-.12 17.78 17.78 0 0 1-1-4.3 28.57 28.57 0 0 1 .2-8.41 30.64 30.64 0 0 1 2.31-8.08 16.26 16.26 0 0 1 2.35-3.76 13.26 13.26 0 0 1 3.62 1Q109 89 110.81 86.4c.62-.77 1.11-1.52 1.62-2.21-1.85-1-3.63-1.86-5.37-2.63a30.56 30.56 0 0 0-8-2.29 33.43 33.43 0 0 0-4.3 7.11 56.84 56.84 0 0 0-4.37 15.1 58.22 58.22 0 0 0-.36 15.71 34.15 34.15 0 0 0 1.92 8 31.77 31.77 0 0 0 8.32.19 59.94 59.94 0 0 0 15.26-3.77 55.9 55.9 0 0 0 13.79-7.55 30.29 30.29 0 0 0 6-5.74 32.78 32.78 0 0 0-4-7.26Z"/>
      <path class="cls-2" d="M160.1 73.19a45.2 45.2 0 0 0-3.28-5 21.49 21.49 0 0 1-2 1.81c-1.56 1.32-3.26 2.67-5 4a15.9 15.9 0 0 1 1.38 3.52 17.58 17.58 0 0 1-3.56 2.68 28.07 28.07 0 0 1-7.79 3.15 26 26 0 0 1-8.25 1.19 21.3 21.3 0 0 1-4.42-.62 17.48 17.48 0 0 1-.56-4.38 28.7 28.7 0 0 1 1.14-8.34 31 31 0 0 1 3.24-7.84 16.51 16.51 0 0 1 2.77-3.47 13.21 13.21 0 0 1 3.48 1.37q1.94-2.53 4-4.95c.7-.69 1.28-1.39 1.85-2-1.72-1.16-3.4-2.25-5-3.21a30.84 30.84 0 0 0-7.65-3.17 33.81 33.81 0 0 0-5.07 6.59 57 57 0 0 0-6 14.52 58.51 58.51 0 0 0-2.11 15.57 33.93 33.93 0 0 0 1 8.21 31.49 31.49 0 0 0 8.25 1.11 59.82 59.82 0 0 0 15.58-2 56.1 56.1 0 0 0 14.55-6 29.75 29.75 0 0 0 6.61-5 32.63 32.63 0 0 0-3.12-7.65Z"/>
      <path class="cls-2" d="M195.19 50.12a42.1 42.1 0 0 0-2.49-5.47 21.24 21.24 0 0 1-2.24 1.49c-1.74 1.07-3.63 2.15-5.51 3.17a16 16 0 0 1 .82 3.69 17.61 17.61 0 0 1-3.92 2.1 27.75 27.75 0 0 1-8.18 1.9 26.22 26.22 0 0 1-8.34-.07 22.08 22.08 0 0 1-4.27-1.28 18.15 18.15 0 0 1 .11-4.42 28.75 28.75 0 0 1 2.39-8.07A30.67 30.67 0 0 1 167.9 36a16.07 16.07 0 0 1 3.25-3 13.58 13.58 0 0 1 3.24 1.88q2.3-2.2 4.7-4.29c.79-.58 1.47-1.17 2.13-1.71-1.53-1.4-3-2.74-4.49-3.94a30.91 30.91 0 0 0-7.07-4.29 33.07 33.07 0 0 0-6 5.75 56.12 56.12 0 0 0-8.17 13.44A58.72 58.72 0 0 0 151 54.89a33.59 33.59 0 0 0-.24 8.26 31.77 31.77 0 0 0 8 2.35 60.25 60.25 0 0 0 15.7.35 56.29 56.29 0 0 0 15.29-3.69 29.91 29.91 0 0 0 7.3-4 32.75 32.75 0 0 0-1.93-8ZM233.87 34.45a43.58 43.58 0 0 0-1.19-5.89 21.32 21.32 0 0 1-2.52 1c-1.94.65-4 1.28-6.09 1.86a15.94 15.94 0 0 1 0 3.78 17.59 17.59 0 0 1-4.29 1.17 27.51 27.51 0 0 1-8.4.06 25.9 25.9 0 0 1-8.12-1.93 20.86 20.86 0 0 1-3.87-2.2 17.67 17.67 0 0 1 1.07-4.3 28.57 28.57 0 0 1 4.13-7.32 30.49 30.49 0 0 1 5.84-6.06 16.31 16.31 0 0 1 3.84-2.21 13.31 13.31 0 0 1 2.73 2.52c1.82-1.1 3.66-2.14 5.54-3.14.9-.38 1.69-.81 2.46-1.19-1.18-1.71-2.33-3.35-3.5-4.84A30.58 30.58 0 0 0 215.57 0a32.9 32.9 0 0 0-7.14 4.26 56.55 56.55 0 0 0-11 11.27 58.64 58.64 0 0 0-7.7 13.7 33.55 33.55 0 0 0-2.08 8 32 32 0 0 0 7.35 4.08 60.27 60.27 0 0 0 15.23 3.84 56 56 0 0 0 15.68-.15 29.7 29.7 0 0 0 8-2.25 32.63 32.63 0 0 0-.09-8.26ZM219.95 545.13l5.02 10.18 11.23 1.63-8.12 7.92 1.91 11.18-10.04-5.28-10.04 5.28 1.92-11.18-8.13-7.92 11.23-1.63 5.02-10.18zM470.91 529.55l5.02 10.17 11.23 1.63-8.12 7.92 1.91 11.18-10.04-5.28-10.04 5.28 1.92-11.18-8.13-7.92 11.23-1.63 5.02-10.17zM281.06 564.42l5.02 10.17 11.23 1.63-8.12 7.92 1.91 11.18-10.04-5.28-10.04 5.28 1.92-11.18-8.13-7.92 11.23-1.63 5.02-10.17zM346.37 569.91l5.02 10.17 11.23 1.63-8.13 7.92 1.92 11.18-10.04-5.28-10.04 5.28 1.92-11.18-8.13-7.92 11.23-1.63 5.02-10.17zM413.42 556.76l5.02 10.17 11.23 1.63-8.13 7.92 1.92 11.18-10.04-5.28-10.04 5.28 1.92-11.18-8.13-7.92 11.23-1.63 5.02-10.17z"/>
      <path class="cls-1" d="m191.24 529.55 5.02 10.17 11.22 1.63-8.12 7.92 1.92 11.18-10.04-5.28-10.05 5.28 1.92-11.18-8.12-7.92 11.23-1.63 5.02-10.17zM248.94 556.76l5.02 10.17 11.22 1.63-8.12 7.92 1.92 11.18-10.04-5.28-10.05 5.28 1.92-11.18-8.12-7.92 11.22-1.63 5.03-10.17zM312.89 569.91l5.02 10.17 11.23 1.63-8.13 7.92 1.92 11.18-10.04-5.28-10.04 5.28 1.91-11.18-8.12-7.92 11.23-1.63 5.02-10.17zM380.93 564.42l5.01 10.17 11.23 1.63-8.12 7.92 1.92 11.18-10.04-5.28-10.05 5.28 1.92-11.18-8.12-7.92 11.22-1.63 5.03-10.17zM443.86 545l5.02 10.17 11.23 1.63-8.12 7.92 1.91 11.18-10.04-5.28-10.04 5.28 1.92-11.18-8.13-7.92 11.23-1.63 5.02-10.17z"/>
      <path class="cls-2" d="M584.83 366.62a43.64 43.64 0 0 1 5.83 1.47 20.69 20.69 0 0 0-1.07 2.47c-.75 1.91-1.47 4-2.14 6a16.5 16.5 0 0 0-3.78-.16 18.06 18.06 0 0 0-1.38 4.23 27.86 27.86 0 0 0-.45 8.4 25.73 25.73 0 0 0 1.55 8.19 20.93 20.93 0 0 0 2 4 18.4 18.4 0 0 0 4.34-.89 28.82 28.82 0 0 0 7.51-3.79 30.34 30.34 0 0 0 6.32-5.54 16.29 16.29 0 0 0 2.39-3.74 13.49 13.49 0 0 0-2.42-2.85c1.17-1.77 2.3-3.56 3.38-5.39.43-.87.9-1.65 1.31-2.4 1.65 1.26 3.24 2.49 4.68 3.72a30.86 30.86 0 0 1 5.47 6.21 33 33 0 0 1-4.59 6.93A56.78 56.78 0 0 1 602 403.87a58.48 58.48 0 0 1-14 7.05 33.89 33.89 0 0 1-8.09 1.7 31.62 31.62 0 0 1-3.73-7.44 60.39 60.39 0 0 1-3.13-15.4 56.28 56.28 0 0 1 .92-15.7 30.5 30.5 0 0 1 2.62-7.89 32.68 32.68 0 0 1 8.26.48Z"/>
      <path class="cls-2" d="M595.21 329a43 43 0 0 1 6 .45 20 20 0 0 0-.63 2.62c-.41 2-.78 4.15-1.09 6.27a15.81 15.81 0 0 0-3.75.49 17.64 17.64 0 0 0-.63 4.4 27.69 27.69 0 0 0 1 8.35 26.07 26.07 0 0 0 2.93 7.81 21.1 21.1 0 0 0 2.66 3.57 18.27 18.27 0 0 0 4.12-1.61 28.92 28.92 0 0 0 6.75-5 30.53 30.53 0 0 0 5.29-6.54 16.48 16.48 0 0 0 1.71-4.09 13.46 13.46 0 0 0-2.87-2.4c.86-1.94 1.66-3.9 2.42-5.88.27-.94.6-1.78.87-2.59 1.85.95 3.62 1.89 5.25 2.87a30.59 30.59 0 0 1 6.45 5.17 33.16 33.16 0 0 1-3.34 7.62 56.47 56.47 0 0 1-9.82 12.27 58.78 58.78 0 0 1-12.64 9.35 33.56 33.56 0 0 1-7.68 3.06 32.17 32.17 0 0 1-4.95-6.7 60.21 60.21 0 0 1-5.7-14.63 56 56 0 0 1-1.78-15.63A30.08 30.08 0 0 1 587 330a32.39 32.39 0 0 1 8.21-.94Z"/>
      <path class="cls-2" d="M599.67 288.73a44.45 44.45 0 0 1 6-.43 22 22 0 0 0-.24 2.69c-.11 2-.15 4.22-.15 6.36a15.91 15.91 0 0 0-3.64 1 18.4 18.4 0 0 0 0 4.45 27.9 27.9 0 0 0 2.21 8.11 25.83 25.83 0 0 0 4 7.3 21.81 21.81 0 0 0 3.16 3.14 18.07 18.07 0 0 0 3.84-2.21 28.64 28.64 0 0 0 5.94-5.95 30.93 30.93 0 0 0 4.27-7.25 16.66 16.66 0 0 0 1.09-4.3 13.78 13.78 0 0 0-3.2-1.95q.86-3.06 1.53-6.17c.13-1 .33-1.85.49-2.69 2 .67 3.85 1.34 5.6 2.06a31.39 31.39 0 0 1 7.15 4.17 33.4 33.4 0 0 1-2.18 8 57.21 57.21 0 0 1-7.91 13.59 59.33 59.33 0 0 1-11.12 11.1 33.83 33.83 0 0 1-7.15 4.15 31.24 31.24 0 0 1-5.88-5.89 60.09 60.09 0 0 1-7.8-13.64 56 56 0 0 1-4.06-15.19 30 30 0 0 1 0-8.31 33 33 0 0 1 8-2.15Z"/>
      <path class="cls-2" d="M598.9 247.36a42.41 42.41 0 0 1 5.89-1.2 22.08 22.08 0 0 0 .11 2.69c.16 2 .39 4.2.67 6.32a15.69 15.69 0 0 0-3.47 1.5 17.74 17.74 0 0 0 .59 4.41 28.09 28.09 0 0 0 3.23 7.76 26.09 26.09 0 0 0 5 6.71 21.1 21.1 0 0 0 3.54 2.7 17.65 17.65 0 0 0 3.52-2.67 28.66 28.66 0 0 0 5.13-6.67 30.73 30.73 0 0 0 3.29-7.74 16 16 0 0 0 .53-4.4 13.46 13.46 0 0 0-3.42-1.53c.3-2.1.53-4.2.72-6.32 0-1 .09-1.87.13-2.73 2 .42 4 .84 5.83 1.33a30.59 30.59 0 0 1 7.62 3.21 33.73 33.73 0 0 1-1.12 8.24 56.71 56.71 0 0 1-6.1 14.5 58.51 58.51 0 0 1-9.59 12.44 33.86 33.86 0 0 1-6.56 5 31.86 31.86 0 0 1-6.58-5.08 60.35 60.35 0 0 1-9.5-12.52 55.87 55.87 0 0 1-6-14.55 30.16 30.16 0 0 1-1.06-8.24 32.47 32.47 0 0 1 7.64-3.15ZM590.23 205.49a44.74 44.74 0 0 1 5.61-2.15 21.32 21.32 0 0 0 .55 2.64c.48 2 1.07 4.09 1.69 6.13a16.25 16.25 0 0 0-3.18 2 17.64 17.64 0 0 0 1.3 4.26 27.93 27.93 0 0 0 4.46 7.13 25.57 25.57 0 0 0 6 5.81 20.29 20.29 0 0 0 3.93 2.09 18.13 18.13 0 0 0 3-3.21 29.15 29.15 0 0 0 4-7.42 30.69 30.69 0 0 0 2-8.17 16.44 16.44 0 0 0-.19-4.43 13.39 13.39 0 0 0-3.63-.94q-.07-3.18-.32-6.36c-.15-1-.22-1.86-.31-2.71 2.07.07 4.07.17 6 .35a30.92 30.92 0 0 1 8 1.93 33.5 33.5 0 0 1 .23 8.31 56.84 56.84 0 0 1-3.65 15.3 58.26 58.26 0 0 1-7.43 13.84 33.71 33.71 0 0 1-5.65 6 31.61 31.61 0 0 1-7.33-3.94 60.83 60.83 0 0 1-11.41-10.8 56.39 56.39 0 0 1-8.27-13.37 29.93 29.93 0 0 1-2.39-8 32.63 32.63 0 0 1 7-4.35Z"/>
      <path class="cls-2" d="M575.76 166.55a43.38 43.38 0 0 1 5.19-3 20 20 0 0 0 1 2.51c.8 1.88 1.72 3.86 2.67 5.78a16.08 16.08 0 0 0-2.81 2.53 17.82 17.82 0 0 0 2 4 27.91 27.91 0 0 0 5.56 6.31 25.58 25.58 0 0 0 6.85 4.76 21 21 0 0 0 4.22 1.43 18.16 18.16 0 0 0 2.47-3.67 28.77 28.77 0 0 0 2.71-8 30.62 30.62 0 0 0 .62-8.38 16.15 16.15 0 0 0-.91-4.34 13.38 13.38 0 0 0-3.73-.34q-.6-3.13-1.35-6.22c-.31-.92-.52-1.8-.76-2.63 2.07-.26 4-.49 5.95-.62a31.3 31.3 0 0 1 8.25.59 33 33 0 0 1 1.58 8.16 56.6 56.6 0 0 1-1.1 15.69A58.88 58.88 0 0 1 609 196a34.05 34.05 0 0 1-4.58 6.88 31.51 31.51 0 0 1-7.88-2.69 60 60 0 0 1-13-8.8 56.2 56.2 0 0 1-10.35-11.84 29.75 29.75 0 0 1-3.65-7.47 32.26 32.26 0 0 1 6.22-5.44Z"/>
      <path class="cls-2" d="M554.89 131a43.63 43.63 0 0 1 4.56-3.92 19.93 19.93 0 0 0 1.41 2.3c1.12 1.71 2.38 3.49 3.66 5.2a16 16 0 0 0-2.31 3 18.15 18.15 0 0 0 2.66 3.56 28 28 0 0 0 6.6 5.21 26 26 0 0 0 7.59 3.46 21.14 21.14 0 0 0 4.41.64 17.59 17.59 0 0 0 1.77-4.05 28.62 28.62 0 0 0 1.24-8.32 30.54 30.54 0 0 0-.89-8.36 16.16 16.16 0 0 0-1.68-4.11 13.38 13.38 0 0 0-3.73.34q-1.14-3-2.44-5.88c-.47-.85-.84-1.68-1.21-2.45 2-.62 3.89-1.21 5.73-1.67a30.84 30.84 0 0 1 8.23-.9 33.44 33.44 0 0 1 3 7.74 56.82 56.82 0 0 1 1.73 15.63A58.82 58.82 0 0 1 592.9 154a33.15 33.15 0 0 1-3.27 7.59 31.4 31.4 0 0 1-8.23-1.23A60.55 60.55 0 0 1 567 154a56.26 56.26 0 0 1-12.29-9.8 30 30 0 0 1-4.94-6.69 32.45 32.45 0 0 1 5.14-6.47Z"/>
      <path class="cls-2" d="M529.52 101.07a43.38 43.38 0 0 1 3.82-4.64 21.37 21.37 0 0 0 1.78 2c1.4 1.48 3 3 4.49 4.5a16.15 16.15 0 0 0-1.76 3.34 17.73 17.73 0 0 0 3.24 3.06 27.7 27.7 0 0 0 7.39 4 26.22 26.22 0 0 0 8.07 2.11 20.69 20.69 0 0 0 4.45-.12 18.28 18.28 0 0 0 1.06-4.3 28.91 28.91 0 0 0-.21-8.41 30.62 30.62 0 0 0-2.3-8.08 16.3 16.3 0 0 0-2.36-3.76 13.36 13.36 0 0 0-3.62 1q-1.64-2.72-3.41-5.36c-.61-.77-1.11-1.52-1.61-2.21 1.84-1 3.63-1.86 5.36-2.63a30.56 30.56 0 0 1 8-2.29 33.43 33.43 0 0 1 4.3 7.11 56.48 56.48 0 0 1 4.37 15.1 58.22 58.22 0 0 1 .36 15.71 33.67 33.67 0 0 1-1.92 8 31.76 31.76 0 0 1-8.32.19 59.94 59.94 0 0 1-15.26-3.77 55.9 55.9 0 0 1-13.79-7.55 30.29 30.29 0 0 1-6-5.74 32.78 32.78 0 0 1 4-7.26Z"/>
      <path class="cls-2" d="M500.87 73.19a43.9 43.9 0 0 1 3.29-5 21.36 21.36 0 0 0 2 1.81c1.56 1.32 3.27 2.67 5 4a15.9 15.9 0 0 0-1.38 3.52 17.86 17.86 0 0 0 3.56 2.68 28.07 28.07 0 0 0 7.79 3.15 26 26 0 0 0 8.26 1.19 21.3 21.3 0 0 0 4.41-.62 18 18 0 0 0 .57-4.38 29.06 29.06 0 0 0-1.15-8.34 31 31 0 0 0-3.22-7.84 16.79 16.79 0 0 0-2.76-3.47 13.28 13.28 0 0 0-3.49 1.37q-1.93-2.53-4-4.95c-.7-.69-1.27-1.39-1.85-2 1.72-1.16 3.4-2.25 5-3.21a30.61 30.61 0 0 1 7.64-3.17 33.43 33.43 0 0 1 5.07 6.59 56.65 56.65 0 0 1 6 14.52 58.93 58.93 0 0 1 2.12 15.57 34.44 34.44 0 0 1-1 8.21 31.49 31.49 0 0 1-8.25 1.11 59.88 59.88 0 0 1-15.58-2 56.1 56.1 0 0 1-14.55-6 29.75 29.75 0 0 1-6.61-5 32.63 32.63 0 0 1 3.12-7.65Z"/>
      <path class="cls-2" d="M465.79 50.12a42 42 0 0 1 2.48-5.47 21.24 21.24 0 0 0 2.24 1.49c1.74 1.07 3.64 2.15 5.52 3.17a16 16 0 0 0-.83 3.69 17.61 17.61 0 0 0 3.92 2.1 27.75 27.75 0 0 0 8.18 1.9 26.22 26.22 0 0 0 8.34-.07 22.08 22.08 0 0 0 4.27-1.28 17.66 17.66 0 0 0-.11-4.42 28.43 28.43 0 0 0-2.39-8.07 31 31 0 0 0-4.33-7.2 16.39 16.39 0 0 0-3.26-3 14 14 0 0 0-3.24 1.88c-1.53-1.47-3.09-2.9-4.7-4.29-.79-.58-1.46-1.17-2.13-1.71 1.53-1.4 3-2.74 4.49-3.94a31.19 31.19 0 0 1 7.08-4.29 33.74 33.74 0 0 1 6 5.75 56.41 56.41 0 0 1 8.16 13.44 58.72 58.72 0 0 1 4.45 15.07 33.59 33.59 0 0 1 .24 8.26 31.82 31.82 0 0 1-8 2.35 60.32 60.32 0 0 1-15.71.35 56.29 56.29 0 0 1-15.29-3.69 29.91 29.91 0 0 1-7.3-4 32.75 32.75 0 0 1 1.93-8ZM427.1 34.45a42.12 42.12 0 0 1 1.2-5.89 20.68 20.68 0 0 0 2.52 1c1.93.65 4 1.28 6.08 1.86a15.94 15.94 0 0 0 0 3.78 17.59 17.59 0 0 0 4.29 1.17 27.58 27.58 0 0 0 8.41.06 25.78 25.78 0 0 0 8.11-1.93 20.86 20.86 0 0 0 3.87-2.2 17.67 17.67 0 0 0-1.07-4.3 28.57 28.57 0 0 0-4.13-7.32 30.73 30.73 0 0 0-5.83-6.06 16.37 16.37 0 0 0-3.85-2.21 13.31 13.31 0 0 0-2.7 2.52c-1.82-1.1-3.66-2.14-5.54-3.14-.89-.38-1.69-.81-2.46-1.19 1.18-1.71 2.33-3.35 3.5-4.84A30.58 30.58 0 0 1 445.4 0a32.66 32.66 0 0 1 7.14 4.26 56.55 56.55 0 0 1 11 11.27 58.64 58.64 0 0 1 7.7 13.7 33.55 33.55 0 0 1 2.08 8 32.15 32.15 0 0 1-7.32 4.08 60.23 60.23 0 0 1-15.24 3.84 55.94 55.94 0 0 1-15.69-.15 29.77 29.77 0 0 1-8-2.25 32.63 32.63 0 0 1 .09-8.26Z"/>
      <path class="cls-4" d="M169.74 536.71a548.68 548.68 0 0 1-89.08 6.59A547.59 547.59 0 0 1 0 536.71v-97a535.89 535.89 0 0 0 82.22 6.75 535.75 535.75 0 0 0 87.52-6.75Z"/>
      <path class="cls-5" d="M169.09 536.71c-16.65-1.84-41.95-7.22-63.65-24.24a99.2 99.2 0 0 1-9.1-8.09l37.79 4.06 35 3.76Z"/>
      <path class="cls-4" d="M662.15 536.77a553.61 553.61 0 0 1-84.09 6.53 553.47 553.47 0 0 1-85.65-6.53v-97a541.27 541.27 0 0 0 86.44 6.69 540.81 540.81 0 0 0 83.3-6.69Z"/>
      <path class="cls-1" d="M557.07 504.44a1648.64 1648.64 0 0 1-226.32 16.17 1649.43 1649.43 0 0 1-234.41-16.17v-97a1649.54 1649.54 0 0 0 234.41 16.16 1648.76 1648.76 0 0 0 226.32-16.16Z"/>
      <path class="cls-5" d="M492.41 536.77c14.79-1.84 37.28-7.22 56.58-24.25a93.3 93.3 0 0 0 8.08-8.08l-33.59 4.06-31.07 3.76Z"/>
      <path class="cls-3" d="m232 454.75-10.56 5.55.56-10.38 16.15-8.32 4.2.23-2.88 53.44-9.62-.52ZM254.45 489.35q-4.9-7.38-4.5-20.29t5.73-20Q261 442 270.5 442.3t14.37 7.7q4.9 7.38 4.51 20.29t-5.74 20q-5.34 7.06-14.82 6.78t-14.37-7.72ZM279.9 470q.57-18.5-9.67-18.8t-10.81 18.18q-.57 18.5 9.68 18.8T279.9 470ZM335.57 467.18l-15.4 42.12h-7.13l5.09-14.16-10.86-27.94h7.43l6.86 18.43 6.64-18.45ZM365.39 484l-20.69.41a8.22 8.22 0 0 0 2.45 5A6.8 6.8 0 0 0 352 491a7.31 7.31 0 0 0 4.17-1.21 10.07 10.07 0 0 0 3-3.57l6 2.09a13.56 13.56 0 0 1-13.44 9 13.78 13.78 0 0 1-8.16-2.13 13.57 13.57 0 0 1-4.87-5.74 18.54 18.54 0 0 1-.29-14.68 13.54 13.54 0 0 1 4.64-5.92 13.68 13.68 0 0 1 8.07-2.45 13.29 13.29 0 0 1 7.89 2.07 13.45 13.45 0 0 1 4.75 5.53 17.14 17.14 0 0 1 1.62 6.93Zm-7.66-5.68a8.08 8.08 0 0 0-2.2-4.06 5.77 5.77 0 0 0-4.34-1.52 6.17 6.17 0 0 0-4.07 1.54 8 8 0 0 0-2.35 4.3ZM372.74 494.43a8.79 8.79 0 0 1-2.82-6.62 8.64 8.64 0 0 1 3.11-7.26q3.29-2.81 9.05-3l5.23-.21-.05-1.31a3.87 3.87 0 0 0-1.62-3.24 6.15 6.15 0 0 0-3.79-.95 5 5 0 0 0-5 3.65l-6.29-1.18a9.39 9.39 0 0 1 3.59-6.18 12.49 12.49 0 0 1 7.49-2.59c4-.15 7.14.78 9.42 2.82s3.5 5.11 3.67 9.23l.7 17.88-6.06.24-.92-3.77a11.36 11.36 0 0 1-9.05 4.64 9.29 9.29 0 0 1-6.66-2.15Zm13-6.14a5.55 5.55 0 0 0 1.85-4.56v-.6l-4.94.2a6.38 6.38 0 0 0-3.73 1.1 3.31 3.31 0 0 0-1.23 3 2.67 2.67 0 0 0 1 2.07 3.53 3.53 0 0 0 2.44.71 7.09 7.09 0 0 0 4.58-1.92ZM401 465.14l7.36-.41.28 4.86a11.78 11.78 0 0 1 3.69-4.16 9.44 9.44 0 0 1 4.85-1.68 12.45 12.45 0 0 1 3.66.4l-1 6.9a5.93 5.93 0 0 0-3.14-.66 6.83 6.83 0 0 0-5.58 3.5q-2.07 3.3-1.69 10.13l.59 10.63-7.36.41ZM427.94 491.66a11.16 11.16 0 0 1-4.52-5.4l5.65-3.56a8.43 8.43 0 0 0 2.6 3.45 5.3 5.3 0 0 0 3.68 1.05 4 4 0 0 0 2.38-.91 2.54 2.54 0 0 0 .85-2.24 2.77 2.77 0 0 0-1.71-2.23 27.82 27.82 0 0 0-4.78-1.84 13.88 13.88 0 0 1-5.49-3.07 8.26 8.26 0 0 1-1.33-9.5 8.74 8.74 0 0 1 3.14-3.26 10.3 10.3 0 0 1 4.78-1.47 11.9 11.9 0 0 1 5.61.88 9.28 9.28 0 0 1 4.11 3.32l-4.11 4.34a5.55 5.55 0 0 0-5-2.27 3.39 3.39 0 0 0-2 .77 1.92 1.92 0 0 0-.74 1.69 2.54 2.54 0 0 0 1.38 1.9 21.92 21.92 0 0 0 5 1.88 13.36 13.36 0 0 1 5.62 2.88 7.25 7.25 0 0 1 2.27 5 9.21 9.21 0 0 1-2.35 7.24 10.45 10.45 0 0 1-7.17 3.16 12.4 12.4 0 0 1-7.87-1.81Z"/>
    </g>
  </g>
</svg>
