<svg xmlns="http://www.w3.org/2000/svg" viewBox="0 0 187 28">
  <path fill="#070de9" d="M.17 4.03c-.65 3.67.6 8.87 3.5 13.93C6.62 23.02 10.49 26.7 14 28V.14c-5.86 0-11 1.52-13.86 3.9z"/>
  <path fill="#e9d100" d="M24.26 17.96C27.2 12.9 28.42 7.7 27.81 4.03 24.95 1.68 19.85.14 13.97.14V28c3.5-1.3 7.38-4.97 10.31-10.04z" data-name="Shape"/>
  <path fill="#fff" d="M20.9 4.7a19.5 19.5 0 0 0-2.6-.54 9.1 9.1 0 0 1-.06 1.2c-.07.9-.18 1.85-.3 2.8a7.18 7.18 0 0 1 1.54.66 7.9 7.9 0 0 1-.28 1.96 12.38 12.38 0 0 1-1.44 3.43 11.54 11.54 0 0 1-2.21 2.97 9.21 9.21 0 0 1-1.57 1.2 7.95 7.95 0 0 1-1.56-1.2 12.72 12.72 0 0 1-2.26-2.97 13.56 13.56 0 0 1-1.45-3.44 7.16 7.16 0 0 1-.23-1.95A5.98 5.98 0 0 1 10 8.15c-.13-.94-.24-1.9-.31-2.8 0-.43-.04-.83-.05-1.21-.91.18-1.78.36-2.6.58a13.63 13.63 0 0 0-3.38 1.4 14.8 14.8 0 0 0 .49 3.66 25.17 25.17 0 0 0 2.68 6.44 25.94 25.94 0 0 0 4.23 5.54 14.93 14.93 0 0 0 2.9 2.24 14.08 14.08 0 0 0 2.92-2.24 26.77 26.77 0 0 0 4.24-5.54 24.9 24.9 0 0 0 2.67-6.44 13.3 13.3 0 0 0 .5-3.65 14.45 14.45 0 0 0-3.39-1.41z" data-name="Shape"/>
  <path fill="#fff" d="M12.41 17.18a13.11 13.11 0 0 1-2.26-2.95 14.78 14.78 0 0 1-1.44-3.47 7.11 7.11 0 0 1-.24-1.94A7.05 7.05 0 0 1 10 8.17a38.5 38.5 0 0 1-.29-2.82l-.07-1.21c-.9.18-1.77.36-2.59.58a14.35 14.35 0 0 0-3.38 1.4 14.8 14.8 0 0 0 .49 3.66 26.53 26.53 0 0 0 2.68 6.44 25.94 25.94 0 0 0 4.23 5.54 14.93 14.93 0 0 0 2.9 2.24v-5.6a9.3 9.3 0 0 1-1.55-1.22z" data-name="Shape"/>
  <path fill="#070de9" d="M44.98 7.17a8.42 8.42 0 0 1 3.9.92 7.04 7.04 0 0 1 2.9 2.82 9.33 9.33 0 0 1 1.1 4.74 9.33 9.33 0 0 1-1.1 4.74 7.05 7.05 0 0 1-2.9 2.83 8.43 8.43 0 0 1-3.9.92h-5.3V7.17zm3.07 12.81q1.64-1.24 1.64-4.33t-1.64-4.32A6.5 6.5 0 0 0 44 10.08h-1.16v11.15h1.16a6.5 6.5 0 0 0 4.06-1.25zM54.8 21.03a7.56 7.56 0 0 1 0-6 5.53 5.53 0 0 1 1.94-2.37 5.6 5.6 0 0 1 3.3-.93 5.3 5.3 0 0 1 5.1 3.2 7 7 0 0 1 .6 2.83V19h-8.4a2.96 2.96 0 0 0 .8 1.94 2.69 2.69 0 0 0 2.08.82 3.01 3.01 0 0 0 1.7-.46 4.16 4.16 0 0 0 1.25-1.43l2.43.9a5.53 5.53 0 0 1-5.55 3.57 5.4 5.4 0 0 1-5.25-3.31zm7-6.08a2.35 2.35 0 0 0-1.76-.65 2.45 2.45 0 0 0-1.77.68 2.94 2.94 0 0 0-.87 1.65h5.26a3.32 3.32 0 0 0-.86-1.68zM75.5 7.17l3.82 12.56 3.8-12.56h3.5l-5.7 16.97h-3.2l-5.7-16.97zM86.32 21.26a6.92 6.92 0 0 1-.73-3.23 6.92 6.92 0 0 1 .73-3.22 5.5 5.5 0 0 1 2.15-2.26 7.1 7.1 0 0 1 6.64 0 5.48 5.48 0 0 1 2.15 2.26 6.91 6.91 0 0 1 .74 3.22 6.9 6.9 0 0 1-.74 3.23 5.48 5.48 0 0 1-2.15 2.25 7.1 7.1 0 0 1-6.64 0 5.49 5.49 0 0 1-2.15-2.25zm8.53-3.23a4.25 4.25 0 0 0-.83-2.65 2.85 2.85 0 0 0-4.46 0 4.24 4.24 0 0 0-.82 2.65 4.25 4.25 0 0 0 .82 2.66 2.85 2.85 0 0 0 4.46 0 4.25 4.25 0 0 0 .83-2.66zM100.12 21.26a6.92 6.92 0 0 1-.74-3.23 6.92 6.92 0 0 1 .74-3.22 5.49 5.49 0 0 1 2.14-2.26 7.1 7.1 0 0 1 6.65 0 5.48 5.48 0 0 1 2.14 2.26 6.91 6.91 0 0 1 .74 3.22 6.9 6.9 0 0 1-.74 3.23 5.48 5.48 0 0 1-2.14 2.25 7.1 7.1 0 0 1-6.64 0 5.48 5.48 0 0 1-2.15-2.25zm8.52-3.23a4.24 4.24 0 0 0-.82-2.65 2.84 2.84 0 0 0-4.46 0 4.24 4.24 0 0 0-.83 2.65 4.24 4.24 0 0 0 .83 2.66 2.84 2.84 0 0 0 4.46 0 4.25 4.25 0 0 0 .82-2.66zM116.42 11.92v1.99a4.84 4.84 0 0 1 1.6-1.61 3.83 3.83 0 0 1 2.02-.57 5.12 5.12 0 0 1 1.47.24l-.55 2.79a2.37 2.37 0 0 0-1.26-.34 2.78 2.78 0 0 0-2.36 1.3 7.16 7.16 0 0 0-.92 4.09v4.33h-3V11.92zM125.64 6.97v6.92a4.68 4.68 0 0 1 1.6-1.57 4.39 4.39 0 0 1 2.28-.6 3.97 3.97 0 0 1 2.78.94 3.55 3.55 0 0 1 1.02 2.75v8.73h-3v-7.66a2.52 2.52 0 0 0-.45-1.65 1.69 1.69 0 0 0-1.37-.53 2.23 2.23 0 0 0-1.39.5 3.58 3.58 0 0 0-1.06 1.56 7.2 7.2 0 0 0-.42 2.62v5.16h-3V6.98zM135.71 21.26a6.92 6.92 0 0 1-.74-3.23 6.92 6.92 0 0 1 .74-3.22 5.49 5.49 0 0 1 2.15-2.26 7.1 7.1 0 0 1 6.64 0 5.49 5.49 0 0 1 2.15 2.26 6.92 6.92 0 0 1 .74 3.22 6.92 6.92 0 0 1-.74 3.23 5.48 5.48 0 0 1-2.15 2.25 7.1 7.1 0 0 1-6.64 0 5.48 5.48 0 0 1-2.15-2.25zm8.53-3.23a4.25 4.25 0 0 0-.83-2.65 2.85 2.85 0 0 0-4.46 0 4.24 4.24 0 0 0-.82 2.65 4.25 4.25 0 0 0 .82 2.66 2.85 2.85 0 0 0 4.46 0 4.25 4.25 0 0 0 .83-2.66zM149.26 21.03a7.56 7.56 0 0 1 0-6 5.53 5.53 0 0 1 1.94-2.37 5.6 5.6 0 0 1 3.31-.93 5.4 5.4 0 0 1 3.2.9 5.46 5.46 0 0 1 1.9 2.3 7 7 0 0 1 .6 2.84V19h-8.41a2.96 2.96 0 0 0 .81 1.94 2.7 2.7 0 0 0 2.08.82 3.02 3.02 0 0 0 1.7-.46 4.17 4.17 0 0 0 1.25-1.43l2.43.9a5.53 5.53 0 0 1-5.55 3.57 5.6 5.6 0 0 1-3.31-.94 5.54 5.54 0 0 1-1.95-2.37zm7.01-6.08a2.35 2.35 0 0 0-1.76-.65 2.45 2.45 0 0 0-1.77.68 2.94 2.94 0 0 0-.87 1.65h5.26a3.33 3.33 0 0 0-.86-1.68zM161.56 18.03a7.05 7.05 0 0 1 1.4-4.6 4.8 4.8 0 0 1 3.94-1.7 4.7 4.7 0 0 1 1.9.37 3.26 3.26 0 0 1 1.3.94V6.98h3v17.16h-3v-1.26a2.59 2.59 0 0 1-1.15 1 4.38 4.38 0 0 1-2.05.46 4.8 4.8 0 0 1-3.94-1.71 7.05 7.05 0 0 1-1.4-4.6zm8.8 0a4.29 4.29 0 0 0-.78-2.75 2.48 2.48 0 0 0-2.03-.98 2.51 2.51 0 0 0-2.03.98 4.24 4.24 0 0 0-.8 2.75 4.25 4.25 0 0 0 .8 2.74 2.58 2.58 0 0 0 4.06.01 4.28 4.28 0 0 0 .78-2.75zM175.38 21.03a7.56 7.56 0 0 1 0-6 5.53 5.53 0 0 1 1.94-2.37 5.6 5.6 0 0 1 3.3-.93 5.3 5.3 0 0 1 5.1 3.2 7 7 0 0 1 .6 2.83V19h-8.41a2.97 2.97 0 0 0 .81 1.94 2.69 2.69 0 0 0 2.08.82 3.01 3.01 0 0 0 1.7-.46 4.18 4.18 0 0 0 1.25-1.43l2.43.9a5.53 5.53 0 0 1-5.55 3.57 5.4 5.4 0 0 1-5.25-3.31zm7-6.08a2.35 2.35 0 0 0-1.75-.65 2.45 2.45 0 0 0-1.77.68 2.94 2.94 0 0 0-.88 1.65h5.26a3.31 3.31 0 0 0-.86-1.68z"/>
</svg>
