<svg xmlns="http://www.w3.org/2000/svg" viewBox="0 0 900.21 147.53">
  <defs>
    <style>
      .cls-1{fill:#070de9}
      .cls-2{fill:#e9d100}
      .cls-3{fill:#fff}
      .cls-4{fill:#0c23c6}
      .cls-5{fill:#091672}
    </style>
  </defs>
  <g id="Layer_2" data-name="Layer 2">
    <g id="Layer_1-2" data-name="Layer 1">
      <path class="cls-1" d="M212.78 32.3a41 41 0 0 1 19 4.5A34.37 34.37 0 0 1 246 50.58a45.51 45.51 0 0 1 5.37 23.14A45.52 45.52 0 0 1 246 96.87a34.39 34.39 0 0 1-14.16 13.79 41 41 0 0 1-19 4.49h-25.98V32.3Zm15 62.55q8-6.09 8-21.13t-8-21.12a31.75 31.75 0 0 0-19.83-6.1h-5.68V101h5.68a31.69 31.69 0 0 0 19.81-6.15Zm32.93 5.1a37 37 0 0 1 0-29.24 27 27 0 0 1 9.47-11.6 27.35 27.35 0 0 1 16.16-4.56 25.89 25.89 0 0 1 24.86 15.62 34.26 34.26 0 0 1 3 13.85v6h-41.14a14.49 14.49 0 0 0 4 9.46 13.12 13.12 0 0 0 10.12 4 14.66 14.66 0 0 0 8.35-2.25 20.44 20.44 0 0 0 6.09-7l11.84 4.39a27 27 0 0 1-27.12 17.42A26.44 26.44 0 0 1 260.68 100Zm34.19-29.66a11.47 11.47 0 0 0-8.59-3.19 12 12 0 0 0-8.64 3.31 14.36 14.36 0 0 0-4.26 8h25.68a16.16 16.16 0 0 0-4.19-8.12Zm66.91-38 18.58 61.31L399 32.3h17l-27.81 82.84h-15.61l-27.82-82.86Zm50.06 68.77a33.73 33.73 0 0 1-3.6-15.75 33.84 33.84 0 0 1 3.6-15.74 26.83 26.83 0 0 1 10.48-11 34.66 34.66 0 0 1 32.43 0 26.83 26.83 0 0 1 10.48 11 33.73 33.73 0 0 1 3.61 15.74 33.74 33.74 0 0 1-3.61 15.75 26.85 26.85 0 0 1-10.48 11 34.66 34.66 0 0 1-32.43 0 26.85 26.85 0 0 1-10.48-10.99Zm41.61-15.75a20.7 20.7 0 0 0-4-12.95 13.86 13.86 0 0 0-21.77 0 20.7 20.7 0 0 0-4 12.95 20.74 20.74 0 0 0 4 13 13.86 13.86 0 0 0 21.77 0 20.74 20.74 0 0 0 4-12.99Zm25.74 15.75a33.74 33.74 0 0 1-3.61-15.75 33.73 33.73 0 0 1 3.61-15.74 26.83 26.83 0 0 1 10.48-11 34.66 34.66 0 0 1 32.43 0 26.83 26.83 0 0 1 10.48 11 33.73 33.73 0 0 1 3.61 15.74 33.74 33.74 0 0 1-3.61 15.75 26.85 26.85 0 0 1-10.48 11 34.66 34.66 0 0 1-32.43 0 26.79 26.79 0 0 1-10.48-10.99Zm41.61-15.75a20.7 20.7 0 0 0-4-12.95 13.88 13.88 0 0 0-19.51-2.27 14.33 14.33 0 0 0-2.32 2.28 20.75 20.75 0 0 0-4 12.95 20.79 20.79 0 0 0 4 13 13.89 13.89 0 0 0 19.51 2.27 13.54 13.54 0 0 0 2.27-2.27 20.74 20.74 0 0 0 4.05-13Zm37.41-29.81v9.71a23.63 23.63 0 0 1 7.81-7.88 18.7 18.7 0 0 1 9.82-2.78 25.31 25.31 0 0 1 7.22 1.18l-2.72 13.62a11.61 11.61 0 0 0-6.16-1.66A13.6 13.6 0 0 0 562.73 74a34.93 34.93 0 0 0-4.5 20v21.15h-14.67V55.5Zm45.85-24.15v33.74a22.92 22.92 0 0 1 7.91-7.64 21.51 21.51 0 0 1 11-2.9 19.37 19.37 0 0 1 13.62 4.56 17.31 17.31 0 0 1 5 13.43v42.6h-14.68V77.75a12.35 12.35 0 0 0-2.19-8 8.25 8.25 0 0 0-6.69-2.6 10.86 10.86 0 0 0-6.74 2.48 17.5 17.5 0 0 0-5.22 7.58 35.44 35.44 0 0 0-2 12.79v25.19h-14.68V31.35Zm48.6 69.72a33.73 33.73 0 0 1-3.6-15.75 33.84 33.84 0 0 1 3.6-15.74 26.83 26.83 0 0 1 10.48-11 34.66 34.66 0 0 1 32.43 0 26.83 26.83 0 0 1 10.48 11 33.73 33.73 0 0 1 3.61 15.74 33.74 33.74 0 0 1-3.61 15.75 26.85 26.85 0 0 1-10.48 11 34.66 34.66 0 0 1-32.43 0 26.79 26.79 0 0 1-10.48-11Zm41.61-15.75a20.7 20.7 0 0 0-4-12.95 13.88 13.88 0 0 0-19.51-2.27 14.33 14.33 0 0 0-2.27 2.27 20.75 20.75 0 0 0-4 12.95 20.73 20.73 0 0 0 4 13 13.87 13.87 0 0 0 21.78 0 20.74 20.74 0 0 0 4-13ZM719.44 100a37 37 0 0 1 0-29.24 27 27 0 0 1 9.47-11.6 27.35 27.35 0 0 1 16.16-4.56 25.85 25.85 0 0 1 24.86 15.63 34.22 34.22 0 0 1 3 13.85v6h-41.11a14.48 14.48 0 0 0 4 9.46 13.15 13.15 0 0 0 10.12 4 14.74 14.74 0 0 0 8.35-2.25 20.35 20.35 0 0 0 6.1-7l11.84 4.4a27 27 0 0 1-27.12 17.4A26.39 26.39 0 0 1 719.44 100Zm34.21-29.66a11.47 11.47 0 0 0-8.58-3.19 12 12 0 0 0-8.64 3.31 14.42 14.42 0 0 0-4.26 8h25.69a16.27 16.27 0 0 0-4.21-8.17Zm26.45 15a34.44 34.44 0 0 1 6.81-22.46 23.45 23.45 0 0 1 19.23-8.34 23.08 23.08 0 0 1 9.28 1.83 16 16 0 0 1 6.35 4.56V31.35h14.68v83.79h-14.68V109a12.63 12.63 0 0 1-5.62 4.91 21.29 21.29 0 0 1-10 2.2 23.46 23.46 0 0 1-19.23-8.35 34.48 34.48 0 0 1-6.82-22.43Zm43 0a21 21 0 0 0-3.85-13.44 12.11 12.11 0 0 0-9.89-4.79 12.27 12.27 0 0 0-9.94 4.79 20.7 20.7 0 0 0-3.9 13.44 20.78 20.78 0 0 0 3.9 13.38 12.6 12.6 0 0 0 19.83.05 21 21 0 0 0 3.85-13.43ZM846.76 100a37 37 0 0 1 0-29.24 26.37 26.37 0 0 1 25.63-16.16 25.9 25.9 0 0 1 24.86 15.63 34.22 34.22 0 0 1 3 13.85v6h-41.12a14.49 14.49 0 0 0 4 9.46 13.12 13.12 0 0 0 10.12 4 14.71 14.71 0 0 0 8.34-2.25 20.41 20.41 0 0 0 6.1-7l11.84 4.4a27 27 0 0 1-27.11 17.4 26.37 26.37 0 0 1-25.63-16.16ZM881 70.3a11.48 11.48 0 0 0-8.58-3.2 12 12 0 0 0-8.64 3.31 14.36 14.36 0 0 0-4.26 8h25.68a16.19 16.19 0 0 0-4.2-8.11ZM28 39.41c-2.51 14.17 2.3 34.21 13.56 53.77s26.24 33.72 39.78 38.75V24.38c-22.62 0-42.44 5.86-53.47 15Z"/>
      <path class="cls-2" d="M121 93.16c11.31-19.54 16-39.58 13.68-53.77-11-9.06-30.72-15-53.41-15v107.54c13.48-5 28.49-19.2 39.8-38.75Z"/>
      <path class="cls-3" d="M108 42a73.46 73.46 0 0 0-10.08-2.1 37.34 37.34 0 0 1-.2 4.61C97.44 48 97 51.7 96.53 55.33a27.39 27.39 0 0 1 5.93 2.58 30.53 30.53 0 0 1-1 7.54 47.67 47.67 0 0 1-5.59 13.26 44.26 44.26 0 0 1-8.52 11.45 35.83 35.83 0 0 1-6.07 4.61 30.57 30.57 0 0 1-6-4.61 49.37 49.37 0 0 1-8.72-11.45 51.94 51.94 0 0 1-5.59-13.26 27.78 27.78 0 0 1-.87-7.54 22.89 22.89 0 0 1 5.86-2.58q-.73-5.4-1.19-10.82c0-1.68-.14-3.22-.21-4.68-3.48.7-6.84 1.4-10 2.23a52.33 52.33 0 0 0-13.06 5.45 56.39 56.39 0 0 0 1.87 14.1 96.62 96.62 0 0 0 10.3 24.85A100.11 100.11 0 0 0 70 107.82a58.38 58.38 0 0 0 11.18 8.68 54.17 54.17 0 0 0 11.31-8.66 103.11 103.11 0 0 0 16.34-21.36 96.13 96.13 0 0 0 10.33-24.85 50.92 50.92 0 0 0 1.84-14.1 55.29 55.29 0 0 0-13-5.45Z"/>
      <path class="cls-2" d="M18.7 90a8.55 8.55 0 0 0-1.43.36 6.39 6.39 0 0 1 .26.6c.18.47.36 1 .52 1.48a3.63 3.63 0 0 1 .93 0 4.29 4.29 0 0 1 .34 1 6.85 6.85 0 0 1 .11 2.07 6.33 6.33 0 0 1-.38 2 4.9 4.9 0 0 1-.49 1 4.32 4.32 0 0 1-1.07-.21 7.08 7.08 0 0 1-1.84-.93A7.46 7.46 0 0 1 14.1 96a3.89 3.89 0 0 1-.59-.92 3 3 0 0 1 .59-.7c-.29-.44-.56-.88-.83-1.33-.1-.21-.22-.4-.32-.59-.41.31-.79.61-1.15.92a7.77 7.77 0 0 0-1.34 1.52 7.74 7.74 0 0 0 1.13 1.7 13.54 13.54 0 0 0 2.89 2.56 14.12 14.12 0 0 0 3.45 1.73 8.42 8.42 0 0 0 2 .42 7.31 7.31 0 0 0 .92-1.83 14.77 14.77 0 0 0 .77-3.78 13.82 13.82 0 0 0-.23-3.85 7.37 7.37 0 0 0-.64-1.94 7.68 7.68 0 0 0-2 .12Z"/>
      <path class="cls-2" d="M16.15 80.79a12.14 12.14 0 0 0-1.47.12 4.58 4.58 0 0 1 .15.64c.1.49.19 1 .27 1.54a3.57 3.57 0 0 1 .92.12 4.34 4.34 0 0 1 .16 1.08 6.78 6.78 0 0 1-.25 2 6.36 6.36 0 0 1-.71 1.92 5.11 5.11 0 0 1-.66.87 4.59 4.59 0 0 1-1-.39 7.15 7.15 0 0 1-1.66-1.23 8.05 8.05 0 0 1-1.3-1.61 4.41 4.41 0 0 1-.42-1 3.33 3.33 0 0 1 .71-.59c-.21-.48-.41-1-.6-1.45-.06-.23-.14-.43-.21-.63-.45.23-.89.46-1.29.7A7.73 7.73 0 0 0 7.2 84.2a7.81 7.81 0 0 0 .8 1.87 14 14 0 0 0 2.41 3 14.46 14.46 0 0 0 3.1 2.29 8.1 8.1 0 0 0 1.89.75 7.81 7.81 0 0 0 1.21-1.64A14.49 14.49 0 0 0 18 86.89a13.74 13.74 0 0 0 .43-3.83 7.59 7.59 0 0 0-.3-2 8.08 8.08 0 0 0-2-.23Z"/>
      <path class="cls-2" d="M15.05 70.9a12 12 0 0 0-1.47-.11 4.91 4.91 0 0 1 .06.66v1.57a3.59 3.59 0 0 1 .89.25 5 5 0 0 1 0 1.09 6.85 6.85 0 0 1-.55 2 6 6 0 0 1-1 1.79 4.8 4.8 0 0 1-.78.78 4.87 4.87 0 0 1-.94-.54 8.18 8.18 0 0 1-2.5-3.25 3.78 3.78 0 0 1-.27-1 3.15 3.15 0 0 1 .78-.48c-.13-.5-.26-1-.37-1.52 0-.24-.08-.45-.12-.66-.48.17-1 .33-1.38.51A7.29 7.29 0 0 0 5.7 73a7.86 7.86 0 0 0 .53 2 14 14 0 0 0 1.95 3.34A14.41 14.41 0 0 0 10.91 81a8.51 8.51 0 0 0 1.75 1 8.29 8.29 0 0 0 1.45-1.45A14.81 14.81 0 0 0 16 77.21a13.82 13.82 0 0 0 1-3.73 7.34 7.34 0 0 0 0-2 7.68 7.68 0 0 0-2-.53Z"/>
      <path class="cls-2" d="M15.24 60.74a10.2 10.2 0 0 0-1.44-.29v.66c0 .5-.1 1-.17 1.55a3.85 3.85 0 0 1 .86.37 4.93 4.93 0 0 1-.15 1.08 6.88 6.88 0 0 1-.79 1.9 6.42 6.42 0 0 1-1.22 1.65 4.79 4.79 0 0 1-.87.67 5 5 0 0 1-.86-.66A7 7 0 0 1 9.31 66a7.26 7.26 0 0 1-.81-1.9 3.9 3.9 0 0 1-.13-1.08 3.31 3.31 0 0 1 .84-.37q-.1-.75-.21-1.53v-.67c-.5.11-1 .21-1.43.33a7.35 7.35 0 0 0-1.87.79 8.13 8.13 0 0 0 .28 2 13.92 13.92 0 0 0 1.49 3.56 14.62 14.62 0 0 0 2.36 3.06 8.08 8.08 0 0 0 1.61 1.23 8.1 8.1 0 0 0 1.62-1.24 15.22 15.22 0 0 0 2.33-3.08 13.93 13.93 0 0 0 1.47-3.57 7.67 7.67 0 0 0 .26-2 7.94 7.94 0 0 0-1.88-.78Zm2.13-10.28a11.54 11.54 0 0 0-1.37-.53 4.67 4.67 0 0 1-.13.65c-.12.49-.26 1-.42 1.51a3.63 3.63 0 0 1 .79.5 4.67 4.67 0 0 1-.33 1 6.59 6.59 0 0 1-1.09 1.75 6.24 6.24 0 0 1-1.47 1.43 4.42 4.42 0 0 1-1 .51 4.33 4.33 0 0 1-.75-.79 6.92 6.92 0 0 1-1-1.82 7.32 7.32 0 0 1-.49-2 3.62 3.62 0 0 1 .05-1.09 3 3 0 0 1 .89-.23c0-.52 0-1 .08-1.56 0-.24.05-.46.07-.67-.51 0-1 0-1.46.09a7.52 7.52 0 0 0-2 .47 8.71 8.71 0 0 0-.06 2 15 15 0 0 0 2.73 7.16 8.42 8.42 0 0 0 1.38 1.48 7.63 7.63 0 0 0 1.8-1 14.67 14.67 0 0 0 2.8-2.65 13.75 13.75 0 0 0 2-3.28 7.49 7.49 0 0 0 .58-2 7.62 7.62 0 0 0-1.72-1.07Z"/>
      <path class="cls-2" d="M20.92 40.9a10.08 10.08 0 0 0-1.27-.75 6.62 6.62 0 0 1-.24.62c-.2.46-.42.95-.65 1.42a4.5 4.5 0 0 1 .69.62 4.49 4.49 0 0 1-.49 1 6.72 6.72 0 0 1-1.37 1.55 6.33 6.33 0 0 1-1.68 1.17 5.44 5.44 0 0 1-1 .35 4.46 4.46 0 0 1-.61-.9 6.87 6.87 0 0 1-.66-2 7.52 7.52 0 0 1-.16-2.06 4 4 0 0 1 .23-1.07 3.47 3.47 0 0 1 .91-.08c.1-.51.21-1 .33-1.52.08-.23.13-.45.19-.65-.51-.06-1-.12-1.46-.15a7.29 7.29 0 0 0-2 .14 8.52 8.52 0 0 0-.39 2 14.89 14.89 0 0 0 1.52 7.5 8.31 8.31 0 0 0 1.13 1.69 8.15 8.15 0 0 0 1.93-.66A15.11 15.11 0 0 0 19 47a14.09 14.09 0 0 0 2.54-2.91 7.78 7.78 0 0 0 .9-1.83 8.13 8.13 0 0 0-1.53-1.34Z"/>
      <path class="cls-2" d="M26.05 32.17a12.87 12.87 0 0 0-1.12-1 4.15 4.15 0 0 1-.35.57c-.27.41-.58.85-.89 1.27a4.5 4.5 0 0 1 .56.74 4.29 4.29 0 0 1-.65.87 6.68 6.68 0 0 1-1.6 1.32 6.34 6.34 0 0 1-1.87.85A4.86 4.86 0 0 1 19 37a4.44 4.44 0 0 1-.43-1 6.73 6.73 0 0 1-.31-2 7.45 7.45 0 0 1 .22-2 4 4 0 0 1 .41-1 3.16 3.16 0 0 1 .92.08q.29-.72.6-1.44c.11-.21.2-.41.3-.6-.49-.16-1-.3-1.41-.41a7.24 7.24 0 0 0-2-.22 7.57 7.57 0 0 0-.74 1.9 13.77 13.77 0 0 0-.42 3.69 14.46 14.46 0 0 0 .57 3.81 9.12 9.12 0 0 0 .81 1.87 8.17 8.17 0 0 0 2-.31 14.63 14.63 0 0 0 3.53-1.55 13.8 13.8 0 0 0 3-2.41 7.17 7.17 0 0 0 1.21-1.64A8 8 0 0 0 26 32.18Z"/>
      <path class="cls-2" d="M32.28 24.82a11.38 11.38 0 0 0-.94-1.14 5.08 5.08 0 0 1-.44.5c-.34.36-.72.74-1.1 1.1a3.78 3.78 0 0 1 .43.82 4 4 0 0 1-.79.75 7 7 0 0 1-1.82 1 6.35 6.35 0 0 1-2 .51 5 5 0 0 1-1.09 0 4.25 4.25 0 0 1-.26-1.05 7.19 7.19 0 0 1 .05-2.07 7.61 7.61 0 0 1 .57-2 4.16 4.16 0 0 1 .57-.92 3 3 0 0 1 .89.23c.27-.44.55-.88.84-1.31.15-.19.27-.38.4-.55-.46-.23-.89-.45-1.32-.64a7.4 7.4 0 0 0-1.95-.57 8.25 8.25 0 0 0-1.06 1.75 13.72 13.72 0 0 0-1.07 3.71 14.26 14.26 0 0 0-.09 3.86 8.32 8.32 0 0 0 .47 2 7.82 7.82 0 0 0 2.05.05 15.07 15.07 0 0 0 3.74-.93A13.79 13.79 0 0 0 31.77 28a7.56 7.56 0 0 0 1.47-1.41 7.5 7.5 0 0 0-1-1.78Z"/>
      <path class="cls-2" d="M39.31 18a11.27 11.27 0 0 0-.8-1.23c-.16.16-.32.3-.49.44-.39.33-.8.66-1.22 1a4.28 4.28 0 0 1 .34.86 4.31 4.31 0 0 1-.88.66 6.9 6.9 0 0 1-1.91.77 6.09 6.09 0 0 1-2 .29 4.93 4.93 0 0 1-1.08-.15 4.3 4.3 0 0 1-.14-1.07 7 7 0 0 1 .28-2.05 7.75 7.75 0 0 1 .78-1.91 4.3 4.3 0 0 1 .68-.85 3.33 3.33 0 0 1 .86.33c.31-.41.64-.82 1-1.21.17-.17.31-.34.45-.5-.42-.28-.83-.55-1.23-.79a7.94 7.94 0 0 0-1.95-.83 8.54 8.54 0 0 0-1.25 1.62 15 15 0 0 0-2 7.39 8.59 8.59 0 0 0 .25 2 7.7 7.7 0 0 0 2 .27 14.89 14.89 0 0 0 3.82-.5 14 14 0 0 0 3.58-1.46 7.83 7.83 0 0 0 1.62-1.24A7.52 7.52 0 0 0 39.3 18Z"/>
      <path class="cls-2" d="M47.93 12.31a11.64 11.64 0 0 0-.61-1.31 4.81 4.81 0 0 1-.55.37c-.43.26-.89.53-1.36.78a3.57 3.57 0 0 1 .21.9 4.06 4.06 0 0 1-1 .52 7 7 0 0 1-2 .48 6.71 6.71 0 0 1-2 0 4.89 4.89 0 0 1-1.05-.32 3.91 3.91 0 0 1 0-1.08 6.83 6.83 0 0 1 .58-2 7.59 7.59 0 0 1 1.07-1.77A4 4 0 0 1 42 8.1a3.47 3.47 0 0 1 .79.46c.38-.36.76-.71 1.16-1.05.19-.14.36-.29.52-.42-.38-.35-.74-.68-1.1-1a7.54 7.54 0 0 0-1.74-1 8.22 8.22 0 0 0-1.48 1.41 14 14 0 0 0-2 3.3 14.06 14.06 0 0 0-1.09 3.7 7.66 7.66 0 0 0-.06 2 7.77 7.77 0 0 0 2 .58 15.11 15.11 0 0 0 3.86.08 13.53 13.53 0 0 0 3.75-.91 7.56 7.56 0 0 0 1.79-1 7.94 7.94 0 0 0-.47-2Zm9.5-3.85A12 12 0 0 0 57.14 7c-.21.09-.41.17-.62.24-.48.16-1 .31-1.5.45a3.62 3.62 0 0 1 0 .93 4.27 4.27 0 0 1-1.02.3 6.78 6.78 0 0 1-2.06 0 6.43 6.43 0 0 1-2-.47 5.19 5.19 0 0 1-.94-.53 4.25 4.25 0 0 1 .26-1 6.81 6.81 0 0 1 1-1.8 7.77 7.77 0 0 1 1.43-1.49 4.24 4.24 0 0 1 .93-.63 3.34 3.34 0 0 1 .67.63c.44-.27.9-.53 1.36-.77l.6-.3c-.29-.42-.57-.82-.86-1.19A7.74 7.74 0 0 0 52.94 0a7.66 7.66 0 0 0-1.76 1.05 13.79 13.79 0 0 0-2.69 2.76 14.7 14.7 0 0 0-1.89 3.37 8.32 8.32 0 0 0-.51 2 7.81 7.81 0 0 0 1.78 1 14.68 14.68 0 0 0 3.74.95 13.87 13.87 0 0 0 3.86-.13 7.14 7.14 0 0 0 2-.55 8.11 8.11 0 0 0 0-2Zm-3.42 125.4 1.23 2.5 2.76.4-1.99 1.94.47 2.75-2.47-1.3-2.46 1.3.47-2.75-2-1.94 2.76-.4 1.23-2.5zm61.63-3.83 1.23 2.5 2.76.4-2 1.95.47 2.74-2.46-1.29-2.47 1.29.47-2.74-1.99-1.95 2.75-.4 1.24-2.5zm-46.62 8.57 1.23 2.49 2.76.41-2 1.94.47 2.75-2.46-1.3-2.47 1.3.47-2.75-1.99-1.94 2.75-.41 1.24-2.49zm16.03 1.34 1.24 2.5 2.75.4-1.99 1.95.47 2.74-2.47-1.29-2.46 1.29.47-2.74-2-1.95 2.76-.4 1.23-2.5zm16.47-3.22 1.23 2.49 2.76.4-2 1.95.47 2.74-2.46-1.29-2.47 1.29.47-2.74-1.99-1.95 2.75-.4 1.24-2.49z"/>
      <path class="cls-1" d="m46.96 130.03 1.23 2.5 2.76.4-2 1.95.47 2.74-2.46-1.29-2.47 1.29.47-2.74-1.99-1.95 2.76-.4 1.23-2.5zm14.17 6.69 1.23 2.49 2.76.4-2 1.95.47 2.74-2.46-1.29-2.47 1.29.47-2.74-1.99-1.95 2.76-.4 1.23-2.49zm15.7 3.22 1.23 2.5 2.76.4-1.99 1.95.47 2.74-2.47-1.29-2.46 1.29.47-2.74-2-1.95 2.76-.4 1.23-2.5zm16.71-1.34 1.23 2.49 2.76.41-2 1.94.47 2.75-2.46-1.3-2.47 1.3.47-2.75-1.99-1.94 2.76-.41 1.23-2.49zm15.45-4.77 1.24 2.5 2.75.4-1.99 1.94.47 2.75-2.47-1.3-2.46 1.3.47-2.75-2-1.94 2.76-.4 1.23-2.5z"/>
      <path class="cls-2" d="M143.61 90a9.07 9.07 0 0 1 1.43.36 4.53 4.53 0 0 0-.26.6c-.19.47-.36 1-.53 1.48a3.63 3.63 0 0 0-.93 0 4.26 4.26 0 0 0-.33 1 6.86 6.86 0 0 0-.12 2.07 6.62 6.62 0 0 0 .38 2 4.94 4.94 0 0 0 .5 1 4.24 4.24 0 0 0 1.06-.21 7.14 7.14 0 0 0 1.85-.93 7.46 7.46 0 0 0 1.55-1.37 4.24 4.24 0 0 0 .59-.92 3.36 3.36 0 0 0-.6-.7c.29-.44.57-.88.83-1.33l.32-.59c.41.31.8.61 1.15.92a7.51 7.51 0 0 1 1.35 1.52 8.11 8.11 0 0 1-1.13 1.7 13.54 13.54 0 0 1-2.89 2.56 14.48 14.48 0 0 1-3.45 1.73 8.4 8.4 0 0 1-2 .42 7.63 7.63 0 0 1-.91-1.83 14.77 14.77 0 0 1-.77-3.78 13.45 13.45 0 0 1 .23-3.85 7.37 7.37 0 0 1 .64-1.94 7.68 7.68 0 0 1 2 .12Z"/>
      <path class="cls-2" d="M146.16 80.79a12.14 12.14 0 0 1 1.47.12 4.61 4.61 0 0 0-.16.64c-.1.49-.19 1-.26 1.54a3.57 3.57 0 0 0-.92.12 4.34 4.34 0 0 0-.16 1.08 7.1 7.1 0 0 0 .24 2 6.66 6.66 0 0 0 .72 1.92 5.11 5.11 0 0 0 .66.87 4.59 4.59 0 0 0 1-.39 6.89 6.89 0 0 0 1.65-1.23 7.41 7.41 0 0 0 1.3-1.61 3.66 3.66 0 0 0 .42-1 3 3 0 0 0-.7-.59c.21-.48.41-1 .59-1.45.07-.23.15-.43.22-.63.45.23.88.46 1.28.7a7.52 7.52 0 0 1 1.59 1.27 8.23 8.23 0 0 1-.82 1.87 14 14 0 0 1-2.41 3 14.27 14.27 0 0 1-3.11 2.29 8 8 0 0 1-1.88.75 7.52 7.52 0 0 1-1.22-1.64 14.86 14.86 0 0 1-1.4-3.6 13.74 13.74 0 0 1-.43-3.83 6.86 6.86 0 0 1 .3-2 8.08 8.08 0 0 1 2-.23Z"/>
      <path class="cls-2" d="M147.25 70.9a12.12 12.12 0 0 1 1.47-.11 4.89 4.89 0 0 0-.05.66v1.57a3.36 3.36 0 0 0-.89.25 4 4 0 0 0 0 1.09 6.83 6.83 0 0 0 .54 2 6.26 6.26 0 0 0 1 1.79 5.75 5.75 0 0 0 .78.78 4.59 4.59 0 0 0 .94-.54 7 7 0 0 0 1.46-1.47 7.58 7.58 0 0 0 1.05-1.78 3.78 3.78 0 0 0 .27-1 3 3 0 0 0-.79-.48c.14-.5.27-1 .38-1.52 0-.24.08-.45.12-.66.48.17.94.33 1.37.51a7.55 7.55 0 0 1 1.76 1 8.33 8.33 0 0 1-.54 2 13.94 13.94 0 0 1-1.94 3.34A14.41 14.41 0 0 1 151.4 81a8.33 8.33 0 0 1-1.76 1 8.23 8.23 0 0 1-1.44-1.45 14.44 14.44 0 0 1-1.91-3.35 13.47 13.47 0 0 1-1-3.73 7.74 7.74 0 0 1 0-2 7.91 7.91 0 0 1 2-.53Z"/>
      <path class="cls-2" d="M147.06 60.74a10.34 10.34 0 0 1 1.45-.29 4.86 4.86 0 0 0 0 .66c0 .5.09 1 .16 1.55a3.78 3.78 0 0 0-.85.37 4.38 4.38 0 0 0 .14 1.08 6.91 6.91 0 0 0 .8 1.9 6.16 6.16 0 0 0 1.24 1.65 5.6 5.6 0 0 0 .87.67 4.74 4.74 0 0 0 .87-.66A7 7 0 0 0 153 66a7.58 7.58 0 0 0 .8-1.9 3.56 3.56 0 0 0 .13-1.08 3.16 3.16 0 0 0-.84-.37q.12-.78.18-1.56v-.67c.5.11 1 .21 1.44.33a7.67 7.67 0 0 1 1.87.79 8.13 8.13 0 0 1-.28 2 13.6 13.6 0 0 1-1.5 3.56 14.24 14.24 0 0 1-2.35 3.06 8.69 8.69 0 0 1-1.61 1.23 7.83 7.83 0 0 1-1.62-1.24 14.86 14.86 0 0 1-2.33-3.08 13.58 13.58 0 0 1-1.47-3.57 7.27 7.27 0 0 1-.26-2 7.94 7.94 0 0 1 1.88-.78Zm-2.13-10.28a11.54 11.54 0 0 1 1.38-.53 4.69 4.69 0 0 0 .14.65c.12.49.26 1 .41 1.51a3.57 3.57 0 0 0-.78.5 4.18 4.18 0 0 0 .32 1 6.63 6.63 0 0 0 1.1 1.75 6.2 6.2 0 0 0 1.5 1.47 4.74 4.74 0 0 0 1 .51 4.33 4.33 0 0 0 .75-.79 6.92 6.92 0 0 0 1-1.82 7.7 7.7 0 0 0 .49-2 4 4 0 0 0 0-1.09 3 3 0 0 0-.89-.23c0-.52 0-1-.08-1.56 0-.24-.05-.46-.08-.67.51 0 1 0 1.47.09a7.36 7.36 0 0 1 2 .47 7.75 7.75 0 0 1 .06 2 13.93 13.93 0 0 1-.89 3.76 14.68 14.68 0 0 1-1.83 3.4 8.47 8.47 0 0 1-1.39 1.48 7.83 7.83 0 0 1-1.8-1 15.28 15.28 0 0 1-2.8-2.65 13.71 13.71 0 0 1-2-3.28 7.91 7.91 0 0 1-.59-2 7.92 7.92 0 0 1 1.73-1.07Z"/>
      <path class="cls-2" d="M141.38 40.9a10.2 10.2 0 0 1 1.28-.75 4.62 4.62 0 0 0 .23.62c.2.46.43.95.66 1.42a4.08 4.08 0 0 0-.69.62 4.09 4.09 0 0 0 .49 1 6.92 6.92 0 0 0 1.36 1.55 6.5 6.5 0 0 0 1.68 1.17 5.53 5.53 0 0 0 1 .35A4.92 4.92 0 0 0 148 46a7.19 7.19 0 0 0 .66-2 7.52 7.52 0 0 0 .16-2.06 4.45 4.45 0 0 0-.23-1.07 3.54 3.54 0 0 0-.92-.08c-.09-.51-.2-1-.33-1.52-.07-.23-.13-.45-.18-.65.5-.06 1-.12 1.46-.15a7.19 7.19 0 0 1 2 .14 7.62 7.62 0 0 1 .39 2 13.84 13.84 0 0 1-.27 3.85 14.33 14.33 0 0 1-1.25 3.65 8.26 8.26 0 0 1-1.12 1.69 8.38 8.38 0 0 1-1.94-.66A15.31 15.31 0 0 1 143.3 47a13.8 13.8 0 0 1-2.54-2.91 7.41 7.41 0 0 1-.9-1.83 7.83 7.83 0 0 1 1.53-1.34Z"/>
      <path class="cls-2" d="M136.26 32.17a11.54 11.54 0 0 1 1.12-1 5.36 5.36 0 0 0 .34.57c.28.41.59.85.9 1.27a4.06 4.06 0 0 0-.57.74 4.34 4.34 0 0 0 .66.87 6.68 6.68 0 0 0 1.62 1.28 6.4 6.4 0 0 0 1.86.85 5 5 0 0 0 1.09.16 4.44 4.44 0 0 0 .43-1 7 7 0 0 0 .3-2 7.45 7.45 0 0 0-.21-2 3.72 3.72 0 0 0-.42-1 3.12 3.12 0 0 0-.91.08q-.28-.72-.6-1.44c-.12-.21-.21-.41-.3-.6.49-.16 1-.3 1.41-.41a7.24 7.24 0 0 1 2-.22 8.42 8.42 0 0 1 .74 1.9 13.76 13.76 0 0 1 .42 3.84 14.06 14.06 0 0 1-.57 3.81 8.57 8.57 0 0 1-.8 1.87 8 8 0 0 1-2-.31 14.87 14.87 0 0 1-3.54-1.55 14 14 0 0 1-3-2.41 7.81 7.81 0 0 1-1.23-1.7 8.4 8.4 0 0 1 1.26-1.59Z"/>
      <path class="cls-2" d="M130 24.82a10.16 10.16 0 0 1 .94-1.14c.13.17.28.34.43.5.35.36.73.74 1.11 1.1a3.82 3.82 0 0 0-.44.82 4.05 4.05 0 0 0 .8.75 6.93 6.93 0 0 0 1.81 1 6.5 6.5 0 0 0 2 .51 5 5 0 0 0 1.1 0 4.75 4.75 0 0 0 .26-1.05 8.09 8.09 0 0 0-.62-4.05 3.85 3.85 0 0 0-.58-.92 3.16 3.16 0 0 0-.89.23c-.26-.44-.54-.88-.83-1.31-.16-.19-.28-.38-.4-.55.45-.23.89-.45 1.32-.64a7.4 7.4 0 0 1 1.95-.57 8.21 8.21 0 0 1 1.04 1.71 14.11 14.11 0 0 1 1.08 3.71 14.67 14.67 0 0 1 .09 3.86 8.34 8.34 0 0 1-.48 2 7.74 7.74 0 0 1-2 .05 15.07 15.07 0 0 1-3.74-.93 13.44 13.44 0 0 1-3.41-1.9 7.61 7.61 0 0 1-1.48-1.41 7.91 7.91 0 0 1 1-1.78Z"/>
      <path class="cls-2" d="M123 18a10 10 0 0 1 .81-1.23 5.12 5.12 0 0 0 .49.44c.38.33.8.66 1.22 1a3.76 3.76 0 0 0-.34.86 4.25 4.25 0 0 0 .87.66 7 7 0 0 0 1.92.77 6 6 0 0 0 2 .29 5 5 0 0 0 1.09-.15 4.3 4.3 0 0 0 .14-1.07 7.4 7.4 0 0 0-.28-2.05 7.78 7.78 0 0 0-.79-1.91 3.69 3.69 0 0 0-.68-.85 3.26 3.26 0 0 0-.85.33c-.32-.41-.64-.82-1-1.21-.17-.17-.31-.34-.46-.5.43-.28.84-.55 1.24-.79a7.94 7.94 0 0 1 1.88-.78 8.1 8.1 0 0 1 1.24 1.62A13.75 13.75 0 0 1 133 17a14.08 14.08 0 0 1 .52 3.82 8.1 8.1 0 0 1-.25 2 7.68 7.68 0 0 1-2 .27 15 15 0 0 1-3.83-.5 14 14 0 0 1-3.57-1.46 7.57 7.57 0 0 1-1.62-1.24A7.88 7.88 0 0 1 123 18Z"/>
      <path class="cls-2" d="M114.38 12.31A10.17 10.17 0 0 1 115 11a4.07 4.07 0 0 0 .55.37c.43.26.89.53 1.35.78a4 4 0 0 0-.2.9 4.06 4.06 0 0 0 1 .52 6.94 6.94 0 0 0 2 .48 6.71 6.71 0 0 0 2 0 4.89 4.89 0 0 0 1.05-.32 4.88 4.88 0 0 0 0-1.08 7.18 7.18 0 0 0-.59-2 7.56 7.56 0 0 0-1.06-1.77 4 4 0 0 0-.8-.74 3.54 3.54 0 0 0-.8.46c-.37-.36-.76-.71-1.15-1.05-.19-.14-.36-.29-.52-.42.37-.35.74-.68 1.1-1a7.33 7.33 0 0 1 1.74-1 8.17 8.17 0 0 1 1.47 1.41 14.08 14.08 0 0 1 2 3.3 14.45 14.45 0 0 1 1.09 3.7 8.61 8.61 0 0 1 .06 2 8 8 0 0 1-2 .58 15.12 15.12 0 0 1-3.86.08 13.45 13.45 0 0 1-3.75-.91 7.63 7.63 0 0 1-1.8-1 8.42 8.42 0 0 1 .48-2Zm-9.5-3.85a10.34 10.34 0 0 1 .29-1.46 6.62 6.62 0 0 0 .62.24c.48.16 1 .31 1.49.45a4.13 4.13 0 0 0 0 .93 4.31 4.31 0 0 0 1 .29 6.84 6.84 0 0 0 2.07 0 6.57 6.57 0 0 0 2-.47 6 6 0 0 0 .95-.54 4.77 4.77 0 0 0-.27-1 7.06 7.06 0 0 0-1-1.8 7.53 7.53 0 0 0-1.44-1.49 4 4 0 0 0-.94-.54 3.34 3.34 0 0 0-.67.63c-.45-.27-.9-.53-1.36-.77l-.61-.3c.29-.42.58-.82.86-1.19a7.5 7.5 0 0 1 1.5-1.44 7.39 7.39 0 0 1 1.75 1.05 13.84 13.84 0 0 1 2.7 2.76 15.09 15.09 0 0 1 1.89 3.37 8.32 8.32 0 0 1 .51 2 7.81 7.81 0 0 1-1.78 1 14.65 14.65 0 0 1-3.75.95 13.87 13.87 0 0 1-3.86-.05 7.07 7.07 0 0 1-2-.55 8.11 8.11 0 0 1 0-2Z"/>
      <path class="cls-4" d="M41.68 131.79a134.22 134.22 0 0 1-21.87 1.62A134.52 134.52 0 0 1 0 131.79V108a131.55 131.55 0 0 0 20.19 1.65A132.35 132.35 0 0 0 41.68 108Z"/>
      <path class="cls-5" d="M41.52 131.79a30.82 30.82 0 0 1-15.63-5.95 23.25 23.25 0 0 1-2.23-2l9.28 1 8.58.93Z"/>
      <path class="cls-4" d="M162.59 131.81a136.63 136.63 0 0 1-20.64 1.6 136.47 136.47 0 0 1-21-1.6V108a131.87 131.87 0 0 0 21.23 1.64 132.2 132.2 0 0 0 20.41-1.64Z"/>
      <path class="cls-1" d="M136.79 123.87a405.14 405.14 0 0 1-55.57 4 405.55 405.55 0 0 1-57.56-4v-23.82a405.55 405.55 0 0 0 57.56 4 405.14 405.14 0 0 0 55.57-4Z"/>
      <path class="cls-5" d="M120.91 131.81a25.65 25.65 0 0 0 13.9-6 23.11 23.11 0 0 0 2-2l-8.25 1-7.63.92Z"/>
      <path class="cls-3" d="M57 111.67 54.38 113l.14-2.55 4-2h1l-.71 13.13-2.36-.13Zm5.48 8.49a10.41 10.41 0 0 1 .3-9.89 4.52 4.52 0 0 1 7.17.22 10.34 10.34 0 0 1-.3 9.89 4.5 4.5 0 0 1-7.17-.22Zm6.25-4.75q.13-4.55-2.37-4.62c-1.68-.05-2.56 1.43-2.66 4.46s.7 4.57 2.38 4.62 2.56-1.44 2.65-4.46Zm13.67-.69-3.78 10.34h-1.75l1.25-3.48-2.67-6.86h1.83l1.72 4.53 1.63-4.53Zm7.32 4.12-5.08.1a2 2 0 0 0 .61 1.23 1.63 1.63 0 0 0 1.18.4 1.81 1.81 0 0 0 1-.3 2.5 2.5 0 0 0 .74-.87l1.47.51a3.31 3.31 0 0 1-3.3 2.21 3.23 3.23 0 0 1-3.2-1.93 4.51 4.51 0 0 1-.07-3.6 3.25 3.25 0 0 1 1.14-1.46 3.42 3.42 0 0 1 2-.6 3.2 3.2 0 0 1 1.94.51 3.24 3.24 0 0 1 1.16 1.36 4.07 4.07 0 0 1 .4 1.7Zm-1.88-1.39a1.92 1.92 0 0 0-.54-1 1.38 1.38 0 0 0-1.06-.37 1.48 1.48 0 0 0-1 .38 1.92 1.92 0 0 0-.58 1.05Zm3.69 3.96a2.15 2.15 0 0 1-.69-1.62 2.12 2.12 0 0 1 .76-1.79 3.5 3.5 0 0 1 2.22-.74l1.29-.05v-.32a.94.94 0 0 0-.39-.8 1.47 1.47 0 0 0-.93-.23 1.23 1.23 0 0 0-1.24.89l-1.55-.29a2.38 2.38 0 0 1 .89-1.52 3.09 3.09 0 0 1 1.84-.63A3.14 3.14 0 0 1 96 115a3.07 3.07 0 0 1 .9 2.27l.17 4.39-1.49.06-.22-.93a2.81 2.81 0 0 1-2.22 1.14 2.26 2.26 0 0 1-1.61-.52Zm3.18-1.51a1.36 1.36 0 0 0 .46-1.12v-.14h-1.21a1.67 1.67 0 0 0-.96.36.84.84 0 0 0-.3.73.63.63 0 0 0 .25.51.86.86 0 0 0 .6.17 1.69 1.69 0 0 0 1.16-.51Zm3.76-5.68 1.8-.1.07 1.19a2.91 2.91 0 0 1 .91-1 2.27 2.27 0 0 1 1.19-.41 2.92 2.92 0 0 1 .9.09l-.24 1.7a1.45 1.45 0 0 0-.77-.16 1.66 1.66 0 0 0-1.37.86 4.31 4.31 0 0 0-.42 2.48l.15 2.61-1.81.11Zm6.61 6.51a2.79 2.79 0 0 1-1.08-1.33l1.39-.87a2.1 2.1 0 0 0 .64.85 1.35 1.35 0 0 0 .9.26 1 1 0 0 0 .59-.23.65.65 0 0 0 .21-.55.72.72 0 0 0-.42-.55 7.41 7.41 0 0 0-1.18-.45 3.36 3.36 0 0 1-1.35-.75 2 2 0 0 1-.32-2.33 2.06 2.06 0 0 1 .77-.81 2.6 2.6 0 0 1 1.17-.36 3 3 0 0 1 1.38.22 2.31 2.31 0 0 1 1 .81l-1 1.07a1.36 1.36 0 0 0-1.22-.56.92.92 0 0 0-.5.19.49.49 0 0 0-.18.42.62.62 0 0 0 .34.46 5.64 5.64 0 0 0 1.23.47 3.3 3.3 0 0 1 1.39.7 1.77 1.77 0 0 1 .55 1.24 2.25 2.25 0 0 1-.57 1.77 2.55 2.55 0 0 1-1.76.78 3.12 3.12 0 0 1-1.98-.45Z"/>
    </g>
  </g>
</svg>
