<?xml version="1.0" encoding="UTF-8"?>
<svg width="203px" height="794px" viewBox="0 0 203 794" version="1.1" xmlns="http://www.w3.org/2000/svg" xmlns:xlink="http://www.w3.org/1999/xlink">
    <!-- Generator: Sketch 51.1 (57501) - http://www.bohemiancoding.com/sketch -->
    <title>temporary-curly-bracket</title>
    <desc>Created with Sketch.</desc>
    <defs></defs>
    <g id="Page-1" stroke="none" stroke-width="1" fill="none" fill-rule="evenodd">
        <g id="temporary-curly-bracket" fill="#FFFED9" fill-rule="nonzero">
            <path d="M143.574786,482.849614 C143.574786,497.375848 144.731469,511.756605 147.044871,525.992315 C149.358274,540.228024 151.888519,554.53615 154.635683,568.91712 C157.382848,583.298093 159.913094,597.678848 162.226496,612.059821 C164.539897,626.440794 165.696581,641.184702 165.696581,656.291985 C165.696581,676.338189 162.660287,694.786228 156.587607,711.636662 C150.514927,728.487095 141.550629,743.01311 129.694444,755.215148 C117.838259,767.417185 103.018251,776.931724 85.2339744,783.759056 C67.4496972,790.586382 46.7016855,794 22.9893162,794 L0,794 L0,759.137211 C0,753.326715 2.02419627,749.114171 6.07264954,746.49945 C10.1211029,743.884724 13.8803245,742.577387 17.3504273,742.577387 L26.025641,742.577387 C48.292134,742.577387 65.8592662,735.314376 78.7275641,720.788144 C91.595862,706.261911 98.0299143,686.361268 98.0299143,661.085618 C98.0299143,644.816235 97.0178162,629.128136 94.9935894,614.020853 C92.9693627,598.91357 90.6559959,584.169663 88.0534189,569.78869 C85.4508415,555.40772 83.1374746,541.099594 81.1132479,526.863884 C79.0890211,512.628174 78.076923,498.247418 78.076923,483.721184 C78.076923,472.971771 79.667363,462.948819 82.8482906,453.65203 C86.0292183,444.355239 90.5836595,435.93015 96.5117519,428.376508 C102.439844,420.822866 109.379946,414.358789 117.332265,408.984082 C125.284584,403.609376 134.032003,399.614721 143.574786,396.999998 C134.032003,394.385277 125.284584,390.390622 117.332265,385.015915 C109.379946,379.641209 102.439844,373.249762 96.5117519,365.841382 C90.5836595,358.433002 86.0292183,350.007913 82.8482906,340.56586 C79.667363,331.123809 78.076923,320.882967 78.076923,309.843029 C78.076923,295.316795 79.0890211,280.936038 81.1132479,266.700328 C83.1374746,252.464619 85.4508415,238.156493 88.0534189,223.775521 C90.6559959,209.394549 92.9693627,194.650642 94.9935894,179.543358 C97.0178162,164.436075 98.0299143,148.747977 98.0299143,132.478595 C98.0299143,107.493471 91.595862,87.6654589 78.7275641,72.9939625 C65.8592662,58.3224657 48.292134,50.9868275 26.025641,50.9868275 L17.3504273,50.9868275 C13.8803245,50.9868275 10.1211029,49.679486 6.07264954,47.0647638 C2.02419627,44.4500417 0,40.2374969 0,34.4270032 L0,0 L22.9893162,0 C46.7016855,0 67.4496972,3.34098378 85.2339744,10.0230515 C103.018251,16.7051193 117.838259,26.14703 129.694444,38.3490668 C141.550629,50.5511037 150.514927,65.0771198 156.587607,81.9275522 C162.660287,98.7779839 165.696581,117.226025 165.696581,137.272228 C165.696581,152.379512 164.539897,167.196048 162.226496,181.722283 C159.913094,196.248517 157.382848,210.629273 154.635683,224.864983 C151.888519,239.100692 149.358274,253.336188 147.044871,267.571898 C144.731469,281.807608 143.574786,296.188364 143.574786,310.714599 C143.574786,329.308178 148.635277,344.415236 158.75641,356.036223 C168.877543,367.65721 183.625259,373.467617 203,373.467617 L203,420.096596 C183.625259,420.096596 168.877543,425.979632 158.75641,437.745882 C148.635277,449.512132 143.574786,464.546559 143.574786,482.849614 Z" id="}"></path>
        </g>
    </g>
</svg>