<?xml version="1.0" encoding="UTF-8"?>
<svg width="38px" height="143px" viewBox="0 0 38 143" version="1.1" xmlns="http://www.w3.org/2000/svg" xmlns:xlink="http://www.w3.org/1999/xlink">
  <title>}</title>
  <path d="M26.7238994,86.8075006 C26.7238994,89.4108469 26.9321639,91.9881211 27.3486993,94.5394005 C27.7652348,97.0906799 28.2208135,99.6549375 28.7154493,102.23225 C29.2100851,104.809563 29.6656639,107.386837 30.0821993,109.96415 C30.4987347,112.541463 30.7069993,115.18382 30.7069993,117.8913 C30.7069993,121.483918 30.1603048,124.790118 29.0668993,127.81 C27.9734939,130.829882 26.3594434,133.433189 24.2246994,135.62 C22.0899554,137.806811 19.4215655,139.511977 16.2194496,140.73555 C13.0173336,141.959122 9.28158772,142.5709 5.01209978,142.5709 L0.872799866,142.5709 L0.872799866,136.3229 C0.872799866,135.281561 1.23726288,134.526602 1.96619984,134.058 C2.69513681,133.589397 3.37199669,133.3551 3.9967998,133.3551 L5.55879977,133.3551 C9.56795307,133.3551 12.7309714,132.053446 15.0479496,129.4501 C17.3649278,126.846754 18.5233995,123.280223 18.5233995,118.7504 C18.5233995,115.834652 18.341168,113.02308 17.9766995,110.3156 C17.612231,107.60812 17.1957019,104.965763 16.7270996,102.38845 C16.2584972,99.8111375 15.8419681,97.2468799 15.4774996,94.6956005 C15.1130311,92.1443211 14.9307996,89.5670469 14.9307996,86.9637006 C14.9307996,85.0372244 15.2171634,83.2409424 15.7898996,81.5748008 C16.3626358,79.9086591 17.1826775,78.3987409 18.2500495,77.0450008 C19.3174215,75.6912608 20.567009,74.532789 21.9988495,73.5695509 C23.4306899,72.6063128 25.0056908,71.8904033 26.7238994,71.4218009 C25.0056908,70.9531986 23.4306899,70.2372891 21.9988495,69.274051 C20.567009,68.3108129 19.3174215,67.1653577 18.2500495,65.8376511 C17.1826775,64.5099444 16.3626358,63.0000262 15.7898996,61.3078511 C15.2171634,59.6156761 14.9307996,57.7803444 14.9307996,55.8018013 C14.9307996,53.198455 15.1130311,50.6211808 15.4774996,48.0699014 C15.8419681,45.518622 16.2584972,42.9543644 16.7270996,40.3770516 C17.1957019,37.7997387 17.612231,35.1573819 17.9766995,32.4499017 C18.341168,29.7424216 18.5233995,26.9308497 18.5233995,24.0151019 C18.5233995,19.5373462 17.3649278,15.9838318 15.0479496,13.3544521 C12.7309714,10.7250723 9.56795307,9.41040216 5.55879977,9.41040216 L3.9967998,9.41040216 C3.37199669,9.41040216 2.69513681,9.17610451 1.96619984,8.70750217 C1.23726288,8.23889984 0.872799866,7.48394074 0.872799866,6.44260222 L0.872799866,0.272702339 L5.01209978,0.272702339 C9.28158772,0.272702339 13.0173336,0.871463006 16.2194496,2.0690023 C19.4215655,3.2665416 22.0899554,4.95869131 24.2246994,7.1455022 C26.3594434,9.3323131 27.9734939,11.9356203 29.0668993,14.9555021 C30.1603048,17.9753838 30.7069993,21.281584 30.7069993,24.8742019 C30.7069993,27.581682 30.4987347,30.2370554 30.0821993,32.8404017 C29.6656639,35.443748 29.2100851,38.0210222 28.7154493,40.5723016 C28.2208135,43.1235809 27.7652348,45.674822 27.3486993,48.2261014 C26.9321639,50.7773808 26.7238994,53.354655 26.7238994,55.9580013 C26.7238994,59.2902845 27.6350569,61.9977241 29.4573993,64.0804011 C31.2797417,66.1630781 33.9351151,67.204401 37.4235992,67.204401 L37.4235992,75.5611009 C33.9351151,75.5611009 31.2797417,76.6154403 29.4573993,78.7241508 C27.6350569,80.8328613 26.7238994,83.5272843 26.7238994,86.8075006 Z" id="}" fill="#FFFED9"></path>
</svg>
